<svg width="2551" height="1994" xmlns="http://www.w3.org/2000/svg" xmlns:xlink="http://www.w3.org/1999/xlink" xml:space="preserve" overflow="hidden"><g transform="translate(3 -243)"><path d="M0 0 282.178 259.901" stroke="#000000" stroke-width="4.58333" stroke-miterlimit="8" fill="none" fill-rule="evenodd" transform="matrix(1 0 0 -1 502.5 1065.4)"/><path d="M1500.5 1768.5 1750.55 2057.6" stroke="#000000" stroke-width="4.58333" stroke-miterlimit="8" fill="none" fill-rule="evenodd"/><path d="M150.5 1064.5 501.895 1066.01" stroke="#000000" stroke-width="4.58333" stroke-miterlimit="8" fill="none" fill-rule="evenodd"/><path d="M119 1027.5C136.95 1027.5 151.5 1042.27 151.5 1060.5 151.5 1078.73 136.95 1093.5 119 1093.5 101.051 1093.5 86.5003 1078.73 86.5003 1060.5 86.5003 1042.27 101.051 1027.5 119 1027.5Z" stroke="#000000" stroke-width="4.58333" stroke-miterlimit="8" fill="#F2F2F2" fill-rule="evenodd"/><path d="M500.5 1066.5 795.182 1328.82" stroke="#000000" stroke-width="4.58333" stroke-miterlimit="8" fill="none" fill-rule="evenodd"/><path d="M1493.5 1751.5 1625.77 2085.85" stroke="#000000" stroke-width="4.58333" stroke-miterlimit="8" fill="none" fill-rule="evenodd"/><path d="M1919.5 861.5C1936.62 861.5 1950.5 875.379 1950.5 892.5 1950.5 909.621 1936.62 923.5 1919.5 923.5 1902.38 923.5 1888.5 909.621 1888.5 892.5 1888.5 875.379 1902.38 861.5 1919.5 861.5Z" stroke="#000000" stroke-width="4.58333" stroke-miterlimit="8" fill="#0C30F7" fill-rule="evenodd"/><path d="M1863 1961.5C1880.4 1961.5 1894.5 1976.27 1894.5 1994.5 1894.5 2012.73 1880.4 2027.5 1863 2027.5 1845.6 2027.5 1831.5 2012.73 1831.5 1994.5 1831.5 1976.27 1845.6 1961.5 1863 1961.5Z" stroke="#000000" stroke-width="4.58333" stroke-miterlimit="8" fill="#00FFEE" fill-rule="evenodd"/><path d="M1767.5 2052.5C1785.17 2052.5 1799.5 2067.27 1799.5 2085.5 1799.5 2103.73 1785.17 2118.5 1767.5 2118.5 1749.83 2118.5 1735.5 2103.73 1735.5 2085.5 1735.5 2067.27 1749.83 2052.5 1767.5 2052.5Z" stroke="#000000" stroke-width="4.58333" stroke-miterlimit="8" fill="#FC0882" fill-rule="evenodd"/><text font-family="Calibri,Calibri_MSFontService,sans-serif" font-weight="400" font-size="46" transform="matrix(-1.83697e-16 -1 1 -1.83697e-16 1929.91 2134)">Seq 17</text><text font-family="Calibri,Calibri_MSFontService,sans-serif" font-weight="400" font-size="46" transform="matrix(-1.83697e-16 -1 1 -1.83697e-16 56.4452 1104)">naive</text><path d="M0 0 370.399 24.3256" stroke="#000000" stroke-width="4.58333" stroke-miterlimit="8" fill="none" fill-rule="evenodd" transform="matrix(1 0 0 -1 1507.5 1782.83)"/><path d="M867.5 1372.5 1200.61 1703.07" stroke="#000000" stroke-width="4.58333" stroke-miterlimit="8" fill="none" fill-rule="evenodd"/><path d="M1521.5 1787.5 1829.84 1988.77" stroke="#000000" stroke-width="4.58333" stroke-miterlimit="8" fill="none" fill-rule="evenodd"/><path d="M0 0 362.481 88.8369" stroke="#000000" stroke-width="4.58333" stroke-miterlimit="8" fill="none" fill-rule="evenodd" transform="matrix(1 0 0 -1 1396.5 1266.34)"/><path d="M1782.29 1326.48C1796.25 1337.79 1798.28 1358.43 1786.81 1372.6 1775.34 1386.76 1754.72 1389.08 1740.76 1377.77 1726.79 1366.46 1724.77 1345.82 1736.24 1331.65 1747.71 1317.49 1768.33 1315.17 1782.29 1326.48Z" stroke="#000000" stroke-width="4.58333" stroke-miterlimit="8" fill="#07D3F7" fill-rule="evenodd"/><text font-family="Calibri,Calibri_MSFontService,sans-serif" font-weight="400" font-size="46" transform="matrix(-1.83697e-16 -1 1 -1.83697e-16 1843.03 1416)">Seq 10</text><text font-family="Calibri,Calibri_MSFontService,sans-serif" font-weight="400" font-size="46" transform="matrix(-1.83697e-16 -1 1 -1.83697e-16 1422.65 1194)">Seq 8</text><text font-family="Calibri,Calibri_MSFontService,sans-serif" font-weight="400" font-size="46" transform="matrix(-1.83697e-16 -1 1 -1.83697e-16 1994.06 946)">Seq 7</text><text font-family="Calibri,Calibri_MSFontService,sans-serif" font-weight="400" font-size="46" transform="matrix(-1.83697e-16 -1 1 -1.83697e-16 1842.99 2174)">Seq 18</text><text font-family="Calibri,Calibri_MSFontService,sans-serif" font-weight="400" font-size="46" transform="matrix(-1.83697e-16 -1 1 -1.83697e-16 1978.82 1830)">Seq 15</text><text font-family="Calibri,Calibri_MSFontService,sans-serif" font-weight="400" font-size="46" transform="matrix(-1.83697e-16 -1 1 -1.83697e-16 1879.48 1213)">Seq 9</text><text font-family="Calibri,Calibri_MSFontService,sans-serif" font-weight="400" font-size="46" transform="matrix(-1.83697e-16 -1 1 -1.83697e-16 2507.82 1398)">Seq 13</text><text font-family="Calibri,Calibri_MSFontService,sans-serif" font-weight="400" font-size="46" transform="matrix(-1.83697e-16 -1 1 -1.83697e-16 1159.17 1830)">Seq 12</text><text font-family="Calibri,Calibri_MSFontService,sans-serif" font-weight="400" font-size="46" transform="matrix(-1.83697e-16 -1 1 -1.83697e-16 1961.57 1691)">Seq 14</text><path d="M904.5 771.5 1226.64 878.246" stroke="#000000" stroke-width="4.58333" stroke-miterlimit="8" fill="none" fill-rule="evenodd"/><path d="M0 0 695.55 295.922" stroke="#000000" stroke-width="4.58333" stroke-miterlimit="8" fill="none" fill-rule="evenodd" transform="matrix(1 0 0 -1 861.5 781.422)"/><path d="M0 65.5476C-8.40266e-15 29.3467 29.5491-8.34509e-15 65.9998-1.66902e-14 102.451-3.33803e-14 132 29.3467 132 65.5476 132 101.749 102.451 131.095 65.9998 131.095 29.5491 131.095-4.20133e-14 101.749 0 65.5476Z" stroke="#000000" stroke-width="4.58333" stroke-miterlimit="8" fill="#002060" fill-rule="evenodd" transform="matrix(-0.866025 -0.5 -0.5 0.866025 1376.45 874.026)"/><path d="M0 50.3286C-6.4075e-15 22.5329 22.5329-6.4075e-15 50.3286-1.2815e-14 78.1243-2.563e-14 100.657 22.5329 100.657 50.3286 100.657 78.1243 78.1243 100.657 50.3286 100.657 22.5329 100.657-3.20375e-14 78.1243 0 50.3286Z" stroke="#000000" stroke-width="4.58333" stroke-miterlimit="8" fill="#FFFF00" fill-rule="evenodd" transform="matrix(0.052336 -0.99863 -0.99863 -0.052336 1641.48 524.778)"/><text font-family="Calibri,Calibri_MSFontService,sans-serif" font-weight="400" font-size="46" transform="matrix(-1.83697e-16 -1 1 -1.83697e-16 1392.27 997)">Seq 2</text><text font-family="Calibri,Calibri_MSFontService,sans-serif" font-weight="400" font-size="46" transform="matrix(-1.83697e-16 -1 1 -1.83697e-16 1609.4 859)">Seq 4</text><text font-family="Calibri,Calibri_MSFontService,sans-serif" font-weight="400" font-size="46" transform="matrix(-1.83697e-16 -1 1 -1.83697e-16 1682.33 435)">Seq 3</text><text font-family="Calibri,Calibri_MSFontService,sans-serif" font-weight="400" font-size="46" transform="matrix(-1.83697e-16 -1 1 -1.83697e-16 2025.14 597)">Seq 5</text><text font-family="Calibri,Calibri_MSFontService,sans-serif" font-weight="400" font-size="46" transform="matrix(-1.83697e-16 -1 1 -1.83697e-16 893.205 699)">Seq 1</text><path d="M0 32C-4.13768e-15 14.3269 14.5507-4.07402e-15 32.5-8.14805e-15 50.4492-1.62961e-14 65 14.3269 65 32 65 49.6731 50.4492 63.9999 32.5 63.9999 14.5507 63.9999-2.06884e-14 49.6731 0 32Z" stroke="#000000" stroke-width="4.58333" stroke-miterlimit="8" fill="#CCFFFF" fill-rule="evenodd" transform="matrix(-6.12323e-17 -1 -1 6.12323e-17 1976.5 589.5)"/><path d="M0 0 824.967 427.955" stroke="#000000" stroke-width="4.58333" stroke-miterlimit="8" fill="none" fill-rule="evenodd" transform="matrix(1 0 0 -1 1458.5 1798.45)"/><path d="M2359.5 1274.5C2405.34 1274.5 2442.5 1311.21 2442.5 1356.5 2442.5 1401.79 2405.34 1438.5 2359.5 1438.5 2313.66 1438.5 2276.5 1401.79 2276.5 1356.5 2276.5 1311.21 2313.66 1274.5 2359.5 1274.5Z" stroke="#000000" stroke-width="4.58333" stroke-miterlimit="8" fill="#7030A0" fill-rule="evenodd"/><path d="M1904 1727.5C1921.95 1727.5 1936.5 1741.38 1936.5 1758.5 1936.5 1775.62 1921.95 1789.5 1904 1789.5 1886.05 1789.5 1871.5 1775.62 1871.5 1758.5 1871.5 1741.38 1886.05 1727.5 1904 1727.5Z" stroke="#000000" stroke-width="4.58333" stroke-miterlimit="8" fill="#DAFA0A" fill-rule="evenodd"/><path d="M1809.1 1153.5C1823.2 1164.92 1825.38 1185.61 1813.96 1199.72 1802.54 1213.82 1781.84 1215.99 1767.74 1204.57 1753.63 1193.15 1751.46 1172.46 1762.88 1158.36 1774.3 1144.25 1794.99 1142.08 1809.1 1153.5Z" stroke="#000000" stroke-width="4.58333" stroke-miterlimit="8" fill="#FFF2CC" fill-rule="evenodd"/><path d="M1517.5 1782.5 1872.45 1878.25" stroke="#000000" stroke-width="4.58333" stroke-miterlimit="8" fill="none" fill-rule="evenodd"/><path d="M1919.5 1648.5C1919.5 1665.62 1905.62 1679.5 1888.5 1679.5 1871.38 1679.5 1857.5 1665.62 1857.5 1648.5 1857.5 1631.38 1871.38 1617.5 1888.5 1617.5 1905.62 1617.5 1919.5 1631.38 1919.5 1648.5Z" stroke="#000000" stroke-width="4.58333" stroke-miterlimit="8" fill="#A9D18E" fill-rule="evenodd"/><path d="M0 0 348.234 146.949" stroke="#000000" stroke-width="4.58333" stroke-miterlimit="8" fill="none" fill-rule="evenodd" transform="matrix(1 0 0 -1 1568.5 716.449)"/><path d="M1550.36 718.293 1888.18 879.151" stroke="#000000" stroke-width="4.58333" stroke-miterlimit="8" fill="none" fill-rule="evenodd"/><path d="M0 0 407.359 2.47897" stroke="#000000" stroke-width="4.58333" stroke-miterlimit="8" fill="none" fill-rule="evenodd" transform="matrix(1 0 0 -1 1574.5 721.979)"/><path d="M835.5 699.5C872.503 699.5 902.5 729.721 902.5 767 902.5 804.279 872.503 834.5 835.5 834.5 798.497 834.5 768.5 804.279 768.5 767 768.5 729.721 798.497 699.5 835.5 699.5Z" stroke="#000000" stroke-width="4.58333" stroke-miterlimit="8" fill="#66FF66" fill-rule="evenodd"/><path d="M0 146.541C-1.86568e-14 65.6086 65.6092-1.86566e-14 146.542-3.73132e-14 227.475-7.46264e-14 293.084 65.6086 293.084 146.541 293.084 227.473 227.475 293.082 146.542 293.082 65.6092 293.082-9.32839e-14 227.473 0 146.541Z" stroke="#000000" stroke-width="4.58333" stroke-miterlimit="8" fill="#FF0000" fill-rule="evenodd" transform="matrix(-0.587785 -0.809017 -0.809017 0.587785 1635.26 743.3)"/><path d="M0 0 382.409 32.6369" stroke="#000000" stroke-width="4.58333" stroke-miterlimit="8" fill="none" fill-rule="evenodd" transform="matrix(1 0 0 -1 900.5 764.137)"/><text font-family="Calibri,Calibri_MSFontService,sans-serif" font-weight="400" font-size="46" transform="matrix(-1.83697e-16 -1 1 -1.83697e-16 2035.53 777)">Seq 6</text><path d="M1991.5 726.5C1991.5 744.725 1977.4 759.5 1960 759.5 1942.6 759.5 1928.5 744.725 1928.5 726.5 1928.5 708.274 1942.6 693.5 1960 693.5 1977.4 693.5 1991.5 708.274 1991.5 726.5Z" stroke="#000000" stroke-width="4.58333" stroke-miterlimit="8" fill="#FFCCFF" fill-rule="evenodd"/><path d="M0 0 348.182 106.416" stroke="#000000" stroke-width="4.58333" stroke-miterlimit="8" fill="none" fill-rule="evenodd" transform="matrix(1 0 0 -1 859.5 1383.92)"/><path d="M1350 1606.5C1440.3 1606.5 1513.5 1679.93 1513.5 1770.5 1513.5 1861.07 1440.3 1934.5 1350 1934.5 1259.7 1934.5 1186.5 1861.07 1186.5 1770.5 1186.5 1679.93 1259.7 1606.5 1350 1606.5Z" stroke="#000000" stroke-width="4.58333" stroke-miterlimit="8" fill="#F054B1" fill-rule="evenodd"/><path d="M1396.5 1266.5 1728.84 1339.65" stroke="#000000" stroke-width="4.58333" stroke-miterlimit="8" fill="none" fill-rule="evenodd"/><path d="M876.943 1334.62C889.355 1358.98 879.67 1388.79 855.311 1401.2 830.953 1413.61 801.145 1403.93 788.734 1379.57 776.323 1355.21 786.008 1325.4 810.366 1312.99 834.725 1300.58 864.532 1310.26 876.943 1334.62Z" stroke="#000000" stroke-width="4.58333" stroke-miterlimit="8" fill="#CCFFCC" fill-rule="evenodd"/><text font-family="Calibri,Calibri_MSFontService,sans-serif" font-weight="400" font-size="46" transform="matrix(-1.83697e-16 -1 1 -1.83697e-16 857.914 1569)">Seq 11</text><path d="M0 0 343.645 122.741" stroke="#000000" stroke-width="4.58333" stroke-miterlimit="8" fill="none" fill-rule="evenodd" transform="matrix(1 0 0 -1 1513.5 1775.24)"/><path d="M1892 1851.5C1909.95 1851.5 1924.5 1865.6 1924.5 1883 1924.5 1900.4 1909.95 1914.5 1892 1914.5 1874.05 1914.5 1859.5 1900.4 1859.5 1883 1859.5 1865.6 1874.05 1851.5 1892 1851.5Z" stroke="#000000" stroke-width="4.58333" stroke-miterlimit="8" fill="#BD65F7" fill-rule="evenodd"/><text font-family="Calibri,Calibri_MSFontService,sans-serif" font-weight="400" font-size="46" transform="matrix(-1.83697e-16 -1 1 -1.83697e-16 1972.14 1982)">Seq 16</text><text font-family="Calibri,Calibri_MSFontService,sans-serif" font-weight="400" font-size="46" transform="matrix(-1.83697e-16 -1 1 -1.83697e-16 1704.37 2204)">Seq 19</text><path d="M1632 2089.5C1649.95 2089.5 1664.5 2104.5 1664.5 2123 1664.5 2141.5 1649.95 2156.5 1632 2156.5 1614.05 2156.5 1599.5 2141.5 1599.5 2123 1599.5 2104.5 1614.05 2089.5 1632 2089.5Z" stroke="#000000" stroke-width="4.58333" stroke-miterlimit="8" fill="#FFFFFF" fill-rule="evenodd"/><path d="M1307 1164.5C1361.4 1164.5 1405.5 1209.05 1405.5 1264 1405.5 1318.95 1361.4 1363.5 1307 1363.5 1252.6 1363.5 1208.5 1318.95 1208.5 1264 1208.5 1209.05 1252.6 1164.5 1307 1164.5Z" stroke="#000000" stroke-width="4.58333" stroke-miterlimit="8" fill="#FA760A" fill-rule="evenodd" fill-opacity="0.878431"/></g></svg>