<svg width="1871" height="1058" xmlns="http://www.w3.org/2000/svg" xmlns:xlink="http://www.w3.org/1999/xlink" xml:space="preserve" overflow="hidden"><g transform="translate(-670 -652)"><path d="M2539 674.624 2539 1695.38C2539 1701.8 2533.8 1707 2527.38 1707L2008 1707 2008 663 2527.38 663C2533.8 663 2539 668.204 2539 674.624Z" fill="#F2F2F2" fill-rule="evenodd"/><path d="M691 681C691 673.268 697.268 667 705 667L761 667C768.732 667 775 673.268 775 681L775 737C775 744.732 768.732 751 761 751L705 751C697.268 751 691 744.732 691 737Z" stroke="#A6A6A6" stroke-width="2.29167" stroke-miterlimit="8" fill="#FFFFFF" fill-rule="evenodd"/><path d="M708.537 684.33 737.594 684.33 737.594 693.675 734.962 693.675C734.569 692.136 734.179 690.918 733.794 690.023 733.409 689.128 733.002 688.448 732.572 687.982 732.143 687.516 731.682 687.185 731.189 686.988 730.697 686.791 729.958 686.693 728.974 686.693L725.563 686.693 725.563 714.193C725.563 715.249 725.621 716.091 725.738 716.717 725.854 717.344 726.033 717.841 726.275 718.208 726.516 718.575 726.843 718.861 727.255 719.067 727.667 719.273 728.311 719.474 729.189 719.671L729.189 720.987 716.916 720.987 716.916 719.671C717.453 719.546 717.927 719.412 718.339 719.269 718.751 719.125 719.086 718.951 719.346 718.745 719.606 718.539 719.82 718.275 719.991 717.953 720.161 717.63 720.295 717.192 720.393 716.637 720.492 716.082 720.541 715.267 720.541 714.193L720.541 686.693 717.157 686.693C716.316 686.693 715.622 686.773 715.076 686.935 714.53 687.096 714.024 687.431 713.559 687.942 713.093 688.452 712.668 689.177 712.283 690.117 711.898 691.057 711.536 692.243 711.195 693.675L708.537 693.675Z" fill="#A6A6A6" fill-rule="evenodd"/><text fill="#000000" fill-opacity="0" font-family="Arial,Arial_MSFontService,sans-serif" font-size="36.6577" x="708.537" y="716.405">T</text><path d="M746.164 707.06 747.356 707.06C747.33 707.776 747.31 708.418 747.297 708.984 747.284 709.55 747.275 710.101 747.268 710.634 747.261 711.168 747.258 711.696 747.258 712.216L747.258 727.06C747.258 727.464 747.271 727.812 747.297 728.105 747.323 728.398 747.366 728.646 747.424 728.847 747.483 729.049 747.561 729.222 747.659 729.365 747.756 729.508 747.87 729.632 748 729.736 748.157 729.892 748.365 730.013 748.625 730.097 748.886 730.182 749.218 730.254 749.622 730.312 750.025 730.371 750.51 730.416 751.077 730.449 751.643 730.481 752.323 730.504 753.118 730.517L753.118 732.216 737.629 732.216 737.629 730.517C738.398 730.491 739.049 730.462 739.582 730.429 740.116 730.397 740.572 730.351 740.95 730.293 741.327 730.234 741.63 730.169 741.858 730.097 742.086 730.026 742.284 729.938 742.454 729.834 742.636 729.716 742.792 729.59 742.922 729.453 743.052 729.316 743.157 729.144 743.235 728.935 743.313 728.727 743.375 728.473 743.42 728.174 743.466 727.874 743.489 727.503 743.489 727.06L743.489 713.056C743.489 712.549 743.391 712.19 743.196 711.982 743 711.774 742.72 711.67 742.356 711.67 741.952 711.67 741.353 711.878 740.559 712.295 739.765 712.711 738.736 713.33 737.473 714.15 737.304 713.851 737.148 713.551 737.004 713.252 736.861 712.952 736.711 712.646 736.555 712.334 738.17 711.448 739.768 710.566 741.35 709.687 742.932 708.808 744.537 707.933 746.164 707.06Z" fill="#A6A6A6" fill-rule="evenodd"/><text fill="#000000" fill-opacity="0" font-family="Arial,Arial_MSFontService,sans-serif" font-size="25.1562" x="736.555" y="729.072">1</text><path d="M824.5 1408.5C824.5 1379.78 847.781 1356.5 876.5 1356.5 905.219 1356.5 928.5 1379.78 928.5 1408.5 928.5 1437.22 905.219 1460.5 876.5 1460.5 847.781 1460.5 824.5 1437.22 824.5 1408.5Z" stroke="#000000" stroke-width="4.58333" stroke-miterlimit="8" fill="#FFC000" fill-rule="evenodd"/><path d="M783.5 1462.5 974.364 1463.49" stroke="#000000" stroke-width="4.58333" stroke-miterlimit="8" fill="none" fill-rule="evenodd"/><path d="M932.5 1629.5C932.5 1607.96 949.961 1590.5 971.5 1590.5 993.039 1590.5 1010.5 1607.96 1010.5 1629.5 1010.5 1651.04 993.039 1668.5 971.5 1668.5 949.961 1668.5 932.5 1651.04 932.5 1629.5Z" stroke="#000000" stroke-width="4.58333" stroke-miterlimit="8" fill="#CC99FF" fill-rule="evenodd"/><path d="M735.5 1641.5C735.5 1612.78 758.781 1589.5 787.5 1589.5 816.219 1589.5 839.5 1612.78 839.5 1641.5 839.5 1670.22 816.219 1693.5 787.5 1693.5 758.781 1693.5 735.5 1670.22 735.5 1641.5Z" stroke="#000000" stroke-width="4.58333" stroke-miterlimit="8" fill="#FFFFCC" fill-rule="evenodd"/><path d="M0 0 285.827 0.425492" stroke="#000000" stroke-width="4.58333" stroke-miterlimit="8" fill="none" fill-rule="evenodd" transform="matrix(1 0 0 -1 873.5 1022.93)"/><path d="M2.29121-0.0458242 4.43139 106.963-0.151025 107.055-2.29121 0.0458242ZM15.7958 102.152 2.59843 129.921-11.6987 102.702Z" transform="matrix(-1 0 0 1 1159.1 1381.5)"/><path d="M875.792 1231.5 875.792 1338.5 871.209 1338.5 871.208 1231.5ZM887.25 1333.92 873.5 1361.42 859.75 1333.92Z"/><path d="M2.29163-0.0123971 3.57334 236.914-1.00993 236.939-2.29163 0.0123971ZM15.0067 232.269 1.40568 259.843-12.4929 232.417Z" transform="matrix(-1 0 0 1 1161.91 1019.5)"/><path d="M944.5 955.5C944.5 919.602 973.602 890.5 1009.5 890.5 1045.4 890.5 1074.5 919.602 1074.5 955.5 1074.5 991.399 1045.4 1020.5 1009.5 1020.5 973.602 1020.5 944.5 991.399 944.5 955.5Z" stroke="#000000" stroke-width="4.58333" stroke-miterlimit="8" fill="#E7E6E6" fill-rule="evenodd"/><path d="M2.29153-0.0247931 3.44928 106.981-1.13379 107.031-2.29153 0.0247931ZM14.8574 102.274 1.40568 129.921-12.641 102.572Z" transform="matrix(-1 0 0 1 876.906 1021.5)"/><path d="M1107.5 1333.5C1107.5 1304.78 1130.78 1281.5 1159.5 1281.5 1188.22 1281.5 1211.5 1304.78 1211.5 1333.5 1211.5 1362.22 1188.22 1385.5 1159.5 1385.5 1130.78 1385.5 1107.5 1362.22 1107.5 1333.5Z" stroke="#000000" stroke-width="4.58333" stroke-miterlimit="8" fill="#66FFFF" fill-rule="evenodd"/><path d="M838.5 1188.5C838.5 1166.96 855.961 1149.5 877.5 1149.5 899.039 1149.5 916.5 1166.96 916.5 1188.5 916.5 1210.04 899.039 1227.5 877.5 1227.5 855.961 1227.5 838.5 1210.04 838.5 1188.5Z" stroke="#000000" stroke-width="4.58333" stroke-miterlimit="8" fill="#F56EEC" fill-rule="evenodd"/><text font-family="Cambria Math,Cambria Math_MSFontService,sans-serif" font-weight="400" font-size="37" transform="matrix(1 0 0 1 990.373 971)">N</text><text font-family="Cambria Math,Cambria Math_MSFontService,sans-serif" font-weight="400" font-size="27" transform="matrix(1 0 0 1 1014.73 978)">1</text><text font-family="Cambria Math,Cambria Math_MSFontService,sans-serif" font-weight="400" font-size="37" transform="matrix(1 0 0 1 949.329 1642)">N</text><text font-family="Cambria Math,Cambria Math_MSFontService,sans-serif" font-weight="400" font-size="27" transform="matrix(1 0 0 1 974.537 1650)">7</text><text font-family="Cambria Math,Cambria Math_MSFontService,sans-serif" font-weight="400" font-size="37" transform="matrix(1 0 0 1 858.868 1198)">N</text><text font-family="Cambria Math,Cambria Math_MSFontService,sans-serif" font-weight="400" font-size="27" transform="matrix(1 0 0 1 884.077 1205)">3</text><text font-family="Cambria Math,Cambria Math_MSFontService,sans-serif" font-weight="400" font-size="37" transform="matrix(1 0 0 1 858.868 1417)">N</text><text font-family="Cambria Math,Cambria Math_MSFontService,sans-serif" font-weight="400" font-size="27" transform="matrix(1 0 0 1 884.077 1425)">5</text><text font-family="Cambria Math,Cambria Math_MSFontService,sans-serif" font-weight="400" font-size="37" transform="matrix(1 0 0 1 1140.95 1343)">N</text><text font-family="Cambria Math,Cambria Math_MSFontService,sans-serif" font-weight="400" font-size="27" transform="matrix(1 0 0 1 1166.15 1350)">8</text><text font-family="Cambria Math,Cambria Math_MSFontService,sans-serif" font-weight="400" font-size="37" transform="matrix(1 0 0 1 769.713 1653)">N</text><text font-family="Cambria Math,Cambria Math_MSFontService,sans-serif" font-weight="400" font-size="27" transform="matrix(1 0 0 1 794.921 1660)">6</text><path d="M1012.79 778.5 1012.79 869.613 1008.21 869.613 1008.21 778.5ZM1024.25 865.029 1010.5 892.529 996.75 865.03Z"/><path d="M787.792 1460.5 787.792 1567.5 783.209 1567.5 783.208 1460.5ZM799.25 1562.92 785.5 1590.42 771.75 1562.92Z"/><path d="M974.792 1463.5 974.792 1570.5 970.209 1570.5 970.208 1463.5ZM986.25 1565.92 972.5 1593.42 958.75 1565.92Z"/><path d="M0 0 397.226 0.326968" stroke="#000000" stroke-width="4.58333" stroke-miterlimit="8" fill="none" fill-rule="evenodd" transform="matrix(1 0 0 -1 1405.5 1011.83)"/><path d="M1583.79 777.5 1583.79 868.613 1579.21 868.613 1579.21 777.5ZM1595.25 864.029 1581.5 891.529 1567.75 864.029Z"/><path d="M1582.79 1014.5 1582.79 1251.43 1578.21 1251.43 1578.21 1014.5ZM1594.25 1246.84 1580.5 1274.34 1566.75 1246.84Z"/><path d="M2.29159-0.0190456 3.18092 106.986-1.40225 107.024-2.29159 0.0190456ZM14.6008 102.308 1.07979 129.921-12.8983 102.536Z" transform="matrix(-1 0 0 1 1802.58 1009.5)"/><path d="M1523.5 952C1523.5 919.691 1549.69 893.5 1582 893.5 1614.31 893.5 1640.5 919.691 1640.5 952 1640.5 984.309 1614.31 1010.5 1582 1010.5 1549.69 1010.5 1523.5 984.309 1523.5 952Z" stroke="#000000" stroke-width="4.58333" stroke-miterlimit="8" fill="#E7E6E6" fill-rule="evenodd"/><path d="M2.29159-0.0190456 3.18092 106.986-1.40225 107.024-2.29159 0.0190456ZM14.6008 102.308 1.07979 129.921-12.8983 102.536Z" transform="matrix(-1 0 0 1 1407.58 1012.5)"/><path d="M1368.5 1179C1368.5 1157.74 1385.96 1140.5 1407.5 1140.5 1429.04 1140.5 1446.5 1157.74 1446.5 1179 1446.5 1200.26 1429.04 1217.5 1407.5 1217.5 1385.96 1217.5 1368.5 1200.26 1368.5 1179Z" stroke="#000000" stroke-width="4.58333" stroke-miterlimit="8" fill="#F56EEC" fill-rule="evenodd"/><text font-family="Cambria Math,Cambria Math_MSFontService,sans-serif" font-weight="400" font-size="37" transform="matrix(1 0 0 1 1559.47 965)">N</text><text font-family="Cambria Math,Cambria Math_MSFontService,sans-serif" font-weight="400" font-size="27" transform="matrix(1 0 0 1 1583.83 973)">1</text><text font-family="Cambria Math,Cambria Math_MSFontService,sans-serif" font-weight="400" font-size="37" transform="matrix(1 0 0 1 1387.39 1188)">N</text><text font-family="Cambria Math,Cambria Math_MSFontService,sans-serif" font-weight="400" font-size="27" transform="matrix(1 0 0 1 1412.6 1196)">3</text><path d="M1751.5 1188.5C1751.5 1159.78 1774.78 1136.5 1803.5 1136.5 1832.22 1136.5 1855.5 1159.78 1855.5 1188.5 1855.5 1217.22 1832.22 1240.5 1803.5 1240.5 1774.78 1240.5 1751.5 1217.22 1751.5 1188.5Z" stroke="#000000" stroke-width="4.58333" stroke-miterlimit="8" fill="#66FFFF" fill-rule="evenodd"/><text font-family="Cambria Math,Cambria Math_MSFontService,sans-serif" font-weight="400" font-size="37" transform="matrix(1 0 0 1 1786.29 1199)">N</text><text font-family="Cambria Math,Cambria Math_MSFontService,sans-serif" font-weight="400" font-size="27" transform="matrix(1 0 0 1 1811.5 1207)">8</text><path d="M1715.79 1243.5 1715.79 1350.5 1711.21 1350.5 1711.21 1243.5ZM1727.25 1345.92 1713.5 1373.42 1699.75 1345.92Z"/><path d="M1905.79 1242.5 1905.79 1349.5 1901.21 1349.5 1901.21 1242.5ZM1917.25 1344.92 1903.5 1372.42 1889.75 1344.92Z"/><path d="M1675.5 1411.5C1675.5 1389.96 1692.96 1372.5 1714.5 1372.5 1736.04 1372.5 1753.5 1389.96 1753.5 1411.5 1753.5 1433.04 1736.04 1450.5 1714.5 1450.5 1692.96 1450.5 1675.5 1433.04 1675.5 1411.5Z" stroke="#000000" stroke-width="4.58333" stroke-miterlimit="8" fill="#FFFFCC" fill-rule="evenodd"/><text font-family="Cambria Math,Cambria Math_MSFontService,sans-serif" font-weight="400" font-size="37" transform="matrix(1 0 0 1 1698.64 1425)">N</text><text font-family="Cambria Math,Cambria Math_MSFontService,sans-serif" font-weight="400" font-size="27" transform="matrix(1 0 0 1 1723.85 1432)">6</text><path d="M1864.5 1409.5C1864.5 1387.96 1881.96 1370.5 1903.5 1370.5 1925.04 1370.5 1942.5 1387.96 1942.5 1409.5 1942.5 1431.04 1925.04 1448.5 1903.5 1448.5 1881.96 1448.5 1864.5 1431.04 1864.5 1409.5Z" stroke="#000000" stroke-width="4.58333" stroke-miterlimit="8" fill="#CC99FF" fill-rule="evenodd"/><text font-family="Cambria Math,Cambria Math_MSFontService,sans-serif" font-weight="400" font-size="37" transform="matrix(1 0 0 1 1882.21 1422)">N</text><text font-family="Cambria Math,Cambria Math_MSFontService,sans-serif" font-weight="400" font-size="27" transform="matrix(1 0 0 1 1907.41 1429)">7</text><path d="M684.5 674.869C684.5 666.933 690.933 660.5 698.869 660.5L2525.13 660.5C2533.07 660.5 2539.5 666.933 2539.5 674.869L2539.5 1694.13C2539.5 1702.07 2533.07 1708.5 2525.13 1708.5L698.869 1708.5C690.933 1708.5 684.5 1702.07 684.5 1694.13Z" stroke="#A5A5A5" stroke-width="3.4375" stroke-linejoin="round" stroke-miterlimit="10" fill="none" fill-rule="evenodd"/><path d="M1877.5 683.334C1877.5 675.694 1883.69 669.5 1891.33 669.5L1946.67 669.5C1954.31 669.5 1960.5 675.694 1960.5 683.334L1960.5 739.666C1960.5 747.306 1954.31 753.5 1946.67 753.5L1891.33 753.5C1883.69 753.5 1877.5 747.306 1877.5 739.666Z" stroke="#A6A6A6" stroke-width="1.14583" stroke-miterlimit="8" fill="#FFFFFF" fill-rule="evenodd"/><path d="M1897.84 691.501 1926.9 691.501 1926.9 700.846 1924.26 700.846C1923.87 699.307 1923.48 698.089 1923.1 697.194 1922.71 696.299 1922.3 695.618 1921.87 695.153 1921.44 694.687 1920.98 694.356 1920.49 694.159 1920 693.962 1919.26 693.864 1918.28 693.864L1914.87 693.864 1914.87 721.364C1914.87 722.42 1914.92 723.262 1915.04 723.888 1915.16 724.515 1915.34 725.012 1915.58 725.379 1915.82 725.746 1916.15 726.032 1916.56 726.238 1916.97 726.444 1917.61 726.645 1918.49 726.842L1918.49 728.158 1906.22 728.158 1906.22 726.842C1906.75 726.717 1907.23 726.583 1907.64 726.44 1908.05 726.296 1908.39 726.122 1908.65 725.916 1908.91 725.71 1909.12 725.446 1909.29 725.124 1909.46 724.801 1909.6 724.363 1909.7 723.808 1909.79 723.253 1909.84 722.438 1909.84 721.364L1909.84 693.864 1906.46 693.864C1905.62 693.864 1904.92 693.944 1904.38 694.106 1903.83 694.267 1903.33 694.602 1902.86 695.113 1902.4 695.623 1901.97 696.348 1901.59 697.288 1901.2 698.228 1900.84 699.414 1900.5 700.846L1897.84 700.846Z" fill="#A6A6A6" fill-rule="evenodd"/><text fill="#000000" fill-opacity="0" font-family="Arial,Arial_MSFontService,sans-serif" font-size="36.6577" x="1897.84" y="723.576">T</text><path d="M1935.23 714.094C1936.58 714.094 1937.74 714.247 1938.69 714.553 1939.65 714.859 1940.43 715.273 1941.03 715.794 1941.63 716.315 1942.06 716.94 1942.33 717.669 1942.59 718.398 1942.73 719.186 1942.73 720.032 1942.73 720.54 1942.69 721.012 1942.62 721.448 1942.55 721.884 1942.42 722.314 1942.25 722.737 1942.07 723.16 1941.84 723.587 1941.55 724.016 1941.27 724.446 1940.91 724.902 1940.48 725.384 1940.15 725.8 1939.73 726.282 1939.21 726.829 1938.69 727.376 1938.12 727.962 1937.5 728.587 1936.88 729.212 1936.24 729.863 1935.56 730.54 1934.88 731.217 1934.22 731.887 1933.59 732.552 1932.95 733.216 1932.36 733.86 1931.83 734.485 1931.29 735.11 1930.86 735.683 1930.52 736.204L1937.75 736.204C1938.36 736.204 1938.85 736.181 1939.21 736.135 1939.58 736.09 1939.88 735.989 1940.12 735.833 1940.36 735.677 1940.56 735.439 1940.73 735.12 1940.9 734.801 1941.1 734.361 1941.32 733.802L1943.14 733.802C1943.07 734.726 1943.01 735.657 1942.95 736.594 1942.89 737.532 1942.83 738.463 1942.77 739.387L1926.22 739.387 1926.22 738.372C1926.54 737.669 1926.9 736.975 1927.32 736.292 1927.73 735.608 1928.2 734.915 1928.72 734.212 1929.24 733.509 1929.84 732.783 1930.5 732.034 1931.16 731.285 1931.9 730.507 1932.71 729.7 1933.93 728.476 1934.93 727.431 1935.7 726.565 1936.46 725.699 1937.07 724.928 1937.51 724.251 1937.95 723.574 1938.26 722.949 1938.42 722.376 1938.58 721.803 1938.66 721.191 1938.66 720.54 1938.66 719.876 1938.57 719.264 1938.38 718.704 1938.19 718.144 1937.92 717.669 1937.57 717.278 1937.22 716.887 1936.77 716.581 1936.23 716.36 1935.69 716.139 1935.07 716.028 1934.37 716.028 1933.16 716.028 1932.14 716.357 1931.32 717.014 1930.5 717.672 1929.86 718.626 1929.41 719.876L1926.85 719.876 1926.85 716.067C1928.51 715.377 1930.05 714.876 1931.45 714.563 1932.85 714.251 1934.11 714.094 1935.23 714.094Z" fill="#A6A6A6" fill-rule="evenodd"/><text fill="#000000" fill-opacity="0" font-family="Arial,Arial_MSFontService,sans-serif" font-size="25.293" x="1926.22" y="736.226">2</text><path d="M1543.5 1307.5C1543.5 1285.96 1560.96 1268.5 1582.5 1268.5 1604.04 1268.5 1621.5 1285.96 1621.5 1307.5 1621.5 1329.04 1604.04 1346.5 1582.5 1346.5 1560.96 1346.5 1543.5 1329.04 1543.5 1307.5Z" stroke="#000000" stroke-width="4.58333" stroke-miterlimit="8" fill="#FFC000" fill-rule="evenodd"/><text font-family="Cambria Math,Cambria Math_MSFontService,sans-serif" font-weight="400" font-size="37" transform="matrix(1 0 0 1 1563.69 1317)">N</text><text font-family="Cambria Math,Cambria Math_MSFontService,sans-serif" font-weight="400" font-size="27" transform="matrix(1 0 0 1 1588.9 1324)">5</text><path d="M1118.5 1550.5C1118.5 1528.96 1135.96 1511.5 1157.5 1511.5 1179.04 1511.5 1196.5 1528.96 1196.5 1550.5 1196.5 1572.04 1179.04 1589.5 1157.5 1589.5 1135.96 1589.5 1118.5 1572.04 1118.5 1550.5Z" stroke="#000000" stroke-width="4.58333" stroke-miterlimit="8" fill="#FF0000" fill-rule="evenodd"/><text font-family="Cambria Math,Cambria Math_MSFontService,sans-serif" font-weight="400" font-size="37" transform="matrix(1 0 0 1 1140.4 1559)">N</text><text font-family="Cambria Math,Cambria Math_MSFontService,sans-serif" font-weight="400" font-size="27" transform="matrix(1 0 0 1 1165.6 1566)">9</text><path d="M1711.5 1242.5 1902.36 1243.49" stroke="#000000" stroke-width="4.58333" stroke-miterlimit="8" fill="none" fill-rule="evenodd"/><path d="M2.29121-0.0458242 4.43139 106.963-0.151025 107.055-2.29121 0.0458242ZM15.7958 102.152 2.59843 129.921-11.6987 102.702Z" transform="matrix(-1 0 0 1 1402.1 1219.5)"/><path d="M1361.5 1387.5C1361.5 1365.96 1378.96 1348.5 1400.5 1348.5 1422.04 1348.5 1439.5 1365.96 1439.5 1387.5 1439.5 1409.04 1422.04 1426.5 1400.5 1426.5 1378.96 1426.5 1361.5 1409.04 1361.5 1387.5Z" stroke="#000000" stroke-width="4.58333" stroke-miterlimit="8" fill="#FF0000" fill-rule="evenodd"/><text font-family="Cambria Math,Cambria Math_MSFontService,sans-serif" font-weight="400" font-size="37" transform="matrix(1 0 0 1 1383.96 1396)">N</text><text font-family="Cambria Math,Cambria Math_MSFontService,sans-serif" font-weight="400" font-size="27" transform="matrix(1 0 0 1 1409.17 1404)">9</text><path d="M2083 735.075 2079.67 750.464C2080.76 750.535 2082.11 750.571 2083.7 750.571 2086.42 750.571 2088.47 750.262 2089.84 749.644 2091.21 749.027 2092.38 747.93 2093.37 746.355 2094.35 744.779 2094.84 742.837 2094.84 740.527 2094.84 738.719 2094.25 737.358 2093.06 736.445 2091.87 735.532 2090.09 735.075 2087.73 735.075ZM2090.95 718.64C2089.39 718.64 2087.94 718.667 2086.6 718.72L2083.57 732.712 2087.35 732.712C2089.46 732.712 2091.14 732.542 2092.39 732.202 2093.63 731.862 2094.73 731.253 2095.68 730.376 2096.63 729.498 2097.32 728.536 2097.74 727.489 2098.17 726.441 2098.39 725.228 2098.39 723.85 2098.39 723.08 2098.26 722.359 2097.99 721.688 2097.72 721.017 2097.26 720.444 2096.6 719.969 2095.95 719.495 2095.2 719.155 2094.35 718.949 2093.5 718.743 2092.36 718.64 2090.95 718.64ZM2114.89 716.277 2125.63 716.277 2125.34 717.592C2124.66 717.736 2124.17 717.897 2123.88 718.076 2123.58 718.255 2123.32 718.523 2123.08 718.882 2122.85 719.24 2122.61 719.799 2122.36 720.56 2122.11 721.321 2121.79 722.561 2121.42 724.279L2115.67 750.464 2122.28 750.464C2123.48 750.464 2124.42 750.347 2125.11 750.114 2125.8 749.882 2126.45 749.456 2127.07 748.839 2127.69 748.221 2128.29 747.384 2128.88 746.328 2129.47 745.271 2130.07 743.956 2130.68 742.38L2133.29 742.38 2130.58 752.934 2107.86 752.934 2108.15 751.618C2108.83 751.511 2109.34 751.336 2109.68 751.095 2110.02 750.853 2110.31 750.517 2110.54 750.088 2110.77 749.658 2110.99 749.134 2111.19 748.517 2111.38 747.899 2111.68 746.704 2112.07 744.931L2116.64 724.253C2117.03 722.462 2117.23 721.021 2117.23 719.929 2117.23 719.087 2117.02 718.501 2116.6 718.17 2116.18 717.839 2115.51 717.646 2114.6 717.592ZM2078.89 716.277 2092.19 716.277C2094.87 716.277 2097.02 716.559 2098.64 717.122 2100.26 717.686 2101.46 718.515 2102.22 719.607 2102.98 720.699 2103.36 722.068 2103.36 723.716 2103.36 726.061 2102.64 728.106 2101.21 729.852 2099.78 731.598 2097.65 732.936 2094.82 733.867L2094.76 734.162C2096.43 734.825 2097.71 735.769 2098.6 736.996 2099.5 738.222 2099.95 739.614 2099.95 741.172 2099.95 743.553 2099.4 745.589 2098.31 747.281 2097.22 748.973 2095.58 750.338 2093.39 751.377 2091.21 752.415 2088.01 752.934 2083.81 752.934L2071.86 752.934 2072.15 751.618C2072.83 751.511 2073.34 751.336 2073.68 751.095 2074.02 750.853 2074.31 750.517 2074.54 750.088 2074.77 749.658 2074.99 749.134 2075.19 748.517 2075.38 747.899 2075.68 746.704 2076.07 744.931L2080.64 724.253C2081.03 722.462 2081.23 721.048 2081.23 720.009 2081.23 719.132 2081.02 718.523 2080.61 718.183 2080.2 717.843 2079.53 717.646 2078.6 717.592Z" fill-rule="evenodd"/><text fill="#000000" fill-opacity="0" font-family="Arial,Arial_MSFontService,sans-serif" font-size="36.6577" x="2071.86" y="748.352">ğµğ¿</text><path d="M2150.97 735.941 2151.5 737.445C2148.45 738.447 2146.19 740.404 2144.73 743.314 2143.26 746.224 2142.53 749.88 2142.53 754.281 2142.53 758.838 2143.26 762.594 2144.73 765.55 2146.19 768.506 2148.43 770.485 2151.44 771.488L2150.97 772.992C2147.15 771.989 2144.23 769.831 2142.2 766.517 2140.17 763.203 2139.15 759.19 2139.15 754.476 2139.15 749.775 2140.17 745.762 2142.21 742.435 2144.25 739.108 2147.17 736.943 2150.97 735.941Z" fill-rule="evenodd"/><text fill="#000000" fill-opacity="0" font-family="Arial,Arial_MSFontService,sans-serif" font-size="37.0508" x="2139.15" y="768.36">(</text><path d="M2153.64 737.503 2176.84 737.503 2176.84 744.71 2174.64 744.71C2174.36 743.695 2174.1 742.865 2173.84 742.22 2173.59 741.576 2173.29 741.068 2172.96 740.697 2172.62 740.326 2172.21 740.068 2171.74 739.925 2171.28 739.782 2170.69 739.697 2169.99 739.671L2167.33 739.671 2167.33 759.144C2167.34 759.795 2167.38 760.332 2167.43 760.755 2167.48 761.178 2167.6 761.527 2167.79 761.8 2167.98 762.074 2168.26 762.292 2168.64 762.454 2169.02 762.617 2169.54 762.77 2170.22 762.913L2170.22 764.163 2160.26 764.163 2160.26 762.913C2160.77 762.822 2161.2 762.725 2161.56 762.62 2161.92 762.516 2162.21 762.344 2162.45 762.103 2162.68 761.862 2162.85 761.51 2162.97 761.048 2163.08 760.586 2163.13 759.951 2163.13 759.144L2163.13 739.671 2160.49 739.671C2160.12 739.671 2159.79 739.688 2159.51 739.72 2159.23 739.753 2158.98 739.808 2158.76 739.886 2158.53 739.964 2158.33 740.065 2158.15 740.189 2157.97 740.313 2157.79 740.459 2157.62 740.628 2157.3 740.941 2156.99 741.406 2156.71 742.025 2156.42 742.643 2156.15 743.538 2155.89 744.71L2153.64 744.71Z" fill-rule="evenodd"/><text fill="#000000" fill-opacity="0" font-family="Arial,Arial_MSFontService,sans-serif" font-size="26.6602" x="2153.64" y="760.831">T</text><path d="M2189.81 752.541 2190.87 752.541C2190.85 752.767 2190.83 753.315 2190.8 754.185 2190.78 755.055 2190.77 755.931 2190.77 756.811L2190.77 768.155C2190.77 768.832 2190.83 769.315 2190.95 769.605 2191.07 769.895 2191.26 770.124 2191.51 770.29 2191.77 770.457 2192.21 770.586 2192.83 770.677 2193.46 770.768 2194.45 770.825 2195.8 770.846L2195.8 772.345 2182.44 772.345 2182.44 770.846C2183.75 770.814 2184.71 770.755 2185.32 770.669 2185.92 770.583 2186.37 770.457 2186.66 770.29 2186.94 770.124 2187.15 769.895 2187.28 769.605 2187.42 769.315 2187.49 768.832 2187.49 768.155L2187.49 757.472C2187.49 757.085 2187.41 756.806 2187.25 756.634 2187.1 756.462 2186.87 756.376 2186.58 756.376 2186.26 756.376 2185.76 756.551 2185.07 756.9 2184.38 757.249 2183.5 757.762 2182.43 758.439L2181.57 756.811Z" fill-rule="evenodd"/><text fill="#000000" fill-opacity="0" font-family="Arial,Arial_MSFontService,sans-serif" font-size="19.8032" x="2181.57" y="769.869">1</text><path d="M2202.38 759.632 2205.79 759.632C2205.98 760.544 2206.07 761.442 2206.07 762.328 2206.07 763.239 2205.91 764.072 2205.6 764.828 2205.29 765.583 2204.79 766.335 2204.1 767.083 2203.42 767.832 2202.48 768.656 2201.28 769.554L2200.23 768.363C2200.89 767.738 2201.37 767.174 2201.67 766.673 2201.97 766.172 2202.19 765.602 2202.32 764.964 2202.45 764.326 2202.51 763.525 2202.51 762.562 2202.51 761.572 2202.47 760.596 2202.38 759.632Z" fill-rule="evenodd"/><text fill="#000000" fill-opacity="0" font-family="Arial,Arial_MSFontService,sans-serif" font-size="9.92188" x="2200.23" y="768.314">,</text><path d="M2209.17 737.503 2232.37 737.503 2232.37 744.71 2230.16 744.71C2229.89 743.695 2229.63 742.865 2229.37 742.22 2229.12 741.576 2228.82 741.068 2228.48 740.697 2228.14 740.326 2227.74 740.068 2227.27 739.925 2226.8 739.782 2226.22 739.697 2225.51 739.671L2222.86 739.671 2222.86 759.144C2222.87 759.795 2222.9 760.332 2222.96 760.755 2223.01 761.178 2223.13 761.527 2223.32 761.8 2223.51 762.074 2223.79 762.292 2224.17 762.454 2224.54 762.617 2225.07 762.77 2225.75 762.913L2225.75 764.163 2215.79 764.163 2215.79 762.913C2216.3 762.822 2216.73 762.725 2217.09 762.62 2217.44 762.516 2217.74 762.344 2217.97 762.103 2218.21 761.862 2218.38 761.51 2218.49 761.048 2218.6 760.586 2218.66 759.951 2218.66 759.144L2218.66 739.671 2216.02 739.671C2215.64 739.671 2215.32 739.688 2215.04 739.72 2214.76 739.753 2214.5 739.808 2214.28 739.886 2214.06 739.964 2213.86 740.065 2213.68 740.189 2213.5 740.313 2213.32 740.459 2213.15 740.628 2212.83 740.941 2212.52 741.406 2212.23 742.025 2211.95 742.643 2211.67 743.538 2211.41 744.71L2209.17 744.71Z" fill-rule="evenodd"/><text fill="#000000" fill-opacity="0" font-family="Arial,Arial_MSFontService,sans-serif" font-size="26.6602" x="2209.17" y="760.831">T</text><path d="M2243.95 752.396C2245.18 752.396 2246.21 752.531 2247.02 752.799 2247.83 753.068 2248.47 753.417 2248.96 753.847 2249.44 754.276 2249.78 754.781 2249.97 755.361 2250.17 755.941 2250.26 756.538 2250.26 757.15 2250.26 757.923 2250.11 758.64 2249.8 759.301 2249.48 759.962 2248.97 760.681 2248.27 761.46 2247.56 762.239 2246.29 763.456 2244.46 765.11 2242.52 766.872 2241.11 768.397 2240.22 769.686L2246.04 769.686C2246.59 769.686 2247.01 769.659 2247.3 769.605 2247.59 769.552 2247.82 769.468 2247.99 769.356 2248.16 769.243 2248.31 769.101 2248.43 768.929 2248.54 768.757 2248.72 768.381 2248.96 767.801L2250.59 767.801 2250.25 772.345 2236.45 772.345 2236.45 771.458C2236.99 770.309 2237.72 769.178 2238.63 768.067 2239.54 766.955 2240.61 765.808 2241.82 764.626 2243.28 763.23 2244.32 762.177 2244.93 761.468 2245.54 760.759 2246 760.085 2246.29 759.446 2246.59 758.807 2246.73 758.165 2246.73 757.52 2246.73 756.457 2246.43 755.619 2245.83 755.007 2245.23 754.394 2244.37 754.088 2243.24 754.088 2242.26 754.088 2241.43 754.346 2240.75 754.862 2240.07 755.377 2239.55 756.14 2239.19 757.15L2236.95 757.15 2236.95 753.976C2238.35 753.406 2239.64 753.001 2240.81 752.759 2241.99 752.517 2243.03 752.396 2243.95 752.396Z" fill-rule="evenodd"/><text fill="#000000" fill-opacity="0" font-family="Arial,Arial_MSFontService,sans-serif" font-size="19.9482" x="2236.45" y="769.851">2</text><path d="M2256.56 735.941C2260.36 736.943 2263.28 739.108 2265.32 742.435 2267.35 745.762 2268.37 749.775 2268.37 754.476 2268.37 759.19 2267.36 763.203 2265.32 766.517 2263.29 769.831 2260.37 771.989 2256.56 772.992L2256.09 771.488C2259.09 770.485 2261.33 768.506 2262.8 765.55 2264.26 762.594 2264.99 758.838 2264.99 754.281 2264.99 749.88 2264.26 746.224 2262.81 743.314 2261.35 740.404 2259.09 738.447 2256.03 737.445Z" fill-rule="evenodd"/><text fill="#000000" fill-opacity="0" font-family="Arial,Arial_MSFontService,sans-serif" font-size="37.0508" x="2256.03" y="768.36">)</text><path d="M2293.48 720.547 2326.67 735.344 2326.67 739.104 2293.48 753.901 2293.48 749.873 2322.64 737.224 2293.48 724.575Z" fill-rule="evenodd"/><text fill="#000000" fill-opacity="0" font-family="Arial,Arial_MSFontService,sans-serif" font-size="33.3545" x="2293.48" y="749.732">&gt;</text><path d="M2361.24 718.13C2360 718.13 2358.97 718.497 2358.14 719.231 2357.31 719.965 2356.63 721.021 2356.12 722.4 2355.61 723.778 2355.25 725.457 2355.04 727.435 2354.82 729.413 2354.71 731.647 2354.71 734.135 2354.71 739.972 2355.26 744.255 2356.34 746.986 2357.42 749.716 2359.1 751.081 2361.37 751.081 2363.54 751.081 2365.15 749.797 2366.19 747.227 2367.24 744.658 2367.77 740.679 2367.77 735.29 2367.77 731.172 2367.5 727.838 2366.96 725.287 2366.42 722.735 2365.68 720.905 2364.72 719.795 2363.76 718.685 2362.6 718.13 2361.24 718.13ZM2361.37 715.847C2365.3 715.847 2368.21 717.36 2370.13 720.385 2372.04 723.411 2373 727.986 2373 734.109 2373 740.446 2371.98 745.24 2369.93 748.49 2367.88 751.739 2364.88 753.364 2360.94 753.364 2357.08 753.364 2354.2 751.842 2352.31 748.799 2350.42 745.755 2349.48 741.136 2349.48 734.941 2349.48 731.647 2349.77 728.8 2350.35 726.401 2350.93 724.002 2351.75 722.019 2352.79 720.453 2353.84 718.886 2355.1 717.727 2356.57 716.975 2358.04 716.223 2359.64 715.847 2361.37 715.847Z" fill-rule="evenodd"/><text fill="#000000" fill-opacity="0" font-family="Arial,Arial_MSFontService,sans-serif" font-size="37.5171" x="2349.48" y="748.674">0</text><path d="M2129.04 844.937C2128.25 844.937 2127.4 844.964 2126.49 845.018L2119.53 876.788C2120.05 876.841 2121.04 876.868 2122.51 876.868 2125.41 876.868 2127.87 876.363 2129.9 875.351 2131.92 874.339 2133.67 872.755 2135.13 870.598 2136.6 868.44 2137.68 866.166 2138.38 863.776 2139.08 861.386 2139.43 858.866 2139.43 856.216 2139.43 852.475 2138.56 849.659 2136.81 847.77 2135.07 845.882 2132.47 844.937 2129.04 844.937ZM2118.78 842.601 2128.96 842.601C2131.66 842.601 2133.85 842.807 2135.54 843.218 2137.22 843.63 2138.79 844.373 2140.25 845.447 2141.71 846.522 2142.8 847.949 2143.54 849.731 2144.27 851.512 2144.64 853.62 2144.64 856.055 2144.64 858.472 2144.36 860.782 2143.81 862.984 2143.25 865.186 2142.46 867.214 2141.42 869.067 2140.38 870.92 2139.13 872.531 2137.68 873.901 2136.23 875.27 2134.83 876.322 2133.47 877.056 2132.11 877.79 2130.59 878.341 2128.9 878.708 2127.22 879.075 2125.26 879.258 2123.02 879.258L2111.74 879.258 2112.04 877.943C2112.72 877.835 2113.23 877.661 2113.57 877.419 2113.91 877.177 2114.2 876.841 2114.43 876.412 2114.66 875.982 2114.88 875.458 2115.07 874.841 2115.27 874.223 2115.56 873.028 2115.96 871.256L2120.52 850.577C2120.92 848.786 2121.11 847.345 2121.11 846.253 2121.11 845.412 2120.9 844.825 2120.48 844.494 2120.06 844.163 2119.4 843.97 2118.48 843.917ZM2078.78 842.601 2089.52 842.601 2089.23 843.917C2088.54 844.06 2088.06 844.221 2087.76 844.4 2087.47 844.579 2087.2 844.848 2086.97 845.206 2086.74 845.564 2086.49 846.123 2086.24 846.884 2085.99 847.645 2085.68 848.885 2085.3 850.604L2083.48 858.821 2097.9 858.821 2099.73 850.577C2099.89 849.843 2100.03 849.06 2100.14 848.227 2100.26 847.394 2100.32 846.737 2100.32 846.253 2100.32 845.412 2100.11 844.825 2099.69 844.494 2099.26 844.163 2098.6 843.97 2097.68 843.917L2097.98 842.601 2108.72 842.601 2108.43 843.917C2107.75 844.06 2107.26 844.221 2106.96 844.4 2106.67 844.579 2106.4 844.848 2106.17 845.206 2105.94 845.564 2105.7 846.123 2105.45 846.884 2105.2 847.645 2104.88 848.885 2104.51 850.604L2099.91 871.444C2099.68 872.5 2099.53 873.337 2099.46 873.955 2099.39 874.572 2099.35 875.132 2099.35 875.633 2099.35 876.439 2099.55 877.007 2099.95 877.338 2100.36 877.67 2101.03 877.871 2101.98 877.943L2101.69 879.258 2090.94 879.258 2091.24 877.943C2091.92 877.835 2092.43 877.661 2092.77 877.419 2093.11 877.177 2093.4 876.841 2093.63 876.412 2093.86 875.982 2094.08 875.458 2094.27 874.841 2094.47 874.223 2094.77 873.028 2095.16 871.256L2097.36 861.292 2082.94 861.292 2080.71 871.444C2080.51 872.339 2080.37 873.077 2080.28 873.659 2080.19 874.241 2080.15 874.899 2080.15 875.633 2080.15 876.403 2080.33 876.958 2080.69 877.298 2081.04 877.638 2081.74 877.853 2082.78 877.943L2082.48 879.258 2071.74 879.258 2072.04 877.943C2072.72 877.835 2073.23 877.661 2073.57 877.419 2073.91 877.177 2074.2 876.841 2074.43 876.412 2074.66 875.982 2074.88 875.458 2075.07 874.841 2075.27 874.223 2075.56 873.028 2075.96 871.256L2080.52 850.577C2080.69 849.843 2080.82 849.06 2080.94 848.227 2081.06 847.394 2081.11 846.737 2081.11 846.253 2081.11 845.412 2080.9 844.825 2080.48 844.494 2080.06 844.163 2079.4 843.97 2078.48 843.917Z" fill-rule="evenodd"/><text fill="#000000" fill-opacity="0" font-family="Arial,Arial_MSFontService,sans-serif" font-size="36.6577" x="2071.74" y="874.676">ğ»ğ·</text><path d="M2160.23 862.265 2160.76 863.769C2157.71 864.772 2155.45 866.728 2153.99 869.638 2152.52 872.548 2151.79 876.204 2151.79 880.605 2151.79 885.162 2152.52 888.919 2153.99 891.874 2155.45 894.83 2157.69 896.809 2160.7 897.812L2160.23 899.316C2156.41 898.313 2153.49 896.155 2151.46 892.841 2149.43 889.527 2148.41 885.514 2148.41 880.8 2148.41 876.1 2149.43 872.086 2151.47 868.759 2153.51 865.432 2156.43 863.268 2160.23 862.265Z" fill-rule="evenodd"/><text fill="#000000" fill-opacity="0" font-family="Arial,Arial_MSFontService,sans-serif" font-size="37.0508" x="2148.41" y="894.684">(</text><path d="M2162.9 863.828 2186.1 863.828 2186.1 871.035 2183.89 871.035C2183.62 870.019 2183.36 869.189 2183.1 868.544 2182.85 867.9 2182.55 867.392 2182.21 867.021 2181.88 866.65 2181.47 866.393 2181 866.249 2180.53 866.106 2179.95 866.022 2179.25 865.995L2176.59 865.995 2176.59 885.468C2176.6 886.119 2176.64 886.656 2176.69 887.079 2176.74 887.503 2176.86 887.851 2177.05 888.124 2177.24 888.398 2177.52 888.616 2177.9 888.779 2178.28 888.941 2178.8 889.094 2179.48 889.238L2179.48 890.488 2169.52 890.488 2169.52 889.238C2170.03 889.147 2170.46 889.049 2170.82 888.945 2171.18 888.841 2171.47 888.668 2171.71 888.427 2171.94 888.186 2172.11 887.835 2172.22 887.372 2172.33 886.91 2172.39 886.275 2172.39 885.468L2172.39 865.995 2169.75 865.995C2169.38 865.995 2169.05 866.012 2168.77 866.044 2168.49 866.077 2168.24 866.132 2168.02 866.21 2167.79 866.288 2167.59 866.389 2167.41 866.513 2167.23 866.637 2167.05 866.783 2166.88 866.953 2166.56 867.265 2166.25 867.731 2165.96 868.349 2165.68 868.967 2165.4 869.863 2165.14 871.035L2162.9 871.035Z" fill-rule="evenodd"/><text fill="#000000" fill-opacity="0" font-family="Arial,Arial_MSFontService,sans-serif" font-size="26.6602" x="2162.9" y="887.155">T</text><path d="M2199.06 878.866 2200.13 878.866C2200.11 879.091 2200.08 879.639 2200.06 880.509 2200.04 881.379 2200.03 882.255 2200.03 883.136L2200.03 894.479C2200.03 895.156 2200.09 895.64 2200.21 895.93 2200.33 896.22 2200.51 896.448 2200.77 896.614 2201.03 896.781 2201.47 896.91 2202.09 897.001 2202.72 897.092 2203.7 897.149 2205.06 897.17L2205.06 898.669 2191.7 898.669 2191.7 897.17C2193.01 897.138 2193.97 897.079 2194.58 896.993 2195.18 896.907 2195.63 896.781 2195.91 896.614 2196.2 896.448 2196.41 896.22 2196.54 895.93 2196.68 895.64 2196.74 895.156 2196.74 894.479L2196.74 883.796C2196.74 883.41 2196.67 883.13 2196.51 882.958 2196.35 882.787 2196.13 882.701 2195.84 882.701 2195.52 882.701 2195.01 882.875 2194.33 883.224 2193.64 883.573 2192.76 884.086 2191.68 884.763L2190.83 883.136Z" fill-rule="evenodd"/><text fill="#000000" fill-opacity="0" font-family="Arial,Arial_MSFontService,sans-serif" font-size="19.8032" x="2190.83" y="896.193">1</text><path d="M2211.63 885.956 2215.05 885.956C2215.24 886.868 2215.33 887.766 2215.33 888.652 2215.33 889.563 2215.17 890.397 2214.86 891.152 2214.54 891.907 2214.05 892.659 2213.36 893.408 2212.68 894.156 2211.74 894.98 2210.54 895.878L2209.49 894.687C2210.15 894.062 2210.63 893.499 2210.93 892.997 2211.23 892.496 2211.45 891.926 2211.58 891.288 2211.71 890.65 2211.77 889.85 2211.77 888.886 2211.77 887.897 2211.73 886.92 2211.63 885.956Z" fill-rule="evenodd"/><text fill="#000000" fill-opacity="0" font-family="Arial,Arial_MSFontService,sans-serif" font-size="9.92188" x="2209.49" y="894.638">,</text><path d="M2218.43 863.828 2241.63 863.828 2241.63 871.035 2239.42 871.035C2239.15 870.019 2238.88 869.189 2238.63 868.544 2238.38 867.9 2238.08 867.392 2237.74 867.021 2237.4 866.65 2237 866.393 2236.53 866.249 2236.06 866.106 2235.48 866.022 2234.77 865.995L2232.12 865.995 2232.12 885.468C2232.13 886.119 2232.16 886.656 2232.21 887.079 2232.27 887.503 2232.39 887.851 2232.58 888.124 2232.76 888.398 2233.05 888.616 2233.43 888.779 2233.8 888.941 2234.33 889.094 2235.01 889.238L2235.01 890.488 2225.05 890.488 2225.05 889.238C2225.55 889.147 2225.99 889.049 2226.35 888.945 2226.7 888.841 2227 888.668 2227.23 888.427 2227.47 888.186 2227.64 887.835 2227.75 887.372 2227.86 886.91 2227.92 886.275 2227.92 885.468L2227.92 865.995 2225.28 865.995C2224.9 865.995 2224.57 866.012 2224.29 866.044 2224.01 866.077 2223.76 866.132 2223.54 866.21 2223.32 866.288 2223.12 866.389 2222.94 866.513 2222.75 866.637 2222.58 866.783 2222.41 866.953 2222.08 867.265 2221.78 867.731 2221.49 868.349 2221.21 868.967 2220.93 869.863 2220.67 871.035L2218.43 871.035Z" fill-rule="evenodd"/><text fill="#000000" fill-opacity="0" font-family="Arial,Arial_MSFontService,sans-serif" font-size="26.6602" x="2218.43" y="887.155">T</text><path d="M2253.21 878.721C2254.44 878.721 2255.46 878.855 2256.28 879.123 2257.09 879.392 2257.73 879.741 2258.22 880.171 2258.7 880.601 2259.04 881.105 2259.23 881.685 2259.43 882.266 2259.52 882.862 2259.52 883.474 2259.52 884.247 2259.37 884.965 2259.05 885.625 2258.74 886.286 2258.23 887.006 2257.52 887.784 2256.81 888.563 2255.55 889.78 2253.72 891.434 2251.78 893.196 2250.36 894.721 2249.48 896.01L2255.3 896.01C2255.85 896.01 2256.27 895.983 2256.56 895.93 2256.85 895.876 2257.08 895.793 2257.25 895.68 2257.42 895.567 2257.57 895.425 2257.69 895.253 2257.8 895.081 2257.98 894.705 2258.22 894.125L2259.84 894.125 2259.51 898.669 2245.71 898.669 2245.71 897.783C2246.25 896.633 2246.98 895.503 2247.89 894.391 2248.8 893.279 2249.86 892.132 2251.08 890.951 2252.54 889.554 2253.58 888.501 2254.19 887.792 2254.8 887.083 2255.25 886.409 2255.55 885.77 2255.85 885.131 2255.99 884.489 2255.99 883.845 2255.99 882.781 2255.69 881.943 2255.09 881.331 2254.49 880.719 2253.62 880.413 2252.5 880.413 2251.52 880.413 2250.69 880.67 2250.01 881.186 2249.32 881.702 2248.81 882.464 2248.45 883.474L2246.21 883.474 2246.21 880.3C2247.61 879.73 2248.9 879.325 2250.07 879.083 2251.25 878.841 2252.29 878.721 2253.21 878.721Z" fill-rule="evenodd"/><text fill="#000000" fill-opacity="0" font-family="Arial,Arial_MSFontService,sans-serif" font-size="19.9482" x="2245.71" y="896.175">2</text><path d="M2265.81 862.265C2269.62 863.268 2272.54 865.432 2274.57 868.759 2276.61 872.086 2277.63 876.1 2277.63 880.8 2277.63 885.514 2276.61 889.527 2274.58 892.841 2272.55 896.155 2269.63 898.313 2265.81 899.316L2265.35 897.812C2268.35 896.809 2270.59 894.83 2272.05 891.874 2273.52 888.919 2274.25 885.162 2274.25 880.605 2274.25 876.204 2273.52 872.548 2272.06 869.638 2270.61 866.728 2268.35 864.772 2265.29 863.769Z" fill-rule="evenodd"/><text fill="#000000" fill-opacity="0" font-family="Arial,Arial_MSFontService,sans-serif" font-size="37.0508" x="2265.29" y="894.684">)</text><path d="M2302.74 846.871 2335.93 861.668 2335.93 865.428 2302.74 880.225 2302.74 876.197 2331.9 863.548 2302.74 850.899Z" fill-rule="evenodd"/><text fill="#000000" fill-opacity="0" font-family="Arial,Arial_MSFontService,sans-serif" font-size="33.3545" x="2302.74" y="876.056">&gt;</text><path d="M2370.5 844.454C2369.26 844.454 2368.23 844.821 2367.4 845.555 2366.56 846.289 2365.89 847.345 2365.38 848.724 2364.87 850.102 2364.51 851.781 2364.3 853.759 2364.08 855.738 2363.97 857.971 2363.97 860.46 2363.97 866.296 2364.51 870.58 2365.6 873.31 2366.68 876.04 2368.36 877.405 2370.63 877.405 2372.8 877.405 2374.41 876.121 2375.45 873.552 2376.5 870.983 2377.02 867.003 2377.02 861.614 2377.02 857.497 2376.76 854.162 2376.22 851.611 2375.68 849.06 2374.93 847.229 2373.98 846.119 2373.02 845.009 2371.86 844.454 2370.5 844.454ZM2370.63 842.171C2374.55 842.171 2377.47 843.684 2379.39 846.71 2381.3 849.735 2382.26 854.31 2382.26 860.433 2382.26 866.771 2381.24 871.564 2379.19 874.814 2377.14 878.063 2374.14 879.688 2370.2 879.688 2366.34 879.688 2363.46 878.166 2361.57 875.123 2359.68 872.079 2358.74 867.46 2358.74 861.265 2358.74 857.971 2359.03 855.124 2359.61 852.725 2360.19 850.326 2361.01 848.343 2362.05 846.777 2363.1 845.21 2364.36 844.051 2365.83 843.299 2367.29 842.547 2368.9 842.171 2370.63 842.171Z" fill-rule="evenodd"/><text fill="#000000" fill-opacity="0" font-family="Arial,Arial_MSFontService,sans-serif" font-size="37.5171" x="2358.74" y="874.999">0</text><path d="M2073.07 968.925 2084.27 968.925 2083.98 970.241C2083.17 970.295 2082.54 970.532 2082.08 970.953 2081.63 971.373 2081.31 971.946 2081.13 972.671 2080.95 973.396 2080.86 974.421 2080.86 975.746L2080.86 976.659C2080.86 976.982 2080.87 977.313 2080.89 977.653L2081.13 988.154C2081.15 988.923 2081.16 990.83 2081.16 993.874L2081.13 999.487 2081.4 999.487 2096.25 968.925 2100.31 968.925 2100.31 986.838C2100.31 989.792 2100.23 994.008 2100.06 999.487L2100.33 999.487 2111.21 978.459C2111.62 977.671 2112.06 976.744 2112.51 975.679 2112.97 974.614 2113.2 973.696 2113.2 972.927 2113.2 971.423 2112.3 970.527 2110.51 970.241L2110.81 968.925 2121.79 968.925 2121.49 970.241C2120.67 970.348 2119.88 970.8 2119.13 971.597 2118.38 972.394 2117.38 973.947 2116.12 976.257L2099.98 1005.93 2095.85 1005.93 2095.85 986.274C2095.85 983.087 2095.93 979.766 2096.09 976.31L2095.82 976.31 2081.45 1005.93 2077.24 1005.93 2075.97 976.069C2075.9 974.583 2075.75 973.446 2075.5 972.658 2075.26 971.87 2074.94 971.297 2074.52 970.939 2074.11 970.581 2073.53 970.348 2072.78 970.241Z" fill-rule="evenodd"/><text fill="#000000" fill-opacity="0" font-family="Arial,Arial_MSFontService,sans-serif" font-size="37.0068" x="2072.78" y="1001.31">ğ‘Š</text><path d="M2130.12 988.589 2130.64 990.093C2127.6 991.096 2125.34 993.052 2123.88 995.962 2122.41 998.872 2121.68 1002.53 2121.68 1006.93 2121.68 1011.49 2122.41 1015.24 2123.88 1018.2 2125.34 1021.15 2127.58 1023.13 2130.59 1024.14L2130.12 1025.64C2126.3 1024.64 2123.38 1022.48 2121.35 1019.17 2119.32 1015.85 2118.3 1011.84 2118.3 1007.12 2118.3 1002.42 2119.32 998.41 2121.36 995.083 2123.39 991.757 2126.31 989.592 2130.12 988.589Z" fill-rule="evenodd"/><text fill="#000000" fill-opacity="0" font-family="Arial,Arial_MSFontService,sans-serif" font-size="37.0508" x="2118.3" y="1021.01">(</text><path d="M2132.79 990.152 2155.99 990.152 2155.99 997.359 2153.78 997.359C2153.51 996.343 2153.24 995.513 2152.99 994.869 2152.74 994.224 2152.44 993.716 2152.1 993.345 2151.76 992.974 2151.36 992.717 2150.89 992.574 2150.42 992.43 2149.84 992.346 2149.13 992.32L2146.48 992.32 2146.48 1011.79C2146.49 1012.44 2146.52 1012.98 2146.57 1013.4 2146.63 1013.83 2146.75 1014.18 2146.94 1014.45 2147.12 1014.72 2147.41 1014.94 2147.79 1015.1 2148.16 1015.27 2148.69 1015.42 2149.37 1015.56L2149.37 1016.81 2139.41 1016.81 2139.41 1015.56C2139.91 1015.47 2140.35 1015.37 2140.71 1015.27 2141.06 1015.16 2141.36 1014.99 2141.59 1014.75 2141.83 1014.51 2142 1014.16 2142.11 1013.7 2142.22 1013.23 2142.28 1012.6 2142.28 1011.79L2142.28 992.32 2139.64 992.32C2139.26 992.32 2138.93 992.336 2138.65 992.369 2138.37 992.401 2138.12 992.456 2137.9 992.535 2137.68 992.613 2137.48 992.714 2137.3 992.837 2137.11 992.961 2136.94 993.107 2136.77 993.277 2136.44 993.589 2136.14 994.055 2135.85 994.673 2135.57 995.292 2135.29 996.187 2135.03 997.359L2132.79 997.359Z" fill-rule="evenodd"/><text fill="#000000" fill-opacity="0" font-family="Arial,Arial_MSFontService,sans-serif" font-size="26.6602" x="2132.79" y="1013.48">T</text><path d="M2168.95 1005.19 2170.02 1005.19C2169.99 1005.42 2169.97 1005.96 2169.95 1006.83 2169.93 1007.7 2169.92 1008.58 2169.92 1009.46L2169.92 1020.8C2169.92 1021.48 2169.98 1021.96 2170.1 1022.25 2170.21 1022.54 2170.4 1022.77 2170.66 1022.94 2170.92 1023.11 2171.36 1023.23 2171.98 1023.33 2172.6 1023.42 2173.59 1023.47 2174.95 1023.49L2174.95 1024.99 2161.59 1024.99 2161.59 1023.49C2162.9 1023.46 2163.86 1023.4 2164.46 1023.32 2165.07 1023.23 2165.52 1023.11 2165.8 1022.94 2166.09 1022.77 2166.3 1022.54 2166.43 1022.25 2166.56 1021.96 2166.63 1021.48 2166.63 1020.8L2166.63 1010.12C2166.63 1009.73 2166.55 1009.45 2166.4 1009.28 2166.24 1009.11 2166.02 1009.02 2165.73 1009.02 2165.41 1009.02 2164.9 1009.2 2164.21 1009.55 2163.53 1009.9 2162.65 1010.41 2161.57 1011.09L2160.72 1009.46Z" fill-rule="evenodd"/><text fill="#000000" fill-opacity="0" font-family="Arial,Arial_MSFontService,sans-serif" font-size="19.8032" x="2160.72" y="1022.52">1</text><path d="M2181.52 1012.28 2184.94 1012.28C2185.12 1013.19 2185.21 1014.09 2185.21 1014.98 2185.21 1015.89 2185.06 1016.72 2184.75 1017.48 2184.43 1018.23 2183.93 1018.98 2183.25 1019.73 2182.57 1020.48 2181.63 1021.3 2180.43 1022.2L2179.37 1021.01C2180.04 1020.39 2180.52 1019.82 2180.82 1019.32 2181.12 1018.82 2181.33 1018.25 2181.46 1017.61 2181.59 1016.97 2181.66 1016.17 2181.66 1015.21 2181.66 1014.22 2181.61 1013.24 2181.52 1012.28Z" fill-rule="evenodd"/><text fill="#000000" fill-opacity="0" font-family="Arial,Arial_MSFontService,sans-serif" font-size="9.92188" x="2179.37" y="1020.96">,</text><path d="M2188.31 990.152 2211.52 990.152 2211.52 997.359 2209.31 997.359C2209.04 996.343 2208.77 995.513 2208.52 994.869 2208.26 994.224 2207.97 993.716 2207.63 993.345 2207.29 992.974 2206.89 992.717 2206.42 992.574 2205.95 992.43 2205.36 992.346 2204.66 992.32L2202 992.32 2202 1011.79C2202.02 1012.44 2202.05 1012.98 2202.1 1013.4 2202.15 1013.83 2202.27 1014.18 2202.46 1014.45 2202.65 1014.72 2202.94 1014.94 2203.31 1015.1 2203.69 1015.27 2204.22 1015.42 2204.89 1015.56L2204.89 1016.81 2194.93 1016.81 2194.93 1015.56C2195.44 1015.47 2195.87 1015.37 2196.23 1015.27 2196.59 1015.16 2196.89 1014.99 2197.12 1014.75 2197.36 1014.51 2197.53 1014.16 2197.64 1013.7 2197.75 1013.23 2197.8 1012.6 2197.8 1011.79L2197.8 992.32 2195.17 992.32C2194.79 992.32 2194.46 992.336 2194.18 992.369 2193.9 992.401 2193.65 992.456 2193.43 992.535 2193.21 992.613 2193.01 992.714 2192.82 992.837 2192.64 992.961 2192.47 993.107 2192.3 993.277 2191.97 993.589 2191.67 994.055 2191.38 994.673 2191.09 995.292 2190.82 996.187 2190.56 997.359L2188.31 997.359Z" fill-rule="evenodd"/><text fill="#000000" fill-opacity="0" font-family="Arial,Arial_MSFontService,sans-serif" font-size="26.6602" x="2188.31" y="1013.48">T</text><path d="M2223.09 1005.04C2224.33 1005.04 2225.35 1005.18 2226.16 1005.45 2226.97 1005.72 2227.62 1006.07 2228.1 1006.5 2228.59 1006.92 2228.93 1007.43 2229.12 1008.01 2229.31 1008.59 2229.41 1009.19 2229.41 1009.8 2229.41 1010.57 2229.25 1011.29 2228.94 1011.95 2228.63 1012.61 2228.12 1013.33 2227.41 1014.11 2226.7 1014.89 2225.44 1016.1 2223.61 1017.76 2221.66 1019.52 2220.25 1021.05 2219.37 1022.33L2225.19 1022.33C2225.74 1022.33 2226.15 1022.31 2226.44 1022.25 2226.73 1022.2 2226.97 1022.12 2227.14 1022 2227.31 1021.89 2227.45 1021.75 2227.57 1021.58 2227.69 1021.41 2227.87 1021.03 2228.1 1020.45L2229.73 1020.45 2229.39 1024.99 2215.6 1024.99 2215.6 1024.11C2216.14 1022.96 2216.86 1021.83 2217.78 1020.72 2218.69 1019.6 2219.75 1018.46 2220.97 1017.27 2222.43 1015.88 2223.46 1014.83 2224.08 1014.12 2224.69 1013.41 2225.14 1012.73 2225.44 1012.09 2225.73 1011.46 2225.88 1010.81 2225.88 1010.17 2225.88 1009.11 2225.58 1008.27 2224.98 1007.66 2224.38 1007.04 2223.51 1006.74 2222.38 1006.74 2221.41 1006.74 2220.58 1006.99 2219.89 1007.51 2219.21 1008.03 2218.69 1008.79 2218.34 1009.8L2216.1 1009.8 2216.1 1006.62C2217.5 1006.05 2218.78 1005.65 2219.96 1005.41 2221.14 1005.17 2222.18 1005.04 2223.09 1005.04Z" fill-rule="evenodd"/><text fill="#000000" fill-opacity="0" font-family="Arial,Arial_MSFontService,sans-serif" font-size="19.9482" x="2215.6" y="1022.5">2</text><path d="M2235.7 988.589C2239.5 989.592 2242.42 991.757 2244.46 995.083 2246.5 998.41 2247.52 1002.42 2247.52 1007.12 2247.52 1011.84 2246.5 1015.85 2244.47 1019.17 2242.44 1022.48 2239.52 1024.64 2235.7 1025.64L2235.23 1024.14C2238.24 1023.13 2240.48 1021.15 2241.94 1018.2 2243.41 1015.24 2244.14 1011.49 2244.14 1006.93 2244.14 1002.53 2243.41 998.872 2241.95 995.962 2240.49 993.052 2238.23 991.096 2235.17 990.093Z" fill-rule="evenodd"/><text fill="#000000" fill-opacity="0" font-family="Arial,Arial_MSFontService,sans-serif" font-size="37.0508" x="2235.17" y="1021.01">)</text><path d="M2272.63 973.195 2305.82 987.992 2305.82 991.752 2272.63 1006.55 2272.63 1002.52 2301.79 989.872 2272.63 977.223Z" fill-rule="evenodd"/><text fill="#000000" fill-opacity="0" font-family="Arial,Arial_MSFontService,sans-serif" font-size="33.3545" x="2272.63" y="1002.38">&gt;</text><path d="M2340.39 970.778C2339.15 970.778 2338.12 971.145 2337.28 971.879 2336.45 972.613 2335.78 973.669 2335.27 975.048 2334.76 976.427 2334.4 978.105 2334.18 980.083 2333.97 982.062 2333.86 984.295 2333.86 986.784 2333.86 992.621 2334.4 996.904 2335.49 999.634 2336.57 1002.36 2338.25 1003.73 2340.52 1003.73 2342.69 1003.73 2344.29 1002.45 2345.34 999.876 2346.39 997.307 2346.91 993.328 2346.91 987.939 2346.91 983.821 2346.64 980.486 2346.11 977.935 2345.57 975.384 2344.82 973.553 2343.86 972.443 2342.91 971.333 2341.75 970.778 2340.39 970.778ZM2340.52 968.495C2344.44 968.495 2347.36 970.008 2349.28 973.034 2351.19 976.06 2352.15 980.634 2352.15 986.757 2352.15 993.095 2351.12 997.889 2349.07 1001.14 2347.02 1004.39 2344.03 1006.01 2340.09 1006.01 2336.22 1006.01 2333.35 1004.49 2331.46 1001.45 2329.57 998.403 2328.62 993.784 2328.62 987.59 2328.62 984.295 2328.91 981.449 2329.5 979.05 2330.08 976.65 2330.89 974.668 2331.94 973.101 2332.99 971.534 2334.25 970.375 2335.71 969.623 2337.18 968.871 2338.78 968.495 2340.52 968.495Z" fill-rule="evenodd"/><text fill="#000000" fill-opacity="0" font-family="Arial,Arial_MSFontService,sans-serif" font-size="37.5171" x="2328.62" y="1001.32">0</text><path d="M2085.92 1097.59C2085.13 1097.59 2084.28 1097.61 2083.37 1097.67L2076.41 1129.44C2076.93 1129.49 2077.92 1129.52 2079.39 1129.52 2082.29 1129.52 2084.75 1129.01 2086.78 1128 2088.8 1126.99 2090.54 1125.4 2092.01 1123.25 2093.48 1121.09 2094.56 1118.81 2095.26 1116.42 2095.96 1114.03 2096.31 1111.51 2096.31 1108.86 2096.31 1105.12 2095.44 1102.31 2093.69 1100.42 2091.95 1098.53 2089.35 1097.59 2085.92 1097.59ZM2075.66 1095.25 2085.84 1095.25C2088.54 1095.25 2090.73 1095.46 2092.42 1095.87 2094.1 1096.28 2095.67 1097.02 2097.13 1098.1 2098.59 1099.17 2099.68 1100.6 2100.42 1102.38 2101.15 1104.16 2101.52 1106.27 2101.52 1108.7 2101.52 1111.12 2101.24 1113.43 2100.69 1115.63 2100.13 1117.83 2099.34 1119.86 2098.3 1121.72 2097.26 1123.57 2096.01 1125.18 2094.56 1126.55 2093.11 1127.92 2091.71 1128.97 2090.35 1129.7 2088.99 1130.44 2087.47 1130.99 2085.78 1131.36 2084.1 1131.72 2082.14 1131.91 2079.9 1131.91L2068.62 1131.91 2068.92 1130.59C2069.6 1130.48 2070.11 1130.31 2070.45 1130.07 2070.79 1129.83 2071.07 1129.49 2071.31 1129.06 2071.54 1128.63 2071.75 1128.11 2071.95 1127.49 2072.15 1126.87 2072.44 1125.68 2072.84 1123.9L2077.4 1103.23C2077.8 1101.43 2077.99 1099.99 2077.99 1098.9 2077.99 1098.06 2077.78 1097.47 2077.36 1097.14 2076.94 1096.81 2076.28 1096.62 2075.36 1096.57Z" fill-rule="evenodd"/><text fill="#000000" fill-opacity="0" font-family="Arial,Arial_MSFontService,sans-serif" font-size="36.6577" x="2068.62" y="1127.32">ğ·</text><path d="M2117 1114.91 2117.53 1116.42C2114.48 1117.42 2112.23 1119.38 2110.76 1122.29 2109.3 1125.2 2108.57 1128.85 2108.57 1133.25 2108.57 1137.81 2109.3 1141.57 2110.76 1144.52 2112.23 1147.48 2114.47 1149.46 2117.47 1150.46L2117 1151.96C2113.19 1150.96 2110.27 1148.8 2108.23 1145.49 2106.2 1142.18 2105.19 1138.16 2105.19 1133.45 2105.19 1128.75 2106.21 1124.73 2108.24 1121.41 2110.28 1118.08 2113.2 1115.92 2117 1114.91Z" fill-rule="evenodd"/><text fill="#000000" fill-opacity="0" font-family="Arial,Arial_MSFontService,sans-serif" font-size="37.0508" x="2105.19" y="1147.33">(</text><path d="M2119.67 1116.48 2142.88 1116.48 2142.88 1123.68 2140.67 1123.68C2140.4 1122.67 2140.13 1121.84 2139.88 1121.19 2139.62 1120.55 2139.33 1120.04 2138.99 1119.67 2138.65 1119.3 2138.25 1119.04 2137.78 1118.9 2137.31 1118.75 2136.72 1118.67 2136.02 1118.64L2133.37 1118.64 2133.37 1138.12C2133.38 1138.77 2133.41 1139.3 2133.46 1139.73 2133.51 1140.15 2133.64 1140.5 2133.82 1140.77 2134.01 1141.05 2134.3 1141.26 2134.67 1141.43 2135.05 1141.59 2135.58 1141.74 2136.26 1141.89L2136.26 1143.14 2126.29 1143.14 2126.29 1141.89C2126.8 1141.79 2127.24 1141.7 2127.59 1141.59 2127.95 1141.49 2128.25 1141.32 2128.48 1141.08 2128.72 1140.83 2128.89 1140.48 2129 1140.02 2129.11 1139.56 2129.17 1138.92 2129.17 1138.12L2129.17 1118.64 2126.53 1118.64C2126.15 1118.64 2125.82 1118.66 2125.54 1118.69 2125.26 1118.73 2125.01 1118.78 2124.79 1118.86 2124.57 1118.94 2124.37 1119.04 2124.19 1119.16 2124 1119.29 2123.83 1119.43 2123.66 1119.6 2123.33 1119.91 2123.03 1120.38 2122.74 1121 2122.45 1121.62 2122.18 1122.51 2121.92 1123.68L2119.67 1123.68Z" fill-rule="evenodd"/><text fill="#000000" fill-opacity="0" font-family="Arial,Arial_MSFontService,sans-serif" font-size="26.6602" x="2119.67" y="1139.8">T</text><path d="M2155.84 1131.51 2156.9 1131.51C2156.88 1131.74 2156.86 1132.29 2156.84 1133.16 2156.82 1134.03 2156.81 1134.9 2156.81 1135.78L2156.81 1147.13C2156.81 1147.8 2156.87 1148.29 2156.98 1148.58 2157.1 1148.87 2157.29 1149.1 2157.55 1149.26 2157.81 1149.43 2158.25 1149.56 2158.87 1149.65 2159.49 1149.74 2160.48 1149.8 2161.83 1149.82L2161.83 1151.32 2148.48 1151.32 2148.48 1149.82C2149.79 1149.79 2150.75 1149.73 2151.35 1149.64 2151.96 1149.56 2152.41 1149.43 2152.69 1149.26 2152.97 1149.1 2153.18 1148.87 2153.32 1148.58 2153.45 1148.29 2153.52 1147.8 2153.52 1147.13L2153.52 1136.44C2153.52 1136.06 2153.44 1135.78 2153.29 1135.61 2153.13 1135.44 2152.91 1135.35 2152.62 1135.35 2152.29 1135.35 2151.79 1135.52 2151.1 1135.87 2150.42 1136.22 2149.53 1136.73 2148.46 1137.41L2147.61 1135.78Z" fill-rule="evenodd"/><text fill="#000000" fill-opacity="0" font-family="Arial,Arial_MSFontService,sans-serif" font-size="19.8032" x="2147.61" y="1148.84">1</text><path d="M2168.41 1138.6 2171.83 1138.6C2172.01 1139.52 2172.1 1140.41 2172.1 1141.3 2172.1 1142.21 2171.95 1143.04 2171.63 1143.8 2171.32 1144.56 2170.82 1145.31 2170.14 1146.06 2169.46 1146.8 2168.51 1147.63 2167.32 1148.53L2166.26 1147.34C2166.93 1146.71 2167.41 1146.15 2167.71 1145.65 2168.01 1145.14 2168.22 1144.57 2168.35 1143.94 2168.48 1143.3 2168.55 1142.5 2168.55 1141.53 2168.55 1140.54 2168.5 1139.57 2168.41 1138.6Z" fill-rule="evenodd"/><text fill="#000000" fill-opacity="0" font-family="Arial,Arial_MSFontService,sans-serif" font-size="9.92188" x="2166.26" y="1147.29">,</text><path d="M2175.2 1116.48 2198.4 1116.48 2198.4 1123.68 2196.2 1123.68C2195.92 1122.67 2195.66 1121.84 2195.41 1121.19 2195.15 1120.55 2194.86 1120.04 2194.52 1119.67 2194.18 1119.3 2193.77 1119.04 2193.31 1118.9 2192.84 1118.75 2192.25 1118.67 2191.55 1118.64L2188.89 1118.64 2188.89 1138.12C2188.91 1138.77 2188.94 1139.3 2188.99 1139.73 2189.04 1140.15 2189.16 1140.5 2189.35 1140.77 2189.54 1141.05 2189.82 1141.26 2190.2 1141.43 2190.58 1141.59 2191.11 1141.74 2191.78 1141.89L2191.78 1143.14 2181.82 1143.14 2181.82 1141.89C2182.33 1141.79 2182.76 1141.7 2183.12 1141.59 2183.48 1141.49 2183.77 1141.32 2184.01 1141.08 2184.24 1140.83 2184.42 1140.48 2184.53 1140.02 2184.64 1139.56 2184.69 1138.92 2184.69 1138.12L2184.69 1118.64 2182.06 1118.64C2181.68 1118.64 2181.35 1118.66 2181.07 1118.69 2180.79 1118.73 2180.54 1118.78 2180.32 1118.86 2180.1 1118.94 2179.89 1119.04 2179.71 1119.16 2179.53 1119.29 2179.35 1119.43 2179.19 1119.6 2178.86 1119.91 2178.55 1120.38 2178.27 1121 2177.98 1121.62 2177.71 1122.51 2177.45 1123.68L2175.2 1123.68Z" fill-rule="evenodd"/><text fill="#000000" fill-opacity="0" font-family="Arial,Arial_MSFontService,sans-serif" font-size="26.6602" x="2175.2" y="1139.8">T</text><path d="M2209.98 1131.37C2211.22 1131.37 2212.24 1131.5 2213.05 1131.77 2213.86 1132.04 2214.51 1132.39 2214.99 1132.82 2215.48 1133.25 2215.81 1133.75 2216.01 1134.33 2216.2 1134.91 2216.3 1135.51 2216.3 1136.12 2216.3 1136.9 2216.14 1137.61 2215.83 1138.27 2215.52 1138.93 2215.01 1139.65 2214.3 1140.43 2213.59 1141.21 2212.32 1142.43 2210.5 1144.08 2208.55 1145.84 2207.14 1147.37 2206.26 1148.66L2212.08 1148.66C2212.62 1148.66 2213.04 1148.63 2213.33 1148.58 2213.62 1148.52 2213.85 1148.44 2214.03 1148.33 2214.2 1148.22 2214.34 1148.07 2214.46 1147.9 2214.58 1147.73 2214.76 1147.35 2214.99 1146.77L2216.62 1146.77 2216.28 1151.32 2202.49 1151.32 2202.49 1150.43C2203.03 1149.28 2203.75 1148.15 2204.66 1147.04 2205.58 1145.93 2206.64 1144.78 2207.85 1143.6 2209.32 1142.2 2210.35 1141.15 2210.96 1140.44 2211.58 1139.73 2212.03 1139.06 2212.33 1138.42 2212.62 1137.78 2212.77 1137.14 2212.77 1136.49 2212.77 1135.43 2212.47 1134.59 2211.87 1133.98 2211.26 1133.37 2210.4 1133.06 2209.27 1133.06 2208.29 1133.06 2207.46 1133.32 2206.78 1133.83 2206.1 1134.35 2205.58 1135.11 2205.23 1136.12L2202.99 1136.12 2202.99 1132.95C2204.38 1132.38 2205.67 1131.97 2206.85 1131.73 2208.02 1131.49 2209.07 1131.37 2209.98 1131.37Z" fill-rule="evenodd"/><text fill="#000000" fill-opacity="0" font-family="Arial,Arial_MSFontService,sans-serif" font-size="19.9482" x="2202.49" y="1148.82">2</text><path d="M2222.59 1114.91C2226.39 1115.92 2229.31 1118.08 2231.35 1121.41 2233.39 1124.73 2234.41 1128.75 2234.41 1133.45 2234.41 1138.16 2233.39 1142.18 2231.36 1145.49 2229.33 1148.8 2226.41 1150.96 2222.59 1151.96L2222.12 1150.46C2225.13 1149.46 2227.37 1147.48 2228.83 1144.52 2230.29 1141.57 2231.03 1137.81 2231.03 1133.25 2231.03 1128.85 2230.3 1125.2 2228.84 1122.29 2227.38 1119.38 2225.12 1117.42 2222.06 1116.42Z" fill-rule="evenodd"/><text fill="#000000" fill-opacity="0" font-family="Arial,Arial_MSFontService,sans-serif" font-size="37.0508" x="2222.06" y="1147.33">)</text><path d="M2259.51 1099.52 2292.71 1114.32 2292.71 1118.08 2259.51 1132.87 2259.51 1128.85 2288.68 1116.2 2259.51 1103.55Z" fill-rule="evenodd"/><text fill="#000000" fill-opacity="0" font-family="Arial,Arial_MSFontService,sans-serif" font-size="33.3545" x="2259.51" y="1128.7">&gt;</text><path d="M2327.27 1097.1C2326.04 1097.1 2325.01 1097.47 2324.17 1098.2 2323.34 1098.94 2322.67 1099.99 2322.16 1101.37 2321.65 1102.75 2321.29 1104.43 2321.07 1106.41 2320.86 1108.39 2320.75 1110.62 2320.75 1113.11 2320.75 1118.94 2321.29 1123.23 2322.37 1125.96 2323.46 1128.69 2325.14 1130.05 2327.41 1130.05 2329.57 1130.05 2331.18 1128.77 2332.23 1126.2 2333.28 1123.63 2333.8 1119.65 2333.8 1114.26 2333.8 1110.15 2333.53 1106.81 2332.99 1104.26 2332.46 1101.71 2331.71 1099.88 2330.75 1098.77 2329.79 1097.66 2328.64 1097.1 2327.27 1097.1ZM2327.41 1094.82C2331.33 1094.82 2334.25 1096.33 2336.16 1099.36 2338.08 1102.38 2339.04 1106.96 2339.04 1113.08 2339.04 1119.42 2338.01 1124.21 2335.96 1127.46 2333.91 1130.71 2330.92 1132.34 2326.98 1132.34 2323.11 1132.34 2320.23 1130.81 2318.34 1127.77 2316.46 1124.73 2315.51 1120.11 2315.51 1113.91 2315.51 1110.62 2315.8 1107.77 2316.38 1105.37 2316.97 1102.97 2317.78 1100.99 2318.83 1099.43 2319.88 1097.86 2321.13 1096.7 2322.6 1095.95 2324.07 1095.2 2325.67 1094.82 2327.41 1094.82Z" fill-rule="evenodd"/><text fill="#000000" fill-opacity="0" font-family="Arial,Arial_MSFontService,sans-serif" font-size="37.5171" x="2315.51" y="1127.65">0</text><path d="M2077.95 1221.57 2088.69 1221.57 2088.39 1222.89C2087.71 1223.03 2087.23 1223.19 2086.93 1223.37 2086.63 1223.55 2086.37 1223.82 2086.14 1224.18 2085.9 1224.54 2085.66 1225.1 2085.41 1225.86 2085.16 1226.62 2084.85 1227.86 2084.47 1229.58L2082.65 1237.79 2097.07 1237.79 2098.89 1229.55C2099.05 1228.82 2099.19 1228.03 2099.31 1227.2 2099.43 1226.37 2099.48 1225.71 2099.48 1225.23 2099.48 1224.38 2099.27 1223.8 2098.85 1223.47 2098.43 1223.14 2097.77 1222.94 2096.85 1222.89L2097.15 1221.57 2107.89 1221.57 2107.59 1222.89C2106.91 1223.03 2106.43 1223.19 2106.13 1223.37 2105.84 1223.55 2105.57 1223.82 2105.34 1224.18 2105.11 1224.54 2104.86 1225.1 2104.61 1225.86 2104.36 1226.62 2104.05 1227.86 2103.67 1229.58L2099.08 1250.42C2098.85 1251.47 2098.7 1252.31 2098.63 1252.93 2098.55 1253.54 2098.52 1254.1 2098.52 1254.61 2098.52 1255.41 2098.72 1255.98 2099.12 1256.31 2099.52 1256.64 2100.2 1256.84 2101.15 1256.92L2100.85 1258.23 2090.11 1258.23 2090.41 1256.92C2091.09 1256.81 2091.6 1256.63 2091.94 1256.39 2092.28 1256.15 2092.56 1255.81 2092.8 1255.38 2093.03 1254.95 2093.25 1254.43 2093.44 1253.81 2093.64 1253.2 2093.93 1252 2094.33 1250.23L2096.53 1240.26 2082.11 1240.26 2079.88 1250.42C2079.68 1251.31 2079.54 1252.05 2079.45 1252.63 2079.36 1253.21 2079.32 1253.87 2079.32 1254.61 2079.32 1255.38 2079.5 1255.93 2079.85 1256.27 2080.21 1256.61 2080.91 1256.83 2081.95 1256.92L2081.65 1258.23 2070.91 1258.23 2071.21 1256.92C2071.89 1256.81 2072.4 1256.63 2072.74 1256.39 2073.08 1256.15 2073.36 1255.81 2073.6 1255.38 2073.83 1254.95 2074.04 1254.43 2074.24 1253.81 2074.44 1253.2 2074.73 1252 2075.13 1250.23L2079.69 1229.55C2079.85 1228.82 2079.99 1228.03 2080.11 1227.2 2080.22 1226.37 2080.28 1225.71 2080.28 1225.23 2080.28 1224.38 2080.07 1223.8 2079.65 1223.47 2079.23 1223.14 2078.56 1222.94 2077.65 1222.89Z" fill-rule="evenodd"/><text fill="#000000" fill-opacity="0" font-family="Arial,Arial_MSFontService,sans-serif" font-size="36.6577" x="2070.91" y="1253.65">ğ»</text><path d="M2121.58 1241.24 2122.11 1242.74C2119.06 1243.74 2116.81 1245.7 2115.34 1248.61 2113.88 1251.52 2113.15 1255.18 2113.15 1259.58 2113.15 1264.13 2113.88 1267.89 2115.34 1270.85 2116.81 1273.8 2119.05 1275.78 2122.05 1276.78L2121.58 1278.29C2117.77 1277.29 2114.85 1275.13 2112.81 1271.81 2110.78 1268.5 2109.77 1264.49 2109.77 1259.77 2109.77 1255.07 2110.79 1251.06 2112.82 1247.73 2114.86 1244.41 2117.78 1242.24 2121.58 1241.24Z" fill-rule="evenodd"/><text fill="#000000" fill-opacity="0" font-family="Arial,Arial_MSFontService,sans-serif" font-size="37.0508" x="2109.77" y="1273.66">(</text><path d="M2124.25 1242.8 2147.46 1242.8 2147.46 1250.01 2145.25 1250.01C2144.98 1248.99 2144.71 1248.16 2144.46 1247.52 2144.21 1246.87 2143.91 1246.36 2143.57 1245.99 2143.23 1245.62 2142.83 1245.37 2142.36 1245.22 2141.89 1245.08 2141.3 1244.99 2140.6 1244.97L2137.95 1244.97 2137.95 1264.44C2137.96 1265.09 2137.99 1265.63 2138.04 1266.05 2138.09 1266.48 2138.22 1266.82 2138.4 1267.1 2138.59 1267.37 2138.88 1267.59 2139.25 1267.75 2139.63 1267.91 2140.16 1268.07 2140.84 1268.21L2140.84 1269.46 2130.88 1269.46 2130.88 1268.21C2131.38 1268.12 2131.82 1268.02 2132.17 1267.92 2132.53 1267.81 2132.83 1267.64 2133.06 1267.4 2133.3 1267.16 2133.47 1266.81 2133.58 1266.35 2133.69 1265.88 2133.75 1265.25 2133.75 1264.44L2133.75 1244.97 2131.11 1244.97C2130.73 1244.97 2130.4 1244.98 2130.12 1245.02 2129.84 1245.05 2129.59 1245.1 2129.37 1245.18 2129.15 1245.26 2128.95 1245.36 2128.77 1245.49 2128.58 1245.61 2128.41 1245.76 2128.24 1245.93 2127.91 1246.24 2127.61 1246.7 2127.32 1247.32 2127.03 1247.94 2126.76 1248.84 2126.5 1250.01L2124.25 1250.01Z" fill-rule="evenodd"/><text fill="#000000" fill-opacity="0" font-family="Arial,Arial_MSFontService,sans-serif" font-size="26.6602" x="2124.25" y="1266.13">T</text><path d="M2160.42 1257.84 2161.48 1257.84C2161.46 1258.06 2161.44 1258.61 2161.42 1259.48 2161.4 1260.35 2161.39 1261.23 2161.39 1262.11L2161.39 1273.45C2161.39 1274.13 2161.45 1274.61 2161.56 1274.9 2161.68 1275.19 2161.87 1275.42 2162.13 1275.59 2162.39 1275.75 2162.83 1275.88 2163.45 1275.97 2164.07 1276.07 2165.06 1276.12 2166.41 1276.14L2166.41 1277.64 2153.06 1277.64 2153.06 1276.14C2154.37 1276.11 2155.33 1276.05 2155.93 1275.97 2156.54 1275.88 2156.99 1275.75 2157.27 1275.59 2157.55 1275.42 2157.76 1275.19 2157.9 1274.9 2158.03 1274.61 2158.1 1274.13 2158.1 1273.45L2158.1 1262.77C2158.1 1262.38 2158.02 1262.1 2157.87 1261.93 2157.71 1261.76 2157.49 1261.67 2157.2 1261.67 2156.88 1261.67 2156.37 1261.85 2155.68 1262.2 2155 1262.55 2154.11 1263.06 2153.04 1263.74L2152.19 1262.11Z" fill-rule="evenodd"/><text fill="#000000" fill-opacity="0" font-family="Arial,Arial_MSFontService,sans-serif" font-size="19.8032" x="2152.19" y="1275.17">1</text><path d="M2172.99 1264.93 2176.41 1264.93C2176.59 1265.84 2176.68 1266.74 2176.68 1267.62 2176.68 1268.54 2176.53 1269.37 2176.21 1270.12 2175.9 1270.88 2175.4 1271.63 2174.72 1272.38 2174.04 1273.13 2173.09 1273.95 2171.9 1274.85L2170.84 1273.66C2171.51 1273.03 2171.99 1272.47 2172.29 1271.97 2172.59 1271.47 2172.8 1270.9 2172.93 1270.26 2173.06 1269.62 2173.13 1268.82 2173.13 1267.86 2173.13 1266.87 2173.08 1265.89 2172.99 1264.93Z" fill-rule="evenodd"/><text fill="#000000" fill-opacity="0" font-family="Arial,Arial_MSFontService,sans-serif" font-size="9.92188" x="2170.84" y="1273.61">,</text><path d="M2179.78 1242.8 2202.98 1242.8 2202.98 1250.01 2200.78 1250.01C2200.5 1248.99 2200.24 1248.16 2199.99 1247.52 2199.73 1246.87 2199.44 1246.36 2199.1 1245.99 2198.76 1245.62 2198.35 1245.37 2197.89 1245.22 2197.42 1245.08 2196.83 1244.99 2196.13 1244.97L2193.47 1244.97 2193.47 1264.44C2193.49 1265.09 2193.52 1265.63 2193.57 1266.05 2193.62 1266.48 2193.74 1266.82 2193.93 1267.1 2194.12 1267.37 2194.4 1267.59 2194.78 1267.75 2195.16 1267.91 2195.69 1268.07 2196.36 1268.21L2196.36 1269.46 2186.4 1269.46 2186.4 1268.21C2186.91 1268.12 2187.34 1268.02 2187.7 1267.92 2188.06 1267.81 2188.35 1267.64 2188.59 1267.4 2188.82 1267.16 2189 1266.81 2189.11 1266.35 2189.22 1265.88 2189.27 1265.25 2189.27 1264.44L2189.27 1244.97 2186.64 1244.97C2186.26 1244.97 2185.93 1244.98 2185.65 1245.02 2185.37 1245.05 2185.12 1245.1 2184.9 1245.18 2184.68 1245.26 2184.47 1245.36 2184.29 1245.49 2184.11 1245.61 2183.93 1245.76 2183.77 1245.93 2183.44 1246.24 2183.13 1246.7 2182.85 1247.32 2182.56 1247.94 2182.29 1248.84 2182.03 1250.01L2179.78 1250.01Z" fill-rule="evenodd"/><text fill="#000000" fill-opacity="0" font-family="Arial,Arial_MSFontService,sans-serif" font-size="26.6602" x="2179.78" y="1266.13">T</text><path d="M2214.56 1257.69C2215.8 1257.69 2216.82 1257.83 2217.63 1258.1 2218.44 1258.36 2219.09 1258.71 2219.57 1259.14 2220.06 1259.57 2220.39 1260.08 2220.59 1260.66 2220.78 1261.24 2220.88 1261.83 2220.88 1262.45 2220.88 1263.22 2220.72 1263.94 2220.41 1264.6 2220.1 1265.26 2219.59 1265.98 2218.88 1266.76 2218.17 1267.54 2216.9 1268.75 2215.08 1270.41 2213.13 1272.17 2211.72 1273.69 2210.84 1274.98L2216.66 1274.98C2217.2 1274.98 2217.62 1274.96 2217.91 1274.9 2218.2 1274.85 2218.43 1274.77 2218.61 1274.65 2218.78 1274.54 2218.92 1274.4 2219.04 1274.23 2219.16 1274.05 2219.34 1273.68 2219.57 1273.1L2221.2 1273.1 2220.86 1277.64 2207.07 1277.64 2207.07 1276.76C2207.61 1275.61 2208.33 1274.48 2209.24 1273.36 2210.16 1272.25 2211.22 1271.1 2212.43 1269.92 2213.9 1268.53 2214.93 1267.47 2215.54 1266.77 2216.16 1266.06 2216.61 1265.38 2216.91 1264.74 2217.2 1264.1 2217.35 1263.46 2217.35 1262.82 2217.35 1261.75 2217.05 1260.92 2216.45 1260.3 2215.84 1259.69 2214.98 1259.39 2213.85 1259.39 2212.87 1259.39 2212.04 1259.64 2211.36 1260.16 2210.68 1260.67 2210.16 1261.44 2209.81 1262.45L2207.57 1262.45 2207.57 1259.27C2208.96 1258.7 2210.25 1258.3 2211.43 1258.06 2212.6 1257.81 2213.65 1257.69 2214.56 1257.69Z" fill-rule="evenodd"/><text fill="#000000" fill-opacity="0" font-family="Arial,Arial_MSFontService,sans-serif" font-size="19.9482" x="2207.07" y="1275.15">2</text><path d="M2227.17 1241.24C2230.97 1242.24 2233.89 1244.41 2235.93 1247.73 2237.97 1251.06 2238.99 1255.07 2238.99 1259.77 2238.99 1264.49 2237.97 1268.5 2235.94 1271.81 2233.91 1275.13 2230.99 1277.29 2227.17 1278.29L2226.7 1276.78C2229.71 1275.78 2231.95 1273.8 2233.41 1270.85 2234.88 1267.89 2235.61 1264.13 2235.61 1259.58 2235.61 1255.18 2234.88 1251.52 2233.42 1248.61 2231.96 1245.7 2229.7 1243.74 2226.64 1242.74Z" fill-rule="evenodd"/><text fill="#000000" fill-opacity="0" font-family="Arial,Arial_MSFontService,sans-serif" font-size="37.0508" x="2226.64" y="1273.66">)</text><path d="M2264.09 1225.84 2297.29 1240.64 2297.29 1244.4 2264.09 1259.2 2264.09 1255.17 2293.26 1242.52 2264.09 1229.87Z" fill-rule="evenodd"/><text fill="#000000" fill-opacity="0" font-family="Arial,Arial_MSFontService,sans-serif" font-size="33.3545" x="2264.09" y="1255.03">&gt;</text><path d="M2331.85 1223.43C2330.62 1223.43 2329.59 1223.79 2328.75 1224.53 2327.92 1225.26 2327.25 1226.32 2326.74 1227.7 2326.23 1229.08 2325.87 1230.75 2325.65 1232.73 2325.44 1234.71 2325.33 1236.94 2325.33 1239.43 2325.33 1245.27 2325.87 1249.55 2326.95 1252.28 2328.04 1255.01 2329.72 1256.38 2331.99 1256.38 2334.16 1256.38 2335.76 1255.09 2336.81 1252.52 2337.86 1249.96 2338.38 1245.98 2338.38 1240.59 2338.38 1236.47 2338.11 1233.13 2337.57 1230.58 2337.04 1228.03 2336.29 1226.2 2335.33 1225.09 2334.37 1223.98 2333.22 1223.43 2331.85 1223.43ZM2331.99 1221.14C2335.91 1221.14 2338.83 1222.66 2340.74 1225.68 2342.66 1228.71 2343.62 1233.28 2343.62 1239.41 2343.62 1245.74 2342.59 1250.54 2340.54 1253.79 2338.49 1257.04 2335.5 1258.66 2331.56 1258.66 2327.69 1258.66 2324.81 1257.14 2322.93 1254.1 2321.04 1251.05 2320.09 1246.43 2320.09 1240.24 2320.09 1236.94 2320.38 1234.1 2320.96 1231.7 2321.55 1229.3 2322.36 1227.32 2323.41 1225.75 2324.46 1224.18 2325.71 1223.02 2327.18 1222.27 2328.65 1221.52 2330.25 1221.14 2331.99 1221.14Z" fill-rule="evenodd"/><text fill="#000000" fill-opacity="0" font-family="Arial,Arial_MSFontService,sans-serif" font-size="37.5171" x="2320.09" y="1253.97">0</text><path d="M2088.34 1350.26C2087.23 1350.26 2086.07 1350.29 2084.85 1350.34L2081.2 1366.62 2083.99 1366.62C2086.16 1366.62 2087.91 1366.39 2089.24 1365.94 2090.57 1365.5 2091.67 1364.8 2092.52 1363.86 2093.37 1362.92 2094.02 1361.81 2094.49 1360.52 2094.95 1359.23 2095.19 1357.82 2095.19 1356.28 2095.19 1354.2 2094.66 1352.68 2093.6 1351.71 2092.55 1350.74 2090.79 1350.26 2088.34 1350.26ZM2077.09 1347.9 2088.93 1347.9C2091.06 1347.9 2092.81 1348.06 2094.18 1348.39 2095.55 1348.73 2096.68 1349.24 2097.56 1349.93 2098.45 1350.61 2099.11 1351.49 2099.55 1352.54 2099.99 1353.6 2100.21 1354.83 2100.21 1356.22 2100.21 1358.91 2099.57 1361.24 2098.3 1363.21 2097.03 1365.17 2095.31 1366.62 2093.13 1367.56 2090.96 1368.49 2088.35 1368.95 2085.3 1368.95 2083.48 1368.95 2081.96 1368.92 2080.74 1368.84L2079.02 1376.74C2078.86 1377.47 2078.75 1378.04 2078.68 1378.43 2078.62 1378.83 2078.57 1379.25 2078.52 1379.71 2078.48 1380.16 2078.46 1380.57 2078.46 1380.93 2078.46 1381.48 2078.55 1381.92 2078.73 1382.23 2078.9 1382.55 2079.17 1382.77 2079.53 1382.92 2079.89 1383.06 2080.51 1383.17 2081.38 1383.24L2081.09 1384.56 2070.05 1384.56 2070.35 1383.24C2071.03 1383.13 2071.54 1382.96 2071.88 1382.72 2072.22 1382.47 2072.5 1382.14 2072.74 1381.71 2072.97 1381.28 2073.18 1380.76 2073.38 1380.14 2073.58 1379.52 2073.87 1378.32 2074.27 1376.55L2078.83 1355.87C2079.23 1354.08 2079.42 1352.67 2079.42 1351.63 2079.42 1350.75 2079.22 1350.14 2078.81 1349.8 2078.39 1349.46 2077.72 1349.27 2076.79 1349.21Z" fill-rule="evenodd"/><text fill="#000000" fill-opacity="0" font-family="Arial,Arial_MSFontService,sans-serif" font-size="36.6577" x="2070.05" y="1379.97">ğ‘ƒ</text><path d="M2112.31 1367.56 2112.84 1369.07C2109.79 1370.07 2107.54 1372.02 2106.07 1374.94 2104.61 1377.85 2103.88 1381.5 2103.88 1385.9 2103.88 1390.46 2104.61 1394.22 2106.07 1397.17 2107.54 1400.13 2109.78 1402.11 2112.78 1403.11L2112.31 1404.61C2108.5 1403.61 2105.58 1401.45 2103.54 1398.14 2101.51 1394.82 2100.5 1390.81 2100.5 1386.1 2100.5 1381.4 2101.52 1377.38 2103.55 1374.06 2105.59 1370.73 2108.51 1368.56 2112.31 1367.56Z" fill-rule="evenodd"/><text fill="#000000" fill-opacity="0" font-family="Arial,Arial_MSFontService,sans-serif" font-size="37.0508" x="2100.5" y="1399.98">(</text><path d="M2114.98 1369.12 2138.19 1369.12 2138.19 1376.33 2135.98 1376.33C2135.71 1375.32 2135.44 1374.49 2135.19 1373.84 2134.93 1373.2 2134.64 1372.69 2134.3 1372.32 2133.96 1371.95 2133.56 1371.69 2133.09 1371.55 2132.62 1371.4 2132.03 1371.32 2131.33 1371.29L2128.68 1371.29 2128.68 1390.77C2128.69 1391.42 2128.72 1391.95 2128.77 1392.38 2128.82 1392.8 2128.95 1393.15 2129.13 1393.42 2129.32 1393.69 2129.61 1393.91 2129.98 1394.08 2130.36 1394.24 2130.89 1394.39 2131.57 1394.53L2131.57 1395.78 2121.6 1395.78 2121.6 1394.53C2122.11 1394.44 2122.55 1394.35 2122.9 1394.24 2123.26 1394.14 2123.56 1393.96 2123.79 1393.72 2124.03 1393.48 2124.2 1393.13 2124.31 1392.67 2124.42 1392.21 2124.48 1391.57 2124.48 1390.77L2124.48 1371.29 2121.84 1371.29C2121.46 1371.29 2121.13 1371.31 2120.85 1371.34 2120.57 1371.37 2120.32 1371.43 2120.1 1371.51 2119.88 1371.59 2119.68 1371.69 2119.5 1371.81 2119.31 1371.93 2119.14 1372.08 2118.97 1372.25 2118.64 1372.56 2118.34 1373.03 2118.05 1373.65 2117.76 1374.26 2117.49 1375.16 2117.23 1376.33L2114.98 1376.33Z" fill-rule="evenodd"/><text fill="#000000" fill-opacity="0" font-family="Arial,Arial_MSFontService,sans-serif" font-size="26.6602" x="2114.98" y="1392.45">T</text><path d="M2151.15 1384.16 2152.21 1384.16C2152.19 1384.39 2152.17 1384.94 2152.15 1385.81 2152.13 1386.68 2152.12 1387.55 2152.12 1388.43L2152.12 1399.78C2152.12 1400.45 2152.18 1400.94 2152.29 1401.23 2152.41 1401.52 2152.6 1401.74 2152.86 1401.91 2153.12 1402.08 2153.56 1402.21 2154.18 1402.3 2154.8 1402.39 2155.79 1402.45 2157.14 1402.47L2157.14 1403.97 2143.79 1403.97 2143.79 1402.47C2145.1 1402.44 2146.06 1402.38 2146.66 1402.29 2147.27 1402.2 2147.72 1402.08 2148 1401.91 2148.28 1401.74 2148.49 1401.52 2148.63 1401.23 2148.76 1400.94 2148.83 1400.45 2148.83 1399.78L2148.83 1389.09C2148.83 1388.71 2148.75 1388.43 2148.6 1388.26 2148.44 1388.08 2148.22 1388 2147.93 1388 2147.6 1388 2147.1 1388.17 2146.41 1388.52 2145.73 1388.87 2144.84 1389.38 2143.77 1390.06L2142.92 1388.43Z" fill-rule="evenodd"/><text fill="#000000" fill-opacity="0" font-family="Arial,Arial_MSFontService,sans-serif" font-size="19.8032" x="2142.92" y="1401.49">1</text><path d="M2163.72 1391.25 2167.14 1391.25C2167.32 1392.16 2167.41 1393.06 2167.41 1393.95 2167.41 1394.86 2167.26 1395.69 2166.94 1396.45 2166.63 1397.2 2166.13 1397.96 2165.45 1398.7 2164.77 1399.45 2163.82 1400.28 2162.63 1401.18L2161.57 1399.98C2162.24 1399.36 2162.72 1398.8 2163.02 1398.29 2163.32 1397.79 2163.53 1397.22 2163.66 1396.59 2163.79 1395.95 2163.86 1395.15 2163.86 1394.18 2163.86 1393.19 2163.81 1392.22 2163.72 1391.25Z" fill-rule="evenodd"/><text fill="#000000" fill-opacity="0" font-family="Arial,Arial_MSFontService,sans-serif" font-size="9.92188" x="2161.57" y="1399.94">,</text><path d="M2170.51 1369.12 2193.71 1369.12 2193.71 1376.33 2191.51 1376.33C2191.23 1375.32 2190.97 1374.49 2190.72 1373.84 2190.46 1373.2 2190.17 1372.69 2189.83 1372.32 2189.49 1371.95 2189.08 1371.69 2188.62 1371.55 2188.15 1371.4 2187.56 1371.32 2186.86 1371.29L2184.2 1371.29 2184.2 1390.77C2184.22 1391.42 2184.25 1391.95 2184.3 1392.38 2184.35 1392.8 2184.47 1393.15 2184.66 1393.42 2184.85 1393.69 2185.13 1393.91 2185.51 1394.08 2185.89 1394.24 2186.42 1394.39 2187.09 1394.53L2187.09 1395.78 2177.13 1395.78 2177.13 1394.53C2177.64 1394.44 2178.07 1394.35 2178.43 1394.24 2178.79 1394.14 2179.08 1393.96 2179.32 1393.72 2179.55 1393.48 2179.73 1393.13 2179.84 1392.67 2179.95 1392.21 2180 1391.57 2180 1390.77L2180 1371.29 2177.37 1371.29C2176.99 1371.29 2176.66 1371.31 2176.38 1371.34 2176.1 1371.37 2175.85 1371.43 2175.63 1371.51 2175.41 1371.59 2175.2 1371.69 2175.02 1371.81 2174.84 1371.93 2174.66 1372.08 2174.5 1372.25 2174.17 1372.56 2173.86 1373.03 2173.58 1373.65 2173.29 1374.26 2173.02 1375.16 2172.76 1376.33L2170.51 1376.33Z" fill-rule="evenodd"/><text fill="#000000" fill-opacity="0" font-family="Arial,Arial_MSFontService,sans-serif" font-size="26.6602" x="2170.51" y="1392.45">T</text><path d="M2205.29 1384.02C2206.53 1384.02 2207.55 1384.15 2208.36 1384.42 2209.17 1384.69 2209.82 1385.04 2210.3 1385.47 2210.79 1385.9 2211.12 1386.4 2211.32 1386.98 2211.51 1387.56 2211.61 1388.16 2211.61 1388.77 2211.61 1389.54 2211.45 1390.26 2211.14 1390.92 2210.83 1391.58 2210.32 1392.3 2209.61 1393.08 2208.9 1393.86 2207.63 1395.08 2205.81 1396.73 2203.86 1398.49 2202.45 1400.02 2201.57 1401.31L2207.39 1401.31C2207.93 1401.31 2208.35 1401.28 2208.64 1401.23 2208.93 1401.17 2209.16 1401.09 2209.34 1400.98 2209.51 1400.86 2209.65 1400.72 2209.77 1400.55 2209.89 1400.38 2210.07 1400 2210.3 1399.42L2211.93 1399.42 2211.59 1403.97 2197.8 1403.97 2197.8 1403.08C2198.34 1401.93 2199.06 1400.8 2199.97 1399.69 2200.89 1398.58 2201.95 1397.43 2203.16 1396.25 2204.63 1394.85 2205.66 1393.8 2206.27 1393.09 2206.89 1392.38 2207.34 1391.71 2207.64 1391.07 2207.93 1390.43 2208.08 1389.79 2208.08 1389.14 2208.08 1388.08 2207.78 1387.24 2207.18 1386.63 2206.57 1386.02 2205.71 1385.71 2204.58 1385.71 2203.6 1385.71 2202.77 1385.97 2202.09 1386.48 2201.41 1387 2200.89 1387.76 2200.54 1388.77L2198.3 1388.77 2198.3 1385.6C2199.69 1385.03 2200.98 1384.62 2202.16 1384.38 2203.33 1384.14 2204.38 1384.02 2205.29 1384.02Z" fill-rule="evenodd"/><text fill="#000000" fill-opacity="0" font-family="Arial,Arial_MSFontService,sans-serif" font-size="19.9482" x="2197.8" y="1401.47">2</text><path d="M2217.9 1367.56C2221.7 1368.56 2224.62 1370.73 2226.66 1374.06 2228.7 1377.38 2229.72 1381.4 2229.72 1386.1 2229.72 1390.81 2228.7 1394.82 2226.67 1398.14 2224.64 1401.45 2221.72 1403.61 2217.9 1404.61L2217.43 1403.11C2220.44 1402.11 2222.68 1400.13 2224.14 1397.17 2225.6 1394.22 2226.34 1390.46 2226.34 1385.9 2226.34 1381.5 2225.61 1377.85 2224.15 1374.94 2222.69 1372.02 2220.43 1370.07 2217.37 1369.07Z" fill-rule="evenodd"/><text fill="#000000" fill-opacity="0" font-family="Arial,Arial_MSFontService,sans-serif" font-size="37.0508" x="2217.37" y="1399.98">)</text><path d="M2254.82 1372.63 2287.91 1372.63 2287.91 1376.2 2254.82 1376.2ZM2254.82 1361.49 2287.91 1361.49 2287.91 1365.06 2254.82 1365.06Z" fill-rule="evenodd"/><text fill="#000000" fill-opacity="0" font-family="Arial,Arial_MSFontService,sans-serif" font-size="14.7168" x="2254.82" y="1374.36">=</text><path d="M2322.58 1349.75C2321.35 1349.75 2320.32 1350.12 2319.48 1350.85 2318.65 1351.59 2317.98 1352.64 2317.47 1354.02 2316.96 1355.4 2316.6 1357.08 2316.38 1359.06 2316.17 1361.03 2316.06 1363.27 2316.06 1365.76 2316.06 1371.59 2316.6 1375.88 2317.68 1378.61 2318.77 1381.34 2320.45 1382.7 2322.72 1382.7 2324.89 1382.7 2326.49 1381.42 2327.54 1378.85 2328.59 1376.28 2329.11 1372.3 2329.11 1366.91 2329.11 1362.79 2328.84 1359.46 2328.3 1356.91 2327.77 1354.36 2327.02 1352.53 2326.06 1351.42 2325.1 1350.31 2323.95 1349.75 2322.58 1349.75ZM2322.72 1347.47C2326.64 1347.47 2329.56 1348.98 2331.47 1352.01 2333.39 1355.03 2334.35 1359.61 2334.35 1365.73 2334.35 1372.07 2333.32 1376.86 2331.27 1380.11 2329.22 1383.36 2326.23 1384.99 2322.29 1384.99 2318.42 1384.99 2315.54 1383.46 2313.66 1380.42 2311.77 1377.38 2310.82 1372.76 2310.82 1366.56 2310.82 1363.27 2311.11 1360.42 2311.69 1358.02 2312.28 1355.62 2313.09 1353.64 2314.14 1352.07 2315.19 1350.51 2316.44 1349.35 2317.91 1348.6 2319.38 1347.84 2320.98 1347.47 2322.72 1347.47Z" fill-rule="evenodd"/><text fill="#000000" fill-opacity="0" font-family="Arial,Arial_MSFontService,sans-serif" font-size="37.5171" x="2310.82" y="1380.3">0</text><path d="M2096.58 1546.06C2095.47 1546.06 2094.3 1546.09 2093.08 1546.14L2089.43 1562.42 2092.22 1562.42C2094.39 1562.42 2096.14 1562.19 2097.48 1561.74 2098.81 1561.3 2099.9 1560.6 2100.75 1559.66 2101.6 1558.72 2102.26 1557.61 2102.73 1556.32 2103.19 1555.03 2103.42 1553.62 2103.42 1552.08 2103.42 1550 2102.9 1548.48 2101.84 1547.51 2100.78 1546.54 2099.03 1546.06 2096.58 1546.06ZM2085.32 1543.7 2097.17 1543.7C2099.3 1543.7 2101.05 1543.86 2102.42 1544.19 2103.79 1544.53 2104.91 1545.04 2105.8 1545.73 2106.69 1546.41 2107.35 1547.29 2107.79 1548.34 2108.23 1549.4 2108.45 1550.63 2108.45 1552.02 2108.45 1554.71 2107.81 1557.04 2106.54 1559.01 2105.27 1560.97 2103.54 1562.42 2101.37 1563.36 2099.19 1564.29 2096.58 1564.75 2093.54 1564.75 2091.71 1564.75 2090.19 1564.72 2088.98 1564.65L2087.26 1572.54C2087.1 1573.27 2086.98 1573.84 2086.92 1574.23 2086.86 1574.63 2086.8 1575.05 2086.76 1575.51 2086.72 1575.96 2086.69 1576.37 2086.69 1576.73 2086.69 1577.29 2086.78 1577.72 2086.96 1578.03 2087.14 1578.35 2087.41 1578.57 2087.77 1578.72 2088.12 1578.86 2088.74 1578.97 2089.62 1579.04L2089.32 1580.36 2078.29 1580.36 2078.58 1579.04C2079.26 1578.93 2079.77 1578.76 2080.11 1578.52 2080.45 1578.27 2080.74 1577.94 2080.97 1577.51 2081.21 1577.08 2081.42 1576.56 2081.62 1575.94 2081.81 1575.32 2082.11 1574.12 2082.5 1572.35L2087.07 1551.67C2087.46 1549.88 2087.66 1548.47 2087.66 1547.43 2087.66 1546.55 2087.45 1545.94 2087.04 1545.6 2086.63 1545.26 2085.96 1545.07 2085.03 1545.01Z" fill-rule="evenodd"/><text fill="#000000" fill-opacity="0" font-family="Arial,Arial_MSFontService,sans-serif" font-size="36.6577" x="2078.29" y="1575.77">ğ‘ƒ</text><path d="M2171.7 1543.7 2195.92 1543.7 2194.07 1551.94 2191.49 1551.94C2191.42 1550.56 2191.31 1549.48 2191.15 1548.68 2191 1547.88 2190.79 1547.31 2190.51 1546.96 2190.23 1546.61 2189.9 1546.37 2189.5 1546.25 2189.11 1546.12 2188.52 1546.06 2187.73 1546.06L2179.46 1546.06 2176.26 1560.67 2181.29 1560.67C2182.07 1560.67 2182.73 1560.56 2183.25 1560.35 2183.77 1560.13 2184.25 1559.74 2184.7 1559.18 2185.14 1558.62 2185.7 1557.65 2186.36 1556.29L2188.8 1556.29 2186.2 1567.63 2183.84 1567.63C2183.84 1565.82 2183.78 1564.69 2183.66 1564.23 2183.55 1563.77 2183.32 1563.46 2182.99 1563.29 2182.66 1563.12 2182 1563.03 2181.02 1563.03L2175.75 1563.03 2173.63 1572.54C2173.26 1574.22 2173.07 1575.62 2173.07 1576.73 2173.07 1577.29 2173.16 1577.72 2173.34 1578.03 2173.52 1578.35 2173.78 1578.57 2174.14 1578.72 2174.5 1578.86 2175.12 1578.97 2175.99 1579.04L2175.7 1580.36 2164.66 1580.36 2164.96 1579.04C2165.64 1578.93 2166.15 1578.76 2166.49 1578.52 2166.83 1578.27 2167.11 1577.94 2167.35 1577.51 2167.58 1577.08 2167.79 1576.56 2167.99 1575.94 2168.19 1575.32 2168.48 1574.12 2168.88 1572.35L2173.44 1551.67C2173.84 1549.88 2174.03 1548.47 2174.03 1547.43 2174.03 1546.55 2173.83 1545.94 2173.42 1545.6 2173 1545.26 2172.33 1545.07 2171.4 1545.01ZM2114.25 1543.7 2125.45 1543.7 2125.15 1545.01C2124.34 1545.07 2123.71 1545.3 2123.26 1545.73 2122.8 1546.15 2122.48 1546.72 2122.3 1547.44 2122.12 1548.17 2122.03 1549.19 2122.03 1550.52L2122.03 1551.43C2122.03 1551.75 2122.04 1552.09 2122.06 1552.43L2122.3 1562.93C2122.32 1563.7 2122.33 1565.6 2122.33 1568.65L2122.3 1574.26 2122.57 1574.26 2137.42 1543.7 2141.48 1543.7 2141.48 1561.61C2141.48 1564.56 2141.4 1568.78 2141.24 1574.26L2141.5 1574.26 2152.38 1553.23C2152.79 1552.44 2153.23 1551.52 2153.68 1550.45 2154.14 1549.39 2154.37 1548.47 2154.37 1547.7 2154.37 1546.2 2153.47 1545.3 2151.68 1545.01L2151.98 1543.7 2162.96 1543.7 2162.67 1545.01C2161.84 1545.12 2161.06 1545.57 2160.3 1546.37 2159.55 1547.17 2158.55 1548.72 2157.3 1551.03L2141.16 1580.7 2137.02 1580.7 2137.02 1561.05C2137.02 1557.86 2137.1 1554.54 2137.26 1551.08L2136.99 1551.08 2122.63 1580.7 2118.41 1580.7 2117.15 1550.84C2117.08 1549.36 2116.92 1548.22 2116.68 1547.43 2116.44 1546.64 2116.11 1546.07 2115.7 1545.71 2115.28 1545.35 2114.7 1545.12 2113.95 1545.01Z" fill-rule="evenodd"/><text fill="#000000" fill-opacity="0" font-family="Arial,Arial_MSFontService,sans-serif" font-size="37.0068" x="2113.95" y="1576.08">ğ‘Šğ¹</text><path d="M2215.89 1546.03C2215.11 1546.03 2214.26 1546.06 2213.34 1546.11L2206.39 1577.88C2206.91 1577.94 2207.9 1577.97 2209.37 1577.97 2212.27 1577.97 2214.73 1577.46 2216.75 1576.45 2218.78 1575.44 2220.52 1573.85 2221.99 1571.69 2223.46 1569.54 2224.54 1567.26 2225.24 1564.87 2225.94 1562.48 2226.29 1559.96 2226.29 1557.31 2226.29 1553.57 2225.41 1550.76 2223.67 1548.87 2221.92 1546.98 2219.33 1546.03 2215.89 1546.03ZM2205.64 1543.7 2215.81 1543.7C2218.52 1543.7 2220.71 1543.9 2222.39 1544.32 2224.08 1544.73 2225.65 1545.47 2227.11 1546.54 2228.57 1547.62 2229.66 1549.05 2230.4 1550.83 2231.13 1552.61 2231.5 1554.72 2231.5 1557.15 2231.5 1559.57 2231.22 1561.88 2230.66 1564.08 2230.11 1566.28 2229.31 1568.31 2228.27 1570.16 2227.24 1572.02 2225.99 1573.63 2224.54 1575 2223.09 1576.37 2221.69 1577.42 2220.33 1578.15 2218.96 1578.89 2217.44 1579.44 2215.76 1579.8 2214.08 1580.17 2212.12 1580.36 2209.88 1580.36L2198.6 1580.36 2198.89 1579.04C2199.58 1578.93 2200.09 1578.76 2200.43 1578.52 2200.77 1578.27 2201.05 1577.94 2201.28 1577.51 2201.52 1577.08 2201.73 1576.56 2201.93 1575.94 2202.13 1575.32 2202.42 1574.12 2202.82 1572.35L2207.38 1551.67C2207.77 1549.88 2207.97 1548.44 2207.97 1547.35 2207.97 1546.51 2207.76 1545.92 2207.34 1545.59 2206.92 1545.26 2206.25 1545.07 2205.34 1545.01Z" fill-rule="evenodd"/><text fill="#000000" fill-opacity="0" font-family="Arial,Arial_MSFontService,sans-serif" font-size="36.6577" x="2198.6" y="1575.77">ğ·</text><path d="M2246.98 1563.36 2247.51 1564.87C2244.46 1565.87 2242.21 1567.82 2240.74 1570.73 2239.28 1573.65 2238.54 1577.3 2238.54 1581.7 2238.54 1586.26 2239.28 1590.02 2240.74 1592.97 2242.21 1595.93 2244.44 1597.91 2247.45 1598.91L2246.98 1600.41C2243.17 1599.41 2240.24 1597.25 2238.21 1593.94 2236.18 1590.62 2235.17 1586.61 2235.17 1581.9 2235.17 1577.2 2236.18 1573.18 2238.22 1569.86 2240.26 1566.53 2243.18 1564.36 2246.98 1563.36Z" fill-rule="evenodd"/><text fill="#000000" fill-opacity="0" font-family="Arial,Arial_MSFontService,sans-serif" font-size="37.0508" x="2235.17" y="1595.78">(</text><path d="M2249.65 1564.92 2272.85 1564.92 2272.85 1572.13 2270.65 1572.13C2270.37 1571.12 2270.11 1570.29 2269.86 1569.64 2269.6 1569 2269.31 1568.49 2268.97 1568.12 2268.63 1567.75 2268.23 1567.49 2267.76 1567.35 2267.29 1567.2 2266.7 1567.12 2266 1567.09L2263.34 1567.09 2263.34 1586.57C2263.36 1587.22 2263.39 1587.75 2263.44 1588.18 2263.49 1588.6 2263.61 1588.95 2263.8 1589.22 2263.99 1589.49 2264.27 1589.71 2264.65 1589.88 2265.03 1590.04 2265.56 1590.19 2266.23 1590.33L2266.23 1591.58 2256.27 1591.58 2256.27 1590.33C2256.78 1590.24 2257.21 1590.15 2257.57 1590.04 2257.93 1589.94 2258.23 1589.76 2258.46 1589.52 2258.69 1589.28 2258.87 1588.93 2258.98 1588.47 2259.09 1588.01 2259.14 1587.37 2259.14 1586.57L2259.14 1567.09 2256.51 1567.09C2256.13 1567.09 2255.8 1567.11 2255.52 1567.14 2255.24 1567.17 2254.99 1567.23 2254.77 1567.31 2254.55 1567.39 2254.35 1567.49 2254.16 1567.61 2253.98 1567.73 2253.8 1567.88 2253.64 1568.05 2253.31 1568.36 2253 1568.83 2252.72 1569.45 2252.43 1570.06 2252.16 1570.96 2251.9 1572.13L2249.65 1572.13Z" fill-rule="evenodd"/><text fill="#000000" fill-opacity="0" font-family="Arial,Arial_MSFontService,sans-serif" font-size="26.6602" x="2249.65" y="1588.25">T</text><path d="M2285.82 1579.96 2286.88 1579.96C2286.86 1580.19 2286.84 1580.74 2286.82 1581.61 2286.79 1582.48 2286.78 1583.35 2286.78 1584.23L2286.78 1595.58C2286.78 1596.25 2286.84 1596.74 2286.96 1597.03 2287.08 1597.32 2287.27 1597.54 2287.53 1597.71 2287.78 1597.88 2288.22 1598.01 2288.85 1598.1 2289.47 1598.19 2290.46 1598.25 2291.81 1598.27L2291.81 1599.77 2278.45 1599.77 2278.45 1598.27C2279.76 1598.24 2280.72 1598.18 2281.33 1598.09 2281.94 1598 2282.38 1597.88 2282.67 1597.71 2282.95 1597.54 2283.16 1597.32 2283.3 1597.03 2283.43 1596.74 2283.5 1596.25 2283.5 1595.58L2283.5 1584.89C2283.5 1584.51 2283.42 1584.23 2283.26 1584.06 2283.11 1583.88 2282.88 1583.8 2282.59 1583.8 2282.27 1583.8 2281.77 1583.97 2281.08 1584.32 2280.39 1584.67 2279.51 1585.18 2278.44 1585.86L2277.58 1584.23Z" fill-rule="evenodd"/><text fill="#000000" fill-opacity="0" font-family="Arial,Arial_MSFontService,sans-serif" font-size="19.8032" x="2277.58" y="1597.29">1</text><path d="M2298.39 1587.05 2301.81 1587.05C2301.99 1587.96 2302.08 1588.86 2302.08 1589.75 2302.08 1590.66 2301.92 1591.49 2301.61 1592.25 2301.3 1593 2300.8 1593.76 2300.12 1594.5 2299.43 1595.25 2298.49 1596.08 2297.29 1596.98L2296.24 1595.78C2296.9 1595.16 2297.39 1594.6 2297.68 1594.09 2297.98 1593.59 2298.2 1593.02 2298.33 1592.39 2298.46 1591.75 2298.52 1590.95 2298.52 1589.98 2298.52 1588.99 2298.48 1588.02 2298.39 1587.05Z" fill-rule="evenodd"/><text fill="#000000" fill-opacity="0" font-family="Arial,Arial_MSFontService,sans-serif" font-size="9.92188" x="2296.24" y="1595.73">,</text><path d="M2305.18 1564.92 2328.38 1564.92 2328.38 1572.13 2326.17 1572.13C2325.9 1571.12 2325.64 1570.29 2325.38 1569.64 2325.13 1569 2324.83 1568.49 2324.49 1568.12 2324.16 1567.75 2323.75 1567.49 2323.28 1567.35 2322.81 1567.2 2322.23 1567.12 2321.53 1567.09L2318.87 1567.09 2318.87 1586.57C2318.88 1587.22 2318.92 1587.75 2318.97 1588.18 2319.02 1588.6 2319.14 1588.95 2319.33 1589.22 2319.52 1589.49 2319.8 1589.71 2320.18 1589.88 2320.56 1590.04 2321.08 1590.19 2321.76 1590.33L2321.76 1591.58 2311.8 1591.58 2311.8 1590.33C2312.31 1590.24 2312.74 1590.15 2313.1 1590.04 2313.46 1589.94 2313.75 1589.76 2313.99 1589.52 2314.22 1589.28 2314.39 1588.93 2314.5 1588.47 2314.61 1588.01 2314.67 1587.37 2314.67 1586.57L2314.67 1567.09 2312.03 1567.09C2311.66 1567.09 2311.33 1567.11 2311.05 1567.14 2310.77 1567.17 2310.52 1567.23 2310.3 1567.31 2310.07 1567.39 2309.87 1567.49 2309.69 1567.61 2309.51 1567.73 2309.33 1567.88 2309.16 1568.05 2308.84 1568.36 2308.53 1568.83 2308.24 1569.45 2307.96 1570.06 2307.68 1570.96 2307.42 1572.13L2305.18 1572.13Z" fill-rule="evenodd"/><text fill="#000000" fill-opacity="0" font-family="Arial,Arial_MSFontService,sans-serif" font-size="26.6602" x="2305.18" y="1588.25">T</text><path d="M2339.96 1579.82C2341.19 1579.82 2342.22 1579.95 2343.03 1580.22 2343.84 1580.49 2344.49 1580.84 2344.97 1581.27 2345.45 1581.7 2345.79 1582.2 2345.98 1582.78 2346.18 1583.36 2346.27 1583.96 2346.27 1584.57 2346.27 1585.34 2346.12 1586.06 2345.81 1586.72 2345.5 1587.38 2344.99 1588.1 2344.28 1588.88 2343.57 1589.66 2342.3 1590.88 2340.47 1592.53 2338.53 1594.29 2337.12 1595.82 2336.24 1597.11L2342.05 1597.11C2342.6 1597.11 2343.02 1597.08 2343.31 1597.03 2343.6 1596.97 2343.83 1596.89 2344 1596.78 2344.17 1596.66 2344.32 1596.52 2344.44 1596.35 2344.56 1596.18 2344.73 1595.8 2344.97 1595.22L2346.6 1595.22 2346.26 1599.77 2332.47 1599.77 2332.47 1598.88C2333 1597.73 2333.73 1596.6 2334.64 1595.49 2335.55 1594.38 2336.62 1593.23 2337.83 1592.05 2339.29 1590.65 2340.33 1589.6 2340.94 1588.89 2341.55 1588.18 2342.01 1587.51 2342.3 1586.87 2342.6 1586.23 2342.75 1585.59 2342.75 1584.94 2342.75 1583.88 2342.45 1583.04 2341.84 1582.43 2341.24 1581.82 2340.38 1581.51 2339.25 1581.51 2338.27 1581.51 2337.44 1581.77 2336.76 1582.28 2336.08 1582.8 2335.56 1583.56 2335.21 1584.57L2332.97 1584.57 2332.97 1581.4C2334.36 1580.83 2335.65 1580.42 2336.82 1580.18 2338 1579.94 2339.05 1579.82 2339.96 1579.82Z" fill-rule="evenodd"/><text fill="#000000" fill-opacity="0" font-family="Arial,Arial_MSFontService,sans-serif" font-size="19.9482" x="2332.47" y="1597.27">2</text><path d="M2352.57 1563.36C2356.37 1564.36 2359.29 1566.53 2361.33 1569.86 2363.36 1573.18 2364.38 1577.2 2364.38 1581.9 2364.38 1586.61 2363.37 1590.62 2361.34 1593.94 2359.31 1597.25 2356.38 1599.41 2352.57 1600.41L2352.1 1598.91C2355.11 1597.91 2357.34 1595.93 2358.81 1592.97 2360.27 1590.02 2361 1586.26 2361 1581.7 2361 1577.3 2360.28 1573.65 2358.82 1570.73 2357.36 1567.82 2355.1 1565.87 2352.04 1564.87Z" fill-rule="evenodd"/><text fill="#000000" fill-opacity="0" font-family="Arial,Arial_MSFontService,sans-serif" font-size="37.0508" x="2352.04" y="1595.78">)</text><path d="M2389.49 1568.43 2422.58 1568.43 2422.58 1572 2389.49 1572ZM2389.49 1557.29 2422.58 1557.29 2422.58 1560.86 2389.49 1560.86Z" fill-rule="evenodd"/><text fill="#000000" fill-opacity="0" font-family="Arial,Arial_MSFontService,sans-serif" font-size="14.7168" x="2389.49" y="1570.16">=</text><path d="M2457.25 1545.55C2456.02 1545.55 2454.98 1545.92 2454.15 1546.65 2453.32 1547.39 2452.65 1548.44 2452.14 1549.82 2451.63 1551.2 2451.26 1552.88 2451.05 1554.86 2450.83 1556.83 2450.73 1559.07 2450.73 1561.56 2450.73 1567.39 2451.27 1571.68 2452.35 1574.41 2453.43 1577.14 2455.11 1578.5 2457.39 1578.5 2459.55 1578.5 2461.16 1577.22 2462.21 1574.65 2463.25 1572.08 2463.78 1568.1 2463.78 1562.71 2463.78 1558.59 2463.51 1555.26 2462.97 1552.71 2462.43 1550.16 2461.69 1548.33 2460.73 1547.22 2459.77 1546.11 2458.61 1545.55 2457.25 1545.55ZM2457.39 1543.27C2461.31 1543.27 2464.23 1544.78 2466.14 1547.81 2468.06 1550.83 2469.01 1555.41 2469.01 1561.53 2469.01 1567.87 2467.99 1572.66 2465.94 1575.91 2463.89 1579.16 2460.9 1580.79 2456.96 1580.79 2453.09 1580.79 2450.21 1579.26 2448.32 1576.22 2446.43 1573.18 2445.49 1568.56 2445.49 1562.36 2445.49 1559.07 2445.78 1556.22 2446.36 1553.82 2446.94 1551.42 2447.76 1549.44 2448.81 1547.87 2449.85 1546.31 2451.11 1545.15 2452.58 1544.4 2454.05 1543.64 2455.65 1543.27 2457.39 1543.27Z" fill-rule="evenodd"/><text fill="#000000" fill-opacity="0" font-family="Arial,Arial_MSFontService,sans-serif" font-size="37.5171" x="2445.49" y="1576.1">0</text><path d="M2007.5 1450.5 2540.18 1450.5" stroke="#A5A5A5" stroke-width="1.14583" stroke-linejoin="round" stroke-miterlimit="10" stroke-dasharray="4.58333 3.4375" fill="none" fill-rule="evenodd"/></g></svg>