<svg width="4006" height="1076" xmlns="http://www.w3.org/2000/svg" xmlns:xlink="http://www.w3.org/1999/xlink" xml:space="preserve" overflow="hidden"><g transform="translate(-284 -574)"><path d="M286.5 611.655C286.5 592.792 301.792 577.5 320.655 577.5L4254.34 577.5C4273.21 577.5 4288.5 592.792 4288.5 611.655L4288.5 1612.34C4288.5 1631.21 4273.21 1646.5 4254.34 1646.5L320.655 1646.5C301.792 1646.5 286.5 1631.21 286.5 1612.34Z" stroke="#000000" stroke-width="3.4375" stroke-linejoin="round" stroke-miterlimit="10" stroke-dasharray="13.75 10.3125" fill="none" fill-rule="evenodd"/><path d="M0 0 1.81132 1069.41" stroke="#000000" stroke-width="4.58333" stroke-miterlimit="8" stroke-dasharray="18.3333 13.75" fill="none" fill-rule="evenodd" transform="matrix(-1 0 0 1 1622.31 577.5)"/><path d="M0 0 1.81168 1072.4" stroke="#000000" stroke-width="4.58333" stroke-miterlimit="8" stroke-dasharray="18.3333 13.75" fill="none" fill-rule="evenodd" transform="matrix(-1 0 0 1 2952.31 574.5)"/><path d="M297 603.833C297 596.193 303.194 590 310.834 590L366.166 590C373.806 590 380 596.193 380 603.833L380 660.167C380 667.807 373.806 674 366.166 674L310.834 674C303.194 674 297 667.807 297 660.167Z" stroke="#A6A6A6" stroke-width="2.29167" stroke-miterlimit="8" fill="#FFFFFF" fill-rule="evenodd"/><path d="M0 0 1091.34 0.425492" stroke="#000000" stroke-width="6.875" stroke-miterlimit="8" fill="none" fill-rule="evenodd" transform="matrix(1 0 0 -1 446.5 936.925)"/><path d="M921.5 856.5C921.5 813.422 956.422 778.5 999.5 778.5 1042.58 778.5 1077.5 813.422 1077.5 856.5 1077.5 899.578 1042.58 934.5 999.5 934.5 956.422 934.5 921.5 899.578 921.5 856.5Z" stroke="#000000" stroke-width="6.875" stroke-miterlimit="8" fill="#E8E8E8" fill-rule="evenodd"/><path d="M3.43745-0.0185956 4.71915 236.908-2.15575 236.945-3.43745 0.0185956ZM15.0067 232.269 1.40568 259.843-12.4929 232.417Z" transform="matrix(-1 0 0 1 916.906 937.5)"/><path d="M371.5 1170.5 527.406 1171.49" stroke="#000000" stroke-width="6.875" stroke-miterlimit="8" fill="none" fill-rule="evenodd"/><path d="M376.938 1170.5 376.938 1277.5 370.063 1277.5 370.063 1170.5ZM387.25 1272.92 373.501 1300.42 359.75 1272.92Z"/><path d="M391.5 1114.5C391.5 1085.78 414.781 1062.5 443.5 1062.5 472.219 1062.5 495.5 1085.78 495.5 1114.5 495.5 1143.22 472.219 1166.5 443.5 1166.5 414.781 1166.5 391.5 1143.22 391.5 1114.5Z" stroke="#000000" stroke-width="6.875" stroke-miterlimit="8" fill="#FF66FF" fill-rule="evenodd"/><path d="M875.5 1233C875.5 1211.74 892.961 1194.5 914.5 1194.5 936.039 1194.5 953.5 1211.74 953.5 1233 953.5 1254.26 936.039 1271.5 914.5 1271.5 892.961 1271.5 875.5 1254.26 875.5 1233Z" stroke="#000000" stroke-width="6.875" stroke-miterlimit="8" fill="#FFFFCC" fill-rule="evenodd"/><path d="M1035.5 1106.5C1035.5 1084.96 1052.96 1067.5 1074.5 1067.5 1096.04 1067.5 1113.5 1084.96 1113.5 1106.5 1113.5 1128.04 1096.04 1145.5 1074.5 1145.5 1052.96 1145.5 1035.5 1128.04 1035.5 1106.5Z" stroke="#000000" stroke-width="6.875" stroke-miterlimit="8" fill="#FFC000" fill-rule="evenodd"/><path d="M1035.5 1312.5C1035.5 1290.96 1052.96 1273.5 1074.5 1273.5 1096.04 1273.5 1113.5 1290.96 1113.5 1312.5 1113.5 1334.04 1096.04 1351.5 1074.5 1351.5 1052.96 1351.5 1035.5 1334.04 1035.5 1312.5Z" stroke="#000000" stroke-width="6.875" stroke-miterlimit="8" fill="#FF0000" fill-rule="evenodd"/><path d="M1192.5 1106.5C1192.5 1084.96 1209.96 1067.5 1231.5 1067.5 1253.04 1067.5 1270.5 1084.96 1270.5 1106.5 1270.5 1128.04 1253.04 1145.5 1231.5 1145.5 1209.96 1145.5 1192.5 1128.04 1192.5 1106.5Z" stroke="#000000" stroke-width="6.875" stroke-miterlimit="8" fill="#99CCFF" fill-rule="evenodd"/><path d="M1340.5 1233.5C1340.5 1211.96 1357.96 1194.5 1379.5 1194.5 1401.04 1194.5 1418.5 1211.96 1418.5 1233.5 1418.5 1255.04 1401.04 1272.5 1379.5 1272.5 1357.96 1272.5 1340.5 1255.04 1340.5 1233.5Z" stroke="#000000" stroke-width="6.875" stroke-miterlimit="8" fill="#FFCCFF" fill-rule="evenodd"/><path d="M1497.5 1103.5C1497.5 1081.96 1514.96 1064.5 1536.5 1064.5 1558.04 1064.5 1575.5 1081.96 1575.5 1103.5 1575.5 1125.04 1558.04 1142.5 1536.5 1142.5 1514.96 1142.5 1497.5 1125.04 1497.5 1103.5Z" stroke="#000000" stroke-width="6.875" stroke-miterlimit="8" fill="#6FF50B" fill-rule="evenodd"/><path d="M1497.5 1312.5C1497.5 1290.96 1514.96 1273.5 1536.5 1273.5 1558.04 1273.5 1575.5 1290.96 1575.5 1312.5 1575.5 1334.04 1558.04 1351.5 1536.5 1351.5 1514.96 1351.5 1497.5 1334.04 1497.5 1312.5Z" stroke="#000000" stroke-width="6.875" stroke-miterlimit="8" fill="#FFFF00" fill-rule="evenodd"/><text font-family="Cambria Math,Cambria Math_MSFontService,sans-serif" font-weight="400" font-size="37" transform="matrix(1 0 0 1 983.839 870)">N</text><text font-family="Cambria Math,Cambria Math_MSFontService,sans-serif" font-weight="400" font-size="27" transform="matrix(1 0 0 1 1008.2 877)">1</text><text font-family="Cambria Math,Cambria Math_MSFontService,sans-serif" font-weight="400" font-size="37" transform="matrix(1 0 0 1 425.052 1121)">N</text><text font-family="Cambria Math,Cambria Math_MSFontService,sans-serif" font-weight="400" font-size="27" transform="matrix(1 0 0 1 450.26 1128)">3</text><text font-family="Cambria Math,Cambria Math_MSFontService,sans-serif" font-weight="400" font-size="37" transform="matrix(1 0 0 1 1052.51 1117)">N</text><text font-family="Cambria Math,Cambria Math_MSFontService,sans-serif" font-weight="400" font-size="27" transform="matrix(1 0 0 1 1077.72 1125)">5</text><text font-family="Cambria Math,Cambria Math_MSFontService,sans-serif" font-weight="400" font-size="37" transform="matrix(1 0 0 1 1055.26 1322)">N</text><text font-family="Cambria Math,Cambria Math_MSFontService,sans-serif" font-weight="400" font-size="27" transform="matrix(1 0 0 1 1080.46 1330)">9</text><text font-family="Cambria Math,Cambria Math_MSFontService,sans-serif" font-weight="400" font-size="37" transform="matrix(1 0 0 1 1516.84 1114)">N</text><text font-family="Cambria Math,Cambria Math_MSFontService,sans-serif" font-weight="400" font-size="27" transform="matrix(1 0 0 1 1542.05 1122)">2</text><text font-family="Cambria Math,Cambria Math_MSFontService,sans-serif" font-weight="400" font-size="37" transform="matrix(1 0 0 1 1518.9 1321)">N</text><text font-family="Cambria Math,Cambria Math_MSFontService,sans-serif" font-weight="400" font-size="27" transform="matrix(1 0 0 1 1544.11 1328)">4</text><text font-family="Cambria Math,Cambria Math_MSFontService,sans-serif" font-weight="400" font-size="37" transform="matrix(1 0 0 1 896.176 1244)">N</text><text font-family="Cambria Math,Cambria Math_MSFontService,sans-serif" font-weight="400" font-size="27" transform="matrix(1 0 0 1 921.385 1252)">6</text><text font-family="Cambria Math,Cambria Math_MSFontService,sans-serif" font-weight="400" font-size="37" transform="matrix(1 0 0 1 1204.92 1115)">N</text><text font-family="Cambria Math,Cambria Math_MSFontService,sans-serif" font-weight="400" font-size="27" transform="matrix(1 0 0 1 1229.28 1122)">1</text><text font-family="Cambria Math,Cambria Math_MSFontService,sans-serif" font-weight="400" font-size="27" transform="matrix(1 0 0 1 1244.74 1122)">4</text><text font-family="Cambria Math,Cambria Math_MSFontService,sans-serif" font-weight="400" font-size="37" transform="matrix(1 0 0 1 1351.86 1244)">N</text><text font-family="Cambria Math,Cambria Math_MSFontService,sans-serif" font-weight="400" font-size="27" transform="matrix(1 0 0 1 1376.22 1251)">12</text><path d="M527.938 1169.5 527.938 1276.5 521.063 1276.5 521.063 1169.5ZM538.25 1271.92 524.5 1299.42 510.75 1271.92Z"/><path d="M486.5 1339.5C486.5 1317.96 503.961 1300.5 525.5 1300.5 547.039 1300.5 564.5 1317.96 564.5 1339.5 564.5 1361.04 547.039 1378.5 525.5 1378.5 503.961 1378.5 486.5 1361.04 486.5 1339.5Z" stroke="#000000" stroke-width="6.875" stroke-miterlimit="8" fill="#66FFFF" fill-rule="evenodd"/><text font-family="Cambria Math,Cambria Math_MSFontService,sans-serif" font-weight="400" font-size="37" transform="matrix(1 0 0 1 507.879 1349)">N</text><text font-family="Cambria Math,Cambria Math_MSFontService,sans-serif" font-weight="400" font-size="27" transform="matrix(1 0 0 1 533.087 1356)">8</text><path d="M334.5 1339.5C334.5 1317.96 351.961 1300.5 373.5 1300.5 395.039 1300.5 412.5 1317.96 412.5 1339.5 412.5 1361.04 395.039 1378.5 373.5 1378.5 351.961 1378.5 334.5 1361.04 334.5 1339.5Z" stroke="#000000" stroke-width="6.875" stroke-miterlimit="8" fill="#CC99FF" fill-rule="evenodd"/><text font-family="Cambria Math,Cambria Math_MSFontService,sans-serif" font-weight="400" font-size="37" transform="matrix(1 0 0 1 355.674 1351)">N</text><text font-family="Cambria Math,Cambria Math_MSFontService,sans-serif" font-weight="400" font-size="27" transform="matrix(1 0 0 1 380.882 1359)">7</text><path d="M446.937 933.5 446.938 1040.5 440.063 1040.5 440.062 933.5ZM457.25 1035.92 443.5 1063.42 429.75 1035.92Z"/><path d="M612.937 933.5 612.938 1040.5 606.063 1040.5 606.062 933.5ZM623.25 1035.92 609.5 1063.42 595.75 1035.92Z"/><path d="M764.937 935.5 764.938 1042.5 758.063 1042.5 758.062 935.5ZM775.25 1037.92 761.5 1065.42 747.75 1037.92Z"/><path d="M571.5 1102.5C571.5 1080.96 588.961 1063.5 610.5 1063.5 632.039 1063.5 649.5 1080.96 649.5 1102.5 649.5 1124.04 632.039 1141.5 610.5 1141.5 588.961 1141.5 571.5 1124.04 571.5 1102.5Z" stroke="#000000" stroke-width="6.875" stroke-miterlimit="8" fill="#3399FF" fill-rule="evenodd"/><path d="M721.5 1100.5C721.5 1078.96 738.961 1061.5 760.5 1061.5 782.039 1061.5 799.5 1078.96 799.5 1100.5 799.5 1122.04 782.039 1139.5 760.5 1139.5 738.961 1139.5 721.5 1122.04 721.5 1100.5Z" stroke="#000000" stroke-width="6.875" stroke-miterlimit="8" fill="#CCFFCC" fill-rule="evenodd"/><text font-family="Cambria Math,Cambria Math_MSFontService,sans-serif" font-weight="400" font-size="37" transform="matrix(1 0 0 1 586.019 1112)">N</text><text font-family="Cambria Math,Cambria Math_MSFontService,sans-serif" font-weight="400" font-size="27" transform="matrix(1 0 0 1 610.38 1120)">10</text><text font-family="Cambria Math,Cambria Math_MSFontService,sans-serif" font-weight="400" font-size="37" transform="matrix(1 0 0 1 732.484 1107)">N</text><text font-family="Cambria Math,Cambria Math_MSFontService,sans-serif" font-weight="400" font-size="27" transform="matrix(1 0 0 1 756.845 1114)">11</text><path d="M1079.94 938.5 1079.94 1045.5 1073.06 1045.5 1073.06 938.5ZM1090.25 1040.92 1076.5 1068.42 1062.75 1040.92Z"/><path d="M1231.94 939.5 1231.94 1046.5 1225.06 1046.5 1225.06 939.5ZM1242.25 1041.92 1228.5 1069.42 1214.75 1041.92Z"/><path d="M3.43745-0.0185956 4.71915 236.908-2.15575 236.945-3.43745 0.0185956ZM15.0067 232.269 1.40568 259.843-12.4929 232.417Z" transform="matrix(-1 0 0 1 1382.91 934.5)"/><path d="M1076.94 1145.5 1076.94 1252.5 1070.06 1252.5 1070.06 1145.5ZM1087.25 1247.92 1073.5 1275.42 1059.75 1247.92Z"/><path d="M1539.94 935.5 1539.94 1042.5 1533.06 1042.5 1533.06 935.5ZM1550.25 1037.92 1536.5 1065.42 1522.75 1037.92Z"/><path d="M1539.94 1145.5 1539.94 1252.5 1533.06 1252.5 1533.06 1145.5ZM1550.25 1247.92 1536.5 1275.42 1522.75 1247.92Z"/><path d="M322.691 613.575 351.749 613.575 351.749 622.921 349.117 622.921C348.723 621.381 348.334 620.164 347.949 619.269 347.564 618.373 347.156 617.693 346.727 617.228 346.297 616.762 345.836 616.431 345.344 616.234 344.851 616.037 344.113 615.939 343.128 615.939L339.717 615.939 339.717 643.439C339.717 644.495 339.776 645.336 339.892 645.963 340.008 646.59 340.187 647.086 340.429 647.453 340.671 647.82 340.998 648.107 341.409 648.313 341.821 648.519 342.466 648.72 343.343 648.917L343.343 650.233 331.07 650.233 331.07 648.917C331.607 648.792 332.082 648.657 332.493 648.514 332.905 648.371 333.241 648.196 333.5 647.991 333.76 647.785 333.975 647.521 334.145 647.198 334.315 646.876 334.449 646.437 334.548 645.882 334.646 645.327 334.696 644.513 334.696 643.439L334.696 615.939 331.312 615.939C330.47 615.939 329.776 616.019 329.23 616.18 328.684 616.341 328.179 616.677 327.713 617.187 327.248 617.698 326.822 618.423 326.437 619.363 326.053 620.303 325.69 621.489 325.35 622.921L322.691 622.921Z" fill="#A6A6A6" fill-rule="evenodd"/><text fill="#000000" fill-opacity="0" font-family="Arial,Arial_MSFontService,sans-serif" font-size="36.6577" x="322.691" y="645.651">T</text><path d="M360.319 636.306 361.51 636.306C361.484 637.022 361.465 637.663 361.452 638.23 361.439 638.796 361.429 639.346 361.422 639.88 361.416 640.414 361.413 640.941 361.413 641.462L361.413 656.306C361.413 656.709 361.426 657.058 361.452 657.351 361.478 657.644 361.52 657.891 361.579 658.093 361.637 658.295 361.715 658.467 361.813 658.611 361.911 658.754 362.025 658.877 362.155 658.982 362.311 659.138 362.519 659.258 362.78 659.343 363.04 659.428 363.372 659.499 363.776 659.558 364.18 659.616 364.665 659.662 365.231 659.695 365.797 659.727 366.478 659.75 367.272 659.763L367.272 661.462 351.784 661.462 351.784 659.763C352.552 659.737 353.203 659.708 353.737 659.675 354.271 659.642 354.727 659.597 355.104 659.538 355.482 659.48 355.784 659.415 356.012 659.343 356.24 659.271 356.439 659.183 356.608 659.079 356.79 658.962 356.947 658.835 357.077 658.698 357.207 658.562 357.311 658.389 357.389 658.181 357.467 657.973 357.529 657.719 357.575 657.419 357.62 657.12 357.643 656.749 357.643 656.306L357.643 642.302C357.643 641.794 357.546 641.436 357.35 641.228 357.155 641.019 356.875 640.915 356.51 640.915 356.107 640.915 355.508 641.124 354.713 641.54 353.919 641.957 352.891 642.575 351.628 643.396 351.458 643.096 351.302 642.797 351.159 642.497 351.016 642.198 350.866 641.892 350.71 641.579 352.324 640.694 353.922 639.812 355.504 638.933 357.087 638.054 358.691 637.178 360.319 636.306Z" fill="#A6A6A6" fill-rule="evenodd"/><text fill="#000000" fill-opacity="0" font-family="Arial,Arial_MSFontService,sans-serif" font-size="25.1562" x="350.71" y="658.318">1</text><path d="M1813.5 1340.5C1813.5 1318.96 1830.96 1301.5 1852.5 1301.5 1874.04 1301.5 1891.5 1318.96 1891.5 1340.5 1891.5 1362.04 1874.04 1379.5 1852.5 1379.5 1830.96 1379.5 1813.5 1362.04 1813.5 1340.5Z" stroke="#000000" stroke-width="6.875" stroke-miterlimit="8" fill="#FFFF00" fill-rule="evenodd"/><path d="M2255.5 868.5C2255.5 832.601 2284.38 803.5 2320 803.5 2355.62 803.5 2384.5 832.601 2384.5 868.5 2384.5 904.399 2355.62 933.5 2320 933.5 2284.38 933.5 2255.5 904.399 2255.5 868.5Z" stroke="#000000" stroke-width="6.875" stroke-miterlimit="8" fill="#E8E8E8" fill-rule="evenodd"/><path d="M1871.5 1117.5C1871.5 1088.78 1894.78 1065.5 1923.5 1065.5 1952.22 1065.5 1975.5 1088.78 1975.5 1117.5 1975.5 1146.22 1952.22 1169.5 1923.5 1169.5 1894.78 1169.5 1871.5 1146.22 1871.5 1117.5Z" stroke="#000000" stroke-width="6.875" stroke-miterlimit="8" fill="#6FF50B" fill-rule="evenodd"/><path d="M1967.5 1341.5C1967.5 1319.96 1984.96 1302.5 2006.5 1302.5 2028.04 1302.5 2045.5 1319.96 2045.5 1341.5 2045.5 1363.04 2028.04 1380.5 2006.5 1380.5 1984.96 1380.5 1967.5 1363.04 1967.5 1341.5Z" stroke="#000000" stroke-width="6.875" stroke-miterlimit="8" fill="#FFCCFF" fill-rule="evenodd"/><path d="M2508.5 1105.5C2508.5 1083.96 2525.96 1066.5 2547.5 1066.5 2569.04 1066.5 2586.5 1083.96 2586.5 1105.5 2586.5 1127.04 2569.04 1144.5 2547.5 1144.5 2525.96 1144.5 2508.5 1127.04 2508.5 1105.5Z" stroke="#000000" stroke-width="6.875" stroke-miterlimit="8" fill="#CCFFCC" fill-rule="evenodd"/><path d="M2686.5 1104.5C2686.5 1082.96 2703.96 1065.5 2725.5 1065.5 2747.04 1065.5 2764.5 1082.96 2764.5 1104.5 2764.5 1126.04 2747.04 1143.5 2725.5 1143.5 2703.96 1143.5 2686.5 1126.04 2686.5 1104.5Z" stroke="#000000" stroke-width="6.875" stroke-miterlimit="8" fill="#FFC000" fill-rule="evenodd"/><path d="M2685.5 1304.5C2685.5 1282.96 2702.96 1265.5 2724.5 1265.5 2746.04 1265.5 2763.5 1282.96 2763.5 1304.5 2763.5 1326.04 2746.04 1343.5 2724.5 1343.5 2702.96 1343.5 2685.5 1326.04 2685.5 1304.5Z" stroke="#000000" stroke-width="6.875" stroke-miterlimit="8" fill="#FF0000" fill-rule="evenodd"/><path d="M2224.5 1375.5C2224.5 1353.96 2241.96 1336.5 2263.5 1336.5 2285.04 1336.5 2302.5 1353.96 2302.5 1375.5 2302.5 1397.04 2285.04 1414.5 2263.5 1414.5 2241.96 1414.5 2224.5 1397.04 2224.5 1375.5Z" stroke="#000000" stroke-width="6.875" stroke-miterlimit="8" fill="#FFFFCC" fill-rule="evenodd"/><path d="M2134.5 1502.5C2134.5 1480.96 2151.96 1463.5 2173.5 1463.5 2195.04 1463.5 2212.5 1480.96 2212.5 1502.5 2212.5 1524.04 2195.04 1541.5 2173.5 1541.5 2151.96 1541.5 2134.5 1524.04 2134.5 1502.5Z" stroke="#000000" stroke-width="6.875" stroke-miterlimit="8" fill="#CC99FF" fill-rule="evenodd"/><path d="M2439.5 1370.5C2439.5 1348.96 2456.96 1331.5 2478.5 1331.5 2500.04 1331.5 2517.5 1348.96 2517.5 1370.5 2517.5 1392.04 2500.04 1409.5 2478.5 1409.5 2456.96 1409.5 2439.5 1392.04 2439.5 1370.5Z" stroke="#000000" stroke-width="6.875" stroke-miterlimit="8" fill="#66FFFF" fill-rule="evenodd"/><path d="M2443.5 1581.5C2443.5 1559.96 2460.96 1542.5 2482.5 1542.5 2504.04 1542.5 2521.5 1559.96 2521.5 1581.5 2521.5 1603.04 2504.04 1620.5 2482.5 1620.5 2460.96 1620.5 2443.5 1603.04 2443.5 1581.5Z" stroke="#000000" stroke-width="6.875" stroke-miterlimit="8" fill="#FF99CC" fill-rule="evenodd"/><path d="M2256.5 1135.5C2256.5 1099.6 2285.6 1070.5 2321.5 1070.5 2357.4 1070.5 2386.5 1099.6 2386.5 1135.5 2386.5 1171.4 2357.4 1200.5 2321.5 1200.5 2285.6 1200.5 2256.5 1171.4 2256.5 1135.5Z" stroke="#000000" stroke-width="6.875" stroke-miterlimit="8" fill="#FF66FF" fill-rule="evenodd"/><path d="M2065.5 1231.5C2065.5 1209.96 2082.96 1192.5 2104.5 1192.5 2126.04 1192.5 2143.5 1209.96 2143.5 1231.5 2143.5 1253.04 2126.04 1270.5 2104.5 1270.5 2082.96 1270.5 2065.5 1253.04 2065.5 1231.5Z" stroke="#000000" stroke-width="6.875" stroke-miterlimit="8" fill="#3399FF" fill-rule="evenodd"/><path d="M2330.5 1372.5C2330.5 1350.96 2347.96 1333.5 2369.5 1333.5 2391.04 1333.5 2408.5 1350.96 2408.5 1372.5 2408.5 1394.04 2391.04 1411.5 2369.5 1411.5 2347.96 1411.5 2330.5 1394.04 2330.5 1372.5Z" stroke="#000000" stroke-width="6.875" stroke-miterlimit="8" fill="#99CCFF" fill-rule="evenodd"/><text font-family="Cambria Math,Cambria Math_MSFontService,sans-serif" font-weight="400" font-size="37" transform="matrix(1 0 0 1 2299.01 882)">N</text><text font-family="Cambria Math,Cambria Math_MSFontService,sans-serif" font-weight="400" font-size="27" transform="matrix(1 0 0 1 2323.37 890)">1</text><text font-family="Cambria Math,Cambria Math_MSFontService,sans-serif" font-weight="400" font-size="37" transform="matrix(1 0 0 1 2298.31 1147)">N</text><text font-family="Cambria Math,Cambria Math_MSFontService,sans-serif" font-weight="400" font-size="27" transform="matrix(1 0 0 1 2323.52 1155)">3</text><text font-family="Cambria Math,Cambria Math_MSFontService,sans-serif" font-weight="400" font-size="37" transform="matrix(1 0 0 1 2153.06 1514)">N</text><text font-family="Cambria Math,Cambria Math_MSFontService,sans-serif" font-weight="400" font-size="27" transform="matrix(1 0 0 1 2178.27 1521)">7</text><text font-family="Cambria Math,Cambria Math_MSFontService,sans-serif" font-weight="400" font-size="37" transform="matrix(1 0 0 1 2459.33 1379)">N</text><text font-family="Cambria Math,Cambria Math_MSFontService,sans-serif" font-weight="400" font-size="27" transform="matrix(1 0 0 1 2484.54 1386)">8</text><text font-family="Cambria Math,Cambria Math_MSFontService,sans-serif" font-weight="400" font-size="37" transform="matrix(1 0 0 1 2705.58 1113)">N</text><text font-family="Cambria Math,Cambria Math_MSFontService,sans-serif" font-weight="400" font-size="27" transform="matrix(1 0 0 1 2730.79 1120)">5</text><text font-family="Cambria Math,Cambria Math_MSFontService,sans-serif" font-weight="400" font-size="37" transform="matrix(1 0 0 1 2706.04 1315)">N</text><text font-family="Cambria Math,Cambria Math_MSFontService,sans-serif" font-weight="400" font-size="27" transform="matrix(1 0 0 1 2731.25 1322)">9</text><text font-family="Cambria Math,Cambria Math_MSFontService,sans-serif" font-weight="400" font-size="37" transform="matrix(1 0 0 1 2241.9 1385)">N</text><text font-family="Cambria Math,Cambria Math_MSFontService,sans-serif" font-weight="400" font-size="27" transform="matrix(1 0 0 1 2267.11 1393)">6</text><text font-family="Cambria Math,Cambria Math_MSFontService,sans-serif" font-weight="400" font-size="37" transform="matrix(1 0 0 1 2520.78 1112)">N</text><text font-family="Cambria Math,Cambria Math_MSFontService,sans-serif" font-weight="400" font-size="27" transform="matrix(1 0 0 1 2545.14 1119)">11</text><text font-family="Cambria Math,Cambria Math_MSFontService,sans-serif" font-weight="400" font-size="37" transform="matrix(1 0 0 1 2077.19 1239)">N</text><text font-family="Cambria Math,Cambria Math_MSFontService,sans-serif" font-weight="400" font-size="27" transform="matrix(1 0 0 1 2101.55 1247)">10</text><text font-family="Cambria Math,Cambria Math_MSFontService,sans-serif" font-weight="400" font-size="37" transform="matrix(1 0 0 1 1903.97 1127)">N</text><text font-family="Cambria Math,Cambria Math_MSFontService,sans-serif" font-weight="400" font-size="27" transform="matrix(1 0 0 1 1929.18 1134)">2</text><text font-family="Cambria Math,Cambria Math_MSFontService,sans-serif" font-weight="400" font-size="37" transform="matrix(1 0 0 1 1832.78 1352)">N</text><text font-family="Cambria Math,Cambria Math_MSFontService,sans-serif" font-weight="400" font-size="27" transform="matrix(1 0 0 1 1857.99 1359)">4</text><text font-family="Cambria Math,Cambria Math_MSFontService,sans-serif" font-weight="400" font-size="37" transform="matrix(1 0 0 1 1979.67 1353)">N</text><text font-family="Cambria Math,Cambria Math_MSFontService,sans-serif" font-weight="400" font-size="27" transform="matrix(1 0 0 1 2004.03 1360)">12</text><text font-family="Cambria Math,Cambria Math_MSFontService,sans-serif" font-weight="400" font-size="37" transform="matrix(1 0 0 1 2453.79 1591)">N</text><text font-family="Cambria Math,Cambria Math_MSFontService,sans-serif" font-weight="400" font-size="27" transform="matrix(1 0 0 1 2478.15 1599)">13</text><text font-family="Cambria Math,Cambria Math_MSFontService,sans-serif" font-weight="400" font-size="37" transform="matrix(1 0 0 1 2337.63 1381)">N</text><text font-family="Cambria Math,Cambria Math_MSFontService,sans-serif" font-weight="400" font-size="27" transform="matrix(1 0 0 1 2361.99 1389)">1</text><text font-family="Cambria Math,Cambria Math_MSFontService,sans-serif" font-weight="400" font-size="27" transform="matrix(1 0 0 1 2377.46 1389)">4</text><path d="M1925.94 935.5 1925.94 1042.5 1919.06 1042.5 1919.06 935.5ZM1936.25 1037.92 1922.5 1065.42 1908.75 1037.92Z"/><path d="M2323.94 938.5 2323.94 1045.5 2317.06 1045.5 2317.06 938.5ZM2334.25 1040.92 2320.5 1068.42 2306.75 1040.92Z"/><path d="M2727.94 934.5 2727.94 1041.5 2721.06 1041.5 2721.06 934.5ZM2738.25 1036.92 2724.5 1064.42 2710.75 1036.92Z"/><path d="M2551.94 937.5 2551.94 1044.5 2545.06 1044.5 2545.06 937.5ZM2562.25 1039.92 2548.5 1067.42 2534.75 1039.92Z"/><path d="M3.43745-0.0185956 4.71915 236.908-2.15575 236.945-3.43745 0.0185956ZM15.0067 232.269 1.40568 259.843-12.4929 232.417Z" transform="matrix(-1 0 0 1 2106.91 934.5)"/><path d="M0 0 805.512 0.425492" stroke="#000000" stroke-width="6.875" stroke-miterlimit="8" fill="none" fill-rule="evenodd" transform="matrix(1 0 0 -1 1918.5 938.925)"/><path d="M2321.94 673.5 2321.94 780.504 2315.06 780.504 2315.06 673.5ZM2332.25 775.921 2318.5 803.421 2304.75 775.921Z"/><path d="M2726.94 1139.5 2726.94 1246.5 2720.06 1246.5 2720.06 1139.5ZM2737.25 1241.92 2723.5 1269.42 2709.75 1241.92Z"/><path d="M1852.5 1173.5 2008.41 1174.49" stroke="#000000" stroke-width="6.875" stroke-miterlimit="8" fill="none" fill-rule="evenodd"/><path d="M1857.94 1173.5 1857.94 1280.5 1851.06 1280.5 1851.06 1173.5ZM1868.25 1275.92 1854.5 1303.42 1840.75 1275.92Z"/><path d="M2008.94 1172.5 2008.94 1279.5 2002.06 1279.5 2002.06 1172.5ZM2019.25 1274.92 2005.5 1302.42 1991.75 1274.92Z"/><path d="M2169.5 1205.5 2481.31 1206.49" stroke="#000000" stroke-width="6.875" stroke-miterlimit="8" fill="none" fill-rule="evenodd"/><path d="M2176.94 1205.5 2176.94 1442.43 2170.06 1442.43 2170.06 1205.5ZM2187.25 1437.84 2173.5 1465.34 2159.75 1437.84Z"/><path d="M2481.94 1205.5 2481.94 1312.5 2475.06 1312.5 2475.06 1205.5ZM2492.25 1307.92 2478.5 1335.42 2464.75 1307.92Z"/><path d="M2264.94 1205.5 2264.94 1312.5 2258.06 1312.5 2258.06 1205.5ZM2275.25 1307.92 2261.5 1335.42 2247.75 1307.92Z"/><path d="M2373.94 1204.5 2373.94 1311.5 2367.06 1311.5 2367.06 1204.5ZM2384.25 1306.92 2370.5 1334.42 2356.75 1306.92Z"/><path d="M2483.94 1413.5 2483.94 1520.5 2477.06 1520.5 2477.06 1413.5ZM2494.25 1515.92 2480.5 1543.42 2466.75 1515.92Z"/><path d="M1632 604C1632 596.268 1638.27 590 1646 590L1702 590C1709.73 590 1716 596.268 1716 604L1716 660C1716 667.732 1709.73 674 1702 674L1646 674C1638.27 674 1632 667.732 1632 660Z" stroke="#A6A6A6" stroke-width="2.29167" stroke-miterlimit="8" fill="#FFFFFF" fill-rule="evenodd"/><path d="M1657.72 613.575 1686.78 613.575 1686.78 622.921 1684.14 622.921C1683.75 621.381 1683.36 620.164 1682.98 619.269 1682.59 618.373 1682.18 617.693 1681.75 617.228 1681.32 616.762 1680.86 616.431 1680.37 616.234 1679.88 616.037 1679.14 615.939 1678.15 615.939L1674.74 615.939 1674.74 643.439C1674.74 644.495 1674.8 645.336 1674.92 645.963 1675.03 646.59 1675.21 647.086 1675.46 647.453 1675.7 647.82 1676.02 648.107 1676.44 648.313 1676.85 648.519 1677.49 648.72 1678.37 648.917L1678.37 650.233 1666.1 650.233 1666.1 648.917C1666.63 648.792 1667.11 648.657 1667.52 648.514 1667.93 648.371 1668.27 648.196 1668.53 647.991 1668.79 647.785 1669 647.521 1669.17 647.198 1669.34 646.876 1669.48 646.437 1669.57 645.882 1669.67 645.327 1669.72 644.513 1669.72 643.439L1669.72 615.939 1666.34 615.939C1665.5 615.939 1664.8 616.019 1664.26 616.18 1663.71 616.341 1663.2 616.677 1662.74 617.187 1662.27 617.698 1661.85 618.423 1661.46 619.363 1661.08 620.303 1660.72 621.489 1660.38 622.921L1657.72 622.921Z" fill="#A6A6A6" fill-rule="evenodd"/><text fill="#000000" fill-opacity="0" font-family="Arial,Arial_MSFontService,sans-serif" font-size="36.6577" x="1657.72" y="645.651">T</text><path d="M1695.11 636.169C1696.46 636.169 1697.61 636.322 1698.57 636.628 1699.53 636.934 1700.31 637.348 1700.91 637.868 1701.51 638.389 1701.94 639.014 1702.2 639.743 1702.47 640.473 1702.61 641.26 1702.61 642.107 1702.61 642.614 1702.57 643.086 1702.5 643.523 1702.43 643.959 1702.3 644.389 1702.13 644.812 1701.95 645.235 1701.72 645.661 1701.43 646.091 1701.15 646.521 1700.79 646.976 1700.36 647.458 1700.03 647.875 1699.61 648.357 1699.09 648.904 1698.57 649.45 1698 650.036 1697.38 650.661 1696.76 651.286 1696.11 651.937 1695.44 652.614 1694.76 653.292 1694.1 653.962 1693.46 654.626 1692.83 655.29 1692.24 655.935 1691.71 656.56 1691.17 657.185 1690.74 657.758 1690.4 658.279L1697.62 658.279C1698.24 658.279 1698.72 658.256 1699.09 658.21 1699.45 658.165 1699.76 658.064 1700 657.907 1700.24 657.751 1700.44 657.514 1700.61 657.195 1700.78 656.875 1700.98 656.436 1701.2 655.876L1703.02 655.876C1702.95 656.801 1702.89 657.732 1702.83 658.669 1702.77 659.607 1702.71 660.538 1702.64 661.462L1686.1 661.462 1686.1 660.446C1686.41 659.743 1686.78 659.05 1687.2 658.366 1687.61 657.683 1688.08 656.989 1688.6 656.286 1689.12 655.583 1689.71 654.857 1690.38 654.109 1691.04 653.36 1691.78 652.582 1692.59 651.775 1693.81 650.551 1694.81 649.506 1695.57 648.64 1696.34 647.774 1696.95 647.002 1697.39 646.325 1697.83 645.648 1698.14 645.023 1698.3 644.45 1698.46 643.877 1698.54 643.266 1698.54 642.614 1698.54 641.95 1698.45 641.338 1698.26 640.779 1698.07 640.219 1697.8 639.743 1697.45 639.353 1697.1 638.962 1696.65 638.656 1696.11 638.435 1695.57 638.213 1694.95 638.103 1694.25 638.103 1693.03 638.103 1692.02 638.432 1691.2 639.089 1690.38 639.747 1689.74 640.7 1689.28 641.95L1686.73 641.95 1686.73 638.142C1688.39 637.452 1689.93 636.95 1691.33 636.638 1692.73 636.325 1693.99 636.169 1695.11 636.169Z" fill="#A6A6A6" fill-rule="evenodd"/><text fill="#000000" fill-opacity="0" font-family="Arial,Arial_MSFontService,sans-serif" font-size="25.293" x="1686.1" y="658.3">2</text><path d="M3531.5 871.5C3531.5 835.601 3560.6 806.5 3596.5 806.5 3632.4 806.5 3661.5 835.601 3661.5 871.5 3661.5 907.398 3632.4 936.5 3596.5 936.5 3560.6 936.5 3531.5 907.398 3531.5 871.5Z" stroke="#000000" stroke-width="6.875" stroke-miterlimit="8" fill="#E8E8E8" fill-rule="evenodd"/><path d="M3231.5 1120.5C3231.5 1091.78 3254.56 1068.5 3283 1068.5 3311.44 1068.5 3334.5 1091.78 3334.5 1120.5 3334.5 1149.22 3311.44 1172.5 3283 1172.5 3254.56 1172.5 3231.5 1149.22 3231.5 1120.5Z" stroke="#000000" stroke-width="6.875" stroke-miterlimit="8" fill="#6FF50B" fill-rule="evenodd"/><path d="M3338.5 1336.5C3338.5 1314.96 3355.96 1297.5 3377.5 1297.5 3399.04 1297.5 3416.5 1314.96 3416.5 1336.5 3416.5 1358.04 3399.04 1375.5 3377.5 1375.5 3355.96 1375.5 3338.5 1358.04 3338.5 1336.5Z" stroke="#000000" stroke-width="6.875" stroke-miterlimit="8" fill="#FFFFCC" fill-rule="evenodd"/><path d="M3451.5 1334.5C3451.5 1312.96 3468.96 1295.5 3490.5 1295.5 3512.04 1295.5 3529.5 1312.96 3529.5 1334.5 3529.5 1356.04 3512.04 1373.5 3490.5 1373.5 3468.96 1373.5 3451.5 1356.04 3451.5 1334.5Z" stroke="#000000" stroke-width="6.875" stroke-miterlimit="8" fill="#CC99FF" fill-rule="evenodd"/><path d="M3450.5 1119C3450.5 1093.87 3470.87 1073.5 3496 1073.5 3521.13 1073.5 3541.5 1093.87 3541.5 1119 3541.5 1144.13 3521.13 1164.5 3496 1164.5 3470.87 1164.5 3450.5 1144.13 3450.5 1119Z" stroke="#000000" stroke-width="6.875" stroke-miterlimit="8" fill="#FF66FF" fill-rule="evenodd"/><path d="M3243.5 1342.5C3243.5 1320.96 3260.96 1303.5 3282.5 1303.5 3304.04 1303.5 3321.5 1320.96 3321.5 1342.5 3321.5 1364.04 3304.04 1381.5 3282.5 1381.5 3260.96 1381.5 3243.5 1364.04 3243.5 1342.5Z" stroke="#000000" stroke-width="6.875" stroke-miterlimit="8" fill="#FFFF00" fill-rule="evenodd"/><text font-family="Cambria Math,Cambria Math_MSFontService,sans-serif" font-weight="400" font-size="37" transform="matrix(1 0 0 1 3575.67 879)">N</text><text font-family="Cambria Math,Cambria Math_MSFontService,sans-serif" font-weight="400" font-size="27" transform="matrix(1 0 0 1 3600.03 887)">1</text><text font-family="Cambria Math,Cambria Math_MSFontService,sans-serif" font-weight="400" font-size="37" transform="matrix(1 0 0 1 3477.34 1134)">N</text><text font-family="Cambria Math,Cambria Math_MSFontService,sans-serif" font-weight="400" font-size="27" transform="matrix(1 0 0 1 3502.55 1142)">3</text><text font-family="Cambria Math,Cambria Math_MSFontService,sans-serif" font-weight="400" font-size="37" transform="matrix(1 0 0 1 3469.34 1345)">N</text><text font-family="Cambria Math,Cambria Math_MSFontService,sans-serif" font-weight="400" font-size="27" transform="matrix(1 0 0 1 3494.55 1353)">7</text><text font-family="Cambria Math,Cambria Math_MSFontService,sans-serif" font-weight="400" font-size="37" transform="matrix(1 0 0 1 3359.02 1350)">N</text><text font-family="Cambria Math,Cambria Math_MSFontService,sans-serif" font-weight="400" font-size="27" transform="matrix(1 0 0 1 3384.23 1358)">6</text><text font-family="Cambria Math,Cambria Math_MSFontService,sans-serif" font-weight="400" font-size="37" transform="matrix(1 0 0 1 3264.64 1132)">N</text><text font-family="Cambria Math,Cambria Math_MSFontService,sans-serif" font-weight="400" font-size="27" transform="matrix(1 0 0 1 3289.85 1139)">2</text><text font-family="Cambria Math,Cambria Math_MSFontService,sans-serif" font-weight="400" font-size="37" transform="matrix(1 0 0 1 3260.8 1353)">N</text><text font-family="Cambria Math,Cambria Math_MSFontService,sans-serif" font-weight="400" font-size="27" transform="matrix(1 0 0 1 3286.01 1360)">4</text><path d="M3286.94 939.5 3286.94 1046.5 3280.06 1046.5 3280.06 939.5ZM3297.25 1041.92 3283.5 1069.42 3269.75 1041.92Z"/><path d="M3498.94 944.5 3498.94 1051.5 3492.06 1051.5 3492.06 944.5ZM3509.25 1046.92 3495.5 1074.42 3481.75 1046.92Z"/><path d="M3929.94 939.5 3929.94 1046.5 3923.06 1046.5 3923.06 939.5ZM3940.25 1041.92 3926.5 1069.42 3912.75 1041.92Z"/><path d="M3726.94 942.5 3726.94 1049.5 3720.06 1049.5 3720.06 942.5ZM3737.25 1044.92 3723.5 1072.42 3709.75 1044.92Z"/><path d="M0 0 649.606 0.425492" stroke="#000000" stroke-width="6.875" stroke-miterlimit="8" fill="none" fill-rule="evenodd" transform="matrix(1 0 0 -1 3279.5 942.926)"/><path d="M3601.94 676.5 3601.94 783.505 3595.06 783.505 3595.06 676.5ZM3612.25 778.921 3598.5 806.421 3584.75 778.921Z"/><path d="M3284.94 1172.5 3284.94 1279.5 3278.06 1279.5 3278.06 1172.5ZM3295.25 1274.92 3281.5 1302.42 3267.75 1274.92Z"/><path d="M3887.5 1107.5C3887.5 1085.96 3904.96 1068.5 3926.5 1068.5 3948.04 1068.5 3965.5 1085.96 3965.5 1107.5 3965.5 1129.04 3948.04 1146.5 3926.5 1146.5 3904.96 1146.5 3887.5 1129.04 3887.5 1107.5Z" stroke="#000000" stroke-width="6.875" stroke-miterlimit="8" fill="#FFC000" fill-rule="evenodd"/><path d="M3886.5 1308.5C3886.5 1286.96 3903.96 1269.5 3925.5 1269.5 3947.04 1269.5 3964.5 1286.96 3964.5 1308.5 3964.5 1330.04 3947.04 1347.5 3925.5 1347.5 3903.96 1347.5 3886.5 1330.04 3886.5 1308.5Z" stroke="#000000" stroke-width="6.875" stroke-miterlimit="8" fill="#FF0000" fill-rule="evenodd"/><text font-family="Cambria Math,Cambria Math_MSFontService,sans-serif" font-weight="400" font-size="37" transform="matrix(1 0 0 1 3905.71 1117)">N</text><text font-family="Cambria Math,Cambria Math_MSFontService,sans-serif" font-weight="400" font-size="27" transform="matrix(1 0 0 1 3930.91 1124)">5</text><text font-family="Cambria Math,Cambria Math_MSFontService,sans-serif" font-weight="400" font-size="37" transform="matrix(1 0 0 1 3906.17 1318)">N</text><text font-family="Cambria Math,Cambria Math_MSFontService,sans-serif" font-weight="400" font-size="27" transform="matrix(1 0 0 1 3931.37 1326)">9</text><path d="M3928.94 1142.5 3928.94 1249.5 3922.06 1249.5 3922.06 1142.5ZM3939.25 1244.92 3925.5 1272.42 3911.75 1244.92Z"/><path d="M3683.5 1108.5C3683.5 1086.96 3700.96 1069.5 3722.5 1069.5 3744.04 1069.5 3761.5 1086.96 3761.5 1108.5 3761.5 1130.04 3744.04 1147.5 3722.5 1147.5 3700.96 1147.5 3683.5 1130.04 3683.5 1108.5Z" stroke="#000000" stroke-width="6.875" stroke-miterlimit="8" fill="#3399FF" fill-rule="evenodd"/><text font-family="Cambria Math,Cambria Math_MSFontService,sans-serif" font-weight="400" font-size="37" transform="matrix(1 0 0 1 3695.79 1117)">N</text><text font-family="Cambria Math,Cambria Math_MSFontService,sans-serif" font-weight="400" font-size="27" transform="matrix(1 0 0 1 3720.15 1124)">10</text><path d="M3373.5 1168.5 3620.35 1169.49" stroke="#000000" stroke-width="6.875" stroke-miterlimit="8" fill="none" fill-rule="evenodd"/><path d="M3620.94 1168.5 3620.94 1275.5 3614.06 1275.5 3614.06 1168.5ZM3631.25 1270.92 3617.5 1298.42 3603.75 1270.92Z"/><path d="M3379.94 1168.5 3379.94 1275.5 3373.06 1275.5 3373.06 1168.5ZM3390.25 1270.92 3376.5 1298.42 3362.75 1270.92Z"/><path d="M3496.94 1167.5 3496.94 1274.5 3490.06 1274.5 3490.06 1167.5ZM3507.25 1269.92 3493.5 1297.42 3479.75 1269.92Z"/><path d="M3577.5 1337.5C3577.5 1315.96 3594.96 1298.5 3616.5 1298.5 3638.04 1298.5 3655.5 1315.96 3655.5 1337.5 3655.5 1359.04 3638.04 1376.5 3616.5 1376.5 3594.96 1376.5 3577.5 1359.04 3577.5 1337.5Z" stroke="#000000" stroke-width="6.875" stroke-miterlimit="8" fill="#66FFFF" fill-rule="evenodd"/><path d="M3581.5 1548.5C3581.5 1526.96 3598.96 1509.5 3620.5 1509.5 3642.04 1509.5 3659.5 1526.96 3659.5 1548.5 3659.5 1570.04 3642.04 1587.5 3620.5 1587.5 3598.96 1587.5 3581.5 1570.04 3581.5 1548.5Z" stroke="#000000" stroke-width="6.875" stroke-miterlimit="8" fill="#FF99CC" fill-rule="evenodd"/><text font-family="Cambria Math,Cambria Math_MSFontService,sans-serif" font-weight="400" font-size="37" transform="matrix(1 0 0 1 3596.6 1345)">N</text><text font-family="Cambria Math,Cambria Math_MSFontService,sans-serif" font-weight="400" font-size="27" transform="matrix(1 0 0 1 3621.81 1353)">8</text><text font-family="Cambria Math,Cambria Math_MSFontService,sans-serif" font-weight="400" font-size="37" transform="matrix(1 0 0 1 3591.06 1557)">N</text><text font-family="Cambria Math,Cambria Math_MSFontService,sans-serif" font-weight="400" font-size="27" transform="matrix(1 0 0 1 3615.42 1565)">13</text><path d="M3621.94 1379.5 3621.94 1486.5 3615.06 1486.5 3615.06 1379.5ZM3632.25 1481.92 3618.5 1509.42 3604.75 1481.92Z"/><path d="M2963 603.833C2963 596.193 2969.19 590 2976.83 590L3032.17 590C3039.81 590 3046 596.193 3046 603.833L3046 660.167C3046 667.807 3039.81 674 3032.17 674L2976.83 674C2969.19 674 2963 667.807 2963 660.167Z" stroke="#A6A6A6" stroke-width="2.29167" stroke-miterlimit="8" fill="#FFFFFF" fill-rule="evenodd"/><path d="M2988.31 613.575 3017.36 613.575 3017.36 622.921 3014.73 622.921C3014.34 621.381 3013.95 620.164 3013.56 619.269 3013.18 618.373 3012.77 617.693 3012.34 617.228 3011.91 616.762 3011.45 616.431 3010.96 616.234 3010.47 616.037 3009.73 615.939 3008.74 615.939L3005.33 615.939 3005.33 643.439C3005.33 644.495 3005.39 645.336 3005.51 645.963 3005.62 646.59 3005.8 647.086 3006.05 647.453 3006.29 647.82 3006.61 648.107 3007.03 648.313 3007.44 648.519 3008.08 648.72 3008.96 648.917L3008.96 650.233 2996.69 650.233 2996.69 648.917C2997.22 648.792 2997.7 648.657 2998.11 648.514 2998.52 648.371 2998.86 648.196 2999.12 647.991 2999.38 647.785 2999.59 647.521 2999.76 647.198 2999.93 646.876 3000.07 646.437 3000.16 645.882 3000.26 645.327 3000.31 644.513 3000.31 643.439L3000.31 615.939 2996.93 615.939C2996.09 615.939 2995.39 616.019 2994.85 616.18 2994.3 616.341 2993.79 616.677 2993.33 617.187 2992.86 617.698 2992.44 618.423 2992.05 619.363 2991.67 620.303 2991.31 621.489 2990.97 622.921L2988.31 622.921Z" fill="#A6A6A6" fill-rule="evenodd"/><text fill="#000000" fill-opacity="0" font-family="Arial,Arial_MSFontService,sans-serif" font-size="36.6577" x="2988.31" y="645.651">T</text><path d="M3025.66 636.169C3026.7 636.169 3027.67 636.28 3028.58 636.501 3029.48 636.723 3030.27 637.058 3030.93 637.507 3031.59 637.956 3032.11 638.516 3032.48 639.187 3032.85 639.857 3033.04 640.635 3033.04 641.521 3033.04 642.354 3032.92 643.09 3032.69 643.728 3032.45 644.366 3032.09 644.945 3031.6 645.466 3031.11 645.987 3030.52 646.459 3029.81 646.882 3029.1 647.305 3028.28 647.712 3027.35 648.103L3027.35 648.337C3028.23 648.493 3029.04 648.744 3029.8 649.089 3030.55 649.434 3031.21 649.87 3031.78 650.398 3032.35 650.925 3032.79 651.534 3033.12 652.224 3033.44 652.914 3033.6 653.676 3033.6 654.509 3033.6 655.551 3033.41 656.517 3033.02 657.409 3032.63 658.301 3032.04 659.073 3031.26 659.724 3030.48 660.375 3029.52 660.883 3028.37 661.247 3027.22 661.612 3025.88 661.794 3024.35 661.794 3023.14 661.794 3021.91 661.674 3020.66 661.433 3019.41 661.192 3018.22 660.876 3017.1 660.486L3017.1 656.267 3019.62 656.267C3019.83 656.918 3020.08 657.474 3020.36 657.937 3020.65 658.399 3020.98 658.777 3021.37 659.07 3021.75 659.362 3022.2 659.574 3022.7 659.704 3023.2 659.834 3023.77 659.9 3024.41 659.9 3026.09 659.9 3027.36 659.499 3028.22 658.698 3029.09 657.898 3029.52 656.683 3029.52 655.056 3029.52 653.324 3028.95 652.012 3027.81 651.12 3026.67 650.228 3024.99 649.782 3022.75 649.782L3021.03 649.782 3021.03 647.907C3022.39 647.842 3023.58 647.65 3024.57 647.331 3025.57 647.012 3026.4 646.599 3027.06 646.091 3027.73 645.583 3028.22 644.991 3028.55 644.314 3028.87 643.637 3029.03 642.914 3029.03 642.146 3029.03 640.896 3028.66 639.909 3027.92 639.187 3027.18 638.464 3026.1 638.103 3024.7 638.103 3023.51 638.103 3022.52 638.428 3021.72 639.079 3020.92 639.73 3020.3 640.7 3019.87 641.989L3017.39 641.989 3017.39 638.142C3018.93 637.491 3020.38 636.999 3021.74 636.667 3023.1 636.335 3024.41 636.169 3025.66 636.169Z" fill="#A6A6A6" fill-rule="evenodd"/><text fill="#000000" fill-opacity="0" font-family="Arial,Arial_MSFontService,sans-serif" font-size="25.625" x="3017.1" y="658.591">3</text><path d="M999.938 652.5 999.938 759.505 993.063 759.505 993.063 652.5ZM1010.25 754.921 996.5 782.421 982.75 754.921Z"/></g></svg>