<svg width="2152" height="1058" xmlns="http://www.w3.org/2000/svg" xmlns:xlink="http://www.w3.org/1999/xlink" xml:space="preserve" overflow="hidden"><g transform="translate(-888 -652)"><path d="M3036 681.862 3036 1688.14C3036 1698.56 3027.56 1707 3017.14 1707L2080.86 1707C2080.39 1707 2080 1706.61 2080 1706.14L2080 663.861C2080 663.386 2080.39 663 2080.86 663L3017.14 663C3027.56 663 3036 671.445 3036 681.862Z" fill="#F2F2F2" fill-rule="evenodd"/><path d="M1045.5 1408.5C1045.5 1379.78 1068.78 1356.5 1097.5 1356.5 1126.22 1356.5 1149.5 1379.78 1149.5 1408.5 1149.5 1437.22 1126.22 1460.5 1097.5 1460.5 1068.78 1460.5 1045.5 1437.22 1045.5 1408.5Z" stroke="#000000" stroke-width="4.58333" stroke-miterlimit="8" fill="#FFC000" fill-rule="evenodd"/><path d="M1004.5 1462.5 1195.36 1463.49" stroke="#000000" stroke-width="4.58333" stroke-miterlimit="8" fill="none" fill-rule="evenodd"/><path d="M1153.5 1629.5C1153.5 1607.96 1170.96 1590.5 1192.5 1590.5 1214.04 1590.5 1231.5 1607.96 1231.5 1629.5 1231.5 1651.04 1214.04 1668.5 1192.5 1668.5 1170.96 1668.5 1153.5 1651.04 1153.5 1629.5Z" stroke="#000000" stroke-width="4.58333" stroke-miterlimit="8" fill="#CC99FF" fill-rule="evenodd"/><path d="M1339.5 1550.5C1339.5 1528.96 1356.96 1511.5 1378.5 1511.5 1400.04 1511.5 1417.5 1528.96 1417.5 1550.5 1417.5 1572.04 1400.04 1589.5 1378.5 1589.5 1356.96 1589.5 1339.5 1572.04 1339.5 1550.5Z" stroke="#000000" stroke-width="4.58333" stroke-miterlimit="8" fill="#FF0000" fill-rule="evenodd"/><path d="M966.5 1629.5C966.5 1607.96 983.961 1590.5 1005.5 1590.5 1027.04 1590.5 1044.5 1607.96 1044.5 1629.5 1044.5 1651.04 1027.04 1668.5 1005.5 1668.5 983.961 1668.5 966.5 1651.04 966.5 1629.5Z" stroke="#000000" stroke-width="4.58333" stroke-miterlimit="8" fill="#FFFFCC" fill-rule="evenodd"/><path d="M0 0 285.827 0.425492" stroke="#000000" stroke-width="4.58333" stroke-miterlimit="8" fill="none" fill-rule="evenodd" transform="matrix(1 0 0 -1 1094.5 1022.93)"/><path d="M2.29121-0.0458242 4.43139 106.963-0.151025 107.055-2.29121 0.0458242ZM15.7958 102.152 2.59843 129.921-11.6987 102.702Z" transform="matrix(-1 0 0 1 1380.1 1381.5)"/><path d="M1096.79 1231.5 1096.79 1338.5 1092.21 1338.5 1092.21 1231.5ZM1108.25 1333.92 1094.5 1361.42 1080.75 1333.92Z"/><path d="M2.29163-0.0123971 3.57334 236.914-1.00993 236.939-2.29163 0.0123971ZM15.0067 232.269 1.40568 259.843-12.4929 232.417Z" transform="matrix(-1 0 0 1 1382.91 1021.5)"/><path d="M1165.5 955.5C1165.5 919.602 1194.6 890.5 1230.5 890.5 1266.4 890.5 1295.5 919.602 1295.5 955.5 1295.5 991.399 1266.4 1020.5 1230.5 1020.5 1194.6 1020.5 1165.5 991.399 1165.5 955.5Z" stroke="#000000" stroke-width="4.58333" stroke-miterlimit="8" fill="#E7E6E6" fill-rule="evenodd"/><path d="M2.29153-0.0247931 3.44928 106.981-1.13379 107.031-2.29153 0.0247931ZM14.8574 102.274 1.40568 129.921-12.641 102.572Z" transform="matrix(-1 0 0 1 1096.91 1021.5)"/><path d="M1328.5 1333.5C1328.5 1304.78 1351.78 1281.5 1380.5 1281.5 1409.22 1281.5 1432.5 1304.78 1432.5 1333.5 1432.5 1362.22 1409.22 1385.5 1380.5 1385.5 1351.78 1385.5 1328.5 1362.22 1328.5 1333.5Z" stroke="#000000" stroke-width="4.58333" stroke-miterlimit="8" fill="#66FFFF" fill-rule="evenodd"/><path d="M1059.5 1188.5C1059.5 1166.96 1076.96 1149.5 1098.5 1149.5 1120.04 1149.5 1137.5 1166.96 1137.5 1188.5 1137.5 1210.04 1120.04 1227.5 1098.5 1227.5 1076.96 1227.5 1059.5 1210.04 1059.5 1188.5Z" stroke="#000000" stroke-width="4.58333" stroke-miterlimit="8" fill="#F56EEC" fill-rule="evenodd"/><text font-family="Cambria Math,Cambria Math_MSFontService,sans-serif" font-weight="400" font-size="37" transform="matrix(1 0 0 1 1211.26 971)">N</text><text font-family="Cambria Math,Cambria Math_MSFontService,sans-serif" font-weight="400" font-size="27" transform="matrix(1 0 0 1 1235.62 978)">1</text><text font-family="Cambria Math,Cambria Math_MSFontService,sans-serif" font-weight="400" font-size="37" transform="matrix(1 0 0 1 1170.21 1642)">N</text><text font-family="Cambria Math,Cambria Math_MSFontService,sans-serif" font-weight="400" font-size="27" transform="matrix(1 0 0 1 1195.42 1650)">7</text><text font-family="Cambria Math,Cambria Math_MSFontService,sans-serif" font-weight="400" font-size="37" transform="matrix(1 0 0 1 1079.75 1198)">N</text><text font-family="Cambria Math,Cambria Math_MSFontService,sans-serif" font-weight="400" font-size="27" transform="matrix(1 0 0 1 1104.96 1205)">3</text><text font-family="Cambria Math,Cambria Math_MSFontService,sans-serif" font-weight="400" font-size="37" transform="matrix(1 0 0 1 1079.75 1417)">N</text><text font-family="Cambria Math,Cambria Math_MSFontService,sans-serif" font-weight="400" font-size="27" transform="matrix(1 0 0 1 1104.96 1425)">5</text><text font-family="Cambria Math,Cambria Math_MSFontService,sans-serif" font-weight="400" font-size="37" transform="matrix(1 0 0 1 1361.83 1343)">N</text><text font-family="Cambria Math,Cambria Math_MSFontService,sans-serif" font-weight="400" font-size="27" transform="matrix(1 0 0 1 1387.04 1350)">8</text><text font-family="Cambria Math,Cambria Math_MSFontService,sans-serif" font-weight="400" font-size="37" transform="matrix(1 0 0 1 1358.47 1564)">N</text><text font-family="Cambria Math,Cambria Math_MSFontService,sans-serif" font-weight="400" font-size="27" transform="matrix(1 0 0 1 1383.68 1572)">9</text><text font-family="Cambria Math,Cambria Math_MSFontService,sans-serif" font-weight="400" font-size="37" transform="matrix(1 0 0 1 986.294 1640)">N</text><text font-family="Cambria Math,Cambria Math_MSFontService,sans-serif" font-weight="400" font-size="27" transform="matrix(1 0 0 1 1011.5 1648)">6</text><path d="M1233.79 778.5 1233.79 869.613 1229.21 869.613 1229.21 778.5ZM1245.25 865.029 1231.5 892.529 1217.75 865.03Z"/><path d="M1008.79 1460.5 1008.79 1567.5 1004.21 1567.5 1004.21 1460.5ZM1020.25 1562.92 1006.5 1590.42 992.75 1562.92Z"/><path d="M1195.79 1463.5 1195.79 1570.5 1191.21 1570.5 1191.21 1463.5ZM1207.25 1565.92 1193.5 1593.42 1179.75 1565.92Z"/><path d="M902.5 674.867C902.5 666.932 908.932 660.5 916.867 660.5L3019.13 660.5C3027.07 660.5 3033.5 666.932 3033.5 674.867L3033.5 1694.13C3033.5 1702.07 3027.07 1708.5 3019.13 1708.5L916.867 1708.5C908.932 1708.5 902.5 1702.07 902.5 1694.13Z" stroke="#A5A5A5" stroke-width="3.4375" stroke-linejoin="round" stroke-miterlimit="10" fill="none" fill-rule="evenodd"/><path d="M910 681.833C910 674.193 916.193 668 923.833 668L979.166 668C986.807 668 993 674.193 993 681.833L993 737.166C993 744.807 986.807 751 979.166 751L923.833 751C916.193 751 910 744.807 910 737.166Z" stroke="#A6A6A6" stroke-width="2.29167" stroke-miterlimit="8" fill="#FFFFFF" fill-rule="evenodd"/><path d="M926.979 684.744 956.037 684.744 956.037 694.09 953.405 694.09C953.011 692.55 952.622 691.333 952.237 690.438 951.852 689.542 951.444 688.862 951.015 688.397 950.585 687.931 950.124 687.6 949.632 687.403 949.139 687.206 948.401 687.108 947.416 687.108L944.005 687.108 944.005 714.608C944.005 715.664 944.064 716.505 944.18 717.132 944.296 717.759 944.475 718.255 944.717 718.622 944.959 718.99 945.286 719.276 945.697 719.482 946.109 719.688 946.754 719.889 947.631 720.086L947.631 721.402 935.358 721.402 935.358 720.086C935.895 719.961 936.37 719.827 936.781 719.683 937.193 719.54 937.529 719.365 937.788 719.16 938.048 718.954 938.263 718.69 938.433 718.367 938.603 718.045 938.737 717.606 938.836 717.051 938.934 716.496 938.983 715.682 938.983 714.608L938.983 687.108 935.6 687.108C934.758 687.108 934.064 687.188 933.518 687.349 932.972 687.51 932.467 687.846 932.001 688.356 931.536 688.867 931.11 689.592 930.725 690.532 930.34 691.472 929.978 692.658 929.638 694.09L926.979 694.09Z" fill="#A6A6A6" fill-rule="evenodd"/><text fill="#000000" fill-opacity="0" font-family="Arial,Arial_MSFontService,sans-serif" font-size="36.6577" x="926.979" y="716.82">T</text><path d="M964.607 707.475 965.798 707.475C965.772 708.191 965.753 708.832 965.74 709.399 965.727 709.965 965.717 710.515 965.71 711.049 965.704 711.583 965.701 712.11 965.701 712.631L965.701 727.475C965.701 727.879 965.714 728.227 965.74 728.52 965.766 728.813 965.808 729.06 965.867 729.262 965.925 729.464 966.003 729.636 966.101 729.78 966.199 729.923 966.313 730.047 966.443 730.151 966.599 730.307 966.807 730.427 967.068 730.512 967.328 730.597 967.66 730.668 968.064 730.727 968.468 730.785 968.953 730.831 969.519 730.864 970.085 730.896 970.766 730.919 971.56 730.932L971.56 732.631 956.072 732.631 956.072 730.932C956.84 730.906 957.491 730.877 958.025 730.844 958.559 730.812 959.014 730.766 959.392 730.707 959.77 730.649 960.072 730.584 960.3 730.512 960.528 730.44 960.727 730.353 960.896 730.248 961.078 730.131 961.234 730.004 961.365 729.867 961.495 729.731 961.599 729.558 961.677 729.35 961.755 729.142 961.817 728.888 961.863 728.588 961.908 728.289 961.931 727.918 961.931 727.475L961.931 713.471C961.931 712.963 961.833 712.605 961.638 712.397 961.443 712.188 961.163 712.084 960.798 712.084 960.395 712.084 959.796 712.293 959.001 712.709 958.207 713.126 957.178 713.744 955.915 714.565 955.746 714.265 955.59 713.966 955.447 713.666 955.303 713.367 955.154 713.061 954.997 712.748 956.612 711.863 958.21 710.981 959.792 710.102 961.374 709.223 962.979 708.347 964.607 707.475Z" fill="#A6A6A6" fill-rule="evenodd"/><text fill="#000000" fill-opacity="0" font-family="Arial,Arial_MSFontService,sans-serif" font-size="25.1562" x="954.997" y="729.487">1</text><path d="M1986 681C1986 673.268 1992.27 667 2000 667L2056 667C2063.73 667 2070 673.268 2070 681L2070 737C2070 744.732 2063.73 751 2056 751L2000 751C1992.27 751 1986 744.732 1986 737Z" stroke="#A6A6A6" stroke-width="2.29167" stroke-miterlimit="8" fill="#FFFFFF" fill-rule="evenodd"/><path d="M2002.8 684.002 2031.86 684.002 2031.86 693.348 2029.22 693.348C2028.83 691.808 2028.44 690.591 2028.06 689.695 2027.67 688.8 2027.26 688.12 2026.83 687.654 2026.4 687.189 2025.94 686.858 2025.45 686.661 2024.96 686.464 2024.22 686.365 2023.24 686.365L2019.82 686.365 2019.82 713.865C2019.82 714.922 2019.88 715.763 2020 716.39 2020.12 717.016 2020.29 717.513 2020.54 717.88 2020.78 718.247 2021.1 718.534 2021.52 718.74 2021.93 718.945 2022.57 719.147 2023.45 719.344L2023.45 720.66 2011.18 720.66 2011.18 719.344C2011.71 719.218 2012.19 719.084 2012.6 718.941 2013.01 718.798 2013.35 718.623 2013.61 718.417 2013.87 718.211 2014.08 717.947 2014.25 717.625 2014.42 717.303 2014.56 716.864 2014.65 716.309 2014.75 715.754 2014.8 714.939 2014.8 713.865L2014.8 686.365 2011.42 686.365C2010.58 686.365 2009.88 686.446 2009.34 686.607 2008.79 686.768 2008.29 687.104 2007.82 687.614 2007.35 688.124 2006.93 688.849 2006.54 689.789 2006.16 690.729 2005.8 691.915 2005.46 693.348L2002.8 693.348Z" fill="#A6A6A6" fill-rule="evenodd"/><text fill="#000000" fill-opacity="0" font-family="Arial,Arial_MSFontService,sans-serif" font-size="36.6577" x="2002.8" y="716.077">T</text><path d="M2040.19 706.596C2041.54 706.596 2042.7 706.749 2043.65 707.055 2044.61 707.361 2045.39 707.774 2045.99 708.295 2046.59 708.816 2047.02 709.441 2047.29 710.17 2047.55 710.899 2047.69 711.687 2047.69 712.533 2047.69 713.041 2047.65 713.513 2047.58 713.949 2047.51 714.386 2047.38 714.815 2047.21 715.238 2047.03 715.662 2046.8 716.088 2046.51 716.518 2046.23 716.947 2045.87 717.403 2045.44 717.885 2045.11 718.302 2044.69 718.783 2044.17 719.33 2043.65 719.877 2043.08 720.463 2042.46 721.088 2041.84 721.713 2041.19 722.364 2040.52 723.041 2039.84 723.718 2039.18 724.389 2038.55 725.053 2037.91 725.717 2037.32 726.361 2036.79 726.986 2036.25 727.611 2035.82 728.184 2035.48 728.705L2042.71 728.705C2043.32 728.705 2043.81 728.682 2044.17 728.637 2044.53 728.591 2044.84 728.49 2045.08 728.334 2045.32 728.178 2045.52 727.94 2045.69 727.621 2045.86 727.302 2046.06 726.863 2046.28 726.303L2048.1 726.303C2048.03 727.227 2047.97 728.158 2047.91 729.096 2047.85 730.033 2047.79 730.964 2047.72 731.889L2031.18 731.889 2031.18 730.873C2031.49 730.17 2031.86 729.477 2032.28 728.793 2032.69 728.109 2033.16 727.416 2033.68 726.713 2034.2 726.01 2034.8 725.284 2035.46 724.535 2036.12 723.787 2036.86 723.009 2037.67 722.201 2038.89 720.977 2039.89 719.932 2040.65 719.067 2041.42 718.201 2042.03 717.429 2042.47 716.752 2042.91 716.075 2043.22 715.45 2043.38 714.877 2043.54 714.304 2043.62 713.692 2043.62 713.041 2043.62 712.377 2043.53 711.765 2043.34 711.205 2043.15 710.645 2042.88 710.17 2042.53 709.779 2042.18 709.389 2041.73 709.083 2041.19 708.861 2040.65 708.64 2040.03 708.529 2039.33 708.529 2038.12 708.529 2037.1 708.858 2036.28 709.516 2035.46 710.173 2034.82 711.127 2034.37 712.377L2031.81 712.377 2031.81 708.568C2033.47 707.878 2035.01 707.377 2036.41 707.065 2037.81 706.752 2039.07 706.596 2040.19 706.596Z" fill="#A6A6A6" fill-rule="evenodd"/><text fill="#000000" fill-opacity="0" font-family="Arial,Arial_MSFontService,sans-serif" font-size="25.293" x="2031.18" y="728.727">2</text><path d="M1616.5 1410.5C1616.5 1381.78 1639.78 1358.5 1668.5 1358.5 1697.22 1358.5 1720.5 1381.78 1720.5 1410.5 1720.5 1439.22 1697.22 1462.5 1668.5 1462.5 1639.78 1462.5 1616.5 1439.22 1616.5 1410.5Z" stroke="#000000" stroke-width="4.58333" stroke-miterlimit="8" fill="#FFC000" fill-rule="evenodd"/><path d="M1575.5 1463.5 1766.36 1464.49" stroke="#000000" stroke-width="4.58333" stroke-miterlimit="8" fill="none" fill-rule="evenodd"/><path d="M1724.5 1631.5C1724.5 1609.96 1741.96 1592.5 1763.5 1592.5 1785.04 1592.5 1802.5 1609.96 1802.5 1631.5 1802.5 1653.04 1785.04 1670.5 1763.5 1670.5 1741.96 1670.5 1724.5 1653.04 1724.5 1631.5Z" stroke="#000000" stroke-width="4.58333" stroke-miterlimit="8" fill="#CC99FF" fill-rule="evenodd"/><path d="M1911.5 1421C1911.5 1399.74 1928.96 1382.5 1950.5 1382.5 1972.04 1382.5 1989.5 1399.74 1989.5 1421 1989.5 1442.26 1972.04 1459.5 1950.5 1459.5 1928.96 1459.5 1911.5 1442.26 1911.5 1421Z" stroke="#FF0000" stroke-width="4.58333" stroke-miterlimit="8" fill="none" fill-rule="evenodd"/><path d="M1538.5 1630.5C1538.5 1608.96 1555.96 1591.5 1577.5 1591.5 1599.04 1591.5 1616.5 1608.96 1616.5 1630.5 1616.5 1652.04 1599.04 1669.5 1577.5 1669.5 1555.96 1669.5 1538.5 1652.04 1538.5 1630.5Z" stroke="#000000" stroke-width="4.58333" stroke-miterlimit="8" fill="#FFFFCC" fill-rule="evenodd"/><path d="M0 0 285.827 0.425492" stroke="#000000" stroke-width="4.58333" stroke-miterlimit="8" fill="none" fill-rule="evenodd" transform="matrix(1 0 0 -1 1666.5 1024.93)"/><path d="M2.29121-0.0458242 4.43139 106.963-0.151025 107.055-2.29121 0.0458242ZM15.7958 102.152 2.59843 129.921-11.6987 102.702Z" fill="#FF0000" transform="matrix(-1 0 0 1 1951.1 1252.5)"/><path d="M1668.79 1232.5 1668.79 1339.5 1664.21 1339.5 1664.21 1232.5ZM1680.25 1334.92 1666.5 1362.42 1652.75 1334.92Z"/><path d="M2.29153-0.0247931 3.44928 106.981-1.13379 107.031-2.29153 0.0247931ZM14.8574 102.274 1.40568 129.921-12.641 102.572Z" transform="matrix(-1 0 0 1 1953.91 1021.5)"/><path d="M1737.5 957C1737.5 921.378 1766.6 892.5 1802.5 892.5 1838.4 892.5 1867.5 921.378 1867.5 957 1867.5 992.622 1838.4 1021.5 1802.5 1021.5 1766.6 1021.5 1737.5 992.622 1737.5 957Z" stroke="#000000" stroke-width="4.58333" stroke-miterlimit="8" fill="#E7E6E6" fill-rule="evenodd"/><path d="M2.29153-0.0247931 3.44928 106.981-1.13379 107.031-2.29153 0.0247931ZM14.8574 102.274 1.40568 129.921-12.641 102.572Z" transform="matrix(-1 0 0 1 1668.91 1022.5)"/><path d="M1900.5 1204.5C1900.5 1175.78 1923.78 1152.5 1952.5 1152.5 1981.22 1152.5 2004.5 1175.78 2004.5 1204.5 2004.5 1233.22 1981.22 1256.5 1952.5 1256.5 1923.78 1256.5 1900.5 1233.22 1900.5 1204.5Z" stroke="#000000" stroke-width="4.58333" stroke-miterlimit="8" fill="#66FFFF" fill-rule="evenodd"/><path d="M1631.5 1190.5C1631.5 1168.96 1648.74 1151.5 1670 1151.5 1691.26 1151.5 1708.5 1168.96 1708.5 1190.5 1708.5 1212.04 1691.26 1229.5 1670 1229.5 1648.74 1229.5 1631.5 1212.04 1631.5 1190.5Z" stroke="#000000" stroke-width="4.58333" stroke-miterlimit="8" fill="#F56EEC" fill-rule="evenodd"/><text font-family="Cambria Math,Cambria Math_MSFontService,sans-serif" font-weight="400" font-size="37" transform="matrix(1 0 0 1 1782.79 972)">N</text><text font-family="Cambria Math,Cambria Math_MSFontService,sans-serif" font-weight="400" font-size="27" transform="matrix(1 0 0 1 1807.15 980)">1</text><text font-family="Cambria Math,Cambria Math_MSFontService,sans-serif" font-weight="400" font-size="37" transform="matrix(1 0 0 1 1741.74 1643)">N</text><text font-family="Cambria Math,Cambria Math_MSFontService,sans-serif" font-weight="400" font-size="27" transform="matrix(1 0 0 1 1766.95 1651)">7</text><text font-family="Cambria Math,Cambria Math_MSFontService,sans-serif" font-weight="400" font-size="37" transform="matrix(1 0 0 1 1651.28 1199)">N</text><text font-family="Cambria Math,Cambria Math_MSFontService,sans-serif" font-weight="400" font-size="27" transform="matrix(1 0 0 1 1676.49 1206)">3</text><text font-family="Cambria Math,Cambria Math_MSFontService,sans-serif" font-weight="400" font-size="37" transform="matrix(1 0 0 1 1651.28 1418)">N</text><text font-family="Cambria Math,Cambria Math_MSFontService,sans-serif" font-weight="400" font-size="27" transform="matrix(1 0 0 1 1676.49 1426)">5</text><text font-family="Cambria Math,Cambria Math_MSFontService,sans-serif" font-weight="400" font-size="37" transform="matrix(1 0 0 1 1933.36 1213)">N</text><text font-family="Cambria Math,Cambria Math_MSFontService,sans-serif" font-weight="400" font-size="27" transform="matrix(1 0 0 1 1958.57 1221)">8</text><text fill="#FF0000" font-family="Cambria Math,Cambria Math_MSFontService,sans-serif" font-weight="400" font-size="37" transform="matrix(1 0 0 1 1932.37 1427)">N</text><text fill="#FF0000" font-family="Cambria Math,Cambria Math_MSFontService,sans-serif" font-weight="400" font-size="27" transform="matrix(1 0 0 1 1957.57 1435)">9</text><text font-family="Cambria Math,Cambria Math_MSFontService,sans-serif" font-weight="400" font-size="37" transform="matrix(1 0 0 1 1557.82 1642)">N</text><text font-family="Cambria Math,Cambria Math_MSFontService,sans-serif" font-weight="400" font-size="27" transform="matrix(1 0 0 1 1583.03 1649)">6</text><path d="M1804.79 779.5 1804.79 870.613 1800.21 870.613 1800.21 779.5ZM1816.25 866.029 1802.5 893.529 1788.75 866.03Z"/><path d="M1579.79 1461.5 1579.79 1568.5 1575.21 1568.5 1575.21 1461.5ZM1591.25 1563.92 1577.5 1591.42 1563.75 1563.92Z"/><path d="M1767.79 1464.5 1767.79 1571.5 1763.21 1571.5 1763.21 1464.5ZM1779.25 1566.92 1765.5 1594.42 1751.75 1566.92Z"/><path d="M2180.84 919.98C2179.99 919.98 2179.14 920.253 2178.31 920.799 2177.47 921.345 2176.55 922.249 2175.53 923.511 2174.51 924.774 2173.67 926.067 2173.03 927.392 2172.39 928.717 2171.84 930.409 2171.39 932.468L2171.15 933.596C2170.88 934.849 2170.75 936.066 2170.75 937.248 2170.75 938.662 2171.06 939.683 2171.67 940.31 2172.29 940.936 2173.32 941.25 2174.75 941.25 2175.48 941.25 2176.18 941.129 2176.84 940.887 2177.51 940.645 2178.18 940.247 2178.87 939.692 2179.56 939.137 2180.21 938.407 2180.83 937.503 2181.45 936.599 2182.02 935.485 2182.54 934.16 2183.06 932.835 2183.46 931.416 2183.74 929.903 2184.03 928.39 2184.17 926.945 2184.17 925.566 2184.17 923.704 2183.91 922.307 2183.38 921.376 2182.85 920.445 2182.01 919.98 2180.84 919.98ZM2205.96 904.538 2207.54 904.538 2200.93 934.267C2200.54 936.04 2200.34 937.364 2200.34 938.242 2200.34 938.958 2200.46 939.477 2200.69 939.799 2200.93 940.122 2201.29 940.283 2201.79 940.283 2202.33 940.283 2202.9 940.063 2203.51 939.625 2204.12 939.186 2204.98 938.349 2206.09 937.114L2207.62 938.618C2205.89 940.444 2204.47 941.693 2203.37 942.364 2202.26 943.035 2201.03 943.371 2199.67 943.371 2198.51 943.371 2197.58 942.946 2196.88 942.095 2196.18 941.245 2195.83 940.157 2195.83 938.833 2195.83 937.633 2196.08 935.896 2196.58 933.623L2201.39 912.111C2201.61 911.162 2201.76 910.406 2201.85 909.842 2201.94 909.278 2201.98 908.754 2201.98 908.271 2201.98 907.734 2201.88 907.327 2201.69 907.049 2201.49 906.772 2201.21 906.57 2200.84 906.445 2200.47 906.32 2199.82 906.23 2198.87 906.176L2199.19 904.78ZM2176.14 904.538 2177.7 904.538 2172.98 923.337 2173.32 923.444C2175.06 921.117 2176.69 919.434 2178.21 918.396 2179.73 917.357 2181.26 916.838 2182.78 916.838 2184.73 916.838 2186.25 917.581 2187.33 919.067 2188.41 920.553 2188.95 922.648 2188.95 925.351 2188.95 928.305 2188.36 931.21 2187.17 934.066 2185.98 936.921 2184.33 939.186 2182.21 940.86 2180.1 942.534 2177.74 943.371 2175.12 943.371 2172.74 943.371 2170.63 942.789 2168.79 941.625L2166.32 943.371 2164.6 942.941 2171.55 912.246C2171.96 910.419 2172.17 909.095 2172.17 908.271 2172.17 907.519 2171.94 906.991 2171.49 906.687 2171.03 906.382 2170.21 906.212 2169.03 906.176L2169.35 904.78Z" fill-rule="evenodd"/><text fill="#000000" fill-opacity="0" font-family="Arial,Arial_MSFontService,sans-serif" font-size="38.833" x="2164.6" y="938.517">𝑏𝑙</text><path d="M2210.49 927.51 2233.7 927.51 2233.7 934.717 2231.49 934.717C2231.21 933.702 2230.95 932.872 2230.7 932.227 2230.44 931.583 2230.15 931.075 2229.81 930.704 2229.47 930.333 2229.07 930.076 2228.6 929.932 2228.13 929.789 2227.54 929.704 2226.84 929.678L2224.18 929.678 2224.18 949.151C2224.2 949.802 2224.23 950.339 2224.28 950.762 2224.33 951.185 2224.45 951.534 2224.64 951.807 2224.83 952.081 2225.11 952.299 2225.49 952.462 2225.87 952.624 2226.4 952.777 2227.07 952.921L2227.07 954.171 2217.11 954.171 2217.11 952.921C2217.62 952.829 2218.05 952.732 2218.41 952.628 2218.77 952.523 2219.07 952.351 2219.3 952.11 2219.54 951.869 2219.71 951.518 2219.82 951.055 2219.93 950.593 2219.98 949.958 2219.98 949.151L2219.98 929.678 2217.35 929.678C2216.97 929.678 2216.64 929.695 2216.36 929.727 2216.08 929.76 2215.83 929.815 2215.61 929.893 2215.39 929.971 2215.19 930.072 2215 930.196 2214.82 930.32 2214.65 930.466 2214.48 930.635 2214.15 930.948 2213.84 931.413 2213.56 932.032 2213.27 932.65 2213 933.546 2212.74 934.717L2210.49 934.717Z" fill-rule="evenodd"/><text fill="#000000" fill-opacity="0" font-family="Arial,Arial_MSFontService,sans-serif" font-size="26.6602" x="2210.49" y="950.838">T</text><path d="M2246.66 942.549 2247.72 942.549C2247.7 942.774 2247.68 943.322 2247.66 944.192 2247.64 945.062 2247.62 945.938 2247.62 946.819L2247.62 958.162C2247.62 958.839 2247.68 959.323 2247.8 959.613 2247.92 959.903 2248.11 960.131 2248.37 960.297 2248.62 960.464 2249.06 960.593 2249.69 960.684 2250.31 960.775 2251.3 960.832 2252.65 960.853L2252.65 962.352 2239.29 962.352 2239.29 960.853C2240.6 960.821 2241.56 960.762 2242.17 960.676 2242.78 960.59 2243.22 960.464 2243.51 960.297 2243.79 960.131 2244 959.903 2244.14 959.613 2244.27 959.323 2244.34 958.839 2244.34 958.162L2244.34 947.479C2244.34 947.093 2244.26 946.813 2244.1 946.641 2243.95 946.469 2243.73 946.384 2243.44 946.384 2243.11 946.384 2242.61 946.558 2241.92 946.907 2241.23 947.256 2240.35 947.769 2239.28 948.446L2238.42 946.819Z" fill-rule="evenodd"/><text fill="#000000" fill-opacity="0" font-family="Arial,Arial_MSFontService,sans-serif" font-size="19.8032" x="2238.42" y="959.876">1</text><path d="M2278.19 931.018 2311.28 931.018 2311.28 934.589 2278.19 934.589ZM2278.19 919.873 2311.28 919.873 2311.28 923.444 2278.19 923.444Z" fill-rule="evenodd"/><text fill="#000000" fill-opacity="0" font-family="Arial,Arial_MSFontService,sans-serif" font-size="14.7168" x="2278.19" y="932.75">=</text><path d="M2332.82 733.695 2348.99 733.695 2348.99 736.112 2338.46 736.112 2338.46 790.186 2338.46 800.216 2338.46 841.909 2338.46 857.325 2338.46 893.632 2338.46 909.048 2338.46 945.378 2338.46 960.771 2338.46 997.124 2338.46 1012.52 2338.46 1054.25 2338.46 1064.26 2338.46 1118.36 2348.99 1118.36 2348.99 1120.77 2332.82 1120.77 2332.82 1064.26 2332.82 1054.25 2332.82 1012.52 2332.82 997.124 2332.82 960.771 2332.82 945.378 2332.82 909.048 2332.82 893.632 2332.82 857.325 2332.82 841.909 2332.82 800.216 2332.82 790.186ZM2381.33 733.695 2397.5 733.695 2397.5 790.186 2397.5 800.216 2397.5 841.909 2397.5 857.325 2397.5 893.632 2397.5 909.048 2397.5 945.378 2397.5 960.771 2397.5 997.124 2397.5 1012.52 2397.5 1054.25 2397.5 1064.26 2397.5 1120.77 2381.33 1120.77 2381.33 1118.36 2391.86 1118.36 2391.86 1064.26 2391.86 1054.25 2391.86 1012.52 2391.86 997.124 2391.86 960.771 2391.86 945.378 2391.86 909.048 2391.86 893.632 2391.86 857.325 2391.86 841.909 2391.86 800.216 2391.86 790.186 2391.86 736.112 2381.33 736.112Z" fill-rule="evenodd"/><path d="M2365.42 725.064C2368.75 725.064 2371.26 725.794 2372.96 727.253 2374.66 728.712 2375.51 730.829 2375.51 733.604 2375.51 734.553 2375.42 735.426 2375.23 736.223 2375.04 737.02 2374.75 737.807 2374.35 738.586 2373.94 739.365 2373.4 740.202 2372.72 741.097 2372.04 741.992 2371.29 742.901 2370.46 743.823 2369.64 744.745 2368.22 746.28 2366.19 748.429 2362.79 752.027 2360.3 755.169 2358.7 757.855L2368.83 757.855C2369.7 757.855 2370.41 757.801 2370.95 757.694 2371.49 757.586 2371.92 757.407 2372.24 757.157 2372.56 756.906 2372.81 756.579 2373 756.176 2373.19 755.774 2373.43 755.151 2373.71 754.31L2376 754.31 2375.54 762.152 2353.44 762.152 2353.44 760.863C2354.21 758.983 2355.25 757.058 2356.55 755.089 2357.86 753.119 2359.71 750.801 2362.11 748.133 2364.19 745.842 2365.68 744.105 2366.6 742.923 2367.6 741.634 2368.35 740.52 2368.84 739.58 2369.33 738.64 2369.69 737.754 2369.9 736.921 2370.12 736.089 2370.22 735.252 2370.22 734.41 2370.22 733.067 2370.01 731.881 2369.58 730.852 2369.15 729.822 2368.49 729.012 2367.6 728.421 2366.72 727.831 2365.6 727.535 2364.26 727.535 2360.91 727.535 2358.66 729.397 2357.49 733.121L2354.24 733.121 2354.24 727.965C2356.41 726.944 2358.44 726.206 2360.33 725.749 2362.22 725.293 2363.91 725.064 2365.42 725.064Z" fill-rule="evenodd"/><text fill="#000000" fill-opacity="0" font-family="Arial,Arial_MSFontService,sans-serif" font-size="37.0874" x="2353.44" y="757.516">2</text><path d="M2365.42 789.552C2368.75 789.552 2371.26 790.281 2372.96 791.741 2374.66 793.2 2375.51 795.317 2375.51 798.092 2375.51 799.041 2375.42 799.914 2375.23 800.71 2375.04 801.507 2374.75 802.295 2374.35 803.074 2373.94 803.852 2373.4 804.689 2372.72 805.585 2372.04 806.48 2371.29 807.388 2370.46 808.31 2369.64 809.232 2368.22 810.768 2366.19 812.916 2362.79 816.515 2360.3 819.657 2358.7 822.342L2368.83 822.342C2369.7 822.342 2370.41 822.289 2370.95 822.181 2371.49 822.074 2371.92 821.895 2372.24 821.644 2372.56 821.393 2372.81 821.067 2373 820.664 2373.19 820.261 2373.43 819.639 2373.71 818.797L2376 818.797 2375.54 826.639 2353.44 826.639 2353.44 825.35C2354.21 823.47 2355.25 821.546 2356.55 819.576 2357.86 817.607 2359.71 815.288 2362.11 812.621 2364.19 810.329 2365.68 808.592 2366.6 807.411 2367.6 806.122 2368.35 805.007 2368.84 804.067 2369.33 803.127 2369.69 802.241 2369.9 801.409 2370.12 800.576 2370.22 799.739 2370.22 798.898 2370.22 797.555 2370.01 796.369 2369.58 795.339 2369.15 794.31 2368.49 793.5 2367.6 792.909 2366.72 792.318 2365.6 792.023 2364.26 792.023 2360.91 792.023 2358.66 793.885 2357.49 797.609L2354.24 797.609 2354.24 792.452C2356.41 791.432 2358.44 790.693 2360.33 790.237 2362.22 789.78 2363.91 789.552 2365.42 789.552Z" fill-rule="evenodd"/><text fill="#000000" fill-opacity="0" font-family="Arial,Arial_MSFontService,sans-serif" font-size="37.0874" x="2353.44" y="822.003">2</text><path d="M2367.32 844.185 2368.8 844.185C2368.69 845.904 2368.64 848.285 2368.64 851.329L2368.64 874.263C2368.64 875.302 2368.7 876.085 2368.81 876.613 2368.93 877.141 2369.14 877.571 2369.43 877.902 2369.73 878.234 2370.15 878.493 2370.71 878.681 2371.26 878.869 2371.96 879.012 2372.8 879.111 2373.64 879.209 2374.75 879.276 2376.13 879.312L2376.13 881.273 2356.29 881.273 2356.29 879.312C2358.27 879.223 2359.69 879.102 2360.54 878.95 2361.39 878.797 2362.04 878.569 2362.49 878.265 2362.94 877.96 2363.26 877.531 2363.47 876.976 2363.67 876.421 2363.78 875.517 2363.78 874.263L2363.78 852.484C2363.78 851.767 2363.65 851.244 2363.4 850.913 2363.15 850.581 2362.78 850.416 2362.3 850.416 2361.73 850.416 2360.91 850.711 2359.86 851.302 2358.8 851.893 2357.49 852.707 2355.94 853.746L2354.75 851.678Z" fill-rule="evenodd"/><text fill="#000000" fill-opacity="0" font-family="Arial,Arial_MSFontService,sans-serif" font-size="37.0874" x="2354.75" y="876.637">1</text><path d="M2367.32 908.673 2368.8 908.673C2368.69 910.391 2368.64 912.773 2368.64 915.816L2368.64 938.751C2368.64 939.789 2368.7 940.573 2368.81 941.101 2368.93 941.629 2369.14 942.059 2369.43 942.39 2369.73 942.721 2370.15 942.981 2370.71 943.169 2371.26 943.357 2371.96 943.5 2372.8 943.598 2373.64 943.697 2374.75 943.764 2376.13 943.8L2376.13 945.76 2356.29 945.76 2356.29 943.8C2358.27 943.71 2359.69 943.589 2360.54 943.437 2361.39 943.285 2362.04 943.057 2362.49 942.752 2362.94 942.448 2363.26 942.018 2363.47 941.463 2363.67 940.908 2363.78 940.004 2363.78 938.751L2363.78 916.971C2363.78 916.255 2363.65 915.731 2363.4 915.4 2363.15 915.069 2362.78 914.903 2362.3 914.903 2361.73 914.903 2360.91 915.199 2359.86 915.789 2358.8 916.38 2357.49 917.195 2355.94 918.233L2354.75 916.165Z" fill-rule="evenodd"/><text fill="#000000" fill-opacity="0" font-family="Arial,Arial_MSFontService,sans-serif" font-size="37.0874" x="2354.75" y="941.124">1</text><path d="M2367.32 963.306 2368.8 963.306C2368.69 965.025 2368.64 967.406 2368.64 970.45L2368.64 993.384C2368.64 994.423 2368.7 995.206 2368.81 995.734 2368.93 996.262 2369.14 996.692 2369.43 997.023 2369.73 997.354 2370.15 997.614 2370.71 997.802 2371.26 997.99 2371.96 998.133 2372.8 998.232 2373.64 998.33 2374.75 998.397 2376.13 998.433L2376.13 1000.39 2356.29 1000.39 2356.29 998.433C2358.27 998.344 2359.69 998.223 2360.54 998.07 2361.39 997.918 2362.04 997.69 2362.49 997.386 2362.94 997.081 2363.26 996.652 2363.47 996.097 2363.67 995.542 2363.78 994.637 2363.78 993.384L2363.78 971.604C2363.78 970.888 2363.65 970.365 2363.4 970.033 2363.15 969.702 2362.78 969.537 2362.3 969.537 2361.73 969.537 2360.91 969.832 2359.86 970.423 2358.8 971.014 2357.49 971.828 2355.94 972.867L2354.75 970.799Z" fill-rule="evenodd"/><text fill="#000000" fill-opacity="0" font-family="Arial,Arial_MSFontService,sans-serif" font-size="37.0874" x="2354.75" y="995.758">1</text><path d="M2365.31 1027.79C2367.33 1027.79 2369.1 1028.11 2370.63 1028.73 2372.15 1029.36 2373.31 1030.26 2374.12 1031.43 2374.92 1032.61 2375.33 1034.01 2375.33 1035.64 2375.33 1037.16 2375.02 1038.5 2374.41 1039.65 2373.8 1040.81 2372.95 1041.81 2371.85 1042.67 2370.75 1043.53 2369.32 1044.37 2367.56 1045.2L2367.56 1045.44C2368.66 1045.63 2369.71 1045.97 2370.72 1046.44 2371.73 1046.92 2372.63 1047.53 2373.42 1048.28 2374.21 1049.04 2374.84 1049.94 2375.31 1050.98 2375.79 1052.03 2376.02 1053.23 2376.02 1054.57 2376.02 1056.65 2375.57 1058.49 2374.67 1060.1 2373.76 1061.71 2372.38 1062.98 2370.52 1063.91 2368.66 1064.85 2366.39 1065.31 2363.72 1065.31 2362.18 1065.31 2360.52 1065.14 2358.74 1064.79 2356.96 1064.44 2355.33 1063.98 2353.84 1063.4L2353.84 1057.71 2357.06 1057.71C2357.69 1059.57 2358.52 1060.92 2359.55 1061.77 2360.58 1062.61 2361.98 1063.03 2363.75 1063.03 2366.08 1063.03 2367.84 1062.39 2369.03 1061.12 2370.22 1059.85 2370.81 1057.97 2370.81 1055.48 2370.81 1052.87 2370.03 1050.87 2368.45 1049.49 2366.88 1048.11 2364.57 1047.42 2361.52 1047.42L2359.1 1047.42 2359.1 1045.06C2361.52 1044.92 2363.56 1044.45 2365.21 1043.67 2366.87 1042.88 2368.1 1041.87 2368.91 1040.63 2369.71 1039.4 2370.12 1038.01 2370.12 1036.47 2370.12 1034.48 2369.59 1032.95 2368.53 1031.88 2367.47 1030.8 2365.94 1030.26 2363.91 1030.26 2362.23 1030.26 2360.86 1030.72 2359.8 1031.63 2358.75 1032.55 2357.97 1033.94 2357.47 1035.82L2354.24 1035.82 2354.24 1030.72C2356.32 1029.74 2358.26 1029 2360.07 1028.52 2361.88 1028.04 2363.63 1027.79 2365.31 1027.79Z" fill-rule="evenodd"/><text fill="#000000" fill-opacity="0" font-family="Arial,Arial_MSFontService,sans-serif" font-size="37.5171" x="2353.84" y="1060.62">3</text><path d="M2365.42 1092.28C2368.75 1092.28 2371.26 1093.01 2372.96 1094.47 2374.66 1095.93 2375.51 1098.05 2375.51 1100.82 2375.51 1101.77 2375.42 1102.64 2375.23 1103.44 2375.04 1104.24 2374.75 1105.02 2374.35 1105.8 2373.94 1106.58 2373.4 1107.42 2372.72 1108.31 2372.04 1109.21 2371.29 1110.12 2370.46 1111.04 2369.64 1111.96 2368.22 1113.5 2366.19 1115.65 2362.79 1119.24 2360.3 1122.39 2358.7 1125.07L2368.83 1125.07C2369.7 1125.07 2370.41 1125.02 2370.95 1124.91 2371.49 1124.8 2371.92 1124.62 2372.24 1124.37 2372.56 1124.12 2372.81 1123.8 2373 1123.39 2373.19 1122.99 2373.43 1122.37 2373.71 1121.53L2376 1121.53 2375.54 1129.37 2353.44 1129.37 2353.44 1128.08C2354.21 1126.2 2355.25 1124.27 2356.55 1122.31 2357.86 1120.34 2359.71 1118.02 2362.11 1115.35 2364.19 1113.06 2365.68 1111.32 2366.6 1110.14 2367.6 1108.85 2368.35 1107.74 2368.84 1106.8 2369.33 1105.86 2369.69 1104.97 2369.9 1104.14 2370.12 1103.31 2370.22 1102.47 2370.22 1101.63 2370.22 1100.28 2370.01 1099.1 2369.58 1098.07 2369.15 1097.04 2368.49 1096.23 2367.6 1095.64 2366.72 1095.05 2365.6 1094.75 2364.26 1094.75 2360.91 1094.75 2358.66 1096.61 2357.49 1100.34L2354.24 1100.34 2354.24 1095.18C2356.41 1094.16 2358.44 1093.42 2360.33 1092.97 2362.22 1092.51 2363.91 1092.28 2365.42 1092.28Z" fill-rule="evenodd"/><text fill="#000000" fill-opacity="0" font-family="Arial,Arial_MSFontService,sans-serif" font-size="37.0874" x="2353.44" y="1124.73">2</text><path d="M2713.54 733.466 2729.71 733.466 2729.71 735.883 2719.18 735.883 2719.18 790.026 2719.18 799.987 2719.18 841.84 2719.18 857.164 2719.18 893.655 2719.18 908.979 2719.18 945.469 2719.18 960.794 2719.18 997.284 2719.18 1012.61 2719.18 1054.48 2719.18 1064.42 2719.18 1118.59 2729.71 1118.59 2729.71 1121 2713.54 1121 2713.54 1064.42 2713.54 1012.61 2713.54 1012.61 2713.54 960.794 2713.54 908.979 2713.54 857.164 2713.54 857.164 2713.54 799.987 2713.54 790.026ZM2762.06 733.466 2778.23 733.466 2778.23 790.026 2778.23 799.987 2778.23 841.84 2778.23 857.164 2778.23 893.655 2778.23 908.979 2778.23 945.469 2778.23 960.794 2778.23 997.284 2778.23 1012.61 2778.23 1054.48 2778.23 1064.42 2778.23 1121 2762.06 1121 2762.06 1118.59 2772.59 1118.59 2772.59 1064.42 2772.59 1054.48 2772.59 1012.61 2772.59 997.284 2772.59 960.794 2772.59 945.469 2772.59 908.979 2772.59 893.655 2772.59 857.164 2772.59 841.84 2772.59 799.987 2772.59 790.026 2772.59 735.883 2762.06 735.883Z" fill-rule="evenodd"/><path d="M2746.14 724.858C2749.47 724.858 2751.99 725.588 2753.69 727.047 2755.39 728.506 2756.24 730.623 2756.24 733.398 2756.24 734.347 2756.15 735.22 2755.96 736.017 2755.77 736.813 2755.47 737.601 2755.07 738.38 2754.67 739.159 2754.13 739.996 2753.45 740.891 2752.77 741.786 2752.01 742.695 2751.19 743.617 2750.37 744.539 2748.94 746.074 2746.92 748.222 2743.52 751.821 2741.02 754.963 2739.43 757.649L2749.55 757.649C2750.43 757.649 2751.14 757.595 2751.67 757.488 2752.21 757.38 2752.64 757.201 2752.96 756.95 2753.29 756.7 2753.54 756.373 2753.73 755.97 2753.92 755.567 2754.15 754.945 2754.44 754.104L2756.72 754.104 2756.27 761.946 2734.16 761.946 2734.16 760.656C2734.93 758.777 2735.97 756.852 2737.28 754.883 2738.59 752.913 2740.44 750.595 2742.84 747.927 2744.92 745.635 2746.41 743.899 2747.32 742.717 2748.33 741.428 2749.07 740.313 2749.57 739.374 2750.06 738.434 2750.41 737.547 2750.63 736.715 2750.84 735.882 2750.95 735.045 2750.95 734.204 2750.95 732.861 2750.73 731.675 2750.3 730.646 2749.87 729.616 2749.22 728.806 2748.33 728.215 2747.44 727.624 2746.33 727.329 2744.99 727.329 2741.64 727.329 2739.38 729.191 2738.22 732.915L2734.97 732.915 2734.97 727.759C2737.14 726.738 2739.16 726 2741.05 725.543 2742.94 725.086 2744.64 724.858 2746.14 724.858Z" fill-rule="evenodd"/><text fill="#000000" fill-opacity="0" font-family="Arial,Arial_MSFontService,sans-serif" font-size="37.0874" x="2734.16" y="757.31">2</text><path d="M2746.14 789.346C2749.47 789.346 2751.99 790.075 2753.69 791.534 2755.39 792.994 2756.24 795.111 2756.24 797.886 2756.24 798.835 2756.15 799.707 2755.96 800.504 2755.77 801.301 2755.47 802.089 2755.07 802.867 2754.67 803.646 2754.13 804.483 2753.45 805.378 2752.77 806.274 2752.01 807.182 2751.19 808.104 2750.37 809.026 2748.94 810.561 2746.92 812.71 2743.52 816.309 2741.02 819.451 2739.43 822.136L2749.55 822.136C2750.43 822.136 2751.14 822.082 2751.67 821.975 2752.21 821.868 2752.64 821.689 2752.96 821.438 2753.29 821.187 2753.54 820.861 2753.73 820.458 2753.92 820.055 2754.15 819.433 2754.44 818.591L2756.72 818.591 2756.27 826.433 2734.16 826.433 2734.16 825.144C2734.93 823.264 2735.97 821.339 2737.28 819.37 2738.59 817.401 2740.44 815.082 2742.84 812.414 2744.92 810.123 2746.41 808.386 2747.32 807.205 2748.33 805.915 2749.07 804.801 2749.57 803.861 2750.06 802.921 2750.41 802.035 2750.63 801.202 2750.84 800.37 2750.95 799.533 2750.95 798.691 2750.95 797.349 2750.73 796.162 2750.3 795.133 2749.87 794.104 2749.22 793.293 2748.33 792.703 2747.44 792.112 2746.33 791.816 2744.99 791.816 2741.64 791.816 2739.38 793.678 2738.22 797.402L2734.97 797.402 2734.97 792.246C2737.14 791.226 2739.16 790.487 2741.05 790.03 2742.94 789.574 2744.64 789.346 2746.14 789.346Z" fill-rule="evenodd"/><text fill="#000000" fill-opacity="0" font-family="Arial,Arial_MSFontService,sans-serif" font-size="37.0874" x="2734.16" y="821.797">2</text><path d="M2748.05 843.979 2749.53 843.979C2749.42 845.698 2749.36 848.079 2749.36 851.123L2749.36 874.057C2749.36 875.096 2749.42 875.879 2749.54 876.407 2749.66 876.935 2749.86 877.365 2750.16 877.696 2750.45 878.027 2750.88 878.287 2751.43 878.475 2751.99 878.663 2752.69 878.806 2753.53 878.905 2754.37 879.003 2755.48 879.07 2756.86 879.106L2756.86 881.066 2737.01 881.066 2737.01 879.106C2739 879.016 2740.42 878.896 2741.27 878.743 2742.12 878.591 2742.77 878.363 2743.21 878.059 2743.66 877.754 2743.99 877.325 2744.19 876.77 2744.4 876.215 2744.5 875.31 2744.5 874.057L2744.5 852.277C2744.5 851.561 2744.38 851.038 2744.13 850.706 2743.88 850.375 2743.51 850.209 2743.03 850.209 2742.45 850.209 2741.64 850.505 2740.58 851.096 2739.53 851.687 2738.22 852.501 2736.66 853.54L2735.48 851.472Z" fill-rule="evenodd"/><text fill="#000000" fill-opacity="0" font-family="Arial,Arial_MSFontService,sans-serif" font-size="37.0874" x="2735.48" y="876.43">1</text><path d="M2748.05 908.466 2749.53 908.466C2749.42 910.185 2749.36 912.566 2749.36 915.61L2749.36 938.545C2749.36 939.583 2749.42 940.366 2749.54 940.894 2749.66 941.423 2749.86 941.852 2750.16 942.184 2750.45 942.515 2750.88 942.774 2751.43 942.962 2751.99 943.15 2752.69 943.294 2753.53 943.392 2754.37 943.49 2755.48 943.558 2756.86 943.593L2756.86 945.554 2737.01 945.554 2737.01 943.593C2739 943.504 2740.42 943.383 2741.27 943.231 2742.12 943.079 2742.77 942.85 2743.21 942.546 2743.66 942.242 2743.99 941.812 2744.19 941.257 2744.4 940.702 2744.5 939.798 2744.5 938.545L2744.5 916.765C2744.5 916.049 2744.38 915.525 2744.13 915.194 2743.88 914.863 2743.51 914.697 2743.03 914.697 2742.45 914.697 2741.64 914.992 2740.58 915.583 2739.53 916.174 2738.22 916.989 2736.66 918.027L2735.48 915.959Z" fill-rule="evenodd"/><text fill="#000000" fill-opacity="0" font-family="Arial,Arial_MSFontService,sans-serif" font-size="37.0874" x="2735.48" y="940.918">1</text><path d="M2748.05 963.1 2749.53 963.1C2749.42 964.819 2749.36 967.2 2749.36 970.243L2749.36 993.178C2749.36 994.216 2749.42 995 2749.54 995.528 2749.66 996.056 2749.86 996.486 2750.16 996.817 2750.45 997.148 2750.88 997.408 2751.43 997.596 2751.99 997.784 2752.69 997.927 2753.53 998.025 2754.37 998.124 2755.48 998.191 2756.86 998.227L2756.86 1000.19 2737.01 1000.19 2737.01 998.227C2739 998.137 2740.42 998.016 2741.27 997.864 2742.12 997.712 2742.77 997.484 2743.21 997.179 2743.66 996.875 2743.99 996.445 2744.19 995.89 2744.4 995.335 2744.5 994.431 2744.5 993.178L2744.5 971.398C2744.5 970.682 2744.38 970.158 2744.13 969.827 2743.88 969.496 2743.51 969.33 2743.03 969.33 2742.45 969.33 2741.64 969.626 2740.58 970.216 2739.53 970.807 2738.22 971.622 2736.66 972.66L2735.48 970.592Z" fill-rule="evenodd"/><text fill="#000000" fill-opacity="0" font-family="Arial,Arial_MSFontService,sans-serif" font-size="37.0874" x="2735.48" y="995.551">1</text><path d="M2746.14 1027.59C2749.47 1027.59 2751.99 1028.32 2753.69 1029.78 2755.39 1031.24 2756.24 1033.35 2756.24 1036.13 2756.24 1037.08 2756.15 1037.95 2755.96 1038.75 2755.77 1039.54 2755.47 1040.33 2755.07 1041.11 2754.67 1041.89 2754.13 1042.72 2753.45 1043.62 2752.77 1044.52 2752.01 1045.42 2751.19 1046.35 2750.37 1047.27 2748.94 1048.8 2746.92 1050.95 2743.52 1054.55 2741.02 1057.69 2739.43 1060.38L2749.55 1060.38C2750.43 1060.38 2751.14 1060.32 2751.67 1060.22 2752.21 1060.11 2752.64 1059.93 2752.96 1059.68 2753.29 1059.43 2753.54 1059.1 2753.73 1058.7 2753.92 1058.3 2754.15 1057.67 2754.44 1056.83L2756.72 1056.83 2756.27 1064.67 2734.16 1064.67 2734.16 1063.39C2734.93 1061.51 2735.97 1059.58 2737.28 1057.61 2738.59 1055.64 2740.44 1053.32 2742.84 1050.66 2744.92 1048.36 2746.41 1046.63 2747.32 1045.45 2748.33 1044.16 2749.07 1043.04 2749.57 1042.1 2750.06 1041.16 2750.41 1040.28 2750.63 1039.44 2750.84 1038.61 2750.95 1037.77 2750.95 1036.93 2750.95 1035.59 2750.73 1034.4 2750.3 1033.37 2749.87 1032.35 2749.22 1031.54 2748.33 1030.94 2747.44 1030.35 2746.33 1030.06 2744.99 1030.06 2741.64 1030.06 2739.38 1031.92 2738.22 1035.64L2734.97 1035.64 2734.97 1030.49C2737.14 1029.47 2739.16 1028.73 2741.05 1028.27 2742.94 1027.82 2744.64 1027.59 2746.14 1027.59Z" fill-rule="evenodd"/><text fill="#000000" fill-opacity="0" font-family="Arial,Arial_MSFontService,sans-serif" font-size="37.0874" x="2734.16" y="1060.04">2</text><path d="M2745.93 1094.36C2744.69 1094.36 2743.66 1094.72 2742.83 1095.46 2741.99 1096.19 2741.32 1097.25 2740.81 1098.63 2740.3 1100.01 2739.94 1101.68 2739.72 1103.66 2739.51 1105.64 2739.4 1107.87 2739.4 1110.36 2739.4 1116.2 2739.94 1120.48 2741.03 1123.21 2742.11 1125.94 2743.79 1127.31 2746.06 1127.31 2748.23 1127.31 2749.83 1126.02 2750.88 1123.46 2751.93 1120.89 2752.45 1116.91 2752.45 1111.52 2752.45 1107.4 2752.18 1104.07 2751.65 1101.51 2751.11 1098.96 2750.36 1097.13 2749.4 1096.02 2748.45 1094.91 2747.29 1094.36 2745.93 1094.36ZM2746.06 1092.07C2749.98 1092.07 2752.9 1093.59 2754.82 1096.61 2756.73 1099.64 2757.69 1104.21 2757.69 1110.34 2757.69 1116.67 2756.66 1121.47 2754.61 1124.72 2752.56 1127.97 2749.57 1129.59 2745.63 1129.59 2741.76 1129.59 2738.89 1128.07 2737 1125.03 2735.11 1121.98 2734.16 1117.36 2734.16 1111.17 2734.16 1107.87 2734.46 1105.03 2735.04 1102.63 2735.62 1100.23 2736.43 1098.25 2737.48 1096.68 2738.53 1095.11 2739.79 1093.95 2741.25 1093.2 2742.72 1092.45 2744.32 1092.07 2746.06 1092.07Z" fill-rule="evenodd"/><text fill="#000000" fill-opacity="0" font-family="Arial,Arial_MSFontService,sans-serif" font-size="37.5171" x="2734.16" y="1124.9">0</text><path d="M2796.92 931.018 2830.01 931.018 2830.01 934.589 2796.92 934.589ZM2796.92 919.873 2830.01 919.873 2830.01 923.444 2796.92 923.444Z" fill-rule="evenodd"/><text fill="#000000" fill-opacity="0" font-family="Arial,Arial_MSFontService,sans-serif" font-size="14.7168" x="2796.92" y="932.75">=</text><path d="M2868.17 919.98C2867.31 919.98 2866.47 920.253 2865.63 920.799 2864.8 921.345 2863.88 922.249 2862.85 923.511 2861.83 924.774 2861 926.067 2860.36 927.392 2859.71 928.717 2859.17 930.409 2858.72 932.468L2858.48 933.596C2858.21 934.849 2858.07 936.066 2858.07 937.248 2858.07 938.662 2858.38 939.683 2859 940.31 2859.62 940.936 2860.64 941.25 2862.08 941.25 2862.81 941.25 2863.51 941.129 2864.17 940.887 2864.83 940.645 2865.51 940.247 2866.2 939.692 2866.89 939.137 2867.54 938.407 2868.16 937.503 2868.78 936.599 2869.34 935.485 2869.86 934.16 2870.38 932.835 2870.79 931.416 2871.07 929.903 2871.36 928.39 2871.5 926.945 2871.5 925.566 2871.5 923.704 2871.24 922.307 2870.71 921.376 2870.18 920.445 2869.34 919.98 2868.17 919.98ZM2893.28 904.538 2894.87 904.538 2888.26 934.267C2887.87 936.04 2887.67 937.364 2887.67 938.242 2887.67 938.958 2887.79 939.477 2888.02 939.799 2888.25 940.122 2888.62 940.283 2889.12 940.283 2889.66 940.283 2890.23 940.063 2890.84 939.625 2891.45 939.186 2892.31 938.349 2893.42 937.114L2894.95 938.618C2893.21 940.444 2891.79 941.693 2890.69 942.364 2889.59 943.035 2888.36 943.371 2887 943.371 2885.84 943.371 2884.91 942.946 2884.21 942.095 2883.51 941.245 2883.16 940.157 2883.16 938.833 2883.16 937.633 2883.41 935.896 2883.91 933.623L2888.72 912.111C2888.93 911.162 2889.09 910.406 2889.18 909.842 2889.27 909.278 2889.31 908.754 2889.31 908.271 2889.31 907.734 2889.21 907.327 2889.01 907.049 2888.82 906.772 2888.54 906.57 2888.17 906.445 2887.8 906.32 2887.14 906.23 2886.19 906.176L2886.52 904.78ZM2863.47 904.538 2865.03 904.538 2860.3 923.337 2860.65 923.444C2862.39 921.117 2864.02 919.434 2865.54 918.396 2867.06 917.357 2868.58 916.838 2870.11 916.838 2872.06 916.838 2873.57 917.581 2874.66 919.067 2875.74 920.553 2876.28 922.648 2876.28 925.351 2876.28 928.305 2875.69 931.21 2874.5 934.066 2873.31 936.921 2871.65 939.186 2869.54 940.86 2867.43 942.534 2865.07 943.371 2862.45 943.371 2860.07 943.371 2857.96 942.789 2856.11 941.625L2853.64 943.371 2851.92 942.941 2858.88 912.246C2859.29 910.419 2859.5 909.095 2859.5 908.271 2859.5 907.519 2859.27 906.991 2858.81 906.687 2858.36 906.382 2857.54 906.212 2856.36 906.176L2856.68 904.78Z" fill-rule="evenodd"/><text fill="#000000" fill-opacity="0" font-family="Arial,Arial_MSFontService,sans-serif" font-size="38.833" x="2851.92" y="938.517">𝑏𝑙</text><path d="M2897.82 927.51 2921.02 927.51 2921.02 934.717 2918.82 934.717C2918.54 933.702 2918.28 932.872 2918.03 932.227 2917.77 931.583 2917.48 931.075 2917.14 930.704 2916.8 930.333 2916.39 930.076 2915.93 929.932 2915.46 929.789 2914.87 929.704 2914.17 929.678L2911.51 929.678 2911.51 949.151C2911.52 949.802 2911.56 950.339 2911.61 950.762 2911.66 951.185 2911.78 951.534 2911.97 951.807 2912.16 952.081 2912.44 952.299 2912.82 952.462 2913.2 952.624 2913.73 952.777 2914.4 952.921L2914.4 954.171 2904.44 954.171 2904.44 952.921C2904.95 952.829 2905.38 952.732 2905.74 952.628 2906.1 952.523 2906.39 952.351 2906.63 952.11 2906.86 951.869 2907.04 951.518 2907.15 951.055 2907.26 950.593 2907.31 949.958 2907.31 949.151L2907.31 929.678 2904.68 929.678C2904.3 929.678 2903.97 929.695 2903.69 929.727 2903.41 929.76 2903.16 929.815 2902.94 929.893 2902.72 929.971 2902.51 930.072 2902.33 930.196 2902.15 930.32 2901.97 930.466 2901.8 930.635 2901.48 930.948 2901.17 931.413 2900.89 932.032 2900.6 932.65 2900.33 933.546 2900.07 934.717L2897.82 934.717Z" fill-rule="evenodd"/><text fill="#000000" fill-opacity="0" font-family="Arial,Arial_MSFontService,sans-serif" font-size="26.6602" x="2897.82" y="950.838">T</text><path d="M2932.6 942.404C2933.84 942.404 2934.86 942.538 2935.67 942.806 2936.48 943.075 2937.13 943.424 2937.61 943.854 2938.1 944.283 2938.43 944.788 2938.63 945.368 2938.82 945.948 2938.92 946.545 2938.92 947.157 2938.92 947.93 2938.76 948.647 2938.45 949.308 2938.14 949.969 2937.63 950.688 2936.92 951.467 2936.21 952.246 2934.94 953.463 2933.12 955.117 2931.17 956.879 2929.76 958.404 2928.88 959.693L2934.7 959.693C2935.24 959.693 2935.66 959.666 2935.95 959.613 2936.24 959.559 2936.47 959.476 2936.65 959.363 2936.82 959.25 2936.96 959.108 2937.08 958.936 2937.2 958.764 2937.38 958.388 2937.61 957.808L2939.24 957.808 2938.9 962.352 2925.11 962.352 2925.11 961.466C2925.65 960.316 2926.37 959.186 2927.28 958.074 2928.2 956.962 2929.26 955.815 2930.47 954.634 2931.93 953.237 2932.97 952.184 2933.58 951.475 2934.2 950.766 2934.65 950.092 2934.95 949.453 2935.24 948.814 2935.39 948.172 2935.39 947.528 2935.39 946.464 2935.09 945.626 2934.49 945.014 2933.88 944.402 2933.02 944.095 2931.89 944.095 2930.91 944.095 2930.08 944.353 2929.4 944.869 2928.72 945.385 2928.2 946.147 2927.85 947.157L2925.61 947.157 2925.61 943.983C2927 943.413 2928.29 943.008 2929.47 942.766 2930.64 942.524 2931.69 942.404 2932.6 942.404Z" fill-rule="evenodd"/><text fill="#000000" fill-opacity="0" font-family="Arial,Arial_MSFontService,sans-serif" font-size="19.9482" x="2925.11" y="959.858">2</text><path d="M2688 1114C2685.56 1097.02 2705.66 1088.46 2742 1086 2773.94 1086.45 2794.08 1098.6 2796 1114 2790.5 1134.86 2770.88 1147.24 2742 1142 2710.44 1141.04 2689.56 1130.21 2688 1114Z" stroke="#FF0000" stroke-width="10.3125" stroke-linejoin="round" stroke-miterlimit="10" stroke-dasharray="10.3125 10.3125" fill="none" fill-rule="evenodd"/><path d="M2226.69 1444.81C2225.83 1444.81 2224.99 1445.09 2224.15 1445.63 2223.32 1446.18 2222.4 1447.08 2221.38 1448.35 2220.35 1449.61 2219.52 1450.9 2218.88 1452.23 2218.23 1453.55 2217.69 1455.24 2217.24 1457.3L2217 1458.43C2216.73 1459.68 2216.59 1460.9 2216.59 1462.08 2216.59 1463.5 2216.9 1464.52 2217.52 1465.14 2218.14 1465.77 2219.16 1466.08 2220.6 1466.08 2221.33 1466.08 2222.03 1465.96 2222.69 1465.72 2223.35 1465.48 2224.03 1465.08 2224.72 1464.53 2225.41 1463.97 2226.06 1463.24 2226.68 1462.34 2227.3 1461.43 2227.87 1460.32 2228.38 1458.99 2228.9 1457.67 2229.31 1456.25 2229.59 1454.74 2229.88 1453.22 2230.02 1451.78 2230.02 1450.4 2230.02 1448.54 2229.76 1447.14 2229.23 1446.21 2228.7 1445.28 2227.86 1444.81 2226.69 1444.81ZM2251.8 1429.37 2253.39 1429.37 2246.78 1459.1C2246.39 1460.87 2246.19 1462.2 2246.19 1463.08 2246.19 1463.79 2246.31 1464.31 2246.54 1464.63 2246.77 1464.96 2247.14 1465.12 2247.64 1465.12 2248.18 1465.12 2248.75 1464.9 2249.36 1464.46 2249.97 1464.02 2250.83 1463.18 2251.94 1461.95L2253.47 1463.45C2251.73 1465.28 2250.31 1466.53 2249.21 1467.2 2248.11 1467.87 2246.88 1468.21 2245.52 1468.21 2244.36 1468.21 2243.43 1467.78 2242.73 1466.93 2242.03 1466.08 2241.68 1464.99 2241.68 1463.67 2241.68 1462.47 2241.93 1460.73 2242.43 1458.46L2247.24 1436.95C2247.45 1436 2247.61 1435.24 2247.7 1434.68 2247.79 1434.11 2247.83 1433.59 2247.83 1433.11 2247.83 1432.57 2247.73 1432.16 2247.53 1431.88 2247.34 1431.61 2247.06 1431.4 2246.69 1431.28 2246.32 1431.15 2245.66 1431.06 2244.72 1431.01L2245.04 1429.61ZM2221.99 1429.37 2223.55 1429.37 2218.82 1448.17 2219.17 1448.28C2220.91 1445.95 2222.54 1444.27 2224.06 1443.23 2225.58 1442.19 2227.1 1441.67 2228.63 1441.67 2230.58 1441.67 2232.09 1442.42 2233.18 1443.9 2234.26 1445.39 2234.8 1447.48 2234.8 1450.19 2234.8 1453.14 2234.21 1456.04 2233.02 1458.9 2231.83 1461.76 2230.17 1464.02 2228.06 1465.69 2225.95 1467.37 2223.59 1468.21 2220.97 1468.21 2218.59 1468.21 2216.48 1467.62 2214.63 1466.46L2212.16 1468.21 2210.45 1467.78 2217.4 1437.08C2217.81 1435.25 2218.02 1433.93 2218.02 1433.11 2218.02 1432.35 2217.79 1431.83 2217.33 1431.52 2216.88 1431.22 2216.06 1431.05 2214.88 1431.01L2215.2 1429.61Z" fill-rule="evenodd"/><text fill="#000000" fill-opacity="0" font-family="Arial,Arial_MSFontService,sans-serif" font-size="38.833" x="2210.45" y="1463.35">𝑏𝑙</text><path d="M2256.34 1454.09 2279.54 1454.09 2279.54 1461.29 2277.34 1461.29C2277.06 1460.28 2276.8 1459.45 2276.55 1458.8 2276.29 1458.16 2276 1457.65 2275.66 1457.28 2275.32 1456.91 2274.91 1456.65 2274.45 1456.51 2273.98 1456.37 2273.39 1456.28 2272.69 1456.25L2270.03 1456.25 2270.03 1475.73C2270.04 1476.38 2270.08 1476.92 2270.13 1477.34 2270.18 1477.76 2270.3 1478.11 2270.49 1478.38 2270.68 1478.66 2270.96 1478.88 2271.34 1479.04 2271.72 1479.2 2272.25 1479.35 2272.92 1479.5L2272.92 1480.75 2262.96 1480.75 2262.96 1479.5C2263.47 1479.41 2263.9 1479.31 2264.26 1479.2 2264.62 1479.1 2264.91 1478.93 2265.15 1478.69 2265.38 1478.45 2265.56 1478.09 2265.67 1477.63 2265.78 1477.17 2265.83 1476.53 2265.83 1475.73L2265.83 1456.25 2263.2 1456.25C2262.82 1456.25 2262.49 1456.27 2262.21 1456.3 2261.93 1456.34 2261.68 1456.39 2261.46 1456.47 2261.24 1456.55 2261.03 1456.65 2260.85 1456.77 2260.67 1456.9 2260.49 1457.04 2260.32 1457.21 2260 1457.52 2259.69 1457.99 2259.41 1458.61 2259.12 1459.23 2258.85 1460.12 2258.59 1461.29L2256.34 1461.29Z" fill-rule="evenodd"/><text fill="#000000" fill-opacity="0" font-family="Arial,Arial_MSFontService,sans-serif" font-size="26.6602" x="2256.34" y="1477.41">T</text><path d="M2292.51 1469.12 2293.57 1469.12C2293.55 1469.35 2293.53 1469.9 2293.51 1470.77 2293.48 1471.64 2293.47 1472.51 2293.47 1473.39L2293.47 1484.74C2293.47 1485.42 2293.53 1485.9 2293.65 1486.19 2293.77 1486.48 2293.96 1486.71 2294.21 1486.87 2294.47 1487.04 2294.91 1487.17 2295.54 1487.26 2296.16 1487.35 2297.15 1487.41 2298.5 1487.43L2298.5 1488.93 2285.14 1488.93 2285.14 1487.43C2286.45 1487.4 2287.41 1487.34 2288.02 1487.25 2288.63 1487.17 2289.07 1487.04 2289.36 1486.87 2289.64 1486.71 2289.85 1486.48 2289.98 1486.19 2290.12 1485.9 2290.19 1485.42 2290.19 1484.74L2290.19 1474.06C2290.19 1473.67 2290.11 1473.39 2289.95 1473.22 2289.8 1473.05 2289.57 1472.96 2289.28 1472.96 2288.96 1472.96 2288.46 1473.13 2287.77 1473.48 2287.08 1473.83 2286.2 1474.35 2285.13 1475.02L2284.27 1473.39Z" fill-rule="evenodd"/><text fill="#000000" fill-opacity="0" font-family="Arial,Arial_MSFontService,sans-serif" font-size="19.8032" x="2284.27" y="1486.45">1</text><path d="M2263.36 1425.21 2268.39 1425.21 2268.39 1426.73 2261.89 1442.38 2259.61 1441.69Z" fill-rule="evenodd"/><text fill="#000000" fill-opacity="0" font-family="Arial,Arial_MSFontService,sans-serif" font-size="17.168" x="2259.61" y="1440.23">′</text><path d="M2324.04 1455.85 2357.12 1455.85 2357.12 1459.42 2324.04 1459.42ZM2324.04 1444.71 2357.12 1444.71 2357.12 1448.28 2324.04 1448.28Z" fill-rule="evenodd"/><text fill="#000000" fill-opacity="0" font-family="Arial,Arial_MSFontService,sans-serif" font-size="14.7168" x="2324.04" y="1457.58">=</text><path d="M2378.67 1258.53 2394.83 1258.53 2394.83 1260.95 2384.31 1260.95 2384.31 1315.02 2384.31 1325.05 2384.31 1366.74 2384.31 1382.16 2384.31 1418.47 2384.31 1433.88 2384.31 1470.21 2384.31 1485.61 2384.31 1521.96 2384.31 1537.35 2384.31 1579.09 2384.31 1589.1 2384.31 1643.19 2394.83 1643.19 2394.83 1645.61 2378.67 1645.61 2378.67 1589.1 2378.67 1579.09 2378.67 1537.35 2378.67 1521.96 2378.67 1485.61 2378.67 1470.21 2378.67 1433.88 2378.67 1418.47 2378.67 1382.16 2378.67 1366.74 2378.67 1325.05 2378.67 1315.02ZM2427.18 1258.53 2443.35 1258.53 2443.35 1315.02 2443.35 1325.05 2443.35 1366.74 2443.35 1382.16 2443.35 1418.47 2443.35 1433.88 2443.35 1470.21 2443.35 1485.61 2443.35 1521.96 2443.35 1537.35 2443.35 1579.09 2443.35 1589.1 2443.35 1645.61 2427.18 1645.61 2427.18 1643.19 2437.71 1643.19 2437.71 1589.1 2437.71 1579.09 2437.71 1537.35 2437.71 1521.96 2437.71 1485.61 2437.71 1470.21 2437.71 1433.88 2437.71 1418.47 2437.71 1382.16 2437.71 1366.74 2437.71 1325.05 2437.71 1315.02 2437.71 1260.95 2427.18 1260.95Z" fill-rule="evenodd"/><path d="M2413.17 1249.9 2414.65 1249.9C2414.54 1251.62 2414.49 1254 2414.49 1257.04L2414.49 1279.98C2414.49 1281.02 2414.54 1281.8 2414.66 1282.33 2414.78 1282.86 2414.98 1283.28 2415.28 1283.62 2415.57 1283.95 2416 1284.21 2416.55 1284.39 2417.11 1284.58 2417.81 1284.73 2418.65 1284.82 2419.49 1284.92 2420.6 1284.99 2421.98 1285.03L2421.98 1286.99 2402.13 1286.99 2402.13 1285.03C2404.12 1284.94 2405.54 1284.82 2406.39 1284.66 2407.24 1284.51 2407.89 1284.28 2408.34 1283.98 2408.78 1283.67 2409.11 1283.24 2409.32 1282.69 2409.52 1282.13 2409.63 1281.23 2409.63 1279.98L2409.63 1258.2C2409.63 1257.48 2409.5 1256.96 2409.25 1256.63 2409 1256.3 2408.63 1256.13 2408.15 1256.13 2407.58 1256.13 2406.76 1256.42 2405.71 1257.02 2404.65 1257.61 2403.34 1258.42 2401.78 1259.46L2400.6 1257.39Z" fill-rule="evenodd"/><text fill="#000000" fill-opacity="0" font-family="Arial,Arial_MSFontService,sans-serif" font-size="37.0874" x="2400.6" y="1282.35">1</text><path d="M2413.17 1314.39 2414.65 1314.39C2414.54 1316.11 2414.49 1318.49 2414.49 1321.53L2414.49 1344.46C2414.49 1345.5 2414.54 1346.29 2414.66 1346.81 2414.78 1347.34 2414.98 1347.77 2415.28 1348.1 2415.57 1348.43 2416 1348.69 2416.55 1348.88 2417.11 1349.07 2417.81 1349.21 2418.65 1349.31 2419.49 1349.41 2420.6 1349.48 2421.98 1349.51L2421.98 1351.47 2402.13 1351.47 2402.13 1349.51C2404.12 1349.42 2405.54 1349.3 2406.39 1349.15 2407.24 1349 2407.89 1348.77 2408.34 1348.47 2408.78 1348.16 2409.11 1347.73 2409.32 1347.18 2409.52 1346.62 2409.63 1345.72 2409.63 1344.46L2409.63 1322.68C2409.63 1321.97 2409.5 1321.44 2409.25 1321.11 2409 1320.78 2408.63 1320.62 2408.15 1320.62 2407.58 1320.62 2406.76 1320.91 2405.71 1321.5 2404.65 1322.09 2403.34 1322.91 2401.78 1323.95L2400.6 1321.88Z" fill-rule="evenodd"/><text fill="#000000" fill-opacity="0" font-family="Arial,Arial_MSFontService,sans-serif" font-size="37.0874" x="2400.6" y="1346.84">1</text><path d="M2413.17 1369.02 2414.65 1369.02C2414.54 1370.74 2414.49 1373.12 2414.49 1376.16L2414.49 1399.1C2414.49 1400.14 2414.54 1400.92 2414.66 1401.45 2414.78 1401.98 2414.98 1402.41 2415.28 1402.74 2415.57 1403.07 2416 1403.33 2416.55 1403.52 2417.11 1403.7 2417.81 1403.85 2418.65 1403.95 2419.49 1404.04 2420.6 1404.11 2421.98 1404.15L2421.98 1406.11 2402.13 1406.11 2402.13 1404.15C2404.12 1404.06 2405.54 1403.94 2406.39 1403.78 2407.24 1403.63 2407.89 1403.4 2408.34 1403.1 2408.78 1402.8 2409.11 1402.37 2409.32 1401.81 2409.52 1401.26 2409.63 1400.35 2409.63 1399.1L2409.63 1377.32C2409.63 1376.6 2409.5 1376.08 2409.25 1375.75 2409 1375.42 2408.63 1375.25 2408.15 1375.25 2407.58 1375.25 2406.76 1375.55 2405.71 1376.14 2404.65 1376.73 2403.34 1377.54 2401.78 1378.58L2400.6 1376.51Z" fill-rule="evenodd"/><text fill="#000000" fill-opacity="0" font-family="Arial,Arial_MSFontService,sans-serif" font-size="37.0874" x="2400.6" y="1401.47">1</text><path d="M2413.17 1433.51 2414.65 1433.51C2414.54 1435.23 2414.49 1437.61 2414.49 1440.65L2414.49 1463.59C2414.49 1464.62 2414.54 1465.41 2414.66 1465.94 2414.78 1466.46 2414.98 1466.89 2415.28 1467.22 2415.57 1467.56 2416 1467.82 2416.55 1468 2417.11 1468.19 2417.81 1468.33 2418.65 1468.43 2419.49 1468.53 2420.6 1468.6 2421.98 1468.63L2421.98 1470.59 2402.13 1470.59 2402.13 1468.63C2404.12 1468.54 2405.54 1468.42 2406.39 1468.27 2407.24 1468.12 2407.89 1467.89 2408.34 1467.59 2408.78 1467.28 2409.11 1466.85 2409.32 1466.3 2409.52 1465.74 2409.63 1464.84 2409.63 1463.59L2409.63 1441.81C2409.63 1441.09 2409.5 1440.57 2409.25 1440.23 2409 1439.9 2408.63 1439.74 2408.15 1439.74 2407.58 1439.74 2406.76 1440.03 2405.71 1440.62 2404.65 1441.21 2403.34 1442.03 2401.78 1443.07L2400.6 1441Z" fill-rule="evenodd"/><text fill="#000000" fill-opacity="0" font-family="Arial,Arial_MSFontService,sans-serif" font-size="37.0874" x="2400.6" y="1465.96">1</text><path d="M2413.17 1488.14 2414.65 1488.14C2414.54 1489.86 2414.49 1492.24 2414.49 1495.28L2414.49 1518.22C2414.49 1519.26 2414.54 1520.04 2414.66 1520.57 2414.78 1521.1 2414.98 1521.53 2415.28 1521.86 2415.57 1522.19 2416 1522.45 2416.55 1522.64 2417.11 1522.82 2417.81 1522.97 2418.65 1523.07 2419.49 1523.16 2420.6 1523.23 2421.98 1523.27L2421.98 1525.23 2402.13 1525.23 2402.13 1523.27C2404.12 1523.18 2405.54 1523.06 2406.39 1522.91 2407.24 1522.75 2407.89 1522.52 2408.34 1522.22 2408.78 1521.92 2409.11 1521.49 2409.32 1520.93 2409.52 1520.38 2409.63 1519.47 2409.63 1518.22L2409.63 1496.44C2409.63 1495.72 2409.5 1495.2 2409.25 1494.87 2409 1494.54 2408.63 1494.37 2408.15 1494.37 2407.58 1494.37 2406.76 1494.67 2405.71 1495.26 2404.65 1495.85 2403.34 1496.66 2401.78 1497.7L2400.6 1495.63Z" fill-rule="evenodd"/><text fill="#000000" fill-opacity="0" font-family="Arial,Arial_MSFontService,sans-serif" font-size="37.0874" x="2400.6" y="1520.59">1</text><path d="M2413.17 1552.63 2414.65 1552.63C2414.54 1554.35 2414.49 1556.73 2414.49 1559.77L2414.49 1582.71C2414.49 1583.74 2414.54 1584.53 2414.66 1585.06 2414.78 1585.58 2414.98 1586.01 2415.28 1586.35 2415.57 1586.68 2416 1586.94 2416.55 1587.12 2417.11 1587.31 2417.81 1587.46 2418.65 1587.55 2419.49 1587.65 2420.6 1587.72 2421.98 1587.76L2421.98 1589.72 2402.13 1589.72 2402.13 1587.76C2404.12 1587.67 2405.54 1587.54 2406.39 1587.39 2407.24 1587.24 2407.89 1587.01 2408.34 1586.71 2408.78 1586.4 2409.11 1585.97 2409.32 1585.42 2409.52 1584.86 2409.63 1583.96 2409.63 1582.71L2409.63 1560.93C2409.63 1560.21 2409.5 1559.69 2409.25 1559.36 2409 1559.02 2408.63 1558.86 2408.15 1558.86 2407.58 1558.86 2406.76 1559.15 2405.71 1559.74 2404.65 1560.34 2403.34 1561.15 2401.78 1562.19L2400.6 1560.12Z" fill-rule="evenodd"/><text fill="#000000" fill-opacity="0" font-family="Arial,Arial_MSFontService,sans-serif" font-size="37.0874" x="2400.6" y="1585.08">1</text><path d="M2413.17 1617.12 2414.65 1617.12C2414.54 1618.83 2414.49 1621.22 2414.49 1624.26L2414.49 1647.19C2414.49 1648.23 2414.54 1649.02 2414.66 1649.54 2414.78 1650.07 2414.98 1650.5 2415.28 1650.83 2415.57 1651.16 2416 1651.42 2416.55 1651.61 2417.11 1651.8 2417.81 1651.94 2418.65 1652.04 2419.49 1652.14 2420.6 1652.21 2421.98 1652.24L2421.98 1654.2 2402.13 1654.2 2402.13 1652.24C2404.12 1652.15 2405.54 1652.03 2406.39 1651.88 2407.24 1651.73 2407.89 1651.5 2408.34 1651.2 2408.78 1650.89 2409.11 1650.46 2409.32 1649.91 2409.52 1649.35 2409.63 1648.45 2409.63 1647.19L2409.63 1625.41C2409.63 1624.7 2409.5 1624.17 2409.25 1623.84 2409 1623.51 2408.63 1623.35 2408.15 1623.35 2407.58 1623.35 2406.76 1623.64 2405.71 1624.23 2404.65 1624.82 2403.34 1625.64 2401.78 1626.68L2400.6 1624.61Z" fill-rule="evenodd"/><text fill="#000000" fill-opacity="0" font-family="Arial,Arial_MSFontService,sans-serif" font-size="37.0874" x="2400.6" y="1649.57">1</text><path d="M2637.8 1252.6 2653.97 1252.6 2653.97 1255.01 2643.44 1255.01 2643.44 1309.16 2643.44 1319.12 2643.44 1360.97 2643.44 1376.29 2643.44 1412.78 2643.44 1428.11 2643.44 1464.6 2643.44 1479.92 2643.44 1516.41 2643.44 1531.74 2643.44 1573.61 2643.44 1583.55 2643.44 1637.72 2653.97 1637.72 2653.97 1640.13 2637.8 1640.13 2637.8 1583.55 2637.8 1573.61 2637.8 1531.74 2637.8 1516.41 2637.8 1479.92 2637.8 1464.6 2637.8 1428.11 2637.8 1412.78 2637.8 1376.29 2637.8 1360.97 2637.8 1319.12 2637.8 1309.16ZM2686.31 1252.6 2702.48 1252.6 2702.48 1309.16 2702.48 1319.12 2702.48 1360.97 2702.48 1376.29 2702.48 1412.78 2702.48 1428.11 2702.48 1464.6 2702.48 1479.92 2702.48 1516.41 2702.48 1531.74 2702.48 1573.61 2702.48 1583.55 2702.48 1640.13 2686.31 1640.13 2686.31 1637.72 2696.84 1637.72 2696.84 1583.55 2696.84 1573.61 2696.84 1531.74 2696.84 1516.41 2696.84 1479.92 2696.84 1464.6 2696.84 1428.11 2696.84 1412.78 2696.84 1376.29 2696.84 1360.97 2696.84 1319.12 2696.84 1309.16 2696.84 1255.01 2686.31 1255.01Z" fill-rule="evenodd"/><path d="M2672.3 1243.99 2673.78 1243.99C2673.67 1245.71 2673.62 1248.09 2673.62 1251.13L2673.62 1274.07C2673.62 1275.1 2673.68 1275.89 2673.79 1276.42 2673.91 1276.94 2674.12 1277.37 2674.41 1277.71 2674.71 1278.04 2675.13 1278.3 2675.69 1278.48 2676.24 1278.67 2676.94 1278.82 2677.78 1278.91 2678.62 1279.01 2679.73 1279.08 2681.11 1279.12L2681.11 1281.08 2661.27 1281.08 2661.27 1279.12C2663.25 1279.03 2664.67 1278.9 2665.52 1278.75 2666.37 1278.6 2667.02 1278.37 2667.47 1278.07 2667.92 1277.76 2668.24 1277.33 2668.45 1276.78 2668.66 1276.22 2668.76 1275.32 2668.76 1274.07L2668.76 1252.29C2668.76 1251.57 2668.63 1251.05 2668.38 1250.72 2668.13 1250.38 2667.76 1250.22 2667.28 1250.22 2666.71 1250.22 2665.89 1250.51 2664.84 1251.1 2663.78 1251.7 2662.47 1252.51 2660.92 1253.55L2659.73 1251.48Z" fill-rule="evenodd"/><text fill="#000000" fill-opacity="0" font-family="Arial,Arial_MSFontService,sans-serif" font-size="37.0874" x="2659.73" y="1276.44">1</text><path d="M2672.3 1308.48 2673.78 1308.48C2673.67 1310.19 2673.62 1312.58 2673.62 1315.62L2673.62 1338.55C2673.62 1339.59 2673.68 1340.38 2673.79 1340.9 2673.91 1341.43 2674.12 1341.86 2674.41 1342.19 2674.71 1342.52 2675.13 1342.78 2675.69 1342.97 2676.24 1343.16 2676.94 1343.3 2677.78 1343.4 2678.62 1343.5 2679.73 1343.57 2681.11 1343.6L2681.11 1345.56 2661.27 1345.56 2661.27 1343.6C2663.25 1343.51 2664.67 1343.39 2665.52 1343.24 2666.37 1343.09 2667.02 1342.86 2667.47 1342.56 2667.92 1342.25 2668.24 1341.82 2668.45 1341.27 2668.66 1340.71 2668.76 1339.81 2668.76 1338.55L2668.76 1316.77C2668.76 1316.06 2668.63 1315.53 2668.38 1315.2 2668.13 1314.87 2667.76 1314.71 2667.28 1314.71 2666.71 1314.71 2665.89 1315 2664.84 1315.59 2663.78 1316.18 2662.47 1317 2660.92 1318.04L2659.73 1315.97Z" fill-rule="evenodd"/><text fill="#000000" fill-opacity="0" font-family="Arial,Arial_MSFontService,sans-serif" font-size="37.0874" x="2659.73" y="1340.93">1</text><path d="M2672.3 1363.11 2673.78 1363.11C2673.67 1364.83 2673.62 1367.21 2673.62 1370.25L2673.62 1393.19C2673.62 1394.23 2673.68 1395.01 2673.79 1395.54 2673.91 1396.07 2674.12 1396.49 2674.41 1396.83 2674.71 1397.16 2675.13 1397.42 2675.69 1397.6 2676.24 1397.79 2676.94 1397.94 2677.78 1398.03 2678.62 1398.13 2679.73 1398.2 2681.11 1398.24L2681.11 1400.2 2661.27 1400.2 2661.27 1398.24C2663.25 1398.15 2664.67 1398.03 2665.52 1397.87 2666.37 1397.72 2667.02 1397.49 2667.47 1397.19 2667.92 1396.88 2668.24 1396.45 2668.45 1395.9 2668.66 1395.34 2668.76 1394.44 2668.76 1393.19L2668.76 1371.41C2668.76 1370.69 2668.63 1370.17 2668.38 1369.84 2668.13 1369.51 2667.76 1369.34 2667.28 1369.34 2666.71 1369.34 2665.89 1369.63 2664.84 1370.23 2663.78 1370.82 2662.47 1371.63 2660.92 1372.67L2659.73 1370.6Z" fill-rule="evenodd"/><text fill="#000000" fill-opacity="0" font-family="Arial,Arial_MSFontService,sans-serif" font-size="37.0874" x="2659.73" y="1395.56">1</text><path d="M2672.3 1427.6 2673.78 1427.6C2673.67 1429.32 2673.62 1431.7 2673.62 1434.74L2673.62 1457.67C2673.62 1458.71 2673.68 1459.5 2673.79 1460.02 2673.91 1460.55 2674.12 1460.98 2674.41 1461.31 2674.71 1461.64 2675.13 1461.9 2675.69 1462.09 2676.24 1462.28 2676.94 1462.42 2677.78 1462.52 2678.62 1462.62 2679.73 1462.69 2681.11 1462.72L2681.11 1464.68 2661.27 1464.68 2661.27 1462.72C2663.25 1462.63 2664.67 1462.51 2665.52 1462.36 2666.37 1462.21 2667.02 1461.98 2667.47 1461.68 2667.92 1461.37 2668.24 1460.94 2668.45 1460.39 2668.66 1459.83 2668.76 1458.93 2668.76 1457.67L2668.76 1435.89C2668.76 1435.18 2668.63 1434.65 2668.38 1434.32 2668.13 1433.99 2667.76 1433.83 2667.28 1433.83 2666.71 1433.83 2665.89 1434.12 2664.84 1434.71 2663.78 1435.3 2662.47 1436.12 2660.92 1437.16L2659.73 1435.09Z" fill-rule="evenodd"/><text fill="#000000" fill-opacity="0" font-family="Arial,Arial_MSFontService,sans-serif" font-size="37.0874" x="2659.73" y="1460.05">1</text><path d="M2672.3 1482.23 2673.78 1482.23C2673.67 1483.95 2673.62 1486.33 2673.62 1489.37L2673.62 1512.31C2673.62 1513.35 2673.68 1514.13 2673.79 1514.66 2673.91 1515.19 2674.12 1515.62 2674.41 1515.95 2674.71 1516.28 2675.13 1516.54 2675.69 1516.73 2676.24 1516.91 2676.94 1517.06 2677.78 1517.16 2678.62 1517.25 2679.73 1517.32 2681.11 1517.36L2681.11 1519.32 2661.27 1519.32 2661.27 1517.36C2663.25 1517.27 2664.67 1517.15 2665.52 1516.99 2666.37 1516.84 2667.02 1516.61 2667.47 1516.31 2667.92 1516.01 2668.24 1515.58 2668.45 1515.02 2668.66 1514.47 2668.76 1513.56 2668.76 1512.31L2668.76 1490.53C2668.76 1489.81 2668.63 1489.29 2668.38 1488.96 2668.13 1488.63 2667.76 1488.46 2667.28 1488.46 2666.71 1488.46 2665.89 1488.76 2664.84 1489.35 2663.78 1489.94 2662.47 1490.75 2660.92 1491.79L2659.73 1489.72Z" fill-rule="evenodd"/><text fill="#000000" fill-opacity="0" font-family="Arial,Arial_MSFontService,sans-serif" font-size="37.0874" x="2659.73" y="1514.68">1</text><path d="M2670.18 1549C2668.95 1549 2667.91 1549.37 2667.08 1550.1 2666.25 1550.84 2665.58 1551.89 2665.07 1553.27 2664.56 1554.65 2664.19 1556.33 2663.98 1558.31 2663.76 1560.28 2663.66 1562.52 2663.66 1565.01 2663.66 1570.84 2664.2 1575.13 2665.28 1577.86 2666.36 1580.59 2668.04 1581.95 2670.32 1581.95 2672.48 1581.95 2674.09 1580.67 2675.14 1578.1 2676.18 1575.53 2676.71 1571.55 2676.71 1566.16 2676.71 1562.04 2676.44 1558.71 2675.9 1556.16 2675.36 1553.61 2674.62 1551.78 2673.66 1550.67 2672.7 1549.56 2671.54 1549 2670.18 1549ZM2670.32 1546.72C2674.24 1546.72 2677.15 1548.23 2679.07 1551.26 2680.99 1554.28 2681.94 1558.86 2681.94 1564.98 2681.94 1571.32 2680.92 1576.11 2678.87 1579.36 2676.82 1582.61 2673.82 1584.23 2669.89 1584.23 2666.02 1584.23 2663.14 1582.71 2661.25 1579.67 2659.36 1576.63 2658.42 1572.01 2658.42 1565.81 2658.42 1562.52 2658.71 1559.67 2659.29 1557.27 2659.87 1554.87 2660.69 1552.89 2661.74 1551.32 2662.78 1549.76 2664.04 1548.6 2665.51 1547.85 2666.98 1547.09 2668.58 1546.72 2670.32 1546.72Z" fill-rule="evenodd"/><text fill="#000000" fill-opacity="0" font-family="Arial,Arial_MSFontService,sans-serif" font-size="37.5171" x="2658.42" y="1579.54">0</text><path d="M2670.18 1613.49C2668.95 1613.49 2667.91 1613.85 2667.08 1614.59 2666.25 1615.32 2665.58 1616.38 2665.07 1617.76 2664.56 1619.14 2664.19 1620.81 2663.98 1622.79 2663.76 1624.77 2663.66 1627 2663.66 1629.49 2663.66 1635.33 2664.2 1639.61 2665.28 1642.34 2666.36 1645.07 2668.04 1646.44 2670.32 1646.44 2672.48 1646.44 2674.09 1645.15 2675.14 1642.59 2676.18 1640.02 2676.71 1636.04 2676.71 1630.65 2676.71 1626.53 2676.44 1623.2 2675.9 1620.64 2675.36 1618.09 2674.62 1616.26 2673.66 1615.15 2672.7 1614.04 2671.54 1613.49 2670.18 1613.49ZM2670.32 1611.2C2674.24 1611.2 2677.15 1612.72 2679.07 1615.74 2680.99 1618.77 2681.94 1623.34 2681.94 1629.47 2681.94 1635.8 2680.92 1640.6 2678.87 1643.85 2676.82 1647.1 2673.82 1648.72 2669.89 1648.72 2666.02 1648.72 2663.14 1647.2 2661.25 1644.16 2659.36 1641.11 2658.42 1636.49 2658.42 1630.3 2658.42 1627 2658.71 1624.16 2659.29 1621.76 2659.87 1619.36 2660.69 1617.38 2661.74 1615.81 2662.78 1614.24 2664.04 1613.08 2665.51 1612.33 2666.98 1611.58 2668.58 1611.2 2670.32 1611.2Z" fill-rule="evenodd"/><text fill="#000000" fill-opacity="0" font-family="Arial,Arial_MSFontService,sans-serif" font-size="37.5171" x="2658.42" y="1644.03">0</text><path d="M2723.86 1450.15 2756.94 1450.15 2756.94 1453.72 2723.86 1453.72ZM2723.86 1439 2756.94 1439 2756.94 1442.57 2723.86 1442.57Z" fill-rule="evenodd"/><text fill="#000000" fill-opacity="0" font-family="Arial,Arial_MSFontService,sans-serif" font-size="14.7168" x="2723.86" y="1451.88">=</text><path d="M2795.11 1439.11C2794.25 1439.11 2793.4 1439.38 2792.57 1439.93 2791.74 1440.47 2790.81 1441.38 2789.79 1442.64 2788.77 1443.9 2787.94 1445.2 2787.29 1446.52 2786.65 1447.85 2786.1 1449.54 2785.65 1451.6L2785.41 1452.73C2785.14 1453.98 2785.01 1455.2 2785.01 1456.38 2785.01 1457.79 2785.32 1458.81 2785.94 1459.44 2786.55 1460.07 2787.58 1460.38 2789.01 1460.38 2789.75 1460.38 2790.44 1460.26 2791.11 1460.02 2791.77 1459.78 2792.44 1459.38 2793.13 1458.82 2793.82 1458.27 2794.48 1457.54 2795.09 1456.63 2795.71 1455.73 2796.28 1454.61 2796.8 1453.29 2797.32 1451.96 2797.72 1450.55 2798.01 1449.03 2798.29 1447.52 2798.44 1446.07 2798.44 1444.7 2798.44 1442.83 2798.17 1441.44 2797.65 1440.51 2797.12 1439.58 2796.27 1439.11 2795.11 1439.11ZM2820.22 1423.67 2821.8 1423.67 2815.2 1453.4C2814.8 1455.17 2814.61 1456.49 2814.61 1457.37 2814.61 1458.09 2814.72 1458.61 2814.96 1458.93 2815.19 1459.25 2815.56 1459.41 2816.06 1459.41 2816.59 1459.41 2817.17 1459.19 2817.78 1458.75 2818.39 1458.32 2819.24 1457.48 2820.35 1456.24L2821.89 1457.75C2820.15 1459.57 2818.73 1460.82 2817.63 1461.49 2816.53 1462.17 2815.3 1462.5 2813.94 1462.5 2812.77 1462.5 2811.84 1462.08 2811.14 1461.23 2810.44 1460.37 2810.1 1459.29 2810.1 1457.96 2810.1 1456.76 2810.35 1455.03 2810.85 1452.75L2815.65 1431.24C2815.87 1430.29 2816.02 1429.54 2816.11 1428.97 2816.2 1428.41 2816.25 1427.88 2816.25 1427.4 2816.25 1426.86 2816.15 1426.46 2815.95 1426.18 2815.75 1425.9 2815.47 1425.7 2815.1 1425.57 2814.74 1425.45 2814.08 1425.36 2813.13 1425.31L2813.45 1423.91ZM2790.41 1423.67 2791.97 1423.67 2787.24 1442.47 2787.59 1442.57C2789.32 1440.25 2790.95 1438.56 2792.48 1437.53 2794 1436.49 2795.52 1435.97 2797.04 1435.97 2798.99 1435.97 2800.51 1436.71 2801.59 1438.2 2802.68 1439.68 2803.22 1441.78 2803.22 1444.48 2803.22 1447.44 2802.62 1450.34 2801.43 1453.2 2800.24 1456.05 2798.59 1458.32 2796.48 1459.99 2794.36 1461.66 2792 1462.5 2789.39 1462.5 2787.01 1462.5 2784.89 1461.92 2783.05 1460.76L2780.58 1462.5 2778.86 1462.07 2785.82 1431.38C2786.23 1429.55 2786.43 1428.22 2786.43 1427.4 2786.43 1426.65 2786.21 1426.12 2785.75 1425.82 2785.29 1425.51 2784.47 1425.34 2783.29 1425.31L2783.61 1423.91Z" fill-rule="evenodd"/><text fill="#000000" fill-opacity="0" font-family="Arial,Arial_MSFontService,sans-serif" font-size="38.833" x="2778.86" y="1457.65">𝑏𝑙</text><path d="M2824.76 1448.38 2847.96 1448.38 2847.96 1455.59 2845.75 1455.59C2845.48 1454.57 2845.21 1453.74 2844.96 1453.1 2844.71 1452.45 2844.41 1451.95 2844.07 1451.58 2843.73 1451.2 2843.33 1450.95 2842.86 1450.8 2842.39 1450.66 2841.81 1450.58 2841.1 1450.55L2838.45 1450.55 2838.45 1470.02C2838.46 1470.67 2838.49 1471.21 2838.54 1471.63 2838.6 1472.06 2838.72 1472.41 2838.91 1472.68 2839.09 1472.95 2839.38 1473.17 2839.76 1473.33 2840.13 1473.5 2840.66 1473.65 2841.34 1473.79L2841.34 1475.04 2831.38 1475.04 2831.38 1473.79C2831.88 1473.7 2832.32 1473.6 2832.68 1473.5 2833.03 1473.4 2833.33 1473.22 2833.56 1472.98 2833.8 1472.74 2833.97 1472.39 2834.08 1471.93 2834.19 1471.46 2834.25 1470.83 2834.25 1470.02L2834.25 1450.55 2831.61 1450.55C2831.23 1450.55 2830.9 1450.57 2830.62 1450.6 2830.34 1450.63 2830.09 1450.69 2829.87 1450.76 2829.65 1450.84 2829.45 1450.94 2829.27 1451.07 2829.08 1451.19 2828.91 1451.34 2828.74 1451.51 2828.41 1451.82 2828.11 1452.29 2827.82 1452.9 2827.54 1453.52 2827.26 1454.42 2827 1455.59L2824.76 1455.59Z" fill-rule="evenodd"/><text fill="#000000" fill-opacity="0" font-family="Arial,Arial_MSFontService,sans-serif" font-size="26.6602" x="2824.76" y="1471.71">T</text><path d="M2859.54 1463.28C2860.77 1463.28 2861.79 1463.41 2862.61 1463.68 2863.42 1463.95 2864.06 1464.3 2864.55 1464.73 2865.03 1465.16 2865.37 1465.66 2865.56 1466.24 2865.76 1466.82 2865.85 1467.42 2865.85 1468.03 2865.85 1468.8 2865.7 1469.52 2865.39 1470.18 2865.07 1470.84 2864.56 1471.56 2863.85 1472.34 2863.15 1473.12 2861.88 1474.33 2860.05 1475.99 2858.11 1477.75 2856.69 1479.28 2855.81 1480.56L2861.63 1480.56C2862.18 1480.56 2862.6 1480.54 2862.89 1480.48 2863.18 1480.43 2863.41 1480.35 2863.58 1480.23 2863.75 1480.12 2863.9 1479.98 2864.02 1479.81 2864.13 1479.64 2864.31 1479.26 2864.55 1478.68L2866.17 1478.68 2865.84 1483.22 2852.04 1483.22 2852.04 1482.34C2852.58 1481.19 2853.31 1480.06 2854.22 1478.95 2855.13 1477.83 2856.2 1476.69 2857.41 1475.51 2858.87 1474.11 2859.91 1473.06 2860.52 1472.35 2861.13 1471.64 2861.59 1470.96 2861.88 1470.32 2862.18 1469.69 2862.32 1469.04 2862.32 1468.4 2862.32 1467.34 2862.02 1466.5 2861.42 1465.89 2860.82 1465.27 2859.96 1464.97 2858.83 1464.97 2857.85 1464.97 2857.02 1465.22 2856.34 1465.74 2855.66 1466.26 2855.14 1467.02 2854.78 1468.03L2852.54 1468.03 2852.54 1464.85C2853.94 1464.28 2855.23 1463.88 2856.4 1463.64 2857.58 1463.4 2858.62 1463.28 2859.54 1463.28Z" fill-rule="evenodd"/><text fill="#000000" fill-opacity="0" font-family="Arial,Arial_MSFontService,sans-serif" font-size="19.9482" x="2852.04" y="1480.73">2</text><path d="M2831.77 1419.51 2836.81 1419.51 2836.81 1421.03 2830.31 1436.67 2828.02 1435.99Z" fill-rule="evenodd"/><text fill="#000000" fill-opacity="0" font-family="Arial,Arial_MSFontService,sans-serif" font-size="17.168" x="2828.02" y="1434.53">′</text><text fill="#A6A6A6" font-family="Cambria Math,Cambria Math_MSFontService,sans-serif" font-weight="400" font-size="37" transform="matrix(1 0 0 1 2520.62 745)">N</text><text fill="#A6A6A6" font-family="Cambria Math,Cambria Math_MSFontService,sans-serif" font-weight="400" font-size="27" transform="matrix(1 0 0 1 2544.98 752)">1</text><text fill="#A6A6A6" font-family="Cambria Math,Cambria Math_MSFontService,sans-serif" font-weight="400" font-size="37" transform="matrix(1 0 0 1 2520.48 807)">N</text><text fill="#A6A6A6" font-family="Cambria Math,Cambria Math_MSFontService,sans-serif" font-weight="400" font-size="27" transform="matrix(1 0 0 1 2545.69 814)">3</text><text fill="#A6A6A6" font-family="Cambria Math,Cambria Math_MSFontService,sans-serif" font-weight="400" font-size="37" transform="matrix(1 0 0 1 2520.48 867)">N</text><text fill="#A6A6A6" font-family="Cambria Math,Cambria Math_MSFontService,sans-serif" font-weight="400" font-size="27" transform="matrix(1 0 0 1 2545.69 874)">5</text><text fill="#A6A6A6" font-family="Cambria Math,Cambria Math_MSFontService,sans-serif" font-weight="400" font-size="37" transform="matrix(1 0 0 1 2520.48 927)">N</text><text fill="#A6A6A6" font-family="Cambria Math,Cambria Math_MSFontService,sans-serif" font-weight="400" font-size="27" transform="matrix(1 0 0 1 2545.69 934)">6</text><text fill="#A6A6A6" font-family="Cambria Math,Cambria Math_MSFontService,sans-serif" font-weight="400" font-size="37" transform="matrix(1 0 0 1 2520.48 987)">N</text><text fill="#A6A6A6" font-family="Cambria Math,Cambria Math_MSFontService,sans-serif" font-weight="400" font-size="27" transform="matrix(1 0 0 1 2545.69 995)">7</text><text fill="#A6A6A6" font-family="Cambria Math,Cambria Math_MSFontService,sans-serif" font-weight="400" font-size="37" transform="matrix(1 0 0 1 2520.48 1051)">N</text><text fill="#A6A6A6" font-family="Cambria Math,Cambria Math_MSFontService,sans-serif" font-weight="400" font-size="27" transform="matrix(1 0 0 1 2545.69 1059)">8</text><text fill="#A6A6A6" font-family="Cambria Math,Cambria Math_MSFontService,sans-serif" font-weight="400" font-size="37" transform="matrix(1 0 0 1 2520.48 1118)">N</text><text fill="#A6A6A6" font-family="Cambria Math,Cambria Math_MSFontService,sans-serif" font-weight="400" font-size="27" transform="matrix(1 0 0 1 2545.69 1125)">9</text><path d="M2473 764 2599.67 764.001" stroke="#A5A5A5" stroke-width="2.29167" stroke-miterlimit="8" fill="none" fill-rule="evenodd"/><path d="M2473 827 2599.67 827" stroke="#A5A5A5" stroke-width="2.29167" stroke-miterlimit="8" fill="none" fill-rule="evenodd"/><path d="M2473 889 2599.67 889" stroke="#A5A5A5" stroke-width="2.29167" stroke-miterlimit="8" fill="none" fill-rule="evenodd"/><path d="M2473 953 2599.67 953" stroke="#A5A5A5" stroke-width="2.29167" stroke-miterlimit="8" fill="none" fill-rule="evenodd"/><path d="M2473 1014 2599.67 1014" stroke="#A5A5A5" stroke-width="2.29167" stroke-miterlimit="8" fill="none" fill-rule="evenodd"/><path d="M2473 1076 2599.67 1076" stroke="#A5A5A5" stroke-width="2.29167" stroke-miterlimit="8" fill="none" fill-rule="evenodd"/><text font-family="Cambria Math,Cambria Math_MSFontService,sans-serif" font-weight="400" font-size="37" transform="matrix(1 0 0 1 1067.57 1300)">1</text><text font-family="Cambria Math,Cambria Math_MSFontService,sans-serif" font-weight="400" font-size="37" transform="matrix(1 0 0 1 979.846 1519)">1</text><text font-family="Cambria Math,Cambria Math_MSFontService,sans-serif" font-weight="400" font-size="37" transform="matrix(1 0 0 1 1164.79 1519)">1</text><text font-family="Cambria Math,Cambria Math_MSFontService,sans-serif" font-weight="400" font-size="37" transform="matrix(1 0 0 1 1341.52 1462)">2</text><text font-family="Cambria Math,Cambria Math_MSFontService,sans-serif" font-weight="400" font-size="37" transform="matrix(1 0 0 1 1193.43 838)">2</text><text font-family="Cambria Math,Cambria Math_MSFontService,sans-serif" font-weight="400" font-size="37" transform="matrix(1 0 0 1 1354.86 1124)">3</text><text font-family="Cambria Math,Cambria Math_MSFontService,sans-serif" font-weight="400" font-size="37" transform="matrix(1 0 0 1 1061.49 1078)">2</text><text font-family="Cambria Math,Cambria Math_MSFontService,sans-serif" font-weight="400" font-size="37" transform="matrix(1 0 0 1 1767.42 838)">2</text><text font-family="Cambria Math,Cambria Math_MSFontService,sans-serif" font-weight="400" font-size="37" transform="matrix(1 0 0 1 1930.47 1089)">2</text><text font-family="Cambria Math,Cambria Math_MSFontService,sans-serif" font-weight="400" font-size="37" transform="matrix(1 0 0 1 1639.14 1088)">2</text><text font-family="Cambria Math,Cambria Math_MSFontService,sans-serif" font-weight="400" font-size="37" transform="matrix(1 0 0 1 1642.07 1296)">1</text><text font-family="Cambria Math,Cambria Math_MSFontService,sans-serif" font-weight="400" font-size="37" transform="matrix(1 0 0 1 1556.91 1515)">1</text><text font-family="Cambria Math,Cambria Math_MSFontService,sans-serif" font-weight="400" font-size="37" transform="matrix(1 0 0 1 1741.86 1515)">1</text><text fill="#FF0000" font-family="Cambria Math,Cambria Math_MSFontService,sans-serif" font-weight="400" font-size="37" transform="matrix(1 0 0 1 1923.48 1324)">0</text></g></svg>