<svg width="2311" height="1058" xmlns="http://www.w3.org/2000/svg" xmlns:xlink="http://www.w3.org/1999/xlink" xml:space="preserve" overflow="hidden"><g transform="translate(-670 -652)"><path d="M2911 675 2911 1695C2911 1701.63 2905.63 1707 2899 1707L2080 1707 2080 663 2899 663C2905.63 663 2911 668.373 2911 675Z" fill="#F2F2F2" fill-rule="evenodd"/><path d="M691 681C691 673.268 697.268 667 705 667L761 667C768.732 667 775 673.268 775 681L775 737C775 744.732 768.732 751 761 751L705 751C697.268 751 691 744.732 691 737Z" stroke="#A6A6A6" stroke-width="2.29167" stroke-miterlimit="8" fill="#FFFFFF" fill-rule="evenodd"/><path d="M708.537 684.33 737.594 684.33 737.594 693.675 734.962 693.675C734.569 692.136 734.179 690.918 733.794 690.023 733.409 689.128 733.002 688.448 732.572 687.982 732.143 687.516 731.682 687.185 731.189 686.988 730.697 686.791 729.958 686.693 728.974 686.693L725.563 686.693 725.563 714.193C725.563 715.249 725.621 716.091 725.738 716.717 725.854 717.344 726.033 717.841 726.275 718.208 726.516 718.575 726.843 718.861 727.255 719.067 727.667 719.273 728.311 719.474 729.189 719.671L729.189 720.987 716.916 720.987 716.916 719.671C717.453 719.546 717.927 719.412 718.339 719.269 718.751 719.125 719.086 718.951 719.346 718.745 719.606 718.539 719.82 718.275 719.991 717.953 720.161 717.63 720.295 717.192 720.393 716.637 720.492 716.082 720.541 715.267 720.541 714.193L720.541 686.693 717.157 686.693C716.316 686.693 715.622 686.773 715.076 686.935 714.53 687.096 714.024 687.431 713.559 687.942 713.093 688.452 712.668 689.177 712.283 690.117 711.898 691.057 711.536 692.243 711.195 693.675L708.537 693.675Z" fill="#A6A6A6" fill-rule="evenodd"/><text fill="#000000" fill-opacity="0" font-family="Arial,Arial_MSFontService,sans-serif" font-size="36.6577" x="708.537" y="716.405">T</text><path d="M746.164 707.06 747.356 707.06C747.33 707.776 747.31 708.418 747.297 708.984 747.284 709.55 747.275 710.101 747.268 710.634 747.261 711.168 747.258 711.696 747.258 712.216L747.258 727.06C747.258 727.464 747.271 727.812 747.297 728.105 747.323 728.398 747.366 728.646 747.424 728.847 747.483 729.049 747.561 729.222 747.659 729.365 747.756 729.508 747.87 729.632 748 729.736 748.157 729.892 748.365 730.013 748.625 730.097 748.886 730.182 749.218 730.254 749.622 730.312 750.025 730.371 750.51 730.416 751.077 730.449 751.643 730.481 752.323 730.504 753.118 730.517L753.118 732.216 737.629 732.216 737.629 730.517C738.398 730.491 739.049 730.462 739.582 730.429 740.116 730.397 740.572 730.351 740.95 730.293 741.327 730.234 741.63 730.169 741.858 730.097 742.086 730.026 742.284 729.938 742.454 729.834 742.636 729.716 742.792 729.59 742.922 729.453 743.052 729.316 743.157 729.144 743.235 728.935 743.313 728.727 743.375 728.473 743.42 728.174 743.466 727.874 743.489 727.503 743.489 727.06L743.489 713.056C743.489 712.549 743.391 712.19 743.196 711.982 743 711.774 742.72 711.67 742.356 711.67 741.952 711.67 741.353 711.878 740.559 712.295 739.765 712.711 738.736 713.33 737.473 714.15 737.304 713.851 737.148 713.551 737.004 713.252 736.861 712.952 736.711 712.646 736.555 712.334 738.17 711.448 739.768 710.566 741.35 709.687 742.932 708.808 744.537 707.933 746.164 707.06Z" fill="#A6A6A6" fill-rule="evenodd"/><text fill="#000000" fill-opacity="0" font-family="Arial,Arial_MSFontService,sans-serif" font-size="25.1562" x="736.555" y="729.072">1</text><path d="M824.5 1408.5C824.5 1379.78 847.781 1356.5 876.5 1356.5 905.219 1356.5 928.5 1379.78 928.5 1408.5 928.5 1437.22 905.219 1460.5 876.5 1460.5 847.781 1460.5 824.5 1437.22 824.5 1408.5Z" stroke="#000000" stroke-width="4.58333" stroke-miterlimit="8" fill="#FFC000" fill-rule="evenodd"/><path d="M783.5 1462.5 974.364 1463.49" stroke="#000000" stroke-width="4.58333" stroke-miterlimit="8" fill="none" fill-rule="evenodd"/><path d="M932.5 1629.5C932.5 1607.96 949.961 1590.5 971.5 1590.5 993.039 1590.5 1010.5 1607.96 1010.5 1629.5 1010.5 1651.04 993.039 1668.5 971.5 1668.5 949.961 1668.5 932.5 1651.04 932.5 1629.5Z" stroke="#000000" stroke-width="4.58333" stroke-miterlimit="8" fill="#CC99FF" fill-rule="evenodd"/><path d="M746.5 1629.5C746.5 1607.96 763.737 1590.5 785 1590.5 806.263 1590.5 823.5 1607.96 823.5 1629.5 823.5 1651.04 806.263 1668.5 785 1668.5 763.737 1668.5 746.5 1651.04 746.5 1629.5Z" stroke="#000000" stroke-width="4.58333" stroke-miterlimit="8" fill="#FFFFCC" fill-rule="evenodd"/><path d="M0 0 285.827 0.425492" stroke="#000000" stroke-width="4.58333" stroke-miterlimit="8" fill="none" fill-rule="evenodd" transform="matrix(1 0 0 -1 873.5 1022.93)"/><path d="M2.29121-0.0458242 4.43139 106.963-0.151025 107.055-2.29121 0.0458242ZM15.7958 102.152 2.59843 129.921-11.6987 102.702Z" transform="matrix(-1 0 0 1 1159.1 1381.5)"/><path d="M877.792 1227.5 877.792 1334.5 873.209 1334.5 873.208 1227.5ZM889.25 1329.92 875.5 1357.42 861.75 1329.92Z"/><path d="M2.29163-0.0123971 3.57334 236.914-1.00993 236.939-2.29163 0.0123971ZM15.0067 232.269 1.40568 259.843-12.4929 232.417Z" transform="matrix(-1 0 0 1 1161.91 1021.5)"/><path d="M944.5 955.5C944.5 919.602 973.602 890.5 1009.5 890.5 1045.4 890.5 1074.5 919.602 1074.5 955.5 1074.5 991.399 1045.4 1020.5 1009.5 1020.5 973.602 1020.5 944.5 991.399 944.5 955.5Z" stroke="#000000" stroke-width="4.58333" stroke-miterlimit="8" fill="#E7E6E6" fill-rule="evenodd"/><path d="M2.29153-0.0247931 3.44928 106.981-1.13379 107.031-2.29153 0.0247931ZM14.8574 102.274 1.40568 129.921-12.641 102.572Z" transform="matrix(-1 0 0 1 874.906 1021.5)"/><path d="M1107.5 1333.5C1107.5 1304.78 1130.78 1281.5 1159.5 1281.5 1188.22 1281.5 1211.5 1304.78 1211.5 1333.5 1211.5 1362.22 1188.22 1385.5 1159.5 1385.5 1130.78 1385.5 1107.5 1362.22 1107.5 1333.5Z" stroke="#000000" stroke-width="4.58333" stroke-miterlimit="8" fill="#66FFFF" fill-rule="evenodd"/><path d="M838.5 1188.5C838.5 1166.96 855.961 1149.5 877.5 1149.5 899.039 1149.5 916.5 1166.96 916.5 1188.5 916.5 1210.04 899.039 1227.5 877.5 1227.5 855.961 1227.5 838.5 1210.04 838.5 1188.5Z" stroke="#000000" stroke-width="4.58333" stroke-miterlimit="8" fill="#F56EEC" fill-rule="evenodd"/><text font-family="Cambria Math,Cambria Math_MSFontService,sans-serif" font-weight="400" font-size="37" transform="matrix(1 0 0 1 990.373 971)">N</text><text font-family="Cambria Math,Cambria Math_MSFontService,sans-serif" font-weight="400" font-size="27" transform="matrix(1 0 0 1 1014.73 978)">1</text><text font-family="Cambria Math,Cambria Math_MSFontService,sans-serif" font-weight="400" font-size="37" transform="matrix(1 0 0 1 949.884 1638)">N</text><text font-family="Cambria Math,Cambria Math_MSFontService,sans-serif" font-weight="400" font-size="27" transform="matrix(1 0 0 1 975.093 1645)">7</text><text font-family="Cambria Math,Cambria Math_MSFontService,sans-serif" font-weight="400" font-size="37" transform="matrix(1 0 0 1 858.59 1200)">N</text><text font-family="Cambria Math,Cambria Math_MSFontService,sans-serif" font-weight="400" font-size="27" transform="matrix(1 0 0 1 883.799 1207)">3</text><text font-family="Cambria Math,Cambria Math_MSFontService,sans-serif" font-weight="400" font-size="37" transform="matrix(1 0 0 1 854.514 1419)">N</text><text font-family="Cambria Math,Cambria Math_MSFontService,sans-serif" font-weight="400" font-size="27" transform="matrix(1 0 0 1 879.722 1427)">5</text><text font-family="Cambria Math,Cambria Math_MSFontService,sans-serif" font-weight="400" font-size="37" transform="matrix(1 0 0 1 1138.15 1347)">N</text><text font-family="Cambria Math,Cambria Math_MSFontService,sans-serif" font-weight="400" font-size="27" transform="matrix(1 0 0 1 1163.36 1355)">8</text><text font-family="Cambria Math,Cambria Math_MSFontService,sans-serif" font-weight="400" font-size="37" transform="matrix(1 0 0 1 763.4 1639)">N</text><text font-family="Cambria Math,Cambria Math_MSFontService,sans-serif" font-weight="400" font-size="27" transform="matrix(1 0 0 1 788.608 1647)">6</text><path d="M1012.79 778.5 1012.79 869.613 1008.21 869.613 1008.21 778.5ZM1024.25 865.029 1010.5 892.529 996.75 865.03Z"/><path d="M787.792 1460.5 787.792 1567.5 783.209 1567.5 783.208 1460.5ZM799.25 1562.92 785.5 1590.42 771.75 1562.92Z"/><path d="M974.792 1463.5 974.792 1570.5 970.209 1570.5 970.208 1463.5ZM986.25 1565.92 972.5 1593.42 958.75 1565.92Z"/><path d="M0 0 397.226 0.326968" stroke="#000000" stroke-width="4.58333" stroke-miterlimit="8" fill="none" fill-rule="evenodd" transform="matrix(1 0 0 -1 1514.5 1027.83)"/><path d="M1692.79 780.5 1692.79 871.613 1688.21 871.613 1688.21 780.5ZM1704.25 867.029 1690.5 894.53 1676.75 867.03Z"/><path d="M1691.79 1030.5 1691.79 1267.43 1687.21 1267.43 1687.21 1030.5ZM1703.25 1262.84 1689.5 1290.34 1675.75 1262.84Z"/><path d="M2.29159-0.0190456 3.18092 106.986-1.40225 107.024-2.29159 0.0190456ZM14.6008 102.308 1.07979 129.921-12.8983 102.536Z" transform="matrix(-1 0 0 1 1911.58 1025.5)"/><path d="M1624.5 960.5C1624.5 924.601 1653.6 895.5 1689.5 895.5 1725.4 895.5 1754.5 924.601 1754.5 960.5 1754.5 996.398 1725.4 1025.5 1689.5 1025.5 1653.6 1025.5 1624.5 996.398 1624.5 960.5Z" stroke="#000000" stroke-width="4.58333" stroke-miterlimit="8" fill="#E7E6E6" fill-rule="evenodd"/><path d="M2.29159-0.0190456 3.18092 106.986-1.40225 107.024-2.29159 0.0190456ZM14.6008 102.308 1.07979 129.921-12.8983 102.536Z" transform="matrix(-1 0 0 1 1516.58 1028.5)"/><path d="M1477.5 1194.5C1477.5 1172.96 1494.96 1155.5 1516.5 1155.5 1538.04 1155.5 1555.5 1172.96 1555.5 1194.5 1555.5 1216.04 1538.04 1233.5 1516.5 1233.5 1494.96 1233.5 1477.5 1216.04 1477.5 1194.5Z" stroke="#000000" stroke-width="4.58333" stroke-miterlimit="8" fill="#F56EEC" fill-rule="evenodd"/><text font-family="Cambria Math,Cambria Math_MSFontService,sans-serif" font-weight="400" font-size="37" transform="matrix(1 0 0 1 1664.8 971)">N</text><text font-family="Cambria Math,Cambria Math_MSFontService,sans-serif" font-weight="400" font-size="27" transform="matrix(1 0 0 1 1689.16 978)">1</text><text font-family="Cambria Math,Cambria Math_MSFontService,sans-serif" font-weight="400" font-size="37" transform="matrix(1 0 0 1 1503.76 1204)">N</text><text font-family="Cambria Math,Cambria Math_MSFontService,sans-serif" font-weight="400" font-size="27" transform="matrix(1 0 0 1 1528.96 1212)">3</text><path d="M1860.5 1204.5C1860.5 1175.78 1883.78 1152.5 1912.5 1152.5 1941.22 1152.5 1964.5 1175.78 1964.5 1204.5 1964.5 1233.22 1941.22 1256.5 1912.5 1256.5 1883.78 1256.5 1860.5 1233.22 1860.5 1204.5Z" stroke="#000000" stroke-width="4.58333" stroke-miterlimit="8" fill="#66FFFF" fill-rule="evenodd"/><text font-family="Cambria Math,Cambria Math_MSFontService,sans-serif" font-weight="400" font-size="37" transform="matrix(1 0 0 1 1893.03 1217)">N</text><text font-family="Cambria Math,Cambria Math_MSFontService,sans-serif" font-weight="400" font-size="27" transform="matrix(1 0 0 1 1918.24 1224)">8</text><path d="M1824.79 1258.5 1824.79 1365.5 1820.21 1365.5 1820.21 1258.5ZM1836.25 1360.92 1822.5 1388.42 1808.75 1360.92Z"/><path d="M2014.79 1258.5 2014.79 1365.5 2010.21 1365.5 2010.21 1258.5ZM2026.25 1360.92 2012.5 1388.42 1998.75 1360.92Z"/><path d="M1821.5 1258.5 2012.36 1259.49" stroke="#000000" stroke-width="4.58333" stroke-miterlimit="8" fill="none" fill-rule="evenodd"/><path d="M1784.5 1427.5C1784.5 1405.96 1801.96 1388.5 1823.5 1388.5 1845.04 1388.5 1862.5 1405.96 1862.5 1427.5 1862.5 1449.04 1845.04 1466.5 1823.5 1466.5 1801.96 1466.5 1784.5 1449.04 1784.5 1427.5Z" stroke="#000000" stroke-width="4.58333" stroke-miterlimit="8" fill="#FFFFCC" fill-rule="evenodd"/><text font-family="Cambria Math,Cambria Math_MSFontService,sans-serif" font-weight="400" font-size="37" transform="matrix(1 0 0 1 1803.81 1437)">N</text><text font-family="Cambria Math,Cambria Math_MSFontService,sans-serif" font-weight="400" font-size="27" transform="matrix(1 0 0 1 1829.02 1444)">6</text><path d="M1973.5 1425.5C1973.5 1403.96 1990.96 1386.5 2012.5 1386.5 2034.04 1386.5 2051.5 1403.96 2051.5 1425.5 2051.5 1447.04 2034.04 1464.5 2012.5 1464.5 1990.96 1464.5 1973.5 1447.04 1973.5 1425.5Z" stroke="#000000" stroke-width="4.58333" stroke-miterlimit="8" fill="#CC99FF" fill-rule="evenodd"/><text font-family="Cambria Math,Cambria Math_MSFontService,sans-serif" font-weight="400" font-size="37" transform="matrix(1 0 0 1 1995.98 1436)">N</text><text font-family="Cambria Math,Cambria Math_MSFontService,sans-serif" font-weight="400" font-size="27" transform="matrix(1 0 0 1 2021.18 1444)">7</text><path d="M684.5 674.867C684.5 666.932 690.932 660.5 698.867 660.5L2897.13 660.5C2905.07 660.5 2911.5 666.932 2911.5 674.867L2911.5 1694.13C2911.5 1702.07 2905.07 1708.5 2897.13 1708.5L698.867 1708.5C690.932 1708.5 684.5 1702.07 684.5 1694.13Z" stroke="#A5A5A5" stroke-width="3.4375" stroke-linejoin="round" stroke-miterlimit="10" fill="none" fill-rule="evenodd"/><path d="M1986.5 683.5C1986.5 675.768 1992.77 669.5 2000.5 669.5L2056.5 669.5C2064.23 669.5 2070.5 675.768 2070.5 683.5L2070.5 739.5C2070.5 747.232 2064.23 753.5 2056.5 753.5L2000.5 753.5C1992.77 753.5 1986.5 747.232 1986.5 739.5Z" stroke="#A6A6A6" stroke-width="1.14583" stroke-miterlimit="8" fill="#FFFFFF" fill-rule="evenodd"/><path d="M2012.27 691.501 2041.33 691.501 2041.33 700.846 2038.7 700.846C2038.3 699.307 2037.92 698.089 2037.53 697.194 2037.15 696.299 2036.74 695.618 2036.31 695.153 2035.88 694.687 2035.42 694.356 2034.93 694.159 2034.43 693.962 2033.69 693.864 2032.71 693.864L2029.3 693.864 2029.3 721.364C2029.3 722.42 2029.36 723.262 2029.47 723.888 2029.59 724.515 2029.77 725.012 2030.01 725.379 2030.25 725.746 2030.58 726.032 2030.99 726.238 2031.4 726.444 2032.05 726.645 2032.92 726.842L2032.92 728.158 2020.65 728.158 2020.65 726.842C2021.19 726.717 2021.66 726.583 2022.07 726.44 2022.49 726.296 2022.82 726.122 2023.08 725.916 2023.34 725.71 2023.56 725.446 2023.73 725.124 2023.9 724.801 2024.03 724.363 2024.13 723.808 2024.23 723.253 2024.28 722.438 2024.28 721.364L2024.28 693.864 2020.89 693.864C2020.05 693.864 2019.36 693.944 2018.81 694.106 2018.27 694.267 2017.76 694.602 2017.29 695.113 2016.83 695.623 2016.4 696.348 2016.02 697.288 2015.63 698.228 2015.27 699.414 2014.93 700.846L2012.27 700.846Z" fill="#A6A6A6" fill-rule="evenodd"/><text fill="#000000" fill-opacity="0" font-family="Arial,Arial_MSFontService,sans-serif" font-size="36.6577" x="2012.27" y="723.576">T</text><path d="M2049.66 714.094C2051.01 714.094 2052.17 714.247 2053.13 714.553 2054.08 714.859 2054.86 715.273 2055.46 715.794 2056.06 716.315 2056.49 716.94 2056.76 717.669 2057.03 718.398 2057.16 719.186 2057.16 720.032 2057.16 720.54 2057.12 721.012 2057.05 721.448 2056.98 721.884 2056.86 722.314 2056.68 722.737 2056.51 723.16 2056.27 723.587 2055.99 724.016 2055.7 724.446 2055.34 724.902 2054.91 725.384 2054.59 725.8 2054.17 726.282 2053.64 726.829 2053.12 727.376 2052.55 727.962 2051.94 728.587 2051.32 729.212 2050.67 729.863 2049.99 730.54 2049.32 731.217 2048.66 731.887 2048.02 732.552 2047.38 733.216 2046.8 733.86 2046.26 734.485 2045.73 735.11 2045.29 735.683 2044.95 736.204L2052.18 736.204C2052.79 736.204 2053.28 736.181 2053.64 736.135 2054.01 736.09 2054.31 735.989 2054.55 735.833 2054.79 735.677 2055 735.439 2055.17 735.12 2055.34 734.801 2055.53 734.361 2055.75 733.802L2057.57 733.802C2057.51 734.726 2057.44 735.657 2057.38 736.594 2057.33 737.532 2057.26 738.463 2057.2 739.387L2040.66 739.387 2040.66 738.372C2040.97 737.669 2041.33 736.975 2041.75 736.292 2042.17 735.608 2042.64 734.915 2043.16 734.212 2043.68 733.509 2044.27 732.783 2044.93 732.034 2045.6 731.285 2046.33 730.507 2047.14 729.7 2048.36 728.476 2049.36 727.431 2050.13 726.565 2050.9 725.699 2051.5 724.928 2051.95 724.251 2052.39 723.574 2052.69 722.949 2052.85 722.376 2053.02 721.803 2053.1 721.191 2053.1 720.54 2053.1 719.876 2053 719.264 2052.81 718.704 2052.63 718.144 2052.36 717.669 2052 717.278 2051.65 716.887 2051.21 716.581 2050.67 716.36 2050.13 716.139 2049.5 716.028 2048.8 716.028 2047.59 716.028 2046.57 716.357 2045.75 717.014 2044.93 717.672 2044.3 718.626 2043.84 719.876L2041.28 719.876 2041.28 716.067C2042.95 715.377 2044.48 714.876 2045.88 714.563 2047.28 714.251 2048.54 714.094 2049.66 714.094Z" fill="#A6A6A6" fill-rule="evenodd"/><text fill="#000000" fill-opacity="0" font-family="Arial,Arial_MSFontService,sans-serif" font-size="25.293" x="2040.66" y="736.226">2</text><text fill="#AFABAB" font-family="Calibri,Calibri_MSFontService,sans-serif" font-weight="400" font-size="55" transform="matrix(1 0 0 1 1318.64 765)">0</text><path d="M1366.5 783.5 1366.5 1541.58" stroke="#A5A5A5" stroke-width="6.875" stroke-miterlimit="8" fill="none" fill-rule="evenodd"/><path d="M1341.5 778.5 1389.05 778.5" stroke="#A5A5A5" stroke-width="6.875" stroke-miterlimit="8" fill="none" fill-rule="evenodd"/><path d="M1339.5 1543.5 1387.05 1543.5" stroke="#A5A5A5" stroke-width="6.875" stroke-miterlimit="8" fill="none" fill-rule="evenodd"/><path d="M1342.5 1354.5 1390.05 1354.5" stroke="#A5A5A5" stroke-width="6.875" stroke-miterlimit="8" fill="none" fill-rule="evenodd"/><path d="M1342.5 965.5 1390.05 965.5" stroke="#A5A5A5" stroke-width="6.875" stroke-miterlimit="8" fill="none" fill-rule="evenodd"/><text fill="#AFABAB" font-family="Calibri,Calibri_MSFontService,sans-serif" font-weight="400" font-size="55" transform="matrix(1 0 0 1 1330.41 1340)">3</text><text fill="#AFABAB" font-family="Calibri,Calibri_MSFontService,sans-serif" font-weight="400" font-size="55" transform="matrix(1 0 0 1 1329.63 1532)">4</text><text fill="#AFABAB" font-family="Calibri,Calibri_MSFontService,sans-serif" font-weight="400" font-size="55" transform="matrix(1 0 0 1 1325.59 946)">1</text><path d="M1341.5 1162.5 1389.05 1162.5" stroke="#A5A5A5" stroke-width="6.875" stroke-miterlimit="8" fill="none" fill-rule="evenodd"/><text fill="#AFABAB" font-family="Calibri,Calibri_MSFontService,sans-serif" font-weight="400" font-size="55" transform="matrix(1 0 0 1 1330.73 1144)">2</text><path d="M1083.5 959.5 1369.67 963.213" stroke="#AAAFA3" stroke-width="3.4375" stroke-linejoin="round" stroke-miterlimit="10" stroke-dasharray="13.75 10.3125" fill="#3C8F58" fill-rule="evenodd"/><path d="M916.5 1188.5 1107.73 1333.1" stroke="#AAAFA3" stroke-width="3.4375" stroke-linejoin="round" stroke-miterlimit="10" stroke-dasharray="13.75 10.3125" fill="#3C8F58" fill-rule="evenodd"/><path d="M0 0 149.883 168.807" stroke="#AAAFA3" stroke-width="3.4375" stroke-linejoin="round" stroke-miterlimit="10" stroke-dasharray="13.75 10.3125" fill="#3C8F58" fill-rule="evenodd" transform="matrix(1 0 0 -1 1211.5 1333.31)"/><path d="M928.5 1408.5 1118.57 1550.34" stroke="#AAAFA3" stroke-width="3.4375" stroke-linejoin="round" stroke-miterlimit="10" stroke-dasharray="13.75 10.3125" fill="#3C8F58" fill-rule="evenodd"/><path d="M0 0 175.769 194.006" stroke="#AAAFA3" stroke-width="3.4375" stroke-linejoin="round" stroke-miterlimit="10" stroke-dasharray="13.75 10.3125" fill="#3C8F58" fill-rule="evenodd" transform="matrix(-1 0 0 1 1372.27 1356.5)"/><path d="M0 0 117.479 137.29" stroke="#AAAFA3" stroke-width="3.4375" stroke-linejoin="round" stroke-miterlimit="10" stroke-dasharray="13.75 10.3125" fill="#3C8F58" fill-rule="evenodd" transform="matrix(1 0 0 -1 1742.5 1341.79)"/><path d="M1555.5 1194.5 1639.14 1341.53" stroke="#AAAFA3" stroke-width="3.4375" stroke-linejoin="round" stroke-miterlimit="10" stroke-dasharray="13.75 10.3125" fill="#3C8F58" fill-rule="evenodd"/><path d="M1377.5 1159.5 1477.34 1194.76" stroke="#AAAFA3" stroke-width="3.4375" stroke-linejoin="round" stroke-miterlimit="10" stroke-dasharray="13.75 10.3125" fill="#3C8F58" fill-rule="evenodd"/><path d="M0 0 110.719 2.0542" stroke="#AAAFA3" stroke-width="3.4375" stroke-linejoin="round" stroke-miterlimit="10" stroke-dasharray="13.75 10.3125" fill="#3C8F58" fill-rule="evenodd" transform="matrix(-1 0 0 1 1973.22 1425.5)"/><path d="M1784.16 1427.13 1364.5 1362.5" stroke="#AAAFA3" stroke-width="3.4375" stroke-linejoin="round" stroke-miterlimit="10" stroke-dasharray="13.75 10.3125" fill="#3C8F58" fill-rule="evenodd"/><path d="M1638.5 1342C1638.5 1313.56 1661.78 1290.5 1690.5 1290.5 1719.22 1290.5 1742.5 1313.56 1742.5 1342 1742.5 1370.44 1719.22 1393.5 1690.5 1393.5 1661.78 1393.5 1638.5 1370.44 1638.5 1342Z" stroke="#000000" stroke-width="4.58333" stroke-miterlimit="8" fill="#FFC000" fill-rule="evenodd"/><text font-family="Cambria Math,Cambria Math_MSFontService,sans-serif" font-weight="400" font-size="37" transform="matrix(1 0 0 1 1673.95 1353)">N</text><text font-family="Cambria Math,Cambria Math_MSFontService,sans-serif" font-weight="400" font-size="27" transform="matrix(1 0 0 1 1699.16 1360)">5</text><path d="M932.032 1630.07 823.5 1629.5" stroke="#AAAFA3" stroke-width="3.4375" stroke-linejoin="round" stroke-miterlimit="10" stroke-dasharray="13.75 10.3125" fill="#3C8F58" fill-rule="evenodd"/><path d="M0 0 358.952 89.5165" stroke="#AAAFA3" stroke-width="3.4375" stroke-linejoin="round" stroke-miterlimit="10" stroke-dasharray="13.75 10.3125" fill="#3C8F58" fill-rule="evenodd" transform="matrix(-1 0 0 1 1369.45 1540.5)"/><path d="M1118.5 1550.5C1118.5 1528.96 1135.96 1511.5 1157.5 1511.5 1179.04 1511.5 1196.5 1528.96 1196.5 1550.5 1196.5 1572.04 1179.04 1589.5 1157.5 1589.5 1135.96 1589.5 1118.5 1572.04 1118.5 1550.5Z" stroke="#000000" stroke-width="4.58333" stroke-miterlimit="8" fill="#FF0000" fill-rule="evenodd"/><text font-family="Cambria Math,Cambria Math_MSFontService,sans-serif" font-weight="400" font-size="37" transform="matrix(1 0 0 1 1137.83 1559)">N</text><text font-family="Cambria Math,Cambria Math_MSFontService,sans-serif" font-weight="400" font-size="27" transform="matrix(1 0 0 1 1163.04 1567)">9</text><path d="M0 0 680.987 1.04659" stroke="#AAAFA3" stroke-width="3.4375" stroke-linejoin="round" stroke-miterlimit="10" stroke-dasharray="13.75 10.3125" fill="#3C8F58" fill-rule="evenodd" transform="matrix(1 0 0 -1 1008.5 778.547)"/><path d="M2125.63 904.538 2127.19 904.538 2122.57 923.149 2122.89 923.256C2124.59 921 2126.2 919.367 2127.71 918.355 2129.22 917.344 2130.75 916.838 2132.29 916.838 2133.95 916.838 2135.23 917.317 2136.13 918.275 2137.02 919.232 2137.47 920.562 2137.47 922.263 2137.47 923.391 2137.21 924.993 2136.69 927.07L2134.95 934.106C2134.46 936.057 2134.22 937.436 2134.22 938.242 2134.22 938.958 2134.34 939.477 2134.57 939.799 2134.8 940.122 2135.17 940.283 2135.67 940.283 2136.21 940.283 2136.78 940.063 2137.39 939.625 2138 939.186 2138.86 938.349 2139.97 937.114L2141.5 938.618C2139.78 940.426 2138.37 941.67 2137.27 942.351 2136.17 943.031 2134.93 943.371 2133.55 943.371 2132.39 943.371 2131.46 942.959 2130.77 942.136 2130.08 941.312 2129.74 940.247 2129.74 938.94 2129.74 937.776 2130.03 936.066 2130.62 933.811L2131.78 929.165C2132.19 927.5 2132.47 926.251 2132.61 925.418 2132.75 924.586 2132.82 923.937 2132.82 923.471 2132.82 922.2 2132.62 921.3 2132.21 920.772 2131.8 920.244 2131.12 919.98 2130.19 919.98 2129.46 919.98 2128.64 920.284 2127.75 920.893 2126.85 921.502 2125.91 922.428 2124.93 923.673 2123.94 924.917 2123.16 926.107 2122.58 927.244 2122 928.381 2121.54 929.737 2121.2 931.313L2118.75 942.941 2114.11 942.941 2121.01 912.246C2121.44 910.33 2121.65 909.005 2121.65 908.271 2121.65 907.519 2121.42 906.991 2120.97 906.687 2120.51 906.382 2119.69 906.212 2118.51 906.176L2118.83 904.78Z" fill-rule="evenodd"/><text fill="#000000" fill-opacity="0" font-family="Arial,Arial_MSFontService,sans-serif" font-size="38.833" x="2114.11" y="938.517">ℎ</text><path d="M2143.39 927.51 2166.59 927.51 2166.59 934.717 2164.38 934.717C2164.11 933.702 2163.85 932.872 2163.59 932.227 2163.34 931.583 2163.04 931.075 2162.7 930.704 2162.37 930.333 2161.96 930.076 2161.49 929.932 2161.02 929.789 2160.44 929.704 2159.74 929.678L2157.08 929.678 2157.08 949.151C2157.09 949.802 2157.12 950.339 2157.18 950.762 2157.23 951.185 2157.35 951.534 2157.54 951.807 2157.73 952.081 2158.01 952.299 2158.39 952.462 2158.77 952.624 2159.29 952.777 2159.97 952.921L2159.97 954.171 2150.01 954.171 2150.01 952.921C2150.52 952.829 2150.95 952.732 2151.31 952.628 2151.67 952.523 2151.96 952.351 2152.2 952.11 2152.43 951.869 2152.6 951.518 2152.71 951.055 2152.82 950.593 2152.88 949.958 2152.88 949.151L2152.88 929.678 2150.24 929.678C2149.87 929.678 2149.54 929.695 2149.26 929.727 2148.98 929.76 2148.73 929.815 2148.5 929.893 2148.28 929.971 2148.08 930.072 2147.9 930.196 2147.72 930.32 2147.54 930.466 2147.37 930.635 2147.05 930.948 2146.74 931.413 2146.45 932.032 2146.17 932.65 2145.89 933.546 2145.63 934.717L2143.39 934.717Z" fill-rule="evenodd"/><text fill="#000000" fill-opacity="0" font-family="Arial,Arial_MSFontService,sans-serif" font-size="26.6602" x="2143.39" y="950.838">T</text><path d="M2179.55 942.549 2180.62 942.549C2180.6 942.774 2180.57 943.322 2180.55 944.192 2180.53 945.062 2180.52 945.938 2180.52 946.819L2180.52 958.162C2180.52 958.839 2180.58 959.323 2180.7 959.613 2180.82 959.903 2181 960.131 2181.26 960.297 2181.52 960.464 2181.96 960.593 2182.58 960.684 2183.21 960.775 2184.19 960.832 2185.55 960.853L2185.55 962.352 2172.19 962.352 2172.19 960.853C2173.5 960.821 2174.46 960.762 2175.07 960.676 2175.67 960.59 2176.12 960.464 2176.4 960.297 2176.69 960.131 2176.9 959.903 2177.03 959.613 2177.17 959.323 2177.23 958.839 2177.23 958.162L2177.23 947.479C2177.23 947.093 2177.16 946.813 2177 946.641 2176.84 946.469 2176.62 946.384 2176.33 946.384 2176.01 946.384 2175.5 946.558 2174.82 946.907 2174.13 947.256 2173.25 947.769 2172.17 948.446L2171.32 946.819Z" fill-rule="evenodd"/><text fill="#000000" fill-opacity="0" font-family="Arial,Arial_MSFontService,sans-serif" font-size="19.8032" x="2171.32" y="959.876">1</text><path d="M2211.09 931.018 2244.17 931.018 2244.17 934.589 2211.09 934.589ZM2211.09 919.873 2244.17 919.873 2244.17 923.444 2211.09 923.444Z" fill-rule="evenodd"/><text fill="#000000" fill-opacity="0" font-family="Arial,Arial_MSFontService,sans-serif" font-size="14.7168" x="2211.09" y="932.75">=</text><path d="M2265.71 733.581 2281.88 733.581 2281.88 735.998 2271.35 735.998 2271.35 790.117 2271.35 800.102 2271.35 841.886 2271.35 857.256 2271.35 893.655 2271.35 909.025 2271.35 945.424 2271.35 960.794 2271.35 997.192 2271.35 1012.56 2271.35 1054.37 2271.35 1064.33 2271.35 1118.47 2281.88 1118.47 2281.88 1120.89 2265.71 1120.89 2265.71 1064.33 2265.71 1064.33 2265.71 1012.56 2265.71 997.192 2265.71 960.794 2265.71 945.424 2265.71 909.025 2265.71 893.655 2265.71 857.256 2265.71 841.886 2265.71 790.117 2265.71 790.117ZM2314.23 733.581 2330.39 733.581 2330.39 790.117 2330.39 800.102 2330.39 841.886 2330.39 857.256 2330.39 893.655 2330.39 909.025 2330.39 945.424 2330.39 960.794 2330.39 997.192 2330.39 1012.56 2330.39 1054.37 2330.39 1064.33 2330.39 1120.89 2314.23 1120.89 2314.23 1118.47 2324.75 1118.47 2324.75 1064.33 2324.75 1054.37 2324.75 1012.56 2324.75 997.192 2324.75 960.794 2324.75 945.424 2324.75 909.025 2324.75 893.655 2324.75 857.256 2324.75 841.886 2324.75 800.102 2324.75 790.117 2324.75 735.998 2314.23 735.998Z" fill-rule="evenodd"/><path d="M2300.22 724.973 2301.7 724.973C2301.59 726.691 2301.53 729.073 2301.53 732.116L2301.53 755.051C2301.53 756.089 2301.59 756.873 2301.71 757.401 2301.82 757.929 2302.03 758.359 2302.33 758.69 2302.62 759.021 2303.05 759.281 2303.6 759.469 2304.16 759.657 2304.85 759.8 2305.7 759.898 2306.54 759.997 2307.65 760.064 2309.03 760.1L2309.03 762.06 2289.18 762.06 2289.18 760.1C2291.17 760.01 2292.59 759.889 2293.44 759.737 2294.29 759.585 2294.94 759.357 2295.38 759.052 2295.83 758.748 2296.16 758.318 2296.36 757.763 2296.57 757.208 2296.67 756.304 2296.67 755.051L2296.67 733.271C2296.67 732.555 2296.55 732.031 2296.3 731.7 2296.05 731.369 2295.68 731.203 2295.2 731.203 2294.62 731.203 2293.81 731.499 2292.75 732.089 2291.7 732.68 2290.39 733.495 2288.83 734.533L2287.65 732.465Z" fill-rule="evenodd"/><text fill="#000000" fill-opacity="0" font-family="Arial,Arial_MSFontService,sans-serif" font-size="37.0874" x="2287.65" y="757.424">1</text><path d="M2298.31 789.46C2301.64 789.46 2304.16 790.19 2305.86 791.649 2307.56 793.108 2308.41 795.225 2308.41 798 2308.41 798.949 2308.31 799.822 2308.13 800.619 2307.94 801.415 2307.64 802.203 2307.24 802.982 2306.84 803.761 2306.3 804.598 2305.62 805.493 2304.94 806.388 2304.18 807.297 2303.36 808.219 2302.54 809.141 2301.11 810.676 2299.09 812.825 2295.69 816.423 2293.19 819.565 2291.6 822.251L2301.72 822.251C2302.6 822.251 2303.31 822.197 2303.84 822.09 2304.38 821.982 2304.81 821.803 2305.13 821.553 2305.45 821.302 2305.71 820.975 2305.9 820.572 2306.09 820.169 2306.32 819.547 2306.61 818.706L2308.89 818.706 2308.44 826.548 2286.33 826.548 2286.33 825.259C2287.1 823.379 2288.14 821.454 2289.45 819.485 2290.76 817.515 2292.61 815.197 2295.01 812.529 2297.08 810.237 2298.58 808.501 2299.49 807.319 2300.5 806.03 2301.24 804.916 2301.74 803.976 2302.23 803.036 2302.58 802.149 2302.8 801.317 2303.01 800.484 2303.12 799.647 2303.12 798.806 2303.12 797.463 2302.9 796.277 2302.47 795.248 2302.04 794.218 2301.39 793.408 2300.5 792.817 2299.61 792.226 2298.5 791.931 2297.16 791.931 2293.81 791.931 2291.55 793.793 2290.39 797.517L2287.14 797.517 2287.14 792.361C2289.31 791.34 2291.33 790.602 2293.22 790.145 2295.11 789.689 2296.81 789.46 2298.31 789.46Z" fill-rule="evenodd"/><text fill="#000000" fill-opacity="0" font-family="Arial,Arial_MSFontService,sans-serif" font-size="37.0874" x="2286.33" y="821.912">2</text><path d="M2298.2 844.094C2300.23 844.094 2302 844.407 2303.52 845.034 2305.04 845.66 2306.21 846.56 2307.01 847.732 2307.82 848.905 2308.22 850.306 2308.22 851.935 2308.22 853.457 2307.92 854.795 2307.31 855.95 2306.7 857.105 2305.84 858.112 2304.74 858.971 2303.64 859.831 2302.21 860.672 2300.46 861.496L2300.46 861.738C2301.55 861.935 2302.6 862.27 2303.62 862.745 2304.63 863.219 2305.53 863.832 2306.31 864.584 2307.1 865.336 2307.73 866.236 2308.21 867.283 2308.68 868.331 2308.92 869.526 2308.92 870.868 2308.92 872.945 2308.47 874.789 2307.56 876.401 2306.66 878.012 2305.28 879.283 2303.41 880.214 2301.55 881.145 2299.29 881.611 2296.62 881.611 2295.08 881.611 2293.42 881.436 2291.64 881.087 2289.86 880.738 2288.22 880.277 2286.74 879.704L2286.74 874.011 2289.96 874.011C2290.59 875.873 2291.41 877.224 2292.44 878.066 2293.47 878.907 2294.87 879.328 2296.65 879.328 2298.97 879.328 2300.73 878.692 2301.92 877.421 2303.11 876.15 2303.71 874.27 2303.71 871.782 2303.71 869.168 2302.92 867.171 2301.35 865.793 2299.77 864.414 2297.46 863.725 2294.42 863.725L2292 863.725 2292 861.362C2294.42 861.218 2296.45 860.753 2298.11 859.965 2299.77 859.177 2301 858.166 2301.8 856.93 2302.61 855.695 2303.01 854.308 2303.01 852.768 2303.01 850.781 2302.48 849.25 2301.43 848.176 2300.37 847.101 2298.83 846.564 2296.81 846.564 2295.12 846.564 2293.75 847.021 2292.7 847.934 2291.64 848.847 2290.86 850.243 2290.36 852.123L2287.14 852.123 2287.14 847.021C2289.22 846.036 2291.16 845.302 2292.97 844.819 2294.78 844.335 2296.52 844.094 2298.2 844.094Z" fill-rule="evenodd"/><text fill="#000000" fill-opacity="0" font-family="Arial,Arial_MSFontService,sans-serif" font-size="37.5171" x="2286.74" y="876.921">3</text><path d="M2299.87 914.892 2289.37 931.569 2289.37 931.945 2299.87 931.945 2299.87 925.258C2299.87 923.575 2299.9 921.691 2299.95 919.605 2300 917.519 2300.07 915.948 2300.14 914.892ZM2300.65 908.823 2304.49 908.823 2304.49 931.945 2305.05 931.945C2306.09 931.945 2306.83 931.869 2307.28 931.717 2307.73 931.565 2308.1 931.296 2308.4 930.911 2308.69 930.526 2308.96 929.895 2309.21 929.018L2311.26 929.018 2310.93 934.55 2304.49 934.55 2304.49 938.955C2304.49 940.154 2304.53 941.031 2304.61 941.586 2304.69 942.141 2304.82 942.58 2305.01 942.902 2305.2 943.225 2305.48 943.493 2305.84 943.708 2306.21 943.923 2306.81 944.138 2307.63 944.353L2307.63 945.668 2296.73 945.668 2296.73 944.353C2297.84 944.066 2298.58 943.748 2298.96 943.399 2299.33 943.05 2299.58 942.553 2299.69 941.909 2299.81 941.264 2299.87 940.279 2299.87 938.955L2299.87 934.55 2284.94 934.55 2284.94 932.536Z" fill-rule="evenodd"/><text fill="#000000" fill-opacity="0" font-family="Arial,Arial_MSFontService,sans-serif" font-size="36.8457" x="2284.94" y="941.063">4</text><path d="M2299.87 969.296 2289.37 985.974 2289.37 986.349 2299.87 986.349 2299.87 979.662C2299.87 977.98 2299.9 976.095 2299.95 974.009 2300 971.924 2300.07 970.353 2300.14 969.296ZM2300.65 963.227 2304.49 963.227 2304.49 986.349 2305.05 986.349C2306.09 986.349 2306.83 986.273 2307.28 986.121 2307.73 985.969 2308.1 985.701 2308.4 985.316 2308.69 984.931 2308.96 984.299 2309.21 983.422L2311.26 983.422 2310.93 988.954 2304.49 988.954 2304.49 993.359C2304.49 994.558 2304.53 995.436 2304.61 995.991 2304.69 996.546 2304.82 996.984 2305.01 997.307 2305.2 997.629 2305.48 997.897 2305.84 998.112 2306.21 998.327 2306.81 998.542 2307.63 998.757L2307.63 1000.07 2296.73 1000.07 2296.73 998.757C2297.84 998.47 2298.58 998.152 2298.96 997.803 2299.33 997.454 2299.58 996.957 2299.69 996.313 2299.81 995.668 2299.87 994.684 2299.87 993.359L2299.87 988.954 2284.94 988.954 2284.94 986.94Z" fill-rule="evenodd"/><text fill="#000000" fill-opacity="0" font-family="Arial,Arial_MSFontService,sans-serif" font-size="36.8457" x="2284.94" y="995.467">4</text><path d="M2298.31 1027.47C2301.64 1027.47 2304.16 1028.2 2305.86 1029.66 2307.56 1031.12 2308.41 1033.24 2308.41 1036.01 2308.41 1036.96 2308.31 1037.83 2308.13 1038.63 2307.94 1039.43 2307.64 1040.22 2307.24 1040.99 2306.84 1041.77 2306.3 1042.61 2305.62 1043.51 2304.94 1044.4 2304.18 1045.31 2303.36 1046.23 2302.54 1047.15 2301.11 1048.69 2299.09 1050.84 2295.69 1054.44 2293.19 1057.58 2291.6 1060.26L2301.72 1060.26C2302.6 1060.26 2303.31 1060.21 2303.84 1060.1 2304.38 1059.99 2304.81 1059.82 2305.13 1059.57 2305.45 1059.31 2305.71 1058.99 2305.9 1058.58 2306.09 1058.18 2306.32 1057.56 2306.61 1056.72L2308.89 1056.72 2308.44 1064.56 2286.33 1064.56 2286.33 1063.27C2287.1 1061.39 2288.14 1059.47 2289.45 1057.5 2290.76 1055.53 2292.61 1053.21 2295.01 1050.54 2297.08 1048.25 2298.58 1046.51 2299.49 1045.33 2300.5 1044.04 2301.24 1042.93 2301.74 1041.99 2302.23 1041.05 2302.58 1040.16 2302.8 1039.33 2303.01 1038.5 2303.12 1037.66 2303.12 1036.82 2303.12 1035.48 2302.9 1034.29 2302.47 1033.26 2302.04 1032.23 2301.39 1031.42 2300.5 1030.83 2299.61 1030.24 2298.5 1029.94 2297.16 1029.94 2293.81 1029.94 2291.55 1031.81 2290.39 1035.53L2287.14 1035.53 2287.14 1030.37C2289.31 1029.35 2291.33 1028.61 2293.22 1028.16 2295.11 1027.7 2296.81 1027.47 2298.31 1027.47Z" fill-rule="evenodd"/><text fill="#000000" fill-opacity="0" font-family="Arial,Arial_MSFontService,sans-serif" font-size="37.0874" x="2286.33" y="1059.92">2</text><path d="M2298.2 1091.96C2300.23 1091.96 2302 1092.27 2303.52 1092.9 2305.04 1093.53 2306.21 1094.43 2307.01 1095.6 2307.82 1096.77 2308.22 1098.17 2308.22 1099.8 2308.22 1101.32 2307.92 1102.66 2307.31 1103.82 2306.7 1104.97 2305.84 1105.98 2304.74 1106.84 2303.64 1107.7 2302.21 1108.54 2300.46 1109.36L2300.46 1109.6C2301.55 1109.8 2302.6 1110.14 2303.62 1110.61 2304.63 1111.09 2305.53 1111.7 2306.31 1112.45 2307.1 1113.2 2307.73 1114.1 2308.21 1115.15 2308.68 1116.2 2308.92 1117.39 2308.92 1118.74 2308.92 1120.81 2308.47 1122.66 2307.56 1124.27 2306.66 1125.88 2305.28 1127.15 2303.41 1128.08 2301.55 1129.01 2299.29 1129.48 2296.62 1129.48 2295.08 1129.48 2293.42 1129.3 2291.64 1128.95 2289.86 1128.6 2288.22 1128.14 2286.74 1127.57L2286.74 1121.88 2289.96 1121.88C2290.59 1123.74 2291.41 1125.09 2292.44 1125.93 2293.47 1126.77 2294.87 1127.19 2296.65 1127.19 2298.97 1127.19 2300.73 1126.56 2301.92 1125.29 2303.11 1124.02 2303.71 1122.14 2303.71 1119.65 2303.71 1117.03 2302.92 1115.04 2301.35 1113.66 2299.77 1112.28 2297.46 1111.59 2294.42 1111.59L2292 1111.59 2292 1109.23C2294.42 1109.09 2296.45 1108.62 2298.11 1107.83 2299.77 1107.04 2301 1106.03 2301.8 1104.8 2302.61 1103.56 2303.01 1102.17 2303.01 1100.63 2303.01 1098.65 2302.48 1097.12 2301.43 1096.04 2300.37 1094.97 2298.83 1094.43 2296.81 1094.43 2295.12 1094.43 2293.75 1094.89 2292.7 1095.8 2291.64 1096.71 2290.86 1098.11 2290.36 1099.99L2287.14 1099.99 2287.14 1094.89C2289.22 1093.9 2291.16 1093.17 2292.97 1092.69 2294.78 1092.2 2296.52 1091.96 2298.2 1091.96Z" fill-rule="evenodd"/><text fill="#000000" fill-opacity="0" font-family="Arial,Arial_MSFontService,sans-serif" font-size="37.5171" x="2286.74" y="1124.79">3</text><path d="M2654.74 733.26 2670.9 733.26 2670.9 735.677 2660.38 735.677 2660.38 789.888 2660.38 799.781 2660.38 841.772 2660.38 857.027 2660.38 893.655 2660.38 908.91 2660.38 945.538 2660.38 960.794 2660.38 997.422 2660.38 1012.68 2660.38 1054.69 2660.38 1064.56 2660.38 1118.79 2670.9 1118.79 2670.9 1121.21 2654.74 1121.21 2654.74 1064.56 2654.74 1012.68 2654.74 1012.68 2654.74 960.794 2654.74 908.91 2654.74 857.027 2654.74 857.027 2654.74 799.781 2654.74 789.888ZM2703.25 733.26 2719.42 733.26 2719.42 789.888 2719.42 799.781 2719.42 841.772 2719.42 857.027 2719.42 893.655 2719.42 908.91 2719.42 945.538 2719.42 960.794 2719.42 997.422 2719.42 1012.68 2719.42 1054.69 2719.42 1064.56 2719.42 1121.21 2703.25 1121.21 2703.25 1118.79 2713.78 1118.79 2713.78 1064.56 2713.78 1054.69 2713.78 1012.68 2713.78 997.422 2713.78 960.794 2713.78 945.538 2713.78 908.91 2713.78 893.655 2713.78 857.027 2713.78 841.772 2713.78 799.781 2713.78 789.888 2713.78 735.677 2703.25 735.677Z" fill-rule="evenodd"/><path d="M2689.24 724.629 2690.72 724.629C2690.61 726.348 2690.56 728.729 2690.56 731.773L2690.56 754.707C2690.56 755.745 2690.61 756.529 2690.73 757.057 2690.85 757.585 2691.05 758.015 2691.35 758.346 2691.64 758.677 2692.07 758.937 2692.62 759.125 2693.18 759.313 2693.88 759.456 2694.72 759.555 2695.56 759.653 2696.67 759.72 2698.05 759.756L2698.05 761.716 2678.2 761.716 2678.2 759.756C2680.19 759.666 2681.61 759.546 2682.46 759.393 2683.31 759.241 2683.96 759.013 2684.41 758.709 2684.85 758.404 2685.18 757.974 2685.39 757.419 2685.59 756.865 2685.69 755.96 2685.69 754.707L2685.69 732.927C2685.69 732.211 2685.57 731.688 2685.32 731.356 2685.07 731.025 2684.7 730.859 2684.22 730.859 2683.64 730.859 2682.83 731.155 2681.77 731.746 2680.72 732.336 2679.41 733.151 2677.85 734.19L2676.67 732.122Z" fill-rule="evenodd"/><text fill="#000000" fill-opacity="0" font-family="Arial,Arial_MSFontService,sans-serif" font-size="37.0874" x="2676.67" y="757.08">1</text><path d="M2687.33 789.117C2690.66 789.117 2693.18 789.846 2694.88 791.305 2696.58 792.764 2697.43 794.881 2697.43 797.657 2697.43 798.605 2697.34 799.478 2697.15 800.275 2696.96 801.072 2696.67 801.859 2696.26 802.638 2695.86 803.417 2695.32 804.254 2694.64 805.149 2693.96 806.044 2693.21 806.953 2692.38 807.875 2691.56 808.797 2690.14 810.332 2688.11 812.481 2684.71 816.079 2682.21 819.221 2680.62 821.907L2690.74 821.907C2691.62 821.907 2692.33 821.853 2692.87 821.746 2693.4 821.638 2693.83 821.459 2694.15 821.209 2694.48 820.958 2694.73 820.631 2694.92 820.229 2695.11 819.826 2695.34 819.204 2695.63 818.362L2697.91 818.362 2697.46 826.204 2675.36 826.204 2675.36 824.915C2676.13 823.035 2677.16 821.11 2678.47 819.141 2679.78 817.172 2681.63 814.853 2684.03 812.185 2686.11 809.894 2687.6 808.157 2688.51 806.975 2689.52 805.686 2690.26 804.572 2690.76 803.632 2691.25 802.692 2691.6 801.806 2691.82 800.973 2692.03 800.141 2692.14 799.304 2692.14 798.462 2692.14 797.119 2691.93 795.933 2691.5 794.904 2691.07 793.874 2690.41 793.064 2689.52 792.473 2688.64 791.883 2687.52 791.587 2686.18 791.587 2682.83 791.587 2680.57 793.449 2679.41 797.173L2676.16 797.173 2676.16 792.017C2678.33 790.996 2680.35 790.258 2682.24 789.801 2684.13 789.345 2685.83 789.117 2687.33 789.117Z" fill-rule="evenodd"/><text fill="#000000" fill-opacity="0" font-family="Arial,Arial_MSFontService,sans-serif" font-size="37.0874" x="2675.36" y="821.568">2</text><path d="M2687.33 843.75C2690.66 843.75 2693.18 844.479 2694.88 845.939 2696.58 847.398 2697.43 849.515 2697.43 852.29 2697.43 853.239 2697.34 854.112 2697.15 854.908 2696.96 855.705 2696.67 856.493 2696.26 857.272 2695.86 858.05 2695.32 858.887 2694.64 859.783 2693.96 860.678 2693.21 861.586 2692.38 862.508 2691.56 863.43 2690.14 864.966 2688.11 867.114 2684.71 870.713 2682.21 873.855 2680.62 876.54L2690.74 876.54C2691.62 876.54 2692.33 876.487 2692.87 876.379 2693.4 876.272 2693.83 876.093 2694.15 875.842 2694.48 875.591 2694.73 875.265 2694.92 874.862 2695.11 874.459 2695.34 873.837 2695.63 872.995L2697.91 872.995 2697.46 880.837 2675.36 880.837 2675.36 879.548C2676.13 877.668 2677.16 875.744 2678.47 873.774 2679.78 871.805 2681.63 869.486 2684.03 866.819 2686.11 864.527 2687.6 862.79 2688.51 861.609 2689.52 860.32 2690.26 859.205 2690.76 858.265 2691.25 857.325 2691.6 856.439 2691.82 855.607 2692.03 854.774 2692.14 853.937 2692.14 853.096 2692.14 851.753 2691.93 850.567 2691.5 849.537 2691.07 848.508 2690.41 847.698 2689.52 847.107 2688.64 846.516 2687.52 846.221 2686.18 846.221 2682.83 846.221 2680.57 848.083 2679.41 851.806L2676.16 851.806 2676.16 846.65C2678.33 845.63 2680.35 844.891 2682.24 844.435 2684.13 843.978 2685.83 843.75 2687.33 843.75Z" fill-rule="evenodd"/><text fill="#000000" fill-opacity="0" font-family="Arial,Arial_MSFontService,sans-serif" font-size="37.0874" x="2675.36" y="876.201">2</text><path d="M2687.23 908.237C2689.25 908.237 2691.02 908.551 2692.54 909.177 2694.06 909.804 2695.23 910.704 2696.03 911.876 2696.84 913.049 2697.24 914.45 2697.24 916.079 2697.24 917.601 2696.94 918.939 2696.33 920.094 2695.72 921.249 2694.87 922.256 2693.76 923.115 2692.66 923.975 2691.24 924.816 2689.48 925.64L2689.48 925.881C2690.57 926.078 2691.63 926.414 2692.64 926.888 2693.65 927.363 2694.55 927.976 2695.34 928.728 2696.12 929.48 2696.75 930.38 2697.23 931.427 2697.7 932.474 2697.94 933.669 2697.94 935.012 2697.94 937.089 2697.49 938.933 2696.58 940.544 2695.68 942.156 2694.3 943.427 2692.44 944.358 2690.57 945.289 2688.31 945.754 2685.64 945.754 2684.1 945.754 2682.44 945.58 2680.66 945.231 2678.88 944.882 2677.24 944.421 2675.76 943.848L2675.76 938.154 2678.98 938.154C2679.61 940.016 2680.44 941.368 2681.47 942.209 2682.49 943.051 2683.9 943.472 2685.67 943.472 2688 943.472 2689.75 942.836 2690.95 941.565 2692.14 940.294 2692.73 938.414 2692.73 935.925 2692.73 933.311 2691.94 931.315 2690.37 929.937 2688.79 928.558 2686.48 927.869 2683.44 927.869L2681.02 927.869 2681.02 925.505C2683.44 925.362 2685.48 924.897 2687.13 924.109 2688.79 923.321 2690.02 922.31 2690.82 921.074 2691.63 919.839 2692.03 918.451 2692.03 916.912 2692.03 914.924 2691.5 913.394 2690.45 912.319 2689.39 911.245 2687.85 910.708 2685.83 910.708 2684.15 910.708 2682.78 911.165 2681.72 912.078 2680.66 912.991 2679.89 914.387 2679.38 916.267L2676.16 916.267 2676.16 911.165C2678.24 910.18 2680.18 909.446 2681.99 908.962 2683.8 908.479 2685.54 908.237 2687.23 908.237Z" fill-rule="evenodd"/><text fill="#000000" fill-opacity="0" font-family="Arial,Arial_MSFontService,sans-serif" font-size="37.5171" x="2675.76" y="941.065">3</text><path d="M2687.23 963.306C2689.25 963.306 2691.02 963.619 2692.54 964.246 2694.06 964.873 2695.23 965.772 2696.03 966.945 2696.84 968.118 2697.24 969.519 2697.24 971.148 2697.24 972.67 2696.94 974.008 2696.33 975.163 2695.72 976.318 2694.87 977.325 2693.76 978.184 2692.66 979.043 2691.24 979.885 2689.48 980.708L2689.48 980.95C2690.57 981.147 2691.63 981.483 2692.64 981.957 2693.65 982.432 2694.55 983.045 2695.34 983.797 2696.12 984.549 2696.75 985.448 2697.23 986.496 2697.7 987.543 2697.94 988.738 2697.94 990.081 2697.94 992.158 2697.49 994.002 2696.58 995.613 2695.68 997.225 2694.3 998.496 2692.44 999.427 2690.57 1000.36 2688.31 1000.82 2685.64 1000.82 2684.1 1000.82 2682.44 1000.65 2680.66 1000.3 2678.88 999.95 2677.24 999.489 2675.76 998.916L2675.76 993.223 2678.98 993.223C2679.61 995.085 2680.44 996.437 2681.47 997.278 2682.49 998.12 2683.9 998.54 2685.67 998.54 2688 998.54 2689.75 997.905 2690.95 996.634 2692.14 995.363 2692.73 993.483 2692.73 990.994 2692.73 988.38 2691.94 986.384 2690.37 985.005 2688.79 983.627 2686.48 982.937 2683.44 982.937L2681.02 982.937 2681.02 980.574C2683.44 980.431 2685.48 979.965 2687.13 979.178 2688.79 978.39 2690.02 977.378 2690.82 976.143 2691.63 974.908 2692.03 973.52 2692.03 971.98 2692.03 969.993 2691.5 968.462 2690.45 967.388 2689.39 966.314 2687.85 965.777 2685.83 965.777 2684.15 965.777 2682.78 966.233 2681.72 967.146 2680.66 968.06 2679.89 969.456 2679.38 971.336L2676.16 971.336 2676.16 966.233C2678.24 965.249 2680.18 964.515 2681.99 964.031 2683.8 963.548 2685.54 963.306 2687.23 963.306Z" fill-rule="evenodd"/><text fill="#000000" fill-opacity="0" font-family="Arial,Arial_MSFontService,sans-serif" font-size="37.5171" x="2675.76" y="996.134">3</text><path d="M2687.33 1027.79C2690.66 1027.79 2693.18 1028.52 2694.88 1029.98 2696.58 1031.44 2697.43 1033.56 2697.43 1036.33 2697.43 1037.28 2697.34 1038.16 2697.15 1038.95 2696.96 1039.75 2696.67 1040.54 2696.26 1041.32 2695.86 1042.09 2695.32 1042.93 2694.64 1043.83 2693.96 1044.72 2693.21 1045.63 2692.38 1046.55 2691.56 1047.47 2690.14 1049.01 2688.11 1051.16 2684.71 1054.76 2682.21 1057.9 2680.62 1060.58L2690.74 1060.58C2691.62 1060.58 2692.33 1060.53 2692.87 1060.42 2693.4 1060.32 2693.83 1060.14 2694.15 1059.89 2694.48 1059.64 2694.73 1059.31 2694.92 1058.91 2695.11 1058.5 2695.34 1057.88 2695.63 1057.04L2697.91 1057.04 2697.46 1064.88 2675.36 1064.88 2675.36 1063.59C2676.13 1061.71 2677.16 1059.79 2678.47 1057.82 2679.78 1055.85 2681.63 1053.53 2684.03 1050.86 2686.11 1048.57 2687.6 1046.83 2688.51 1045.65 2689.52 1044.36 2690.26 1043.25 2690.76 1042.31 2691.25 1041.37 2691.6 1040.48 2691.82 1039.65 2692.03 1038.82 2692.14 1037.98 2692.14 1037.14 2692.14 1035.8 2691.93 1034.61 2691.5 1033.58 2691.07 1032.55 2690.41 1031.74 2689.52 1031.15 2688.64 1030.56 2687.52 1030.26 2686.18 1030.26 2682.83 1030.26 2680.57 1032.13 2679.41 1035.85L2676.16 1035.85 2676.16 1030.69C2678.33 1029.67 2680.35 1028.93 2682.24 1028.48 2684.13 1028.02 2685.83 1027.79 2687.33 1027.79Z" fill-rule="evenodd"/><text fill="#000000" fill-opacity="0" font-family="Arial,Arial_MSFontService,sans-serif" font-size="37.0874" x="2675.36" y="1060.25">2</text><path d="M2687.12 1094.56C2685.88 1094.56 2684.85 1094.93 2684.02 1095.66 2683.18 1096.4 2682.51 1097.46 2682 1098.83 2681.49 1100.21 2681.13 1101.89 2680.91 1103.87 2680.7 1105.85 2680.59 1108.08 2680.59 1110.57 2680.59 1116.41 2681.13 1120.69 2682.22 1123.42 2683.3 1126.15 2684.98 1127.52 2687.25 1127.52 2689.42 1127.52 2691.03 1126.23 2692.07 1123.66 2693.12 1121.09 2693.64 1117.11 2693.64 1111.72 2693.64 1107.61 2693.38 1104.27 2692.84 1101.72 2692.3 1099.17 2691.55 1097.34 2690.6 1096.23 2689.64 1095.12 2688.48 1094.56 2687.12 1094.56ZM2687.25 1092.28C2691.17 1092.28 2694.09 1093.79 2696.01 1096.82 2697.92 1099.85 2698.88 1104.42 2698.88 1110.54 2698.88 1116.88 2697.86 1121.67 2695.81 1124.92 2693.76 1128.17 2690.76 1129.8 2686.82 1129.8 2682.96 1129.8 2680.08 1128.28 2678.19 1125.23 2676.3 1122.19 2675.36 1117.57 2675.36 1111.38 2675.36 1108.08 2675.65 1105.23 2676.23 1102.84 2676.81 1100.44 2677.62 1098.45 2678.67 1096.89 2679.72 1095.32 2680.98 1094.16 2682.45 1093.41 2683.91 1092.66 2685.52 1092.28 2687.25 1092.28Z" fill-rule="evenodd"/><text fill="#000000" fill-opacity="0" font-family="Arial,Arial_MSFontService,sans-serif" font-size="37.5171" x="2675.36" y="1125.11">0</text><path d="M2738.11 931.018 2771.2 931.018 2771.2 934.589 2738.11 934.589ZM2738.11 919.873 2771.2 919.873 2771.2 923.444 2738.11 923.444Z" fill-rule="evenodd"/><text fill="#000000" fill-opacity="0" font-family="Arial,Arial_MSFontService,sans-serif" font-size="14.7168" x="2738.11" y="932.75">=</text><path d="M2804.64 904.538 2806.19 904.538 2801.58 923.149 2801.9 923.256C2803.6 921 2805.21 919.367 2806.72 918.355 2808.23 917.344 2809.76 916.838 2811.3 916.838 2812.96 916.838 2814.24 917.317 2815.14 918.275 2816.03 919.232 2816.48 920.562 2816.48 922.263 2816.48 923.391 2816.22 924.993 2815.7 927.07L2813.96 934.106C2813.47 936.057 2813.23 937.436 2813.23 938.242 2813.23 938.958 2813.35 939.477 2813.58 939.799 2813.81 940.122 2814.18 940.283 2814.68 940.283 2815.22 940.283 2815.79 940.063 2816.4 939.625 2817.01 939.186 2817.87 938.349 2818.98 937.114L2820.51 938.618C2818.79 940.426 2817.38 941.67 2816.28 942.351 2815.18 943.031 2813.94 943.371 2812.56 943.371 2811.4 943.371 2810.47 942.959 2809.78 942.136 2809.09 941.312 2808.75 940.247 2808.75 938.94 2808.75 937.776 2809.04 936.066 2809.63 933.811L2810.79 929.165C2811.2 927.5 2811.48 926.251 2811.62 925.418 2811.76 924.586 2811.83 923.937 2811.83 923.471 2811.83 922.2 2811.63 921.3 2811.22 920.772 2810.8 920.244 2810.13 919.98 2809.2 919.98 2808.47 919.98 2807.65 920.284 2806.76 920.893 2805.86 921.502 2804.92 922.428 2803.94 923.673 2802.95 924.917 2802.17 926.107 2801.59 927.244 2801.01 928.381 2800.55 929.737 2800.21 931.313L2797.76 942.941 2793.12 942.941 2800.02 912.246C2800.45 910.33 2800.66 909.005 2800.66 908.271 2800.66 907.519 2800.43 906.991 2799.98 906.687 2799.52 906.382 2798.7 906.212 2797.52 906.176L2797.84 904.78Z" fill-rule="evenodd"/><text fill="#000000" fill-opacity="0" font-family="Arial,Arial_MSFontService,sans-serif" font-size="38.833" x="2793.12" y="938.517">ℎ</text><path d="M2822.4 927.51 2845.6 927.51 2845.6 934.717 2843.39 934.717C2843.12 933.702 2842.86 932.872 2842.6 932.227 2842.35 931.583 2842.05 931.075 2841.71 930.704 2841.37 930.333 2840.97 930.076 2840.5 929.932 2840.03 929.789 2839.45 929.704 2838.74 929.678L2836.09 929.678 2836.09 949.151C2836.1 949.802 2836.13 950.339 2836.19 950.762 2836.24 951.185 2836.36 951.534 2836.55 951.807 2836.74 952.081 2837.02 952.299 2837.4 952.462 2837.77 952.624 2838.3 952.777 2838.98 952.921L2838.98 954.171 2829.02 954.171 2829.02 952.921C2829.53 952.829 2829.96 952.732 2830.32 952.628 2830.67 952.523 2830.97 952.351 2831.21 952.11 2831.44 951.869 2831.61 951.518 2831.72 951.055 2831.83 950.593 2831.89 949.958 2831.89 949.151L2831.89 929.678 2829.25 929.678C2828.87 929.678 2828.55 929.695 2828.27 929.727 2827.99 929.76 2827.74 929.815 2827.51 929.893 2827.29 929.971 2827.09 930.072 2826.91 930.196 2826.73 930.32 2826.55 930.466 2826.38 930.635 2826.06 930.948 2825.75 931.413 2825.46 932.032 2825.18 932.65 2824.9 933.546 2824.64 934.717L2822.4 934.717Z" fill-rule="evenodd"/><text fill="#000000" fill-opacity="0" font-family="Arial,Arial_MSFontService,sans-serif" font-size="26.6602" x="2822.4" y="950.838">T</text><path d="M2857.18 942.404C2858.41 942.404 2859.44 942.538 2860.25 942.806 2861.06 943.075 2861.7 943.424 2862.19 943.854 2862.67 944.283 2863.01 944.788 2863.2 945.368 2863.4 945.948 2863.49 946.545 2863.49 947.157 2863.49 947.93 2863.34 948.647 2863.03 949.308 2862.71 949.969 2862.2 950.688 2861.5 951.467 2860.79 952.246 2859.52 953.463 2857.69 955.117 2855.75 956.879 2854.34 958.404 2853.45 959.693L2859.27 959.693C2859.82 959.693 2860.24 959.666 2860.53 959.613 2860.82 959.559 2861.05 959.476 2861.22 959.363 2861.39 959.25 2861.54 959.108 2861.66 958.936 2861.77 958.764 2861.95 958.388 2862.19 957.808L2863.82 957.808 2863.48 962.352 2849.68 962.352 2849.68 961.466C2850.22 960.316 2850.95 959.186 2851.86 958.074 2852.77 956.962 2853.84 955.815 2855.05 954.634 2856.51 953.237 2857.55 952.184 2858.16 951.475 2858.77 950.766 2859.23 950.092 2859.52 949.453 2859.82 948.814 2859.96 948.172 2859.96 947.528 2859.96 946.464 2859.66 945.626 2859.06 945.014 2858.46 944.402 2857.6 944.095 2856.47 944.095 2855.49 944.095 2854.66 944.353 2853.98 944.869 2853.3 945.385 2852.78 946.147 2852.42 947.157L2850.18 947.157 2850.18 943.983C2851.58 943.413 2852.87 943.008 2854.04 942.766 2855.22 942.524 2856.26 942.404 2857.18 942.404Z" fill-rule="evenodd"/><text fill="#000000" fill-opacity="0" font-family="Arial,Arial_MSFontService,sans-serif" font-size="19.9482" x="2849.68" y="959.858">2</text><path d="M2629 1114C2626.56 1097.02 2646.66 1088.46 2683 1086 2714.94 1086.45 2735.08 1098.6 2737 1114 2731.5 1134.86 2711.88 1147.24 2683 1142 2651.44 1141.04 2630.56 1130.21 2629 1114Z" stroke="#FF0000" stroke-width="10.3125" stroke-linejoin="round" stroke-miterlimit="10" stroke-dasharray="10.3125 10.3125" fill="none" fill-rule="evenodd"/><path d="M2171.48 1429.37 2173.03 1429.37 2168.41 1447.98 2168.74 1448.09C2170.44 1445.84 2172.04 1444.2 2173.56 1443.19 2175.07 1442.18 2176.6 1441.67 2178.14 1441.67 2179.8 1441.67 2181.08 1442.15 2181.98 1443.11 2182.87 1444.07 2183.32 1445.4 2183.32 1447.1 2183.32 1448.23 2183.06 1449.83 2182.54 1451.9L2180.79 1458.94C2180.31 1460.89 2180.07 1462.27 2180.07 1463.08 2180.07 1463.79 2180.19 1464.31 2180.42 1464.63 2180.65 1464.96 2181.02 1465.12 2181.52 1465.12 2182.06 1465.12 2182.63 1464.9 2183.24 1464.46 2183.85 1464.02 2184.71 1463.18 2185.82 1461.95L2187.35 1463.45C2185.63 1465.26 2184.22 1466.5 2183.12 1467.19 2182.02 1467.87 2180.78 1468.21 2179.4 1468.21 2178.23 1468.21 2177.31 1467.79 2176.62 1466.97 2175.93 1466.15 2175.58 1465.08 2175.58 1463.77 2175.58 1462.61 2175.88 1460.9 2176.47 1458.65L2177.63 1454C2178.04 1452.33 2178.31 1451.09 2178.46 1450.25 2178.6 1449.42 2178.67 1448.77 2178.67 1448.31 2178.67 1447.03 2178.47 1446.14 2178.06 1445.61 2177.64 1445.08 2176.97 1444.81 2176.04 1444.81 2175.31 1444.81 2174.49 1445.12 2173.6 1445.73 2172.7 1446.34 2171.76 1447.26 2170.78 1448.51 2169.79 1449.75 2169.01 1450.94 2168.43 1452.08 2167.85 1453.22 2167.38 1454.57 2167.04 1456.15L2164.6 1467.78 2159.95 1467.78 2166.86 1437.08C2167.29 1435.16 2167.5 1433.84 2167.5 1433.11 2167.5 1432.35 2167.27 1431.83 2166.82 1431.52 2166.36 1431.22 2165.54 1431.05 2164.36 1431.01L2164.68 1429.61Z" fill-rule="evenodd"/><text fill="#000000" fill-opacity="0" font-family="Arial,Arial_MSFontService,sans-serif" font-size="38.833" x="2159.95" y="1463.35">ℎ</text><path d="M2189.24 1454.09 2212.44 1454.09 2212.44 1461.29 2210.23 1461.29C2209.96 1460.28 2209.69 1459.45 2209.44 1458.8 2209.19 1458.16 2208.89 1457.65 2208.55 1457.28 2208.21 1456.91 2207.81 1456.65 2207.34 1456.51 2206.87 1456.37 2206.29 1456.28 2205.58 1456.25L2202.93 1456.25 2202.93 1475.73C2202.94 1476.38 2202.97 1476.92 2203.02 1477.34 2203.08 1477.76 2203.2 1478.11 2203.39 1478.38 2203.57 1478.66 2203.86 1478.88 2204.24 1479.04 2204.61 1479.2 2205.14 1479.35 2205.82 1479.5L2205.82 1480.75 2195.86 1480.75 2195.86 1479.5C2196.36 1479.41 2196.8 1479.31 2197.16 1479.2 2197.51 1479.1 2197.81 1478.93 2198.04 1478.69 2198.28 1478.45 2198.45 1478.09 2198.56 1477.63 2198.67 1477.17 2198.73 1476.53 2198.73 1475.73L2198.73 1456.25 2196.09 1456.25C2195.71 1456.25 2195.38 1456.27 2195.1 1456.3 2194.82 1456.34 2194.57 1456.39 2194.35 1456.47 2194.13 1456.55 2193.93 1456.65 2193.75 1456.77 2193.56 1456.9 2193.39 1457.04 2193.22 1457.21 2192.89 1457.52 2192.59 1457.99 2192.3 1458.61 2192.02 1459.23 2191.74 1460.12 2191.48 1461.29L2189.24 1461.29Z" fill-rule="evenodd"/><text fill="#000000" fill-opacity="0" font-family="Arial,Arial_MSFontService,sans-serif" font-size="26.6602" x="2189.24" y="1477.41">T</text><path d="M2225.4 1469.12 2226.47 1469.12C2226.44 1469.35 2226.42 1469.9 2226.4 1470.77 2226.38 1471.64 2226.37 1472.51 2226.37 1473.39L2226.37 1484.74C2226.37 1485.42 2226.43 1485.9 2226.55 1486.19 2226.66 1486.48 2226.85 1486.71 2227.11 1486.87 2227.37 1487.04 2227.81 1487.17 2228.43 1487.26 2229.05 1487.35 2230.04 1487.41 2231.4 1487.43L2231.4 1488.93 2218.04 1488.93 2218.04 1487.43C2219.35 1487.4 2220.31 1487.34 2220.91 1487.25 2221.52 1487.17 2221.97 1487.04 2222.25 1486.87 2222.54 1486.71 2222.75 1486.48 2222.88 1486.19 2223.01 1485.9 2223.08 1485.42 2223.08 1484.74L2223.08 1474.06C2223.08 1473.67 2223 1473.39 2222.85 1473.22 2222.69 1473.05 2222.47 1472.96 2222.18 1472.96 2221.86 1472.96 2221.35 1473.13 2220.66 1473.48 2219.98 1473.83 2219.1 1474.35 2218.02 1475.02L2217.17 1473.39Z" fill-rule="evenodd"/><text fill="#000000" fill-opacity="0" font-family="Arial,Arial_MSFontService,sans-serif" font-size="19.8032" x="2217.17" y="1486.45">1</text><path d="M2195.45 1425.21 2200.49 1425.21 2200.49 1426.73 2193.98 1442.38 2191.7 1441.69Z" fill-rule="evenodd"/><text fill="#000000" fill-opacity="0" font-family="Arial,Arial_MSFontService,sans-serif" font-size="17.168" x="2191.7" y="1440.23">′</text><path d="M2256.93 1455.85 2290.02 1455.85 2290.02 1459.42 2256.93 1459.42ZM2256.93 1444.71 2290.02 1444.71 2290.02 1448.28 2256.93 1448.28Z" fill-rule="evenodd"/><text fill="#000000" fill-opacity="0" font-family="Arial,Arial_MSFontService,sans-serif" font-size="14.7168" x="2256.93" y="1457.58">=</text><path d="M2311.56 1258.53 2327.73 1258.53 2327.73 1260.95 2317.2 1260.95 2317.2 1315.02 2317.2 1325.05 2317.2 1366.74 2317.2 1382.16 2317.2 1418.47 2317.2 1433.88 2317.2 1470.21 2317.2 1485.61 2317.2 1521.96 2317.2 1537.35 2317.2 1579.09 2317.2 1589.1 2317.2 1643.19 2327.73 1643.19 2327.73 1645.61 2311.56 1645.61 2311.56 1589.1 2311.56 1589.1 2311.56 1537.35 2311.56 1521.96 2311.56 1485.61 2311.56 1470.21 2311.56 1433.88 2311.56 1418.47 2311.56 1382.16 2311.56 1366.74 2311.56 1315.02 2311.56 1315.02ZM2360.08 1258.53 2376.24 1258.53 2376.24 1315.02 2376.24 1325.05 2376.24 1366.74 2376.24 1382.16 2376.24 1418.47 2376.24 1433.88 2376.24 1470.21 2376.24 1485.61 2376.24 1521.96 2376.24 1537.35 2376.24 1579.09 2376.24 1589.1 2376.24 1645.61 2360.08 1645.61 2360.08 1643.19 2370.6 1643.19 2370.6 1589.1 2370.6 1579.09 2370.6 1537.35 2370.6 1521.96 2370.6 1485.61 2370.6 1470.21 2370.6 1433.88 2370.6 1418.47 2370.6 1382.16 2370.6 1366.74 2370.6 1325.05 2370.6 1315.02 2370.6 1260.95 2360.08 1260.95Z" fill-rule="evenodd"/><path d="M2346.07 1249.9 2347.54 1249.9C2347.44 1251.62 2347.38 1254 2347.38 1257.04L2347.38 1279.98C2347.38 1281.02 2347.44 1281.8 2347.56 1282.33 2347.67 1282.86 2347.88 1283.28 2348.17 1283.62 2348.47 1283.95 2348.9 1284.21 2349.45 1284.39 2350 1284.58 2350.7 1284.73 2351.54 1284.82 2352.39 1284.92 2353.5 1284.99 2354.87 1285.03L2354.87 1286.99 2335.03 1286.99 2335.03 1285.03C2337.02 1284.94 2338.43 1284.82 2339.29 1284.66 2340.14 1284.51 2340.78 1284.28 2341.23 1283.98 2341.68 1283.67 2342.01 1283.24 2342.21 1282.69 2342.42 1282.13 2342.52 1281.23 2342.52 1279.98L2342.52 1258.2C2342.52 1257.48 2342.4 1256.96 2342.15 1256.63 2341.89 1256.3 2341.53 1256.13 2341.04 1256.13 2340.47 1256.13 2339.66 1256.42 2338.6 1257.02 2337.54 1257.61 2336.24 1258.42 2334.68 1259.46L2333.5 1257.39Z" fill-rule="evenodd"/><text fill="#000000" fill-opacity="0" font-family="Arial,Arial_MSFontService,sans-serif" font-size="37.0874" x="2333.5" y="1282.35">1</text><path d="M2346.07 1314.39 2347.54 1314.39C2347.44 1316.11 2347.38 1318.49 2347.38 1321.53L2347.38 1344.46C2347.38 1345.5 2347.44 1346.29 2347.56 1346.81 2347.67 1347.34 2347.88 1347.77 2348.17 1348.1 2348.47 1348.43 2348.9 1348.69 2349.45 1348.88 2350 1349.07 2350.7 1349.21 2351.54 1349.31 2352.39 1349.41 2353.5 1349.48 2354.87 1349.51L2354.87 1351.47 2335.03 1351.47 2335.03 1349.51C2337.02 1349.42 2338.43 1349.3 2339.29 1349.15 2340.14 1349 2340.78 1348.77 2341.23 1348.47 2341.68 1348.16 2342.01 1347.73 2342.21 1347.18 2342.42 1346.62 2342.52 1345.72 2342.52 1344.46L2342.52 1322.68C2342.52 1321.97 2342.4 1321.44 2342.15 1321.11 2341.89 1320.78 2341.53 1320.62 2341.04 1320.62 2340.47 1320.62 2339.66 1320.91 2338.6 1321.5 2337.54 1322.09 2336.24 1322.91 2334.68 1323.95L2333.5 1321.88Z" fill-rule="evenodd"/><text fill="#000000" fill-opacity="0" font-family="Arial,Arial_MSFontService,sans-serif" font-size="37.0874" x="2333.5" y="1346.84">1</text><path d="M2346.07 1369.02 2347.54 1369.02C2347.44 1370.74 2347.38 1373.12 2347.38 1376.16L2347.38 1399.1C2347.38 1400.14 2347.44 1400.92 2347.56 1401.45 2347.67 1401.98 2347.88 1402.41 2348.17 1402.74 2348.47 1403.07 2348.9 1403.33 2349.45 1403.52 2350 1403.7 2350.7 1403.85 2351.54 1403.95 2352.39 1404.04 2353.5 1404.11 2354.87 1404.15L2354.87 1406.11 2335.03 1406.11 2335.03 1404.15C2337.02 1404.06 2338.43 1403.94 2339.29 1403.78 2340.14 1403.63 2340.78 1403.4 2341.23 1403.1 2341.68 1402.8 2342.01 1402.37 2342.21 1401.81 2342.42 1401.26 2342.52 1400.35 2342.52 1399.1L2342.52 1377.32C2342.52 1376.6 2342.4 1376.08 2342.15 1375.75 2341.89 1375.42 2341.53 1375.25 2341.04 1375.25 2340.47 1375.25 2339.66 1375.55 2338.6 1376.14 2337.54 1376.73 2336.24 1377.54 2334.68 1378.58L2333.5 1376.51Z" fill-rule="evenodd"/><text fill="#000000" fill-opacity="0" font-family="Arial,Arial_MSFontService,sans-serif" font-size="37.0874" x="2333.5" y="1401.47">1</text><path d="M2346.07 1433.51 2347.54 1433.51C2347.44 1435.23 2347.38 1437.61 2347.38 1440.65L2347.38 1463.59C2347.38 1464.62 2347.44 1465.41 2347.56 1465.94 2347.67 1466.46 2347.88 1466.89 2348.17 1467.22 2348.47 1467.56 2348.9 1467.82 2349.45 1468 2350 1468.19 2350.7 1468.33 2351.54 1468.43 2352.39 1468.53 2353.5 1468.6 2354.87 1468.63L2354.87 1470.59 2335.03 1470.59 2335.03 1468.63C2337.02 1468.54 2338.43 1468.42 2339.29 1468.27 2340.14 1468.12 2340.78 1467.89 2341.23 1467.59 2341.68 1467.28 2342.01 1466.85 2342.21 1466.3 2342.42 1465.74 2342.52 1464.84 2342.52 1463.59L2342.52 1441.81C2342.52 1441.09 2342.4 1440.57 2342.15 1440.23 2341.89 1439.9 2341.53 1439.74 2341.04 1439.74 2340.47 1439.74 2339.66 1440.03 2338.6 1440.62 2337.54 1441.21 2336.24 1442.03 2334.68 1443.07L2333.5 1441Z" fill-rule="evenodd"/><text fill="#000000" fill-opacity="0" font-family="Arial,Arial_MSFontService,sans-serif" font-size="37.0874" x="2333.5" y="1465.96">1</text><path d="M2346.07 1488.14 2347.54 1488.14C2347.44 1489.86 2347.38 1492.24 2347.38 1495.28L2347.38 1518.22C2347.38 1519.26 2347.44 1520.04 2347.56 1520.57 2347.67 1521.1 2347.88 1521.53 2348.17 1521.86 2348.47 1522.19 2348.9 1522.45 2349.45 1522.64 2350 1522.82 2350.7 1522.97 2351.54 1523.07 2352.39 1523.16 2353.5 1523.23 2354.87 1523.27L2354.87 1525.23 2335.03 1525.23 2335.03 1523.27C2337.02 1523.18 2338.43 1523.06 2339.29 1522.91 2340.14 1522.75 2340.78 1522.52 2341.23 1522.22 2341.68 1521.92 2342.01 1521.49 2342.21 1520.93 2342.42 1520.38 2342.52 1519.47 2342.52 1518.22L2342.52 1496.44C2342.52 1495.72 2342.4 1495.2 2342.15 1494.87 2341.89 1494.54 2341.53 1494.37 2341.04 1494.37 2340.47 1494.37 2339.66 1494.67 2338.6 1495.26 2337.54 1495.85 2336.24 1496.66 2334.68 1497.7L2333.5 1495.63Z" fill-rule="evenodd"/><text fill="#000000" fill-opacity="0" font-family="Arial,Arial_MSFontService,sans-serif" font-size="37.0874" x="2333.5" y="1520.59">1</text><path d="M2346.07 1552.63 2347.54 1552.63C2347.44 1554.35 2347.38 1556.73 2347.38 1559.77L2347.38 1582.71C2347.38 1583.74 2347.44 1584.53 2347.56 1585.06 2347.67 1585.58 2347.88 1586.01 2348.17 1586.35 2348.47 1586.68 2348.9 1586.94 2349.45 1587.12 2350 1587.31 2350.7 1587.46 2351.54 1587.55 2352.39 1587.65 2353.5 1587.72 2354.87 1587.76L2354.87 1589.72 2335.03 1589.72 2335.03 1587.76C2337.02 1587.67 2338.43 1587.54 2339.29 1587.39 2340.14 1587.24 2340.78 1587.01 2341.23 1586.71 2341.68 1586.4 2342.01 1585.97 2342.21 1585.42 2342.42 1584.86 2342.52 1583.96 2342.52 1582.71L2342.52 1560.93C2342.52 1560.21 2342.4 1559.69 2342.15 1559.36 2341.89 1559.02 2341.53 1558.86 2341.04 1558.86 2340.47 1558.86 2339.66 1559.15 2338.6 1559.74 2337.54 1560.34 2336.24 1561.15 2334.68 1562.19L2333.5 1560.12Z" fill-rule="evenodd"/><text fill="#000000" fill-opacity="0" font-family="Arial,Arial_MSFontService,sans-serif" font-size="37.0874" x="2333.5" y="1585.08">1</text><path d="M2346.07 1617.12 2347.54 1617.12C2347.44 1618.83 2347.38 1621.22 2347.38 1624.26L2347.38 1647.19C2347.38 1648.23 2347.44 1649.02 2347.56 1649.54 2347.67 1650.07 2347.88 1650.5 2348.17 1650.83 2348.47 1651.16 2348.9 1651.42 2349.45 1651.61 2350 1651.8 2350.7 1651.94 2351.54 1652.04 2352.39 1652.14 2353.5 1652.21 2354.87 1652.24L2354.87 1654.2 2335.03 1654.2 2335.03 1652.24C2337.02 1652.15 2338.43 1652.03 2339.29 1651.88 2340.14 1651.73 2340.78 1651.5 2341.23 1651.2 2341.68 1650.89 2342.01 1650.46 2342.21 1649.91 2342.42 1649.35 2342.52 1648.45 2342.52 1647.19L2342.52 1625.41C2342.52 1624.7 2342.4 1624.17 2342.15 1623.84 2341.89 1623.51 2341.53 1623.35 2341.04 1623.35 2340.47 1623.35 2339.66 1623.64 2338.6 1624.23 2337.54 1624.82 2336.24 1625.64 2334.68 1626.68L2333.5 1624.61Z" fill-rule="evenodd"/><text fill="#000000" fill-opacity="0" font-family="Arial,Arial_MSFontService,sans-serif" font-size="37.0874" x="2333.5" y="1649.57">1</text><path d="M2587.31 1252.39 2603.48 1252.39 2603.48 1254.81 2592.95 1254.81 2592.95 1309.02 2592.95 1318.91 2592.95 1360.9 2592.95 1376.16 2592.95 1412.78 2592.95 1428.04 2592.95 1464.67 2592.95 1479.92 2592.95 1516.55 2592.95 1531.81 2592.95 1573.82 2592.95 1583.69 2592.95 1637.92 2603.48 1637.92 2603.48 1640.34 2587.31 1640.34 2587.31 1583.69 2587.31 1573.82 2587.31 1531.81 2587.31 1516.55 2587.31 1479.92 2587.31 1464.67 2587.31 1428.04 2587.31 1412.78 2587.31 1376.16 2587.31 1360.9 2587.31 1318.91 2587.31 1309.02ZM2635.82 1252.39 2651.99 1252.39 2651.99 1309.02 2651.99 1318.91 2651.99 1360.9 2651.99 1376.16 2651.99 1412.78 2651.99 1428.04 2651.99 1464.67 2651.99 1479.92 2651.99 1516.55 2651.99 1531.81 2651.99 1573.82 2651.99 1583.69 2651.99 1640.34 2635.82 1640.34 2635.82 1637.92 2646.35 1637.92 2646.35 1583.69 2646.35 1573.82 2646.35 1531.81 2646.35 1516.55 2646.35 1479.92 2646.35 1464.67 2646.35 1428.04 2646.35 1412.78 2646.35 1376.16 2646.35 1360.9 2646.35 1318.91 2646.35 1309.02 2646.35 1254.81 2635.82 1254.81Z" fill-rule="evenodd"/><path d="M2621.81 1243.76 2623.29 1243.76C2623.18 1245.48 2623.13 1247.86 2623.13 1250.9L2623.13 1273.84C2623.13 1274.88 2623.19 1275.66 2623.3 1276.19 2623.42 1276.72 2623.63 1277.14 2623.92 1277.48 2624.22 1277.81 2624.64 1278.07 2625.2 1278.25 2625.75 1278.44 2626.45 1278.59 2627.29 1278.68 2628.13 1278.78 2629.24 1278.85 2630.62 1278.89L2630.62 1280.85 2610.78 1280.85 2610.78 1278.89C2612.76 1278.8 2614.18 1278.68 2615.03 1278.52 2615.88 1278.37 2616.53 1278.14 2616.98 1277.84 2617.43 1277.53 2617.75 1277.1 2617.96 1276.55 2618.16 1275.99 2618.27 1275.09 2618.27 1273.84L2618.27 1252.06C2618.27 1251.34 2618.14 1250.82 2617.89 1250.49 2617.64 1250.16 2617.27 1249.99 2616.79 1249.99 2616.22 1249.99 2615.4 1250.28 2614.35 1250.88 2613.29 1251.47 2611.98 1252.28 2610.43 1253.32L2609.24 1251.25Z" fill-rule="evenodd"/><text fill="#000000" fill-opacity="0" font-family="Arial,Arial_MSFontService,sans-serif" font-size="37.0874" x="2609.24" y="1276.21">1</text><path d="M2621.81 1308.25 2623.29 1308.25C2623.18 1309.97 2623.13 1312.35 2623.13 1315.39L2623.13 1338.32C2623.13 1339.36 2623.19 1340.15 2623.3 1340.67 2623.42 1341.2 2623.63 1341.63 2623.92 1341.96 2624.22 1342.29 2624.64 1342.55 2625.2 1342.74 2625.75 1342.93 2626.45 1343.07 2627.29 1343.17 2628.13 1343.27 2629.24 1343.34 2630.62 1343.37L2630.62 1345.33 2610.78 1345.33 2610.78 1343.37C2612.76 1343.28 2614.18 1343.16 2615.03 1343.01 2615.88 1342.86 2616.53 1342.63 2616.98 1342.33 2617.43 1342.02 2617.75 1341.59 2617.96 1341.04 2618.16 1340.48 2618.27 1339.58 2618.27 1338.32L2618.27 1316.54C2618.27 1315.83 2618.14 1315.3 2617.89 1314.97 2617.64 1314.64 2617.27 1314.48 2616.79 1314.48 2616.22 1314.48 2615.4 1314.77 2614.35 1315.36 2613.29 1315.95 2611.98 1316.77 2610.43 1317.81L2609.24 1315.74Z" fill-rule="evenodd"/><text fill="#000000" fill-opacity="0" font-family="Arial,Arial_MSFontService,sans-serif" font-size="37.0874" x="2609.24" y="1340.7">1</text><path d="M2619.69 1365.16C2618.46 1365.16 2617.42 1365.53 2616.59 1366.26 2615.76 1367 2615.09 1368.05 2614.58 1369.43 2614.06 1370.81 2613.7 1372.49 2613.49 1374.47 2613.27 1376.45 2613.17 1378.68 2613.17 1381.17 2613.17 1387 2613.71 1391.29 2614.79 1394.02 2615.87 1396.75 2617.55 1398.11 2619.83 1398.11 2621.99 1398.11 2623.6 1396.83 2624.65 1394.26 2625.69 1391.69 2626.22 1387.71 2626.22 1382.32 2626.22 1378.21 2625.95 1374.87 2625.41 1372.32 2624.87 1369.77 2624.13 1367.94 2623.17 1366.83 2622.21 1365.72 2621.05 1365.16 2619.69 1365.16ZM2619.83 1362.88C2623.75 1362.88 2626.66 1364.39 2628.58 1367.42 2630.5 1370.44 2631.45 1375.02 2631.45 1381.14 2631.45 1387.48 2630.43 1392.27 2628.38 1395.52 2626.33 1398.77 2623.33 1400.4 2619.4 1400.4 2615.53 1400.4 2612.65 1398.88 2610.76 1395.83 2608.87 1392.79 2607.93 1388.17 2607.93 1381.97 2607.93 1378.68 2608.22 1375.83 2608.8 1373.43 2609.38 1371.03 2610.2 1369.05 2611.25 1367.49 2612.29 1365.92 2613.55 1364.76 2615.02 1364.01 2616.49 1363.26 2618.09 1362.88 2619.83 1362.88Z" fill-rule="evenodd"/><text fill="#000000" fill-opacity="0" font-family="Arial,Arial_MSFontService,sans-serif" font-size="37.5171" x="2607.93" y="1395.71">0</text><path d="M2619.69 1429.65C2618.46 1429.65 2617.42 1430.02 2616.59 1430.75 2615.76 1431.49 2615.09 1432.54 2614.58 1433.92 2614.06 1435.3 2613.7 1436.98 2613.49 1438.96 2613.27 1440.93 2613.17 1443.17 2613.17 1445.66 2613.17 1451.49 2613.71 1455.78 2614.79 1458.51 2615.87 1461.24 2617.55 1462.6 2619.83 1462.6 2621.99 1462.6 2623.6 1461.32 2624.65 1458.75 2625.69 1456.18 2626.22 1452.2 2626.22 1446.81 2626.22 1442.69 2625.95 1439.36 2625.41 1436.81 2624.87 1434.26 2624.13 1432.43 2623.17 1431.32 2622.21 1430.21 2621.05 1429.65 2619.69 1429.65ZM2619.83 1427.37C2623.75 1427.37 2626.66 1428.88 2628.58 1431.91 2630.5 1434.93 2631.45 1439.51 2631.45 1445.63 2631.45 1451.97 2630.43 1456.76 2628.38 1460.01 2626.33 1463.26 2623.33 1464.88 2619.4 1464.88 2615.53 1464.88 2612.65 1463.36 2610.76 1460.32 2608.87 1457.28 2607.93 1452.66 2607.93 1446.46 2607.93 1443.17 2608.22 1440.32 2608.8 1437.92 2609.38 1435.52 2610.2 1433.54 2611.25 1431.97 2612.29 1430.41 2613.55 1429.25 2615.02 1428.5 2616.49 1427.74 2618.09 1427.37 2619.83 1427.37Z" fill-rule="evenodd"/><text fill="#000000" fill-opacity="0" font-family="Arial,Arial_MSFontService,sans-serif" font-size="37.5171" x="2607.93" y="1460.19">0</text><path d="M2619.69 1484.72C2618.46 1484.72 2617.42 1485.09 2616.59 1485.82 2615.76 1486.55 2615.09 1487.61 2614.58 1488.99 2614.06 1490.37 2613.7 1492.05 2613.49 1494.02 2613.27 1496 2613.17 1498.24 2613.17 1500.72 2613.17 1506.56 2613.71 1510.84 2614.79 1513.57 2615.87 1516.31 2617.55 1517.67 2619.83 1517.67 2621.99 1517.67 2623.6 1516.39 2624.65 1513.82 2625.69 1511.25 2626.22 1507.27 2626.22 1501.88 2626.22 1497.76 2625.95 1494.43 2625.41 1491.88 2624.87 1489.32 2624.13 1487.49 2623.17 1486.38 2622.21 1485.27 2621.05 1484.72 2619.69 1484.72ZM2619.83 1482.44C2623.75 1482.44 2626.66 1483.95 2628.58 1486.97 2630.5 1490 2631.45 1494.57 2631.45 1500.7 2631.45 1507.04 2630.43 1511.83 2628.38 1515.08 2626.33 1518.33 2623.33 1519.95 2619.4 1519.95 2615.53 1519.95 2612.65 1518.43 2610.76 1515.39 2608.87 1512.34 2607.93 1507.72 2607.93 1501.53 2607.93 1498.24 2608.22 1495.39 2608.8 1492.99 2609.38 1490.59 2610.2 1488.61 2611.25 1487.04 2612.29 1485.48 2613.55 1484.32 2615.02 1483.56 2616.49 1482.81 2618.09 1482.44 2619.83 1482.44Z" fill-rule="evenodd"/><text fill="#000000" fill-opacity="0" font-family="Arial,Arial_MSFontService,sans-serif" font-size="37.5171" x="2607.93" y="1515.26">0</text><path d="M2621.81 1546.92 2623.29 1546.92C2623.18 1548.64 2623.13 1551.02 2623.13 1554.07L2623.13 1577C2623.13 1578.04 2623.19 1578.82 2623.3 1579.35 2623.42 1579.88 2623.63 1580.31 2623.92 1580.64 2624.22 1580.97 2624.64 1581.23 2625.2 1581.42 2625.75 1581.61 2626.45 1581.75 2627.29 1581.85 2628.13 1581.95 2629.24 1582.01 2630.62 1582.05L2630.62 1584.01 2610.78 1584.01 2610.78 1582.05C2612.76 1581.96 2614.18 1581.84 2615.03 1581.69 2615.88 1581.54 2616.53 1581.31 2616.98 1581 2617.43 1580.7 2617.75 1580.27 2617.96 1579.71 2618.16 1579.16 2618.27 1578.26 2618.27 1577L2618.27 1555.22C2618.27 1554.51 2618.14 1553.98 2617.89 1553.65 2617.64 1553.32 2617.27 1553.15 2616.79 1553.15 2616.22 1553.15 2615.4 1553.45 2614.35 1554.04 2613.29 1554.63 2611.98 1555.45 2610.43 1556.48L2609.24 1554.42Z" fill-rule="evenodd"/><text fill="#000000" fill-opacity="0" font-family="Arial,Arial_MSFontService,sans-serif" font-size="37.0874" x="2609.24" y="1579.38">1</text><path d="M2619.69 1613.69C2618.46 1613.69 2617.42 1614.06 2616.59 1614.79 2615.76 1615.53 2615.09 1616.59 2614.58 1617.96 2614.06 1619.34 2613.7 1621.02 2613.49 1623 2613.27 1624.98 2613.17 1627.21 2613.17 1629.7 2613.17 1635.54 2613.71 1639.82 2614.79 1642.55 2615.87 1645.28 2617.55 1646.65 2619.83 1646.65 2621.99 1646.65 2623.6 1645.36 2624.65 1642.79 2625.69 1640.22 2626.22 1636.24 2626.22 1630.85 2626.22 1626.74 2625.95 1623.4 2625.41 1620.85 2624.87 1618.3 2624.13 1616.47 2623.17 1615.36 2622.21 1614.25 2621.05 1613.69 2619.69 1613.69ZM2619.83 1611.41C2623.75 1611.41 2626.66 1612.92 2628.58 1615.95 2630.5 1618.98 2631.45 1623.55 2631.45 1629.67 2631.45 1636.01 2630.43 1640.8 2628.38 1644.05 2626.33 1647.3 2623.33 1648.93 2619.4 1648.93 2615.53 1648.93 2612.65 1647.41 2610.76 1644.36 2608.87 1641.32 2607.93 1636.7 2607.93 1630.51 2607.93 1627.21 2608.22 1624.36 2608.8 1621.97 2609.38 1619.57 2610.2 1617.58 2611.25 1616.02 2612.29 1614.45 2613.55 1613.29 2615.02 1612.54 2616.49 1611.79 2618.09 1611.41 2619.83 1611.41Z" fill-rule="evenodd"/><text fill="#000000" fill-opacity="0" font-family="Arial,Arial_MSFontService,sans-serif" font-size="37.5171" x="2607.93" y="1644.24">0</text><path d="M2673.37 1450.15 2706.45 1450.15 2706.45 1453.72 2673.37 1453.72ZM2673.37 1439 2706.45 1439 2706.45 1442.57 2673.37 1442.57Z" fill-rule="evenodd"/><text fill="#000000" fill-opacity="0" font-family="Arial,Arial_MSFontService,sans-serif" font-size="14.7168" x="2673.37" y="1451.88">=</text><path d="M2739.89 1423.67 2741.45 1423.67 2736.83 1442.28 2737.15 1442.39C2738.85 1440.13 2740.46 1438.5 2741.97 1437.49 2743.49 1436.47 2745.01 1435.97 2746.55 1435.97 2748.22 1435.97 2749.5 1436.45 2750.39 1437.4 2751.29 1438.36 2751.73 1439.69 2751.73 1441.39 2751.73 1442.52 2751.48 1444.12 2750.96 1446.2L2749.21 1453.24C2748.73 1455.19 2748.49 1456.57 2748.49 1457.37 2748.49 1458.09 2748.6 1458.61 2748.83 1458.93 2749.07 1459.25 2749.43 1459.41 2749.94 1459.41 2750.47 1459.41 2751.05 1459.19 2751.65 1458.75 2752.26 1458.32 2753.12 1457.48 2754.23 1456.24L2755.76 1457.75C2754.04 1459.56 2752.63 1460.8 2751.53 1461.48 2750.43 1462.16 2749.19 1462.5 2747.81 1462.5 2746.65 1462.5 2745.72 1462.09 2745.03 1461.27 2744.34 1460.44 2744 1459.38 2744 1458.07 2744 1456.91 2744.3 1455.2 2744.89 1452.94L2746.04 1448.29C2746.45 1446.63 2746.73 1445.38 2746.87 1444.55 2747.02 1443.72 2747.09 1443.07 2747.09 1442.6 2747.09 1441.33 2746.88 1440.43 2746.47 1439.9 2746.06 1439.37 2745.39 1439.11 2744.46 1439.11 2743.72 1439.11 2742.91 1439.41 2742.01 1440.02 2741.12 1440.63 2740.18 1441.56 2739.19 1442.8 2738.21 1444.05 2737.43 1445.24 2736.84 1446.37 2736.26 1447.51 2735.8 1448.87 2735.46 1450.44L2733.02 1462.07 2728.37 1462.07 2735.27 1431.38C2735.7 1429.46 2735.92 1428.13 2735.92 1427.4 2735.92 1426.65 2735.69 1426.12 2735.23 1425.82 2734.78 1425.51 2733.96 1425.34 2732.77 1425.31L2733.1 1423.91Z" fill-rule="evenodd"/><text fill="#000000" fill-opacity="0" font-family="Arial,Arial_MSFontService,sans-serif" font-size="38.833" x="2728.37" y="1457.65">ℎ</text><path d="M2757.65 1448.38 2780.85 1448.38 2780.85 1455.59 2778.65 1455.59C2778.37 1454.57 2778.11 1453.74 2777.86 1453.1 2777.6 1452.45 2777.31 1451.95 2776.97 1451.58 2776.63 1451.2 2776.23 1450.95 2775.76 1450.8 2775.29 1450.66 2774.7 1450.58 2774 1450.55L2771.34 1450.55 2771.34 1470.02C2771.36 1470.67 2771.39 1471.21 2771.44 1471.63 2771.49 1472.06 2771.61 1472.41 2771.8 1472.68 2771.99 1472.95 2772.27 1473.17 2772.65 1473.33 2773.03 1473.5 2773.56 1473.65 2774.23 1473.79L2774.23 1475.04 2764.27 1475.04 2764.27 1473.79C2764.78 1473.7 2765.21 1473.6 2765.57 1473.5 2765.93 1473.4 2766.23 1473.22 2766.46 1472.98 2766.69 1472.74 2766.87 1472.39 2766.98 1471.93 2767.09 1471.46 2767.14 1470.83 2767.14 1470.02L2767.14 1450.55 2764.51 1450.55C2764.13 1450.55 2763.8 1450.57 2763.52 1450.6 2763.24 1450.63 2762.99 1450.69 2762.77 1450.76 2762.55 1450.84 2762.34 1450.94 2762.16 1451.07 2761.98 1451.19 2761.8 1451.34 2761.64 1451.51 2761.31 1451.82 2761 1452.29 2760.72 1452.9 2760.43 1453.52 2760.16 1454.42 2759.9 1455.59L2757.65 1455.59Z" fill-rule="evenodd"/><text fill="#000000" fill-opacity="0" font-family="Arial,Arial_MSFontService,sans-serif" font-size="26.6602" x="2757.65" y="1471.71">T</text><path d="M2792.43 1463.28C2793.67 1463.28 2794.69 1463.41 2795.5 1463.68 2796.31 1463.95 2796.96 1464.3 2797.44 1464.73 2797.93 1465.16 2798.26 1465.66 2798.46 1466.24 2798.65 1466.82 2798.75 1467.42 2798.75 1468.03 2798.75 1468.8 2798.59 1469.52 2798.28 1470.18 2797.97 1470.84 2797.46 1471.56 2796.75 1472.34 2796.04 1473.12 2794.77 1474.33 2792.95 1475.99 2791 1477.75 2789.59 1479.28 2788.71 1480.56L2794.53 1480.56C2795.07 1480.56 2795.49 1480.54 2795.78 1480.48 2796.07 1480.43 2796.3 1480.35 2796.48 1480.23 2796.65 1480.12 2796.79 1479.98 2796.91 1479.81 2797.03 1479.64 2797.21 1479.26 2797.44 1478.68L2799.07 1478.68 2798.73 1483.22 2784.94 1483.22 2784.94 1482.34C2785.48 1481.19 2786.2 1480.06 2787.11 1478.95 2788.03 1477.83 2789.09 1476.69 2790.3 1475.51 2791.77 1474.11 2792.8 1473.06 2793.41 1472.35 2794.03 1471.64 2794.48 1470.96 2794.78 1470.32 2795.07 1469.69 2795.22 1469.04 2795.22 1468.4 2795.22 1467.34 2794.92 1466.5 2794.32 1465.89 2793.72 1465.27 2792.85 1464.97 2791.72 1464.97 2790.74 1464.97 2789.92 1465.22 2789.23 1465.74 2788.55 1466.26 2788.03 1467.02 2787.68 1468.03L2785.44 1468.03 2785.44 1464.85C2786.83 1464.28 2788.12 1463.88 2789.3 1463.64 2790.47 1463.4 2791.52 1463.28 2792.43 1463.28Z" fill-rule="evenodd"/><text fill="#000000" fill-opacity="0" font-family="Arial,Arial_MSFontService,sans-serif" font-size="19.9482" x="2784.94" y="1480.73">2</text><path d="M2763.86 1419.51 2768.9 1419.51 2768.9 1421.03 2762.4 1436.67 2760.11 1435.99Z" fill-rule="evenodd"/><text fill="#000000" fill-opacity="0" font-family="Arial,Arial_MSFontService,sans-serif" font-size="17.168" x="2760.11" y="1434.53">′</text><text fill="#A6A6A6" font-family="Cambria Math,Cambria Math_MSFontService,sans-serif" font-weight="400" font-size="37" transform="matrix(1 0 0 1 2461.81 745)">N</text><text fill="#A6A6A6" font-family="Cambria Math,Cambria Math_MSFontService,sans-serif" font-weight="400" font-size="27" transform="matrix(1 0 0 1 2486.17 752)">1</text><text fill="#A6A6A6" font-family="Cambria Math,Cambria Math_MSFontService,sans-serif" font-weight="400" font-size="37" transform="matrix(1 0 0 1 2461.67 807)">N</text><text fill="#A6A6A6" font-family="Cambria Math,Cambria Math_MSFontService,sans-serif" font-weight="400" font-size="27" transform="matrix(1 0 0 1 2486.88 814)">3</text><text fill="#A6A6A6" font-family="Cambria Math,Cambria Math_MSFontService,sans-serif" font-weight="400" font-size="37" transform="matrix(1 0 0 1 2461.67 867)">N</text><text fill="#A6A6A6" font-family="Cambria Math,Cambria Math_MSFontService,sans-serif" font-weight="400" font-size="27" transform="matrix(1 0 0 1 2486.88 874)">5</text><text fill="#A6A6A6" font-family="Cambria Math,Cambria Math_MSFontService,sans-serif" font-weight="400" font-size="37" transform="matrix(1 0 0 1 2461.67 927)">N</text><text fill="#A6A6A6" font-family="Cambria Math,Cambria Math_MSFontService,sans-serif" font-weight="400" font-size="27" transform="matrix(1 0 0 1 2486.88 934)">6</text><text fill="#A6A6A6" font-family="Cambria Math,Cambria Math_MSFontService,sans-serif" font-weight="400" font-size="37" transform="matrix(1 0 0 1 2461.67 987)">N</text><text fill="#A6A6A6" font-family="Cambria Math,Cambria Math_MSFontService,sans-serif" font-weight="400" font-size="27" transform="matrix(1 0 0 1 2486.88 995)">7</text><text fill="#A6A6A6" font-family="Cambria Math,Cambria Math_MSFontService,sans-serif" font-weight="400" font-size="37" transform="matrix(1 0 0 1 2461.67 1051)">N</text><text fill="#A6A6A6" font-family="Cambria Math,Cambria Math_MSFontService,sans-serif" font-weight="400" font-size="27" transform="matrix(1 0 0 1 2486.88 1059)">8</text><text fill="#A6A6A6" font-family="Cambria Math,Cambria Math_MSFontService,sans-serif" font-weight="400" font-size="37" transform="matrix(1 0 0 1 2461.67 1118)">N</text><text fill="#A6A6A6" font-family="Cambria Math,Cambria Math_MSFontService,sans-serif" font-weight="400" font-size="27" transform="matrix(1 0 0 1 2486.88 1125)">9</text><path d="M2415 764 2541.67 764.001" stroke="#A5A5A5" stroke-width="2.29167" stroke-miterlimit="8" fill="none" fill-rule="evenodd"/><path d="M2415 827 2541.67 827" stroke="#A5A5A5" stroke-width="2.29167" stroke-miterlimit="8" fill="none" fill-rule="evenodd"/><path d="M2415 889 2541.67 889" stroke="#A5A5A5" stroke-width="2.29167" stroke-miterlimit="8" fill="none" fill-rule="evenodd"/><path d="M2415 953 2541.67 953" stroke="#A5A5A5" stroke-width="2.29167" stroke-miterlimit="8" fill="none" fill-rule="evenodd"/><path d="M2415 1014 2541.67 1014" stroke="#A5A5A5" stroke-width="2.29167" stroke-miterlimit="8" fill="none" fill-rule="evenodd"/><path d="M2415 1076 2541.67 1076" stroke="#A5A5A5" stroke-width="2.29167" stroke-miterlimit="8" fill="none" fill-rule="evenodd"/><path d="M0 0 236.626 2.77526" stroke="#AAAFA3" stroke-width="3.4375" stroke-linejoin="round" stroke-miterlimit="10" stroke-dasharray="13.75 10.3125" fill="#3C8F58" fill-rule="evenodd" transform="matrix(1 0 0 -1 1377.5 962.275)"/></g></svg>